<?xml version="1.0" encoding="UTF-8"?>
<svg width="196px" height="68px" viewBox="0 0 196 68" version="1.1" xmlns="http://www.w3.org/2000/svg" xmlns:xlink="http://www.w3.org/1999/xlink">
    <title>bte_Group 8</title>
    <g id="Design" stroke="none" stroke-width="1" fill="none" fill-rule="evenodd">
        <g id="Desktop-HD-Copy-5" transform="translate(-195.000000, -635.000000)">
            <g id="Group" transform="translate(170.000000, 557.000000)">
                <g id="Group-8" transform="translate(25.000000, 78.000000)">
                    <g id="Group-2" transform="translate(0.000000, 26.794131)" fill="#FFFFFF">
                        <path d="M5.41877501,9 C6.22575181,9 7.03546281,9.08333131 7.84751739,9.25038331 C8.29826823,9.34306019 8.73144213,9.45520699 9.14703908,9.58682372 C9.67669085,9.75465453 9.93214236,10.361727 9.6903618,10.8601572 C9.68879941,10.8632724 9.68723701,10.8663876 9.68567462,10.8695028 C9.65598912,10.9306384 9.62591302,10.991774 9.59505573,11.0525201 C9.38764785,11.4598311 8.90955511,11.6494682 8.47520941,11.5046119 C8.44357092,11.4940982 8.41154183,11.4835844 8.37912215,11.4730707 C8.07875179,11.3749422 7.76392928,11.2912215 7.43426402,11.2226873 C7.10459877,11.1541532 6.76477794,11.0976904 6.41558276,11.0532989 C6.06599697,11.0092969 5.72383255,10.9871012 5.38908951,10.9871012 C5.02505158,10.9871012 4.6731222,11.024094 4.33369197,11.0976904 C3.99387115,11.1712867 3.69389139,11.2912215 3.4329715,11.4582735 C3.1720516,11.6253255 2.96269073,11.8433887 2.80527947,12.113242 C2.64786822,12.3834846 2.56896729,12.7191462 2.56896729,13.121395 C2.56896729,13.5337682 2.65763319,13.8795541 2.83496497,14.1591423 C3.01190616,14.4387306 3.25329612,14.6723697 3.55835366,14.8585023 C3.8634112,15.0450242 4.22041837,15.2019519 4.62898455,15.3292852 C5.03716013,15.457008 5.47306822,15.5746063 5.93553702,15.6828592 C6.65423853,15.8592567 7.32333401,16.05785 7.94360466,16.2786391 C8.56387531,16.4994281 9.10016725,16.7868043 9.55287108,17.1399888 C10.0055749,17.4931734 10.3602385,17.9296892 10.6160806,18.4499258 C10.8719227,18.9701623 11.0000391,19.6126701 11.0000391,20.3782277 C11.0000391,21.1827253 10.8398936,21.8746867 10.5199933,22.4537224 C10.200093,23.0327582 9.76691914,23.5113291 9.22086223,23.8886563 C8.67441472,24.2667624 8.03695773,24.5463506 7.30888186,24.7278104 C6.58041538,24.9092701 5.80273348,25 4.97583615,25 C4.54266225,25 4.09737979,24.9731315 3.63959818,24.9193945 C3.18181657,24.8652681 2.72911274,24.7866096 2.28109609,24.6838083 C1.83347004,24.5806177 1.39287477,24.4556207 0.959700872,24.308428 C0.863223007,24.2757186 0.767916937,24.2418409 0.673782664,24.2075738 C0.154677064,24.0187155 -0.0933530763,23.421378 0.15584886,22.9299569 C0.160536043,22.9210008 0.165223227,22.9116552 0.169910411,22.902699 C0.197642915,22.8477938 0.225766017,22.793278 0.254279718,22.7387622 C0.46715598,22.3295042 0.949935906,22.1425929 1.3850628,22.2987418 C1.48310306,22.3337876 1.58231511,22.3680547 1.68308956,22.4023218 C2.0475181,22.5249824 2.421321,22.6305094 2.80527947,22.7185135 C3.18923794,22.806907 3.56811863,22.8781669 3.94231213,22.9319039 C4.31650563,22.9860303 4.67546579,23.0128988 5.01997379,23.0128988 C5.45314769,23.0128988 5.87421303,22.9638346 6.28238862,22.8657062 C6.6909548,22.7679671 7.05538334,22.6133758 7.37528363,22.4023218 C7.69518392,22.1912677 7.95102603,21.9186887 8.14280997,21.5853635 C8.3349845,21.2516489 8.43068117,20.8494001 8.43068117,20.3782277 C8.43068117,19.9366497 8.33967168,19.5737302 8.15765272,19.2890798 C7.97563375,19.0044294 7.73190019,18.7665069 7.42684265,18.5749227 C7.12178511,18.383728 6.76477794,18.2268004 6.35621176,18.1041398 C5.94803618,17.9814792 5.51720587,17.8662172 5.06450204,17.7579644 C4.37548603,17.5913018 3.72318629,17.4001071 3.10799342,17.1839908 C2.49280056,16.968264 1.95650862,16.68595 1.498727,16.3378276 C1.04094539,15.9897053 0.676907453,15.5574728 0.406222592,15.0422984 C0.13553773,14.527124 0,13.8869527 0,13.121395 C0,12.405291 0.147646288,11.7873153 0.442938864,11.2666894 C0.73823144,10.7468422 1.13429847,10.3196719 1.63153054,9.98634671 C2.12876262,9.65263209 2.70450502,9.40497457 3.35914835,9.24298474 C4.01379168,9.08099491 4.7000735,9 5.41877501,9" id="Fill-1"></path>
                        <path d="M19.4525851,11.0857673 C18.8823435,11.0857673 18.7215163,11.1475042 18.2163998,11.3245091 C17.7108861,11.5019049 17.2681149,11.812152 16.8876891,12.2552506 C16.4973357,12.7081176 16.1871973,13.3137638 15.957274,14.0717984 C15.7269536,14.8306144 15.6117933,15.8051187 15.6117933,16.9964833 C15.6117933,18.1780795 15.7269536,19.1506301 15.957274,19.9137443 C16.1871973,20.6768585 16.4973357,21.2797695 16.8876891,21.722868 C17.2681149,22.1757351 17.7108861,22.4887174 18.2163998,22.6610335 C18.7215163,22.8333496 18.8823435,22.8857087 19.4525851,22.8857087 C20.0331514,22.8857087 20.2535443,22.8227996 20.7689855,22.6504835 C21.2844268,22.4785582 21.7371255,22.1655759 22.127479,21.7127088 C22.5178324,21.2696102 22.8255881,20.6663085 23.0507462,19.9031943 C23.2759043,19.1404708 23.3882848,18.1679203 23.3882848,16.9859334 C23.3882848,15.7949595 23.2759043,14.8200645 23.0507462,14.0616392 C22.8255881,13.3032138 22.5178324,12.6979584 22.127479,12.2447006 C21.7371255,11.801602 21.2844268,11.4917456 20.7689855,11.3143499 C20.2535443,11.1369542 20.0331514,11.0857673 19.4525851,11.0857673 M19.4525851,9 C19.9430088,9 20.1260738,9.00273518 20.6562079,9.07658494 C21.1867391,9.1504347 21.7069456,9.29071017 22.2176216,9.49741135 C22.7279005,9.71427176 23.2107792,10.0073264 23.6658606,10.3765752 C24.1213391,10.745824 24.5240028,11.225652 24.8742487,11.8164501 C25.2244946,12.4170167 25.4996878,13.1383218 25.6998283,13.9803653 C25.8999688,14.8224089 26.0000391,15.8242649 26.0000391,16.9859334 C26.0000391,18.1479926 25.8999688,19.1498486 25.6998283,19.9918922 C25.4996878,20.8339357 25.2244946,21.5501612 24.8742487,22.1409593 C24.5240028,22.7415258 24.1213391,23.2291687 23.6658606,23.6031064 C23.2107792,23.9774348 22.7279005,24.2677542 22.2176216,24.4744554 C21.7069456,24.6909251 21.1867391,24.8366709 20.6562079,24.9105207 C20.1260738,24.9843704 19.9525393,25 19.4621156,25 C18.9820166,25 18.8466041,24.9945296 18.3212353,24.9206799 C17.7958664,24.8468301 17.2780425,24.701475 16.7677637,24.4850054 C16.2574848,24.2783042 15.7769887,23.9879848 15.3266725,23.6136563 C14.8763564,23.2393279 14.4760753,22.7520758 14.1258294,22.1511185 C13.7755836,21.5603204 13.5003903,20.8440949 13.3002498,20.0020514 C13.1001093,19.1603986 13.0000391,18.1585425 13.0000391,16.9964833 C13.0000391,15.8348149 13.1001093,14.8325681 13.3002498,13.9909153 C13.5003903,13.1488717 13.7755836,12.4275667 14.1258294,11.8270001 C14.4760753,11.236202 14.8763564,10.7559832 15.3266725,10.3867344 C15.7769887,10.0174856 16.2574848,9.72443099 16.7677637,9.50796132 C17.2780425,9.30126013 17.7934838,9.16098466 18.3136903,9.0871349 C18.8342939,9.01328514 18.9621614,9 19.4525851,9" id="Fill-4"></path>
                        <path d="M38.9529703,23.1217578 C39.1266819,23.6804285 38.8045834,24.2769685 38.2335906,24.4319596 C37.7638966,24.5596223 37.2767919,24.6712783 36.7726722,24.7669278 C35.8898691,24.9340214 35.434816,25 34.6469805,25 C33.4503886,25 32.7515852,24.8453993 31.8739262,24.5010614 C30.9966629,24.1567235 30.2709521,23.6550521 29.6975851,22.9960471 C29.1242182,22.3370422 28.698051,21.527731 28.4186879,20.5681136 C28.1397206,19.6088866 28.0000391,18.5145792 28.0000391,17.284801 C28.0000391,15.9468804 28.1721679,14.7612181 28.5160298,13.7282044 C28.8602873,12.6951907 29.3588673,11.8269282 30.0117696,11.123417 C30.6650677,10.4202962 31.4627956,9.88622112 32.4049535,9.52236293 C33.347507,9.15850475 34.075592,9 35.2721839,9 C35.8803723,9 36.1217484,9.03747895 36.7501174,9.16045677 C37.0263149,9.21472318 37.3040951,9.27523607 37.5842496,9.34160506 C38.1742359,9.48137032 38.5200763,10.0892321 38.342012,10.661567 L38.3285582,10.7052924 C38.1603864,11.245614 37.5886023,11.5466169 37.0342288,11.4029476 C36.877928,11.3623454 36.7259798,11.3260376 36.5779886,11.2932435 C36.1344107,11.1948613 36.0473571,11.177293 35.5586696,11.177293 C33.8634977,11.177293 32.8960151,11.6301637 31.9787863,12.5991509 C31.0615574,13.568138 30.6025473,15.0321597 30.6025473,16.9896542 C30.6025473,17.904375 30.669816,18.7234463 30.8047492,19.4468682 C30.9392866,20.1698997 31.1786842,20.7847888 31.5225461,21.2915355 C31.8668037,21.7982822 32.3353105,22.1843935 32.9284624,22.4498695 C33.52201,22.7153454 33.950947,22.822707 34.8685716,22.822707 C35.4668675,22.822707 35.7205102,22.7723446 36.4133781,22.619696 C36.8094721,22.5326355 37.21902,22.4334724 37.6428129,22.3222068 C38.1896681,22.1789278 38.7559125,22.4885196 38.9221058,23.0222043 L38.9529703,23.1217578 Z" id="Fill-6"></path>
                        <path d="M67.7867189,1 L65.3398841,1 C64.5996929,1 64.0000391,1.52733247 64.0000391,2.24265658 C64.0000391,2.93886289 64.5716678,3.38096186 65.2850704,3.41003684 L65.2896038,3.41043513 C65.930471,3.41043513 66.4509952,3.91626008 66.4448132,4.53559693 C66.4444011,4.59534004 66.4468739,23.7051678 66.4468739,23.7051678 C66.4468739,24.4204919 67.0469398,25 67.7867189,25 C68.5269101,25 69.0000391,24.5427661 69.0000391,23.827442 L69.0000391,2.3649308 C69.0000391,1.64960669 68.5269101,1 67.7867189,1" id="Fill-8"></path>
                        <path d="M58.2225601,22.5378325 C57.3400856,22.751223 55.9663854,22.8365013 55.073677,22.8365013 C53.348089,22.8365013 52.4849015,22.0514736 52.4849015,20.481029 C52.4849015,19.6079973 52.7848326,18.9382316 53.3850884,18.4721215 C53.9853443,18.0060113 54.8308194,17.6648981 55.9219074,17.4487819 C56.6559908,17.3015892 57.4593496,17.2279929 58.3323774,17.2279929 L58.4114931,17.2283823 C59.0172595,17.2287717 59.5076981,17.7147412 59.5076981,18.3140257 L59.5076981,18.7731266 L59.5112406,18.7731266 L59.5112406,21.5674511 C59.4140188,22.3789579 58.8334435,22.389861 58.2225601,22.5378325 M61.9925605,16.7042517 L61.9925605,12.900606 C61.9925605,11.4384142 61.5115686,10.4033926 60.5491912,9.79476259 C59.7060777,9.26479106 58.4858855,9 56.8890081,9 C55.4389474,9 54.0388753,9.20754947 52.6891853,9.6226484 C52.1086099,9.80099297 51.7897855,10.4201368 51.9720271,10.9937209 C52.1526943,11.5622429 52.7627904,11.8780452 53.3406105,11.7086568 C54.5793024,11.3453479 55.7321872,11.1638881 56.7996586,11.1638881 C57.7321216,11.1638881 58.4166101,11.3208158 58.853124,11.6346711 C59.2896379,11.9489158 59.5076981,12.459028 59.5076981,13.1653971 L59.5076981,14.2825817 C59.5076981,14.8880966 59.0078129,15.379907 58.3957487,15.3744555 C58.3371008,15.3736767 58.2812081,15.3736767 58.2280707,15.3736767 C55.8376748,15.3736767 53.9778657,15.7319234 52.6486434,16.4480275 C51.8055299,16.8993405 51.1533175,17.4542335 50.6920061,18.1115384 C50.2306947,18.7688432 50.0000391,19.6126701 50.0000391,20.6430188 C50.0000391,22.0269415 50.4215958,23.0989559 51.2647092,23.8594514 C52.1078227,24.6199469 53.2241018,25 54.6127592,25 C55.9467049,25 57.9678942,24.8154251 59.4691242,24.1752537 C59.5789415,24.1285259 59.6438873,24.1468276 59.7045033,24.1892721 C59.9245315,24.544793 60.3114505,24.783105 60.755443,24.783105 C61.4426867,24.783105 62.0000391,24.21653 62.0000391,23.51717 L62.0000391,16.7805739 C62.0000391,16.7544842 61.9941349,16.7299521 61.9925605,16.7042517" id="Fill-10"></path>
                        <path d="M45.8039639,9 L43.3459859,9 C42.6024238,9 42.0000391,9.37873372 42.0000391,10.0966081 C42.0000391,10.7960857 42.5759271,11.2612043 43.2925786,11.2903992 L43.2954767,11.2907991 C43.9392624,11.2907991 44.4621571,11.7987102 44.455947,12.4206014 C44.455533,12.480191 44.458017,23.7002275 44.458017,23.7002275 C44.458017,24.4181018 45.0608157,25 45.8039639,25 C46.547112,25 47.0000391,24.4181018 47.0000391,23.7002275 L47.0000391,10.0966081 C47.0000391,9.37873372 46.547112,9 45.8039639,9" id="Fill-12"></path>
                        <path d="M45.5196761,5 C45.9213612,5 46.270551,4.85143894 46.5676347,4.55470573 C46.8557746,4.26652839 47.0000391,3.91262639 47.0000391,3.49338864 C47.0000391,3.08309567 46.8557746,2.72491574 46.5676347,2.41923775 C46.270551,2.13961628 45.9213612,2 45.5196761,2 C45.1004927,2 44.7423592,2.13961628 44.4456645,2.41923775 C44.1485809,2.71597096 44.0000391,3.07415089 44.0000391,3.49338864 C44.0000391,3.92118227 44.1485809,4.27508426 44.4456645,4.55470573 C44.7423592,4.85143894 45.1004927,5 45.5196761,5" id="Fill-14"></path>
                        <path d="M75.0000391,11.9751583 C75.0000391,8.47568106 74.9997015,4.97659902 75.000907,1.47712173 C75.000907,1.23444282 74.9948797,0.990182942 75.0197925,0.749480246 C75.067207,0.294160861 75.2833853,0.04792477 75.7414583,0.0419961322 C77.2972993,0.0218387636 78.8531402,0.021443521 80.4085793,0.0419961322 C80.8710723,0.0483200125 81.0920724,0.316294442 81.1065379,0.810742837 C81.1266288,1.49609337 81.1177888,2.18183914 81.1189942,2.86718968 C81.1214052,4.26713869 81.1125652,5.6670877 81.1334597,7.06624623 C81.1370761,7.30260126 81.265658,7.53698007 81.336378,7.77214937 C81.5312599,7.61800479 81.7751637,7.49785106 81.9133893,7.30497271 C83.4029301,5.22599705 84.896891,3.14939284 86.3414282,1.04037874 C86.8368704,0.316689685 87.404238,-0.0382380997 88.3183749,0.00326236503 C89.6970139,0.0657106835 91.0808765,0.0194673084 92.4623282,0.0198625509 C92.6367174,0.0198625509 92.8115084,0.0174910958 92.9858976,0.0250007037 C93.7035453,0.057015348 93.8907927,0.410757405 93.4781252,1.0028307 C93.0349195,1.63917116 92.5643901,2.25733047 92.1010935,2.87983744 C90.5822199,4.92047458 89.0721862,6.9674356 87.5340253,8.99423925 C87.1338142,9.52228326 87.0948378,9.97127876 87.444018,10.5530758 C89.8609558,14.5746684 92.2493645,18.6132565 94.6490241,22.6451255 C95.2581808,23.6688036 95.1111153,23.9691879 93.9185182,23.9873691 C92.3486136,24.0110836 90.7771018,23.9739308 89.2071972,23.9996216 C88.4288749,24.0126646 87.9527201,23.6885657 87.5822435,23.0233726 C86.2703064,20.6681224 84.914571,18.3361915 83.5753102,15.99517 C83.5467811,15.9453695 83.5194575,15.8951737 83.4893211,15.8461636 C83.13773,15.2754334 82.9098989,15.2600189 82.4887932,15.7785771 C82.4614696,15.8117775 82.436155,15.8465588 82.4104386,15.8813402 C80.9116559,17.9049819 81.1382815,17.2836607 81.1206015,19.7080783 C81.1125652,20.807643 81.1242179,21.9076029 81.1149761,23.0071676 C81.1089488,23.7189994 80.9132632,23.9474496 80.187981,23.9636545 C78.8217983,23.9940882 77.4544103,24.0027835 76.0886294,23.9766975 C75.1732871,23.9589116 75.0037197,23.7573379 75.0029161,22.8585564 C74.9992997,19.2310206 75.0013088,15.6030895 75.0013088,11.9751583 L75.0000391,11.9751583 Z" id="Fill-16"></path>
                        <path d="M118.000629,12.4758805 C118.031771,10.7115075 117.991675,8.94553112 118.363049,7.20200025 C119.29265,2.83836332 122.327869,0.20543129 126.683915,0.0154465466 C128.468376,-0.0623109223 130.206513,0.136491679 131.81424,1.00264575 C134.222718,2.2996724 135.444669,4.46686124 135.966693,7.11782979 C136.092431,7.75592201 135.835895,8.05332429 135.196308,8.06214215 C133.915186,8.07937705 132.633286,8.0641462 131.351775,8.06975757 C130.769412,8.07216244 130.476673,7.74029035 130.270355,7.21562784 C129.575489,5.44884989 127.934673,4.69973283 126.200818,5.33381693 C125.227228,5.68973772 124.672893,6.46049861 124.389108,7.42605398 C124.195246,8.08619085 124.021238,8.78199995 124.011506,9.46418146 C123.981531,11.6482044 123.982699,13.8354338 124.072234,16.0170519 C124.118947,17.1529522 124.46385,18.2407552 125.308199,19.0768483 C126.797196,20.5510338 129.493351,19.9422008 130.223252,17.9649967 C130.58139,16.9954332 130.651849,16.9441293 131.672153,16.9437285 C132.826758,16.9425261 133.981753,16.9377163 135.136748,16.9477366 C135.853802,16.9541496 136.10372,17.2327137 135.962022,17.9517699 C135.14103,22.121414 132.86374,24.5254825 128.726469,24.9282983 C126.92994,25.1030522 125.148204,24.9848127 123.447828,24.2777809 C120.770358,23.164326 119.22258,21.0604654 118.479444,18.2567876 C118.022428,16.5316941 118.017368,14.7641145 118.001018,12.9969357 C117.999072,12.8233843 118.000629,12.649432 118.000629,12.4758805" id="Fill-18"></path>
                        <path d="M108.961851,19.0655555 C108.961851,20.366269 108.966541,21.666587 108.960287,22.9673005 C108.956378,23.7398958 108.778122,23.9626153 108.024053,23.9784391 C106.667198,24.0069219 105.309171,24.0073175 103.952316,23.9788347 C103.224438,23.9638021 103.032501,23.7224897 103.030546,22.9467296 C103.02351,20.6744369 102.985591,18.4009574 103.043837,16.1298514 C103.073937,14.9600796 102.811636,13.9339084 102.269441,12.9025945 C100.245691,9.05346354 98.2790136,5.17387185 96.2943546,1.30377442 C95.7619327,0.265339813 95.9139974,0.0137419423 97.0628871,0.0117639716 C98.5479609,0.00939040679 100.033426,0.0339172432 101.518109,0.00187411821 C102.217841,-0.0131584589 102.61618,0.297382938 102.887472,0.916092166 C103.75256,2.88892012 104.633675,4.85502298 105.526127,6.81519192 C105.629328,7.04147176 105.841593,7.21711556 106.00343,7.416495 C106.16605,7.21395081 106.378706,7.03474666 106.48347,6.80530206 C107.371621,4.85858332 108.255473,2.90949102 109.105315,0.945761726 C109.392635,0.281954766 109.810129,-0.016323212 110.538398,0.000687335806 C112.036763,0.0354996197 113.536691,0.0101815951 115.035838,0.0125551599 C115.205102,0.012950754 115.378276,0.0121595657 115.54285,0.0457850673 C115.986535,0.13598053 116.120227,0.453247027 115.886853,0.937058655 C115.496332,1.74644426 115.083529,2.54475322 114.673462,3.34385338 C112.87605,6.84525707 111.066519,10.3403313 109.290998,13.8528116 C109.087333,14.2551308 108.993514,14.7508103 108.97866,15.2073259 C108.937614,16.4922157 108.964587,17.779479 108.964587,19.0655555 L108.961851,19.0655555 Z" id="Fill-20"></path>
                        <g id="Group-5" transform="translate(0.000000, 31.205869)">
                            <path d="M3.85847408,5.56845564 L3.85847408,3.02738226 C3.42832182,2.91825152 3.03311424,2.86368615 2.67118729,2.86368615 C2.36292537,2.86368615 2.09751227,2.91745494 1.874948,3.02459424 C1.65238373,3.13213183 1.47849239,3.28348103 1.35285797,3.47824355 C1.22722356,3.67300607 1.13611781,3.89086926 1.07870871,4.13143483 C1.02171562,4.37160211 0.993427074,4.64164094 0.993427074,4.93995818 C0.993427074,5.1442796 0.998003162,5.32350891 1.00757135,5.4784427 C1.01672352,5.63337648 1.03419586,5.80065717 1.05874033,5.98108135 C1.08370081,6.16150553 1.12238955,6.31524445 1.17605458,6.44269641 C1.2293036,6.57054665 1.29586488,6.688838 1.37573841,6.79796873 C1.45561195,6.90709947 1.55919794,6.98994324 1.68691239,7.04650005 C1.81421083,7.10305686 1.96147766,7.13133526 2.12912888,7.13133526 C2.53224062,7.13133526 2.88251934,6.97640147 3.17913304,6.66693219 C3.39254514,6.44070497 3.61885348,6.07467888 3.85847408,5.56845564 L3.85847408,5.56845564 Z M3.85847408,0 L4.84025293,0 L4.84025293,5.72139799 C4.84025293,6.36264065 4.84940511,6.78363039 4.86854148,6.98357065 C4.88767784,7.23170367 4.93135868,7.49736135 5,7.78173852 L4.0523338,7.98367022 C3.98785257,7.77974709 3.94042766,7.57383252 3.90964307,7.3663248 C3.87178634,7.11142089 3.85056993,6.91466693 3.84724187,6.77606293 L3.76154422,6.77606293 C3.56352442,7.16957085 3.34470422,7.45912576 3.10508362,7.64512596 C2.81595807,7.88170865 2.4581912,8 2.03219902,8 C1.65903985,8 1.33788169,7.92273225 1.0674765,7.76779847 C0.797071304,7.61286468 0.587403278,7.39699293 0.436808387,7.12018321 C0.286213495,6.84377178 0.176387387,6.53908195 0.105666029,6.20770686 C0.0353606789,5.87633177 0,5.51030569 0,5.1096286 C0,4.65797073 0.0486729345,4.25131933 0.145602796,3.89086926 C0.242532657,3.53002091 0.391879524,3.21059444 0.593643398,2.93179329 C0.795407272,2.65299213 1.06539646,2.43791696 1.40402696,2.28696605 C1.74307347,2.13601513 2.14036109,2.06034054 2.59713787,2.06034054 C2.95448873,2.06034054 3.37548881,2.1057453 3.85847408,2.1969531 L3.85847408,0 Z" id="Fill-39"></path>
                            <path d="M10.0482681,4.51699859 C10.0186017,3.92074029 9.87708467,3.48541541 9.62211353,3.21142627 C9.3671424,2.93743714 9.003127,2.8002414 8.53006735,2.8002414 C8.0570077,2.8002414 7.69700128,2.93743714 7.44924631,3.21142627 C7.20189224,3.48541541 7.05275818,3.92074029 7.00104233,4.51699859 L10.0482681,4.51699859 Z M10.6917094,7.54737477 C10.2847979,7.70951519 9.90234124,7.82538725 9.54514112,7.89539328 C9.18754009,7.96499698 8.86762348,8 8.58539128,8 C8.15282232,8 7.7747755,7.93120097 7.4520526,7.79320056 C7.1297306,7.65520016 6.86072803,7.4612754 6.64624759,7.21062161 C6.43176716,6.96037015 6.27020526,6.66143633 6.16236369,6.31382016 C6.05412123,5.96580165 6,5.58237779 6,5.16274391 C6,4.90525045 6.01844131,4.64735466 6.05492303,4.38986119 C6.09140475,4.13277007 6.15033675,3.88694428 6.23091725,3.65318849 C6.31149775,3.41943271 6.41733483,3.20136793 6.54722579,2.99899417 C6.67751764,2.7966204 6.83627325,2.62160531 7.02309173,2.47475357 C7.2103111,2.3274995 7.42799872,2.21162744 7.67775818,2.12673506 C7.92711674,2.04224502 8.21135343,2 8.53006735,2 C9.34789929,2 9.96367864,2.2566888 10.3782072,2.77006639 C10.7927357,3.28344398 11,4.01810501 11,4.97525649 L11,5.27861597 L6.97378127,5.27861597 C6.97378127,5.58801046 7.00665491,5.86119493 7.07280308,6.09857172 C7.13855035,6.3359485 7.24037845,6.53671294 7.37788647,6.70006035 C7.51539448,6.8638101 7.68938422,6.98813116 7.90025657,7.0726212 C8.11152983,7.15751358 8.36169019,7.1997586 8.65113855,7.1997586 C8.81270045,7.1997586 8.97305965,7.18768859 9.13261706,7.16395092 C9.29217447,7.1398109 9.4469211,7.10883122 9.59725786,7.06980487 C9.74759461,7.03118085 9.891517,6.98813116 10.029025,6.94025347 C10.166533,6.89237578 10.2956222,6.84650976 10.4166934,6.80225307 L10.6917094,7.54737477 Z" id="Fill-41"></path>
                            <path d="M17,7.66326941 C16.6756142,7.76263913 16.3289354,7.84350275 15.9608735,7.90626257 C15.5923567,7.96862009 15.2438581,8 14.9153776,8 C14.4158326,8 13.9827116,7.93563095 13.6169245,7.80689285 C13.2506824,7.67775245 12.9481347,7.49027759 12.7088262,7.24366367 C12.4690628,6.99745206 12.2911738,6.69451522 12.1751592,6.33565777 C12.0586897,5.97720263 12,5.56765455 12,5.10781816 C12,4.6073488 12.0718835,4.16400697 12.2156506,3.77739037 C12.3589627,3.39117608 12.5673339,3.06611238 12.8398544,2.8034062 C13.1119199,2.54029771 13.4454049,2.34035135 13.8384895,2.20437173 C14.2315742,2.06839211 14.677889,2 15.177434,2 C15.4308462,2 15.689263,2.02293147 15.9513194,2.06919673 C16.2133758,2.11546198 16.4795268,2.17339413 16.7502275,2.24299316 L16.4818016,3.01582406 C16.2656961,2.95306423 16.0646042,2.90358053 15.8794359,2.86656833 C15.6947225,2.82995843 15.499545,2.81145233 15.2957234,2.81145233 C14.5882621,2.81145233 14.0436761,2.99289258 13.6606005,3.35537079 C13.277525,3.71744669 13.0864422,4.26498592 13.0864422,4.99718385 C13.0864422,5.33954673 13.1141947,5.64570202 13.1706096,5.91645434 C13.2265696,6.18680434 13.3266606,6.41652139 13.4699727,6.60641008 C13.6137398,6.79589647 13.8093722,6.94032453 14.0568699,7.03969425 C14.3043676,7.13906397 14.6196542,7.18854767 15.0027298,7.18854767 C15.2520473,7.18854767 15.5213831,7.16038621 15.810737,7.10285638 C16.100091,7.04572885 16.4071884,6.9753252 16.7315742,6.89043851 L17,7.66326941 Z" id="Fill-43"></path>
                            <path d="M22.0482681,4.51699859 C22.0190026,3.92074029 21.8770847,3.48541541 21.6221135,3.21142627 C21.3671424,2.93743714 21.003127,2.8002414 20.5300674,2.8002414 C20.0570077,2.8002414 19.6970013,2.93743714 19.4492463,3.21142627 C19.2018922,3.48541541 19.0527582,3.92074029 19.0010423,4.51699859 L22.0482681,4.51699859 Z M22.6917094,7.54737477 C22.2847979,7.70951519 21.9023412,7.82538725 21.5451411,7.89539328 C21.1875401,7.96499698 20.8676235,8 20.5853913,8 C20.1528223,8 19.7747755,7.93120097 19.4520526,7.79320056 C19.1297306,7.65520016 18.860728,7.4612754 18.6462476,7.21062161 C18.4317672,6.96037015 18.2702053,6.66143633 18.1623637,6.31382016 C18.0541212,5.96580165 18,5.58237779 18,5.16274391 C18,4.90525045 18.0184413,4.64735466 18.054923,4.38986119 C18.0914047,4.13277007 18.1503368,3.88694428 18.2309173,3.65318849 C18.3114978,3.41943271 18.4173348,3.20136793 18.5472258,2.99899417 C18.6775176,2.7966204 18.8362733,2.62160531 19.0230917,2.47475357 C19.2103111,2.3274995 19.4279987,2.21162744 19.6777582,2.12673506 C19.9271167,2.04224502 20.2113534,2 20.5300674,2 C21.3478993,2 21.9636786,2.2566888 22.3782072,2.77006639 C22.7927357,3.28344398 23,4.01810501 23,4.97525649 L23,5.27861597 L18.9737813,5.27861597 C18.9737813,5.58801046 19.0066549,5.86119493 19.0728031,6.09857172 C19.1385504,6.3359485 19.2403784,6.53671294 19.3778865,6.70006035 C19.5153945,6.8638101 19.6893842,6.98813116 19.9002566,7.0726212 C20.1115298,7.15751358 20.3616902,7.1997586 20.6511386,7.1997586 C20.8127004,7.1997586 20.9730597,7.18768859 21.1326171,7.16395092 C21.2921745,7.1398109 21.4469211,7.10883122 21.5972579,7.06980487 C21.7475946,7.03118085 21.891517,6.98813116 22.029025,6.94025347 C22.166533,6.89237578 22.2956222,6.84650976 22.4166934,6.80225307 L22.6917094,7.54737477 Z" id="Fill-45"></path>
                            <path d="M25,2.23160782 L25.9380662,2.02262599 C26.0093065,2.24847446 26.0599572,2.46650668 26.0904299,2.67754542 C26.1052545,2.77915667 26.124197,2.98032225 26.1468457,3.28145355 L26.2654423,3.28145355 C26.4725745,2.90133699 26.7287103,2.59856016 27.0338494,2.37271169 C27.3694614,2.12423723 27.7231922,2 28.0962774,2 C28.6575523,2 29.0849942,2.13575591 29.3786032,2.40644498 C29.630621,2.63599589 29.8060451,2.98772712 29.9040521,3.46205005 C29.9682919,3.78580734 30,4.26712376 30,4.90682208 L30,8 L29.0281667,8 L29.0281667,4.63613301 C29.0281667,4.07541995 28.9738099,3.67432293 28.8642728,3.43366472 C28.7024378,3.07617415 28.3767089,2.89763456 27.8870861,2.89763456 C27.5403558,2.89763456 27.2014495,3.06342132 26.8699555,3.39417209 C26.6475869,3.61631814 26.4103937,3.94172095 26.1583759,4.37079191 L26.1583759,8 L25.1865426,8 L25.1865426,4.38765855 C25.1865426,3.87960233 25.1729534,3.44148097 25.1470104,3.07247172 C25.131774,2.84333219 25.0827705,2.56276997 25,2.23160782" id="Fill-47"></path>
                            <path d="M31.8928416,1 L32.9167028,1 L32.9167028,2.27946034 L35,2.27946034 L35,3.05928455 L32.9167028,3.05928455 L32.9167028,6.26910373 C32.9167028,6.4838493 32.9236443,6.64804344 32.9375271,6.76090242 C32.95141,6.87376141 32.9861171,6.96232436 33.0416486,7.02698315 C33.1449024,7.15590886 33.3531453,7.22056765 33.6668113,7.22056765 C33.8412148,7.22056765 34.0095445,7.20450092 34.1726681,7.17197559 C34.3392625,7.13984213 34.491974,7.10418183 34.6308026,7.06460281 C34.7418655,7.28326709 34.8429501,7.5234843 34.9344902,7.78525444 C34.4663774,7.92828752 33.9939262,8 33.5180043,8 C33.1726681,8 32.8958785,7.96512344 32.6876356,7.89537032 C32.4789588,7.82522533 32.3154013,7.7115826 32.1965293,7.55405027 C32.0733189,7.38907238 31.991757,7.19156917 31.9522777,6.96232436 C31.9127983,6.73307955 31.8928416,6.41605553 31.8928416,6.01086044 L31.8928416,3.05928455 L31,3.05928455 L31,2.27946034 L31.8928416,2.27946034 L31.8928416,1 Z" id="Fill-49"></path>
                            <path d="M37.355782,3.49012617 C37.4811697,3.25685683 37.6163048,3.04621503 37.7598582,2.85778936 C37.9038547,2.6697751 38.0629154,2.51014811 38.2370403,2.37808557 C38.3952149,2.25054855 38.5693398,2.15510148 38.7598582,2.09297861 C38.9508197,2.03085573 39.167479,2 39.4102791,2 C39.4918033,2 39.5857333,2.00370269 39.6929553,2.01110806 C39.8001772,2.01892485 39.9029685,2.03167855 40,2.0506034 C39.9840496,2.23902907 39.9645547,2.41552386 39.9424014,2.581322 C39.9202481,2.74712013 39.8905627,2.91456391 39.8542313,3.08365332 C39.651307,3.04991772 39.4661054,3.02523313 39.2981834,3.01042238 C39.1298183,2.99561163 38.9707576,2.99890291 38.8210013,3.02153044 C38.6424457,3.05197477 38.4873726,3.10710368 38.355782,3.1881514 C38.2241914,3.26919912 38.1027913,3.37657707 37.9911387,3.50987383 C37.879486,3.6431706 37.7713779,3.803209 37.6659282,3.98957762 C37.5604785,4.17594624 37.4448383,4.38946791 37.3194506,4.63014262 L37.3194506,8 L36.2738148,8 L36.2738148,4.38206253 C36.2738148,4.14509051 36.2707133,3.93609435 36.2645104,3.75548546 C36.2587506,3.57487658 36.2463447,3.40249589 36.228179,3.2387548 C36.2100133,3.07542512 36.1825432,2.91374109 36.1462118,2.75370269 C36.1094373,2.59325288 36.0611431,2.41552386 36,2.22010422 C36.1705804,2.17855184 36.3376163,2.14111355 36.5015507,2.10737795 C36.6659282,2.07323094 36.8329641,2.04155239 37.0031015,2.01110806 C37.060257,2.16168404 37.1058928,2.29539221 37.1400089,2.41223258 C37.1741249,2.52866155 37.201595,2.64262205 37.2219761,2.75370269 C37.2423571,2.86437191 37.2578644,2.97709819 37.2676119,3.09229292 C37.2778024,3.20707625 37.288879,3.33955019 37.3012849,3.49012617 L37.355782,3.49012617 Z" id="Fill-51"></path>
                            <path d="M43.8080966,6.25588413 L43.8080966,5.09676122 C43.7008079,5.08911688 43.543567,5.08549588 43.3372426,5.08549588 C42.9880115,5.08549588 42.6661454,5.11325689 42.3716445,5.16837658 C41.9346712,5.24924562 41.5962992,5.37759002 41.3556598,5.55220278 C41.1154548,5.72681553 40.9951351,5.97787166 40.9951351,6.30537115 C40.9951351,6.89438745 41.3408913,7.18889559 42.0319694,7.18889559 C42.3898879,7.18889559 42.7234819,7.10038222 43.0331856,6.9237578 C43.2872904,6.77690606 43.5457389,6.55401328 43.8080966,6.25588413 M40.9238989,3.14262724 L40.6615411,2.36974452 C41.3291634,2.1235164 42.0284945,2 42.7591,2 C43.3989228,2 43.8875858,2.09937638 44.225089,2.29812915 C44.6103727,2.52625226 44.8032317,2.91450412 44.8032317,3.46288473 L44.8032317,5.72037819 C44.8032317,6.02212834 44.807141,6.3311205 44.815394,6.64775699 C44.8188689,6.83564675 44.8392842,7.03077852 44.8749023,7.23274995 C44.9066111,7.42426071 44.9483103,7.60611547 45,7.77952122 L44.022674,7.97827399 C43.9310225,7.73164353 43.873686,7.45564273 43.8497958,7.15027158 L43.7307793,7.13900624 C43.2382069,7.71313619 42.6101121,8 41.8473634,8 C41.2909391,8 40.8439753,7.85757393 40.5064721,7.57231945 C40.1689688,7.28746731 40,6.88513378 40,6.36612352 C40,5.97988332 40.0925202,5.66324683 40.2771262,5.41701871 C40.4617323,5.17038825 40.7232213,4.96238181 41.0607245,4.7929994 C41.5932586,4.52464293 42.3381982,4.39026353 43.2955434,4.39026353 C43.422813,4.39026353 43.5935192,4.3934822 43.8080966,4.40112653 L43.8080966,3.56226111 C43.8080966,3.29712332 43.7207888,3.10601489 43.5457389,2.98813116 C43.3711233,2.87024744 43.0966032,2.81150674 42.7234819,2.81150674 C42.1792199,2.81150674 41.5793589,2.92174613 40.9238989,3.14262724" id="Fill-53"></path>
                            <path d="M47.838962,5.67723862 C47.838962,5.97738869 47.8421614,6.22911456 47.8485603,6.43201601 C47.8553146,6.63531766 47.8634909,6.8138069 47.8730892,6.96748374 C47.8826875,7.12116058 47.8983292,7.26043022 47.9193032,7.38489245 C47.9406328,7.50935468 47.9676502,7.64662331 48,7.79669835 C47.8634909,7.83711856 47.7266264,7.87433717 47.5901173,7.90915458 C47.4536082,7.94397199 47.3170992,7.97438719 47.1805901,8 C47.115535,7.76188094 47.0689655,7.54417209 47.0415926,7.34647324 C47.0138642,7.14877439 47,6.95467734 47,6.76458229 L47,0 L47.838962,0 L47.838962,5.67723862 Z" id="Fill-55"></path>
                            <path d="M50.1225334,8 L50.8736474,8 L50.8736474,2.23416507 L50.1225334,2.23416507 L50.1225334,8 Z M50.5066836,0 C50.6403565,0 50.757161,0.0589958582 50.8558243,0.177391656 C50.9519414,0.306697646 51,0.457824023 51,0.631983029 C51,0.809374684 50.9519414,0.958884736 50.8558243,1.08091726 C50.757161,1.20658652 50.6403565,1.26921911 50.5066836,1.26921911 C50.3669637,1.26921911 50.247613,1.20658652 50.1486314,1.08091726 C50.0496499,0.962521467 50,0.813011415 50,0.631983029 C50,0.454591373 50.0496499,0.302656834 50.1486314,0.177391656 C50.247613,0.0589958582 50.3669637,0 50.5066836,0 L50.5066836,0 Z" id="Fill-57"></path>
                            <path d="M54.4666667,3.00921284 C54.3208941,3.00921284 54.1875607,3.0071806 54.0666667,3.00352256 C53.9457726,2.99986452 53.8291545,2.99173554 53.7172012,2.97872917 C53.6052478,2.96531635 53.4913508,2.94418101 53.3758989,2.91451023 C53.260447,2.884433 53.135277,2.8437881 53,2.79176263 C53.0462585,2.65804092 53.0913508,2.52757079 53.1360544,2.4015716 C53.180758,2.27516597 53.2258503,2.14144425 53.2721088,2 C53.4139942,2.04796098 53.5407191,2.08535429 53.6507289,2.11136702 C53.7607386,2.13737976 53.8691934,2.15688931 53.9760933,2.16989568 C54.0826045,2.18290205 54.1926142,2.19143747 54.3065112,2.19509552 C54.4204082,2.19875356 54.5552964,2.2007858 54.7119534,2.2007858 L56.9517979,2.2007858 L56.9517979,2.86980084 L54.1681244,7.19157296 L57,7.19157296 L57,8 L53.02138,8 L53.02138,7.32529468 L55.8,3.00921284 L54.4666667,3.00921284 Z" id="Fill-59"></path>
                            <path d="M62.0482681,4.51699859 C62.0186017,3.92074029 61.8770847,3.48541541 61.6221135,3.21142627 C61.3671424,2.93743714 61.003127,2.8002414 60.5300674,2.8002414 C60.0570077,2.8002414 59.6970013,2.93743714 59.4492463,3.21142627 C59.2018922,3.48541541 59.0527582,3.92074029 59.0010423,4.51699859 L62.0482681,4.51699859 Z M62.6917094,7.54737477 C62.2847979,7.70951519 61.9023412,7.82538725 61.5451411,7.89539328 C61.1875401,7.96499698 60.8676235,8 60.5849904,8 C60.1528223,8 59.7747755,7.93120097 59.4520526,7.79320056 C59.1297306,7.65520016 58.860728,7.4612754 58.6462476,7.21062161 C58.4317672,6.96037015 58.2702053,6.66143633 58.1623637,6.31382016 C58.0541212,5.96580165 58,5.58237779 58,5.16274391 C58,4.90525045 58.0184413,4.64735466 58.054923,4.38986119 C58.0914047,4.13277007 58.1503368,3.88694428 58.2309173,3.65318849 C58.3114978,3.41943271 58.4173348,3.20136793 58.5472258,2.99899417 C58.6775176,2.7966204 58.8362733,2.62160531 59.0230917,2.47475357 C59.2103111,2.3274995 59.4279987,2.21162744 59.6777582,2.12673506 C59.9271167,2.04224502 60.2113534,2 60.5300674,2 C61.3478993,2 61.9636786,2.2566888 62.3782072,2.77006639 C62.7927357,3.28344398 63,4.01810501 63,4.97525649 L63,5.27861597 L58.9737813,5.27861597 C58.9737813,5.58801046 59.0066549,5.86119493 59.0728031,6.09857172 C59.1385504,6.3359485 59.2403784,6.53671294 59.3778865,6.70006035 C59.5153945,6.8638101 59.6893842,6.98813116 59.9002566,7.0726212 C60.1115298,7.15751358 60.3616902,7.1997586 60.6511386,7.1997586 C60.8127004,7.1997586 60.9730597,7.18768859 61.1326171,7.16395092 C61.2921745,7.1398109 61.4469211,7.10883122 61.5972579,7.06980487 C61.7475946,7.03118085 61.891517,6.98813116 62.029025,6.94025347 C62.166533,6.89237578 62.2956222,6.84650976 62.4166934,6.80225307 L62.6917094,7.54737477 Z" id="Fill-60"></path>
                            <path d="M67.8584741,5.56845564 L67.8584741,3.02738226 C67.4283218,2.91825152 67.0331142,2.86368615 66.6711873,2.86368615 C66.3629254,2.86368615 66.0975123,2.91745494 65.874948,3.02459424 C65.6523837,3.13213183 65.4784924,3.28348103 65.352858,3.47824355 C65.2272236,3.67300607 65.1361178,3.89086926 65.0787087,4.13143483 C65.0217156,4.37160211 64.9934271,4.64164094 64.9934271,4.93995818 C64.9934271,5.1442796 64.9980032,5.32350891 65.0075713,5.4784427 C65.0167235,5.63337648 65.0341959,5.80065717 65.0587403,5.98108135 C65.0837008,6.16150553 65.1223895,6.31524445 65.1760546,6.44269641 C65.2293036,6.57054665 65.2958649,6.688838 65.3757384,6.79796873 C65.4556119,6.90709947 65.5591979,6.98994324 65.6869124,7.04650005 C65.8142108,7.10305686 65.9614777,7.13133526 66.1291289,7.13133526 C66.5322406,7.13133526 66.8825193,6.97640147 67.179133,6.66693219 C67.3925451,6.44070497 67.6188535,6.07467888 67.8584741,5.56845564 L67.8584741,5.56845564 Z M67.8584741,0 L68.8402529,0 L68.8402529,5.72139799 C68.8402529,6.36264065 68.8494051,6.78363039 68.8685415,6.98357065 C68.8876778,7.23170367 68.9313587,7.49736135 69,7.78173852 L68.0523338,7.98367022 C67.9878526,7.77974709 67.9404277,7.57383252 67.9096431,7.3663248 C67.8717863,7.11142089 67.8505699,6.91466693 67.8472419,6.77606293 L67.7615442,6.77606293 C67.5635244,7.16957085 67.3447042,7.45912576 67.1050836,7.64512596 C66.8159581,7.88170865 66.4581912,8 66.032199,8 C65.6590399,8 65.3378817,7.92273225 65.0674765,7.76779847 C64.7970713,7.61286468 64.5874033,7.39699293 64.4368084,7.12018321 C64.2862135,6.84377178 64.1763874,6.53908195 64.105666,6.20770686 C64.0353607,5.87633177 64,5.51030569 64,5.1096286 C64,4.65797073 64.0486729,4.25131933 64.1456028,3.89086926 C64.2425327,3.53002091 64.3918795,3.21059444 64.5936434,2.93179329 C64.7954073,2.65299213 65.0653965,2.43791696 65.404027,2.28696605 C65.7430735,2.13601513 66.1403611,2.06034054 66.5971379,2.06034054 C66.9544887,2.06034054 67.3754888,2.1057453 67.8584741,2.1969531 L67.8584741,0 Z" id="Fill-61"></path>
                            <path d="M78.1222151,8 L78.8733291,8 L78.8733291,2.23416507 L78.1222151,2.23416507 L78.1222151,8 Z M78.5066836,0 C78.6403565,0 78.757161,0.0589958582 78.8558243,0.177391656 C78.9519414,0.306697646 79,0.457824023 79,0.631983029 C79,0.809374684 78.9519414,0.958884736 78.8558243,1.08091726 C78.757161,1.20658652 78.6403565,1.26921911 78.5066836,1.26921911 C78.3669637,1.26921911 78.2472947,1.20658652 78.1486314,1.08091726 C78.0496499,0.962521467 78,0.813011415 78,0.631983029 C78,0.454591373 78.0496499,0.302656834 78.1486314,0.177391656 C78.2472947,0.0589958582 78.3669637,0 78.5066836,0 L78.5066836,0 Z" id="Fill-62"></path>
                            <path d="M84.8584741,5.56845564 L84.8584741,3.02738226 C84.4283218,2.91825152 84.0331142,2.86368615 83.6711873,2.86368615 C83.3629254,2.86368615 83.0975123,2.91745494 82.874948,3.02459424 C82.6523837,3.13213183 82.4784924,3.28348103 82.352858,3.47824355 C82.2272236,3.67300607 82.1361178,3.89086926 82.0787087,4.13143483 C82.0217156,4.37160211 81.9934271,4.64164094 81.9934271,4.93995818 C81.9934271,5.1442796 81.9980032,5.32350891 82.0075713,5.4784427 C82.0167235,5.63337648 82.0341959,5.80065717 82.0587403,5.98108135 C82.0837008,6.16150553 82.1223895,6.31524445 82.1760546,6.44269641 C82.2293036,6.57054665 82.2958649,6.688838 82.3757384,6.79796873 C82.4556119,6.90709947 82.5591979,6.98994324 82.6869124,7.04650005 C82.8142108,7.10305686 82.9614777,7.13133526 83.1291289,7.13133526 C83.5322406,7.13133526 83.8825193,6.97640147 84.179133,6.66693219 C84.3925451,6.44070497 84.6188535,6.07467888 84.8584741,5.56845564 L84.8584741,5.56845564 Z M84.8584741,0 L85.8402529,0 L85.8402529,5.72139799 C85.8402529,6.36264065 85.8494051,6.78363039 85.8685415,6.98357065 C85.8876778,7.23170367 85.9313587,7.49736135 86,7.78173852 L85.0523338,7.98367022 C84.9878526,7.77974709 84.9404277,7.57383252 84.9096431,7.3663248 C84.8717863,7.11142089 84.8505699,6.91466693 84.8472419,6.77606293 L84.7615442,6.77606293 C84.5635244,7.16957085 84.3447042,7.45912576 84.1050836,7.64512596 C83.8159581,7.88170865 83.4581912,8 83.032199,8 C82.6590399,8 82.3378817,7.92273225 82.0674765,7.76779847 C81.7970713,7.61286468 81.5874033,7.39699293 81.4368084,7.12018321 C81.2862135,6.84377178 81.1763874,6.53908195 81.105666,6.20770686 C81.0353607,5.87633177 81,5.51030569 81,5.1096286 C81,4.65797073 81.0486729,4.25131933 81.1456028,3.89086926 C81.2425327,3.53002091 81.3918795,3.21059444 81.5936434,2.93179329 C81.7954073,2.65299213 82.0653965,2.43791696 82.404027,2.28696605 C82.7430735,2.13601513 83.1403611,2.06034054 83.5971379,2.06034054 C83.9544887,2.06034054 84.3754888,2.1057453 84.8584741,2.1969531 L84.8584741,0 Z" id="Fill-63"></path>
                            <path d="M91.0482681,4.51699859 C91.0186017,3.92074029 90.8770847,3.48541541 90.6221135,3.21142627 C90.3671424,2.93743714 90.003127,2.8002414 89.5300674,2.8002414 C89.0570077,2.8002414 88.6970013,2.93743714 88.4492463,3.21142627 C88.2018922,3.48541541 88.0527582,3.92074029 88.0010423,4.51699859 L91.0482681,4.51699859 Z M91.6917094,7.54737477 C91.2847979,7.70951519 90.9023412,7.82538725 90.5451411,7.89539328 C90.1875401,7.96499698 89.8676235,8 89.5849904,8 C89.1528223,8 88.7747755,7.93120097 88.4520526,7.79320056 C88.1297306,7.65520016 87.860728,7.4612754 87.6462476,7.21062161 C87.4317672,6.96037015 87.2702053,6.66143633 87.1623637,6.31382016 C87.0541212,5.96580165 87,5.58237779 87,5.16274391 C87,4.90525045 87.0184413,4.64735466 87.054923,4.38986119 C87.0914047,4.13277007 87.1503368,3.88694428 87.2309173,3.65318849 C87.3114978,3.41943271 87.4173348,3.20136793 87.5472258,2.99899417 C87.6775176,2.7966204 87.8362733,2.62160531 88.0230917,2.47475357 C88.2103111,2.3274995 88.4279987,2.21162744 88.6777582,2.12673506 C88.9271167,2.04224502 89.2113534,2 89.5300674,2 C90.3478993,2 90.9636786,2.2566888 91.3782072,2.77006639 C91.7927357,3.28344398 92,4.01810501 92,4.97525649 L92,5.27861597 L87.9737813,5.27861597 C87.9737813,5.58801046 88.0066549,5.86119493 88.0728031,6.09857172 C88.1385504,6.3359485 88.2403784,6.53671294 88.3778865,6.70006035 C88.5153945,6.8638101 88.6893842,6.98813116 88.9002566,7.0726212 C89.1115298,7.15751358 89.3616902,7.1997586 89.6511386,7.1997586 C89.8127004,7.1997586 89.9730597,7.18768859 90.1326171,7.16395092 C90.2921745,7.1398109 90.4469211,7.10883122 90.5972579,7.06980487 C90.7475946,7.03118085 90.891517,6.98813116 91.029025,6.94025347 C91.166533,6.89237578 91.2956222,6.84650976 91.4166934,6.80225307 L91.6917094,7.54737477 Z" id="Fill-64"></path>
                            <path d="M93,2.23160782 L93.9376544,2.02262599 C94.0093065,2.24847446 94.0599572,2.46650668 94.0904299,2.67754542 C94.1052545,2.77915667 94.124197,2.98032225 94.1468457,3.28145355 L94.2654423,3.28145355 C94.4725745,2.90133699 94.7287103,2.59856016 95.0338494,2.37271169 C95.3694614,2.12423723 95.7231922,2 96.0962774,2 C96.6575523,2 97.0845824,2.13575591 97.3786032,2.40644498 C97.630621,2.63599589 97.8060451,2.98772712 97.9040521,3.46205005 C97.9682919,3.78580734 98,4.26712376 98,4.90682208 L98,8 L97.0281667,8 L97.0281667,4.63613301 C97.0281667,4.07541995 96.9738099,3.67432293 96.8642728,3.43366472 C96.7024378,3.07617415 96.3767089,2.89763456 95.8870861,2.89763456 C95.5403558,2.89763456 95.2014495,3.06342132 94.8699555,3.39417209 C94.6475869,3.61631814 94.4103937,3.94172095 94.1583759,4.37079191 L94.1583759,8 L93.1865426,8 L93.1865426,4.38765855 C93.1865426,3.87960233 93.1729534,3.44148097 93.1470104,3.07247172 C93.131774,2.84333219 93.0827705,2.56276997 93,2.23160782" id="Fill-65"></path>
                            <path d="M100.892842,1 L101.916703,1 L101.916703,2.27946034 L104,2.27946034 L104,3.05928455 L101.916703,3.05928455 L101.916703,6.26910373 C101.916703,6.4838493 101.923644,6.64804344 101.937527,6.76090242 C101.95141,6.87376141 101.986117,6.96232436 102.041649,7.02698315 C102.144902,7.15590886 102.353145,7.22056765 102.666811,7.22056765 C102.841215,7.22056765 103.009544,7.20450092 103.172668,7.17197559 C103.339262,7.13984213 103.491974,7.10418183 103.630803,7.06460281 C103.741866,7.28326709 103.84295,7.5234843 103.93449,7.78525444 C103.466377,7.92828752 102.993926,8 102.518004,8 C102.172668,8 101.895879,7.96512344 101.687636,7.89537032 C101.478959,7.82522533 101.315401,7.7115826 101.196529,7.55405027 C101.073753,7.38907238 100.991757,7.19156917 100.952278,6.96232436 C100.912798,6.73307955 100.892842,6.41605553 100.892842,6.01086044 L100.892842,3.05928455 L100,3.05928455 L100,2.27946034 L100.892842,2.27946034 L100.892842,1 Z" id="Fill-66"></path>
                            <path d="M105.122215,8 L105.873329,8 L105.873329,2.23416507 L105.122215,2.23416507 L105.122215,8 Z M105.506684,0 C105.640356,0 105.757161,0.0589958582 105.855824,0.177391656 C105.951941,0.306697646 106,0.457824023 106,0.631983029 C106,0.809374684 105.951941,0.958884736 105.855824,1.08091726 C105.757161,1.20658652 105.640356,1.26921911 105.506684,1.26921911 C105.366964,1.26921911 105.247295,1.20658652 105.148631,1.08091726 C105.04965,0.962521467 105,0.813011415 105,0.631983029 C105,0.454591373 105.04965,0.302656834 105.148631,0.177391656 C105.247295,0.0589958582 105.366964,0 105.506684,0 L105.506684,0 Z" id="Fill-67"></path>
                            <path d="M108.892842,1 L109.916703,1 L109.916703,2.27946034 L112,2.27946034 L112,3.05928455 L109.916703,3.05928455 L109.916703,6.26910373 C109.916703,6.4838493 109.923644,6.64804344 109.937527,6.76090242 C109.95141,6.87376141 109.986117,6.96232436 110.041649,7.02698315 C110.144902,7.15590886 110.353145,7.22056765 110.666811,7.22056765 C110.841215,7.22056765 111.009544,7.20450092 111.172668,7.17197559 C111.339262,7.13984213 111.491974,7.10418183 111.630803,7.06460281 C111.741866,7.28326709 111.84295,7.5234843 111.93449,7.78525444 C111.466377,7.92828752 110.993926,8 110.518004,8 C110.172668,8 109.895879,7.96512344 109.687636,7.89537032 C109.478959,7.82522533 109.315401,7.7115826 109.196529,7.55405027 C109.073753,7.38907238 108.991757,7.19156917 108.952278,6.96232436 C108.912798,6.73307955 108.892842,6.41605553 108.892842,6.01086044 L108.892842,3.05928455 L108,3.05928455 L108,2.27946034 L108.892842,2.27946034 L108.892842,1 Z" id="Fill-68"></path>
                            <path d="M118,2 L118,7.88509458 C118,8.25069357 117.936265,8.56625473 117.809222,8.83177806 C117.68218,9.09770492 117.506374,9.31722573 117.280948,9.49074401 C117.05595,9.6642623 116.789032,9.79258512 116.480195,9.87571248 C116.17093,9.95843632 115.834289,10 115.470699,10 C115.141757,10 114.811104,9.97336696 114.478741,9.91969735 C114.146377,9.86643127 113.829412,9.79177806 113.527847,9.6957377 C113.578749,9.56620429 113.631363,9.44110971 113.686543,9.31924338 C113.741295,9.19737705 113.796048,9.07551072 113.8508,8.95364439 C113.944905,8.98350567 114.056977,9.01457755 114.188297,9.04766709 C114.319617,9.08116015 114.458209,9.11142497 114.604928,9.1392686 C114.751647,9.1667087 114.902216,9.1889029 115.056634,9.20544767 C115.211481,9.22239596 115.361194,9.23046658 115.505775,9.23046658 C115.732484,9.23046658 115.937805,9.20221942 116.122166,9.14491803 C116.3061,9.08721311 116.462229,9.00166456 116.591411,8.88746532 C116.720592,8.77286255 116.819403,8.63203026 116.887843,8.46375788 C116.956284,8.29588903 116.990504,8.10300126 116.990504,7.88509458 L116.990504,6.6341488 L116.879288,6.6341488 C116.777055,6.80766709 116.659851,6.9710971 116.52682,7.12403531 C116.394217,7.27697352 116.247498,7.41094578 116.086663,7.52514502 C115.926255,7.63974779 115.753016,7.72933165 115.567371,7.7938966 C115.381726,7.85846154 115.18496,7.89074401 114.9775,7.89074401 C114.692189,7.89074401 114.443665,7.86047919 114.232355,7.79954603 C114.021045,7.73861286 113.840106,7.64781841 113.689537,7.52796974 C113.538968,7.40812106 113.415776,7.25881463 113.319531,7.07964691 C113.223715,6.90047919 113.150141,6.69306431 113.099666,6.45699874 C113.056463,6.24635561 113.029087,6.0215889 113.017538,5.78148802 C113.005561,5.54138714 113,5.2940227 113,5.0393947 L113,2 L114.009068,2 L114.009068,5.30532156 C114.009068,5.54542245 114.021045,5.76938209 114.044572,5.97800757 C114.068098,6.18622951 114.119856,6.36741488 114.199846,6.52035309 C114.280263,6.67369483 114.398751,6.79394704 114.554881,6.88030265 C114.711438,6.96706179 114.924887,7.01064313 115.194799,7.01064313 C115.394131,7.01064313 115.581915,6.96544767 115.758149,6.87465322 C115.934383,6.7842623 116.096501,6.66925599 116.245359,6.52882724 C116.394217,6.38839849 116.529814,6.23344262 116.653007,6.06355612 C116.7762,5.89407314 116.888699,5.72781841 116.990504,5.56559899 L116.990504,2 L118,2 Z" id="Fill-69"></path>
                            <path d="M129.808097,6.25588413 L129.808097,5.09676122 C129.700808,5.08911688 129.543567,5.08549588 129.337243,5.08549588 C128.988011,5.08549588 128.666145,5.11325689 128.371645,5.16837658 C127.934671,5.24924562 127.596299,5.37759002 127.35566,5.55220278 C127.115455,5.72681553 126.995135,5.97787166 126.995135,6.30537115 C126.995135,6.89438745 127.340891,7.18889559 128.031969,7.18889559 C128.389888,7.18889559 128.723482,7.10038222 129.033186,6.9237578 C129.28729,6.77690606 129.545739,6.55401328 129.808097,6.25588413 M126.923899,3.14262724 L126.661541,2.36974452 C127.329163,2.1235164 128.028494,2 128.7591,2 C129.398923,2 129.887586,2.09937638 130.225089,2.29812915 C130.610373,2.52625226 130.803232,2.91450412 130.803232,3.46288473 L130.803232,5.72037819 C130.803232,6.02212834 130.807141,6.3311205 130.815394,6.64775699 C130.818869,6.83564675 130.839284,7.03077852 130.874902,7.23274995 C130.906611,7.42426071 130.94831,7.60611547 131,7.77952122 L130.022674,7.97827399 C129.931023,7.73164353 129.873686,7.45564273 129.849796,7.15027158 L129.730779,7.13900624 C129.238207,7.71313619 128.610112,8 127.847363,8 C127.290939,8 126.843975,7.85757393 126.506472,7.57231945 C126.168969,7.28746731 126,6.88513378 126,6.36612352 C126,5.97988332 126.09252,5.66324683 126.277126,5.41701871 C126.461732,5.17038825 126.723221,4.96238181 127.060725,4.7929994 C127.593259,4.52464293 128.338198,4.39026353 129.295543,4.39026353 C129.422813,4.39026353 129.593519,4.3934822 129.808097,4.40112653 L129.808097,3.56226111 C129.808097,3.29712332 129.720789,3.10601489 129.545739,2.98813116 C129.371123,2.87024744 129.096603,2.81150674 128.723482,2.81150674 C128.17922,2.81150674 127.579359,2.92174613 126.923899,3.14262724" id="Fill-70"></path>
                            <path d="M132.892842,1 L133.916703,1 L133.916703,2.27946034 L136,2.27946034 L136,3.05928455 L133.916703,3.05928455 L133.916703,6.26910373 C133.916703,6.4838493 133.923644,6.64804344 133.937527,6.76090242 C133.95141,6.87376141 133.986117,6.96232436 134.041649,7.02698315 C134.144902,7.15590886 134.353145,7.22056765 134.666811,7.22056765 C134.841215,7.22056765 135.009544,7.20450092 135.172668,7.17197559 C135.339262,7.13984213 135.491974,7.10418183 135.630803,7.06460281 C135.741866,7.28326709 135.84295,7.5234843 135.93449,7.78525444 C135.466377,7.92828752 134.993926,8 134.518004,8 C134.172668,8 133.895879,7.96512344 133.687636,7.89537032 C133.478959,7.82522533 133.315401,7.7115826 133.196529,7.55405027 C133.073753,7.38907238 132.991757,7.19156917 132.952278,6.96232436 C132.912798,6.73307955 132.892842,6.41605553 132.892842,6.01086044 L132.892842,3.05928455 L132,3.05928455 L132,2.27946034 L132.892842,2.27946034 L132.892842,1 Z" id="Fill-71"></path>
                            <path d="M137.892842,1 L138.916703,1 L138.916703,2.27946034 L141,2.27946034 L141,3.05928455 L138.916703,3.05928455 L138.916703,6.26910373 C138.916703,6.4838493 138.923644,6.64804344 138.937527,6.76090242 C138.95141,6.87376141 138.986117,6.96232436 139.041649,7.02698315 C139.144902,7.15590886 139.353145,7.22056765 139.666811,7.22056765 C139.841215,7.22056765 140.009544,7.20450092 140.172668,7.17197559 C140.339262,7.13984213 140.491974,7.10418183 140.630803,7.06460281 C140.741866,7.28326709 140.84295,7.5234843 140.93449,7.78525444 C140.466377,7.92828752 139.993926,8 139.518004,8 C139.172668,8 138.895879,7.96512344 138.687636,7.89537032 C138.478959,7.82522533 138.315401,7.7115826 138.196529,7.55405027 C138.073753,7.38907238 137.991757,7.19156917 137.952278,6.96232436 C137.912798,6.73307955 137.892842,6.41605553 137.892842,6.01086044 L137.892842,3.05928455 L137,3.05928455 L137,2.27946034 L137.892842,2.27946034 L137.892842,1 Z" id="Fill-72"></path>
                            <path d="M146.048268,4.51699859 C146.019003,3.92074029 145.877085,3.48541541 145.622114,3.21142627 C145.367142,2.93743714 145.003127,2.8002414 144.530067,2.8002414 C144.057008,2.8002414 143.697001,2.93743714 143.449246,3.21142627 C143.201892,3.48541541 143.052758,3.92074029 143.001042,4.51699859 L146.048268,4.51699859 Z M146.691709,7.54737477 C146.284798,7.70951519 145.902341,7.82538725 145.545141,7.89539328 C145.18754,7.96499698 144.867623,8 144.58499,8 C144.152822,8 143.774775,7.93120097 143.452053,7.79320056 C143.129731,7.65520016 142.860728,7.4612754 142.646248,7.21062161 C142.431767,6.96037015 142.270205,6.66143633 142.162364,6.31382016 C142.054121,5.96580165 142,5.58237779 142,5.16274391 C142,4.90525045 142.018441,4.64735466 142.054923,4.38986119 C142.091405,4.13277007 142.150337,3.88694428 142.230917,3.65318849 C142.311498,3.41943271 142.417335,3.20136793 142.547226,2.99899417 C142.677518,2.7966204 142.836273,2.62160531 143.023092,2.47475357 C143.210311,2.3274995 143.427999,2.21162744 143.677758,2.12673506 C143.927117,2.04224502 144.211353,2 144.530067,2 C145.347899,2 145.963679,2.2566888 146.378207,2.77006639 C146.792736,3.28344398 147,4.01810501 147,4.97525649 L147,5.27861597 L142.973781,5.27861597 C142.973781,5.58801046 143.006655,5.86119493 143.072803,6.09857172 C143.13855,6.3359485 143.240378,6.53671294 143.377886,6.70006035 C143.515394,6.8638101 143.689384,6.98813116 143.900257,7.0726212 C144.11153,7.15751358 144.36169,7.1997586 144.651139,7.1997586 C144.8127,7.1997586 144.97306,7.18768859 145.132617,7.16395092 C145.292174,7.1398109 145.446921,7.10883122 145.597258,7.06980487 C145.747595,7.03118085 145.891517,6.98813116 146.029025,6.94025347 C146.166533,6.89237578 146.295622,6.84650976 146.416693,6.80225307 L146.691709,7.54737477 Z" id="Fill-73"></path>
                            <path d="M150.018342,2 C150.304929,2 150.592281,2.0309776 150.88078,2.09373743 C151.169278,2.15649725 151.437142,2.24299316 151.685518,2.35322516 C151.636607,2.47110098 151.585785,2.58696527 151.533435,2.70081802 C151.481085,2.81507309 151.423386,2.92731662 151.360336,3.03754861 C151.273214,3.00093872 151.176156,2.96392651 151.069545,2.92731662 C150.962935,2.89070672 150.851357,2.8589245 150.734047,2.83357919 C150.616737,2.80783157 150.495988,2.78650932 150.372182,2.77001475 C150.248376,2.75352018 150.126481,2.74507174 150.008024,2.74507174 C149.878487,2.74507174 149.753535,2.75875017 149.633168,2.78650932 C149.512419,2.81426847 149.405808,2.8589245 149.313336,2.92168432 C149.220864,2.98444415 149.146351,3.06611238 149.090562,3.16749363 C149.034773,3.26887488 149.006496,3.39439453 149.006496,3.54566179 C149.006496,3.70014751 149.03783,3.82969022 149.100879,3.93469224 C149.163928,4.03969425 149.249522,4.12699477 149.357661,4.19699611 C149.466183,4.26659515 149.593045,4.32573421 149.737868,4.37360869 C149.88269,4.42108086 150.037447,4.46533458 150.201758,4.50596755 C150.457012,4.57194582 150.694689,4.64677484 150.914788,4.72964999 C151.134887,4.81212284 151.325564,4.919941 151.486435,5.05229985 C151.646924,5.18465871 151.77264,5.34839748 151.863584,5.54351616 C151.95491,5.73863484 152,5.97961647 152,6.26646104 C152,6.56819096 151.943065,6.82767869 151.829576,7.04492423 C151.716087,7.26216977 151.562476,7.4415985 151.368361,7.58321041 C151.174245,7.72482231 150.948032,7.82942202 150.689339,7.89781413 C150.430646,7.96580394 150.154757,8 149.860909,8 C149.707298,8 149.549102,7.98954003 149.386702,7.9694247 C149.223921,7.94930937 149.063431,7.919941 148.904471,7.88131957 C148.745128,7.84269814 148.588842,7.79562827 148.435231,7.74051227 C148.281238,7.68539627 148.136416,7.62464798 148,7.5582674 C148.048911,7.44039158 148.100115,7.32573421 148.154757,7.21308837 C148.209018,7.10084484 148.265571,6.98980823 148.324799,6.87917393 C148.440199,6.93107148 148.562858,6.97934826 148.692014,7.02561352 C148.821169,7.07187877 148.954146,7.11130481 149.090562,7.14429395 C149.226595,7.17728309 149.3611,7.20423763 149.494077,7.22435296 C149.627054,7.24446828 149.754299,7.25452595 149.876958,7.25452595 C150.030569,7.25452595 150.179977,7.23601985 150.325182,7.19940995 C150.470004,7.16280005 150.599541,7.10486791 150.71303,7.02561352 C150.826519,6.94635913 150.917463,6.84417326 150.98548,6.71945823 C151.053878,6.59434089 151.087887,6.44347593 151.087887,6.26646104 C151.087887,6.10111305 151.055789,5.96513343 150.990829,5.85811989 C150.926251,5.75150865 150.839511,5.66219659 150.731372,5.59058603 C150.623233,5.51857315 150.495988,5.4598364 150.351165,5.41397345 C150.206343,5.36770819 150.053114,5.32466139 149.892625,5.28402843 C149.64807,5.22167091 149.416125,5.14965804 149.197937,5.06879442 C148.979366,4.9879308 148.789071,4.88212418 148.62629,4.75137455 C148.46389,4.62102722 148.334734,4.45889768 148.238441,4.26579053 C148.142147,4.07268338 148.094383,3.83250637 148.094383,3.54566179 C148.094383,3.27692101 148.146733,3.04519244 148.251433,2.85007376 C148.356515,2.65495508 148.497134,2.49483707 148.673672,2.36971973 C148.849828,2.24500469 149.054643,2.15166957 149.28697,2.09092128 C149.519679,2.03017299 149.76347,2 150.018342,2" id="Fill-74"></path>
                            <path d="M153.892842,1 L154.916703,1 L154.916703,2.27946034 L157,2.27946034 L157,3.05928455 L154.916703,3.05928455 L154.916703,6.26910373 C154.916703,6.4838493 154.92321,6.64804344 154.937527,6.76090242 C154.95141,6.87376141 154.986117,6.96232436 155.041649,7.02698315 C155.144902,7.15590886 155.353145,7.22056765 155.666811,7.22056765 C155.841215,7.22056765 156.009544,7.20450092 156.172668,7.17197559 C156.339262,7.13984213 156.491974,7.10418183 156.630803,7.06460281 C156.741866,7.28326709 156.84295,7.5234843 156.93449,7.78525444 C156.466377,7.92828752 155.993926,8 155.518004,8 C155.172668,8 154.895879,7.96512344 154.687636,7.89537032 C154.478959,7.82522533 154.315401,7.7115826 154.196529,7.55405027 C154.073753,7.38907238 153.991757,7.19156917 153.952278,6.96232436 C153.912798,6.73307955 153.892842,6.41605553 153.892842,6.01086044 L153.892842,3.05928455 L153,3.05928455 L153,2.27946034 L153.892842,2.27946034 L153.892842,1 Z" id="Fill-75"></path>
                            <path d="M161.808097,6.25588413 L161.808097,5.09676122 C161.700808,5.08911688 161.543567,5.08549588 161.337243,5.08549588 C160.988011,5.08549588 160.666145,5.11325689 160.372079,5.16837658 C159.934671,5.24924562 159.596299,5.37759002 159.35566,5.55220278 C159.115455,5.72681553 158.995135,5.97787166 158.995135,6.30537115 C158.995135,6.89438745 159.340891,7.18889559 160.031969,7.18889559 C160.389888,7.18889559 160.723482,7.10038222 161.033186,6.9237578 C161.28729,6.77690606 161.545739,6.55401328 161.808097,6.25588413 M158.923899,3.14262724 L158.661541,2.36974452 C159.329163,2.1235164 160.028494,2 160.7591,2 C161.398923,2 161.887586,2.09937638 162.225089,2.29812915 C162.610373,2.52625226 162.803232,2.91450412 162.803232,3.46288473 L162.803232,5.72037819 C162.803232,6.02212834 162.807141,6.3311205 162.815394,6.64775699 C162.818869,6.83564675 162.839284,7.03077852 162.874902,7.23274995 C162.906611,7.42426071 162.94831,7.60611547 163,7.77952122 L162.022674,7.97827399 C161.931023,7.73164353 161.873686,7.45564273 161.849796,7.15027158 L161.730779,7.13900624 C161.238207,7.71313619 160.610112,8 159.847363,8 C159.290939,8 158.843975,7.85757393 158.506472,7.57231945 C158.168969,7.28746731 158,6.88513378 158,6.36612352 C158,5.97988332 158.09252,5.66324683 158.277126,5.41701871 C158.461732,5.17038825 158.723221,4.96238181 159.060725,4.7929994 C159.593259,4.52464293 160.338198,4.39026353 161.295543,4.39026353 C161.422813,4.39026353 161.593519,4.3934822 161.808097,4.40112653 L161.808097,3.56226111 C161.808097,3.29712332 161.720789,3.10601489 161.545739,2.98813116 C161.371123,2.87024744 161.096603,2.81150674 160.723482,2.81150674 C160.17922,2.81150674 159.579359,2.92174613 158.923899,3.14262724" id="Fill-76"></path>
                            <path d="M164.892842,1 L165.916703,1 L165.916703,2.27946034 L168,2.27946034 L168,3.05928455 L165.916703,3.05928455 L165.916703,6.26910373 C165.916703,6.4838493 165.923644,6.64804344 165.937527,6.76090242 C165.95141,6.87376141 165.986117,6.96232436 166.041649,7.02698315 C166.144902,7.15590886 166.353145,7.22056765 166.666811,7.22056765 C166.841215,7.22056765 167.009544,7.20450092 167.172668,7.17197559 C167.339262,7.13984213 167.491974,7.10418183 167.630803,7.06460281 C167.741866,7.28326709 167.84295,7.5234843 167.93449,7.78525444 C167.466377,7.92828752 166.993926,8 166.518004,8 C166.172668,8 165.895879,7.96512344 165.687636,7.89537032 C165.478959,7.82522533 165.315401,7.7115826 165.196529,7.55405027 C165.073753,7.38907238 164.991757,7.19156917 164.952278,6.96232436 C164.912798,6.73307955 164.892842,6.41605553 164.892842,6.01086044 L164.892842,3.05928455 L164,3.05928455 L164,2.27946034 L164.892842,2.27946034 L164.892842,1 Z" id="Fill-77"></path>
                            <path d="M170.122533,8 L170.873647,8 L170.873647,2.23416507 L170.122533,2.23416507 L170.122533,8 Z M170.506684,0 C170.640356,0 170.757161,0.0589958582 170.856143,0.177391656 C170.951941,0.306697646 171,0.457824023 171,0.631983029 C171,0.809374684 170.951941,0.958884736 170.856143,1.08091726 C170.757161,1.20658652 170.640356,1.26921911 170.506684,1.26921911 C170.366964,1.26921911 170.247613,1.20658652 170.148631,1.08091726 C170.04965,0.962521467 170,0.813011415 170,0.631983029 C170,0.454591373 170.04965,0.302656834 170.148631,0.177391656 C170.247613,0.0589958582 170.366964,0 170.506684,0 L170.506684,0 Z" id="Fill-78"></path>
                            <path d="M175.491818,2.77846319 C175.283867,2.77846319 175.087491,2.81145233 174.903089,2.87783291 C174.719087,2.94421349 174.557436,3.06007778 174.418536,3.22542577 C174.276044,3.39479684 174.163088,3.62089312 174.07887,3.90451924 C173.995051,4.18774306 173.953141,4.5522328 173.953141,4.99718385 C173.953141,5.43891645 173.995051,5.80260158 174.07887,6.08743463 C174.163088,6.37266997 174.276044,6.59796165 174.418536,6.76371195 C174.557436,6.9326807 174.719087,7.04975191 174.903089,7.11412096 C175.087491,7.17849001 175.283867,7.21067453 175.491818,7.21067453 C175.703361,7.21067453 175.903329,7.17849001 176.091323,7.11412096 C176.279716,7.04975191 176.44456,6.9326807 176.587052,6.76371195 C176.729544,6.59796165 176.841702,6.37266997 176.923924,6.08743463 C177.006147,5.80260158 177.046859,5.43891645 177.046859,4.99718385 C177.046859,4.5522328 177.006147,4.18774306 176.923924,3.90451924 C176.841702,3.62089312 176.729544,3.39479684 176.587052,3.22542577 C176.44456,3.06007778 176.279716,2.94421349 176.091323,2.87783291 C175.903329,2.81145233 175.703361,2.77846319 175.491818,2.77846319 M175.491818,2 C175.670631,2 175.85663,2.01408073 176.050212,2.04143758 C176.244193,2.06919673 176.433783,2.12149658 176.619781,2.19873944 C176.806179,2.27960306 176.982198,2.38943275 177.14824,2.5274239 C177.31468,2.66541505 177.461164,2.84484377 177.589287,3.06530776 C177.717011,3.28979482 177.817195,3.55934022 177.890237,3.87394395 C177.963678,4.18854767 178,4.56309508 178,4.99718385 C178,5.43127263 177.963678,5.80582003 177.890237,6.12042376 C177.817195,6.43502749 177.717011,6.70296366 177.589287,6.92382996 C177.461164,7.14791471 177.31468,7.33015958 177.14824,7.47016226 C176.982198,7.61016495 176.806179,7.71838541 176.619781,7.79562827 C176.433783,7.87649189 176.244193,7.93120558 176.050212,7.95856242 C175.85663,7.98632158 175.670631,8 175.491818,8 C175.316596,8 175.132993,7.98632158 174.941407,7.95856242 C174.74982,7.93120558 174.561028,7.87649189 174.374631,7.79562827 C174.188633,7.71838541 174.013411,7.61016495 173.848966,7.47016226 C173.684521,7.33015958 173.538836,7.14791471 173.410713,6.92382996 C173.282989,6.70296366 173.182805,6.43502749 173.109763,6.12042376 C173.036721,5.80582003 173,5.43127263 173,4.99718385 C173,4.56309508 173.036721,4.18854767 173.109763,3.87394395 C173.182805,3.55934022 173.282989,3.28979482 173.410713,3.06530776 C173.538836,2.84484377 173.684521,2.66541505 173.848966,2.5274239 C174.013411,2.38943275 174.188633,2.27960306 174.374631,2.19873944 C174.561028,2.12149658 174.749022,2.06919673 174.938613,2.04143758 C175.128602,2.01408073 175.313004,2 175.491818,2" id="Fill-79"></path>
                            <path d="M179,2.23160782 L179.937654,2.02262599 C180.009307,2.24847446 180.059957,2.46650668 180.09043,2.67754542 C180.105254,2.77915667 180.124197,2.98032225 180.146846,3.28145355 L180.265442,3.28145355 C180.472575,2.90133699 180.72871,2.59856016 181.033849,2.37271169 C181.369461,2.12423723 181.723192,2 182.096277,2 C182.657552,2 183.084582,2.13575591 183.378603,2.40644498 C183.630621,2.63599589 183.806045,2.98772712 183.904052,3.46205005 C183.968292,3.78580734 184,4.26712376 184,4.90682208 L184,8 L183.028167,8 L183.028167,4.63613301 C183.028167,4.07541995 182.97381,3.67432293 182.864273,3.43366472 C182.702438,3.07617415 182.376709,2.89763456 181.887086,2.89763456 C181.540356,2.89763456 181.20145,3.06342132 180.869956,3.39417209 C180.647587,3.61631814 180.410394,3.94172095 180.158376,4.37079191 L180.158376,8 L179.186543,8 L179.186543,4.38765855 C179.186543,3.87960233 179.172953,3.44148097 179.14701,3.07247172 C179.131774,2.84333219 179.082771,2.56276997 179,2.23160782" id="Fill-80"></path>
                        </g>
                    </g>
                    <g id="BLOCK" transform="translate(136.589488, -0.000000)" stroke="#F2EFEE" stroke-width="0.75">
                        <g id="Group-3" transform="translate(29.526823, 31.499826) rotate(-20.000000) translate(-29.526823, -31.499826) translate(7.370716, 6.042575)">
                            <path d="M19.4757509,5.02793865 L37.2012257,15.2617463 L37.2012257,35.7293616 L19.4757509,45.9631692 L1.75027607,35.7293616 L1.75027607,15.2617463 L19.4757509,5.02793865 Z" id="Polygon-Copy-5"></path>
                            <path d="M15.9825828,5.64537055 L35.721029,9.12579117 L22.9689235,24.8619237 L3.23089866,21.3810311 L15.9825828,5.64537055 Z" id="Combined-Shape" transform="translate(19.475751, 15.253650) rotate(20.000000) translate(-19.475751, -15.253650) "></path>
                            <path d="M31.2699758,13.5354862 L38.4194851,32.4260885 L25.605292,47.696785 L18.4556294,28.8069641 L31.2699758,13.5354862 Z" id="Combined-Shape" transform="translate(28.437556, 30.616123) rotate(20.000000) translate(-28.437556, -30.616123) "></path>
                        </g>
                    </g>
                </g>
            </g>
        </g>
    </g>
</svg>