<?xml version="1.0" encoding="UTF-8"?>
<svg width="73px" height="16px" viewBox="0 0 73 16" version="1.1" xmlns="http://www.w3.org/2000/svg" xmlns:xlink="http://www.w3.org/1999/xlink">
    <title>bte_built-on-kilt</title>
    <defs>
        <polygon id="path-1" points="0 0 7.20356874 0 7.20356874 12.9970357 0 12.9970357"></polygon>
        <path d="M0.319586519,0 C0.143426295,0 0,0.115239559 0,0.257298505 L0,0.257298505 L0,1.86813801 L1.66128998,3 L4,1.40676072 L1.93522128,0 L0.319586519,0 Z" id="path-3"></path>
        <linearGradient x1="0.000383331539%" y1="49.9999198%" x2="100.000247%" y2="49.9999198%" id="linearGradient-5">
            <stop stop-color="#FFFFFF" offset="0%"></stop>
            <stop stop-color="#BCBCBC" offset="100%"></stop>
        </linearGradient>
        <linearGradient x1="0.000383331539%" y1="49.9999198%" x2="100.000247%" y2="49.9999198%" id="linearGradient-6">
            <stop stop-color="#FFFFFF" offset="0%"></stop>
            <stop stop-color="#FFFFFF" offset="100%"></stop>
        </linearGradient>
        <path d="M0,1.7008649 L1.94307134,3 L3.65238374,3 C3.70434579,3 3.75359025,2.99105279 3.79758697,2.97405309 L3.79758697,2.97405309 C3.83507087,2.96152699 3.86880637,2.94273785 3.89691929,2.92036982 L3.89691929,2.92036982 L3.89790324,2.9194751 C3.96111046,2.86981807 4,2.80137191 4,2.72532061 L4,2.72532061 L4,0.973456606 L2.54426614,0 L0,1.7008649 Z" id="path-7"></path>
        <linearGradient x1="34.1852235%" y1="39.0160364%" x2="95.1362392%" y2="69.5773483%" id="linearGradient-9">
            <stop stop-color="#AAAAA8" offset="0%"></stop>
            <stop stop-color="#000000" offset="100%"></stop>
        </linearGradient>
        <linearGradient x1="34.1852235%" y1="39.0160364%" x2="95.1362392%" y2="69.5773483%" id="linearGradient-10">
            <stop stop-color="#FFFFFF" offset="0%"></stop>
            <stop stop-color="#FFFFFF" offset="100%"></stop>
        </linearGradient>
        <path d="M0,1.58324311 L2.27502034,2.99991672 L2.27516077,3 L3.10357713,2.48396769 C4.06292418,1.84425752 3.99912063,0.907387357 3.99912063,0.907387357 L3.99912063,0.907387357 L2.54189052,0 L0,1.58324311 Z" id="path-11"></path>
        <linearGradient x1="0.000245173231%" y1="49.9997718%" x2="99.9991891%" y2="49.9997718%" id="linearGradient-13">
            <stop stop-color="#AAAAA8" offset="0%"></stop>
            <stop stop-color="#000000" offset="100%"></stop>
        </linearGradient>
        <linearGradient x1="0.000245173231%" y1="49.9997718%" x2="99.9991891%" y2="49.9997718%" id="linearGradient-14">
            <stop stop-color="#FFFFFF" offset="0%"></stop>
            <stop stop-color="#FFFFFF" offset="100%"></stop>
        </linearGradient>
        <path d="M0.737074545,0.769465649 C0.367275457,1.04927134 0.100553676,1.44649549 0,1.90284525 L0,1.90284525 L1.63740196,3 L4,1.41693269 L1.88532704,0 L0.737074545,0.769465649 Z" id="path-15"></path>
        <linearGradient x1="0.000323503497%" y1="50.0001906%" x2="99.9999581%" y2="50.0001906%" id="linearGradient-17">
            <stop stop-color="#FFFFFF" offset="0%"></stop>
            <stop stop-color="#BCBCBC" offset="100%"></stop>
        </linearGradient>
        <linearGradient x1="0.000323503497%" y1="50.0001906%" x2="99.9999581%" y2="50.0001906%" id="linearGradient-18">
            <stop stop-color="#FFFFFF" offset="0%"></stop>
            <stop stop-color="#FFFFFF" offset="100%"></stop>
        </linearGradient>
    </defs>
    <g id="Design" stroke="none" stroke-width="1" fill="none" fill-rule="evenodd">
        <g id="Desktop-HD-Copy-5" transform="translate(-1330.000000, -108.000000)">
            <g id="built-on-kilt" transform="translate(1330.000000, 108.000000)">
                <text id="Built-on" font-family="Overpass-Light, Overpass" font-size="10" font-weight="300" fill="#FFFFFF">
                    <tspan x="0.75" y="13">Built on</tspan>
                </text>
                <g id="Group-27" transform="translate(38.000000, 0.000000)">
                    <g id="Group-10">
                        <path d="M10.6064358,0.270075918 L10.6064358,12.7272214 C10.6064358,12.8012846 10.5781881,12.8682424 10.5318113,12.9165426 C10.5313897,12.9169785 10.5313897,12.9169785 10.5309681,12.917458 C10.5103094,12.939167 10.4858561,12.957345 10.4584516,12.9697688 C10.4259879,12.9861595 10.3901513,12.9950523 10.351785,12.9950523 L8.72353729,12.9950523 C8.58314203,12.9950523 8.46888643,12.8753043 8.46888643,12.7272214 L8.46888643,0.270075918 C8.46888643,0.121992972 8.58314203,0.00224500198 8.72353729,0.00224500198 L10.351785,0.00224500198 C10.4926018,0.00224500198 10.6064358,0.121992972 10.6064358,0.270075918" id="Fill-1" fill="#FFFFFF"></path>
                        <path d="M17.8462187,11.1307634 L14.7212227,11.1307634 C14.7161634,11.1307634 14.7111041,11.1303275 14.7060448,11.1298916 C14.594361,11.1180781 14.5039684,11.0312858 14.4830145,10.9187306 L14.4808643,0.263297319 C14.4808643,0.117699133 14.3670725,0 14.2262134,0 L12.5979657,0 C12.4575705,0 12.343357,0.117699133 12.343357,0.263297319 L12.343357,12.7333025 C12.343357,12.8789007 12.4575705,12.9965998 12.5979657,12.9965998 L17.8462187,13 C17.9870356,13 18.1008696,12.8818649 18.1008696,12.7367027 L18.1008696,11.3940607 C18.1008696,11.2484625 17.9870356,11.1307634 17.8462187,11.1307634" id="Fill-3" fill="#FFFFFF"></path>
                        <g id="Group-7" transform="translate(0.000000, 0.000144)">
                            <mask id="mask-2" fill="white">
                                <use xlink:href="#path-1"></use>
                            </mask>
                            <g id="Clip-6"></g>
                            <path d="M7.17203057,12.6083234 L3.87324796,6.39747098 C3.83150883,6.31909207 3.83150883,6.22406092 3.87324796,6.14563843 L6.93432833,0.385965971 C7.00047852,0.25850217 6.95418603,0.0996955248 6.83090804,0.0312556586 C6.79401739,0.0108108833 6.75278419,0 6.71091858,0.000130776814 L4.86385665,0.000130776814 C4.77152464,0 4.68631779,0.0515696571 4.64112148,0.134787303 L2.13753254,4.84658874 L2.13753254,0.263297319 C2.13753254,0.118135056 2.02369855,0 1.88288169,0 L0.254633992,0 C0.114027931,0 -1.68642952e-05,0.117873502 -1.68642952e-05,0.263297319 L-1.68642952e-05,12.7337384 C-1.68642952e-05,12.8791186 0.114027931,12.9970357 0.254633992,12.9970357 L1.88288169,12.9970357 C2.02369855,12.9970357 2.13753254,12.8789007 2.13753254,12.7337384 L2.13753254,9.85878451 L1.37990408,6.27249194 L4.87945613,12.8622048 C4.92448379,12.9456404 5.00977497,12.9972101 5.1021913,12.9968614 L6.94929539,12.9968614 C7.08918472,12.9974281 7.20306087,12.8805572 7.20356874,12.735918 C7.20373544,12.6912795 7.19290013,12.6473821 7.17203057,12.6083234" id="Fill-5" fill="#FFFFFF" mask="url(#mask-2)"></path>
                        </g>
                        <path d="M24,0.263423737 L24,1.61042492 C24,1.75602311 23.886166,1.87372224 23.7453491,1.87372224 L20.5908827,1.87154263 L21.5933808,2.60188755 C21.627025,2.6263864 21.6470092,2.66622974 21.6470092,2.70877579 L21.6470092,12.7338648 C21.6470092,12.8790271 21.5331752,12.9971621 21.3923584,12.9971621 L19.7915152,12.9971621 C19.6506983,12.9971621 19.5368643,12.8790271 19.5368643,12.7338648 L19.5368643,2.13571179 C19.5368643,1.99970391 19.4369433,1.88810769 19.3091963,1.87459409 C19.304137,1.87415817 19.2990777,1.87372224 19.2940184,1.87372224 L17.4385244,1.87372224 C17.2978762,1.87372224 17.1838735,1.75584874 17.1838735,1.61042492 L17.1838735,0.263423737 C17.1838735,0.118261473 17.2977075,0.000126417587 17.4385244,0.000126417587 L23.7453491,0.000126417587 C23.886166,0.000126417587 24,0.118261473 24,0.263423737" id="Fill-8" fill="#FFFFFF"></path>
                    </g>
                    <g id="Group-13" transform="translate(27.000000, 0.000000)">
                        <mask id="mask-4" fill="white">
                            <use xlink:href="#path-3"></use>
                        </mask>
                        <g id="Clip-12"></g>
                        <path d="M0.319586519,0 C0.143426295,0 0,0.115239559 0,0.257298505 L0,0.257298505 L0,1.86813801 L1.66128998,3 L4,1.40676072 L1.93522128,0 L0.319586519,0 Z" id="Fill-11" fill="url(#linearGradient-6)" mask="url(#mask-4)"></path>
                    </g>
                    <g id="Group-16" transform="translate(31.000000, 10.000000)">
                        <mask id="mask-8" fill="white">
                            <use xlink:href="#path-7"></use>
                        </mask>
                        <g id="Clip-15"></g>
                        <path d="M0,1.7008649 L1.94307134,3 L3.65238374,3 C3.70434579,3 3.75359025,2.99105279 3.79758697,2.97405309 L3.79758697,2.97405309 C3.83507087,2.96152699 3.86880637,2.94273785 3.89691929,2.92036982 L3.89691929,2.92036982 L3.89790324,2.9194751 C3.96111046,2.86981807 4,2.80137191 4,2.72532061 L4,2.72532061 L4,0.973456606 L2.54426614,0 L0,1.7008649 Z" id="Fill-14" fill="url(#linearGradient-10)" mask="url(#mask-8)"></path>
                    </g>
                    <path d="M35,0.198855077 L35,1.79411469 L27.7722772,6.51682234 C27.301765,6.86391483 27,7.39861404 27,8 L27,3.9662549 L33.0697374,0 L34.6969436,0 C34.8480413,0.00361554685 34.9724494,0.0879783067 35,0.198855077" id="Fill-17" fill="#FFFFFF"></path>
                    <g id="Group-21" transform="translate(31.000000, 3.000000)">
                        <mask id="mask-12" fill="white">
                            <use xlink:href="#path-11"></use>
                        </mask>
                        <g id="Clip-20"></g>
                        <path d="M0,1.58324311 L2.27502034,2.99991672 L2.27516077,3 L3.10357713,2.48396769 C4.06292418,1.84425752 3.99912063,0.907387357 3.99912063,0.907387357 L3.99912063,0.907387357 L2.54189052,0 L0,1.58324311 Z" id="Fill-19" fill="url(#linearGradient-14)" mask="url(#mask-12)"></path>
                    </g>
                    <g id="Group-24" transform="translate(27.000000, 7.000000)">
                        <mask id="mask-16" fill="white">
                            <use xlink:href="#path-15"></use>
                        </mask>
                        <g id="Clip-23"></g>
                        <path d="M0.737074545,0.769465649 C0.367275457,1.04927134 0.100553676,1.44649549 0,1.90284525 L0,1.90284525 L1.63740196,3 L4,1.41693269 L1.88532704,0 L0.737074545,0.769465649 Z" id="Fill-22" fill="url(#linearGradient-18)" mask="url(#mask-16)"></path>
                    </g>
                    <path d="M34.1803702,5.63848422 C34.1790788,5.63935137 34.1777873,5.6406521 34.1764959,5.64151925 L27,10.7026535 L27,14 L34.9974171,8.39516129 L35,4 C35,4.67074228 34.6780026,5.26560874 34.1803702,5.63848422" id="Fill-25" fill="#FFFFFF"></path>
                </g>
            </g>
        </g>
    </g>
</svg>