<?xml version="1.0" encoding="UTF-8"?>
<svg width="582px" height="576px" viewBox="0 0 582 576" version="1.1" xmlns="http://www.w3.org/2000/svg" xmlns:xlink="http://www.w3.org/1999/xlink">
    <title>bte_Group 4 Copy</title>
    <defs>
        <linearGradient x1="13.0000012%" y1="49.9976838%" x2="92.0000001%" y2="49.9976838%" id="linearGradient-1">
            <stop stop-color="#FF3596" stop-opacity="0" offset="0%"></stop>
            <stop stop-color="#FF3596" stop-opacity="0.2" offset="37%"></stop>
            <stop stop-color="#76FA55" stop-opacity="0.4" offset="65%"></stop>
            <stop stop-color="#76FA55" stop-opacity="0" offset="100%"></stop>
        </linearGradient>
        <linearGradient x1="0.00129916942%" y1="50.004133%" x2="99.9754399%" y2="50.004133%" id="linearGradient-2">
            <stop stop-color="#FF3596" stop-opacity="0" offset="12%"></stop>
            <stop stop-color="#FF3596" stop-opacity="0.9" offset="31%"></stop>
            <stop stop-color="#95CE63" offset="66%"></stop>
            <stop stop-color="#76FA55" stop-opacity="0" offset="100%"></stop>
        </linearGradient>
    </defs>
    <g id="Design" stroke="none" stroke-width="1" fill="none" fill-rule="evenodd" opacity="0.211982364">
        <g id="Desktop-HD-Copy-5" transform="translate(-145.000000, -1203.000000)" fill-rule="nonzero">
            <g id="Group-4-Copy" transform="translate(436.000000, 1491.000000) scale(-1, -1) translate(-436.000000, -1491.000000) translate(145.000000, 1203.000000)">
                <path d="M9.15276167,206.040666 C9.6087141,205.327173 9.97917545,206.040666 9.97917545,207.361949 L9.97917545,354.367933 C10.021173,355.689588 9.72836461,357.001959 9.12426464,358.199655 C8.63981518,358.860297 7.44294004,359.520938 7.44294004,358.067527 L7.44294004,211.378651 C7.68830745,209.523436 8.26620326,207.719272 9.15276167,206.040666 Z M2.82642166,216.188122 C2.2788749,217.447897 1.99828664,218.793724 2.00000787,220.151972 L2.00000787,366.470889 C2.00000787,367.9243 2.37046922,368.479239 2.82642166,367.686469 C3.71811379,366.028399 4.29644262,364.240759 4.53624328,362.401336 L4.53624328,216.029568 C4.53624328,214.576156 3.31087112,215.395352 2.82642166,216.188122 Z M13.740783,199.011439 C13.1446262,200.248933 12.8526113,201.593852 12.8858722,202.948863 L12.8858722,350.536212 C12.8858722,351.989623 13.2563336,352.676691 13.740783,352.042475 C14.650589,350.599047 15.2324507,348.998329 15.4506047,347.338706 L15.4506047,199.011439 C15.4221076,197.610878 14.1967355,198.245094 13.740783,199.011439 Z M19.2122122,191.083739 C18.5991065,192.234466 18.2774637,193.499827 18.2718103,194.783332 L18.2718103,343.797667 C18.2718103,345.251078 18.6707687,346.017423 19.1267211,345.515335 C20.0538192,344.165879 20.6384515,342.638859 20.8365428,341.049397 L20.8365428,191.215867 C20.8935368,189.762455 19.6681647,190.290969 19.2122122,191.083739 Z M24.6266474,183.552424 C24.04449,184.746609 23.761934,186.047664 23.8002336,187.35772 L23.8002336,338.195425 C23.8002336,339.648837 24.1706949,340.468033 24.6266474,339.992371 C25.5720588,338.749152 26.1604889,337.303155 26.336469,335.79069 L26.336469,183.790255 C26.336469,182.336843 25.0825998,182.759654 24.6266474,183.420295 L24.6266474,183.552424 Z M30.0980766,176.417494 C29.4829287,177.574097 29.1890645,178.854866 29.2431658,180.143513 L29.2431658,333.253826 C29.2431658,334.707237 29.6136271,335.552859 30.0695795,335.156474 C31.0401532,333.995762 31.6333251,332.602287 31.7794012,331.139772 L31.7794012,176.734602 C31.7794012,175.228339 30.582526,175.677575 30.0980766,176.285365 L30.0980766,176.417494 Z M35.5410087,169.678949 C34.9247435,170.82575 34.6306863,172.098272 34.6860979,173.378542 L34.6860979,328.946442 C34.6860979,330.399854 35.0565593,331.324752 35.5410087,330.981218 C36.5024085,329.878657 37.0877498,328.53547 37.2223333,327.123071 L37.2223333,170.181036 C37.2223333,168.727625 35.9969612,168.965456 35.5410087,169.54682 L35.5410087,169.678949 Z M41.069432,163.257512 C40.4578508,164.368011 40.1635099,165.605367 40.2145212,166.851402 L40.2145212,325.246849 C40.2145212,326.70026 40.5849825,327.651584 41.069432,327.360902 C42.0511124,326.360073 42.6517455,325.088313 42.7792536,323.740586 L42.7792536,164.076707 C42.6937625,162.623296 41.4683904,162.728998 41.069432,163.257512 Z M46.5123642,157.391014 C45.8969978,158.49076 45.6022883,159.720556 45.6574534,160.958479 L45.6574534,322.155046 C45.6574534,323.608457 46.0564117,324.612633 46.5123642,324.401227 C47.5136088,323.497665 48.1220781,322.284546 48.2221858,320.992316 L48.2221858,158.342338 C48.1366947,156.888926 46.7688374,156.888926 46.4268731,157.391014 L46.5123642,157.391014 Z M51.9552963,151.947326 C51.3420527,153.008915 51.0561163,154.206674 51.1288826,155.409089 L51.1288826,319.803161 C51.1288826,321.256573 51.4993439,322.287174 51.9552963,322.102194 C52.9810038,321.315342 53.6017193,320.164147 53.665118,318.931114 L53.665118,153.030779 C53.5796269,151.577367 52.4682428,151.445239 51.8698053,151.947326 L51.9552963,151.947326 Z M57.3982285,146.873598 C56.7789358,147.904371 56.4920832,149.07845 56.5718147,150.256084 L56.5718147,317.926939 C56.5718147,319.380351 56.9422761,320.569506 57.3982285,320.305249 C58.4410185,319.565876 59.0690785,318.43018 59.1080501,317.213446 L59.1080501,148.089179 C59.0225591,146.609342 57.7971869,146.477213 57.3127374,146.873598 L57.3982285,146.873598 Z M62.8411607,142.275532 C62.2122663,143.2836 61.9243588,144.443583 62.0147469,145.605166 L62.0147469,316.658507 C62.0147469,318.111919 62.3852083,319.301074 62.8411607,319.14252 C63.8897669,318.45512 64.5242797,317.346982 64.5509823,316.156419 L64.5509823,143.517539 C64.4654912,142.116978 63.2401191,141.879147 62.7556696,142.275532 L62.8411607,142.275532 Z M68.3125899,138.021 C67.6495111,138.997431 67.3492589,140.148266 67.4576791,141.297783 L67.4576791,315.707183 C67.4576791,317.160595 67.8281404,318.34975 68.3125899,318.34975 C69.3681766,317.741908 70.0136963,316.674406 70.0224115,315.522203 L70.0224115,139.42156 C69.9369204,137.968149 68.6830512,137.651041 68.2270988,138.021 L68.3125899,138.021 Z M73.7555221,134.162853 C73.1045129,135.124445 72.8047472,136.254884 72.9006112,137.386784 L72.9006112,315.284372 C72.9006112,316.737784 73.2995696,317.926939 73.7555221,317.926939 C74.8005512,317.399256 75.4550234,316.387755 75.4653437,315.284372 L75.4653437,135.589839 C75.2658645,134.24213 74.1259834,133.845745 73.670031,134.162853 L73.7555221,134.162853 Z M79.2269513,130.70109 C78.5416348,131.639722 78.2293555,132.770021 78.3435434,133.898596 L78.3435434,315.442926 C78.3435434,316.896338 78.7425018,318.085493 79.1984542,318.085493 C80.2866655,317.600641 80.9590308,316.561486 80.9082759,315.442926 L80.9082759,132.365907 C80.9652699,130.912496 79.6259096,130.304705 79.1414602,130.70109 L79.2269513,130.70109 Z M84.5558953,127.662139 C83.9374435,128.584806 83.6761356,129.67522 83.8149726,130.753942 L83.8149726,315.733609 C83.8149726,317.18702 84.185434,318.376175 84.6413864,318.376175 C85.0973388,318.376175 86.351208,317.345574 86.351208,315.892163 L86.351208,129.379807 C86.2657169,127.926395 85.0403448,127.371456 84.5558953,127.662139 Z M90.0273245,125.019572 C89.3556922,125.923428 89.0526602,127.019349 89.1724137,128.111375 L89.1724137,316.632081 C89.1724137,318.085493 89.5428751,319.274648 89.9988275,319.274648 C90.4547799,319.274648 91.7086491,318.455452 91.7086491,317.002041 L91.7086491,126.73724 C91.7086491,125.363106 90.511774,124.676038 90.0273245,125.019572 Z M95.4702567,122.694113 C94.9858072,122.879093 94.6153459,124.253228 94.6153459,125.706639 L94.6153459,317.794811 C94.6153459,319.248222 94.9858072,320.437377 95.4702567,320.622357 C95.9547061,320.807337 97.1800783,319.829587 97.1800783,318.376175 L97.1800783,124.570336 C97.1800783,123.116924 95.9262091,122.377005 95.4702567,122.588411 L95.4702567,122.694113 Z M100.913189,120.553634 C100.457236,120.712188 100.058278,122.033472 100.058278,123.486883 L100.058278,319.036817 C100.058278,320.490229 100.457236,321.679384 100.941686,321.890789 C101.426135,322.102194 102.62301,321.230147 102.62301,319.776736 L102.62301,122.694113 C102.62301,121.240702 101.369141,120.39508 100.913189,120.553634 Z M106.384618,118.915243 C105.900169,119.047371 105.50121,120.368655 105.50121,121.822066 L105.50121,320.886614 C105.50121,322.340025 105.900169,323.52918 106.384618,323.793437 C106.869068,324.057694 108.065943,323.212072 108.065943,321.758661 L108.065943,121.161425 C108.065943,119.734439 106.869068,118.783115 106.384618,118.915243 Z M111.82755,117.59396 C111.343101,117.59396 110.972639,118.968094 110.972639,120.421506 L110.972639,322.92139 C110.972639,324.374802 111.343101,325.563957 111.82755,325.854639 C112.312,326.145321 113.508875,325.326126 113.508875,323.872714 L113.508875,119.734439 C113.508875,118.38673 112.312,117.514683 111.82755,117.59396 Z M117.270482,116.61621 C116.81453,116.61621 116.415572,117.963919 116.415572,119.417331 L116.415572,325.193997 C116.415572,326.647409 116.81453,327.995118 117.270482,328.180098 C117.726435,328.365077 118.951807,327.730861 118.951807,326.27745 L118.951807,119.047371 C118.951807,117.59396 117.754932,116.536933 117.270482,116.61621 L117.270482,116.61621 Z M122.713415,115.900864 C122.228965,115.900864 121.858504,117.144723 121.858504,118.545284 L121.858504,327.67801 C121.858504,329.131422 122.257462,330.505556 122.713415,330.716962 C123.169367,330.928367 124.423236,330.452705 124.423236,328.999293 L124.423236,118.38673 C124.423236,116.933318 123.169367,115.849866 122.713415,115.900864 L122.713415,115.900864 Z M128.184844,115.479906 C127.700394,115.479906 127.301436,116.721913 127.301436,118.122473 L127.301436,330.505556 C127.181682,331.597582 127.484714,332.693503 128.156347,333.597359 C128.612299,333.83519 129.866168,333.359528 129.866168,331.906117 L129.866168,118.096047 C129.89624,116.996408 129.242136,115.978623 128.184844,115.479906 L128.184844,115.479906 Z M133.627776,115.479906 C133.143326,115.479906 132.744368,116.669061 132.744368,118.122473 L132.744368,333.650211 C132.63009,334.750152 132.932363,335.852671 133.599279,336.768439 C134.055231,337.032696 135.309101,336.557034 135.309101,335.103622 L135.309101,118.096047 C135.309101,116.642636 134.112225,115.374204 133.627776,115.374204 L133.627776,115.479906 Z M139.042211,115.664886 C138.586259,115.664886 138.215797,116.827615 138.215797,118.307453 L138.215797,336.874142 C138.105131,337.986857 138.395792,339.10217 139.042211,340.045222 C139.526661,340.309479 140.752033,339.860242 140.752033,338.406831 L140.752033,118.307453 C140.771083,117.169346 140.11424,116.113575 139.042211,115.559183 L139.042211,115.664886 Z M144.485143,116.061271 C144.029191,116.061271 143.658729,117.197575 143.658729,118.703838 L143.658729,340.335904 C143.548063,341.448619 143.838724,342.563932 144.485143,343.506984 C144.969593,343.824092 146.194965,343.506984 146.194965,342.000721 L146.194965,118.756689 C146.198577,117.60847 145.548621,116.543678 144.485143,115.955568 L144.485143,116.061271 Z M149.928075,116.774764 C149.443626,116.774764 149.073165,117.831791 149.073165,119.285202 L149.073165,343.903369 C148.960189,345.036509 149.261286,346.171969 149.928075,347.127301 C150.412525,347.444409 151.666394,347.127301 151.666394,345.72674 L151.666394,119.470182 C151.664058,118.316577 151.002505,117.250552 149.928075,116.669061 L149.928075,116.774764 Z M155.371008,117.59396 C154.886558,117.59396 154.516097,118.650986 154.516097,120.236526 L154.516097,347.761517 C154.413983,348.902231 154.713991,350.042855 155.371008,351.011874 C155.855457,351.355407 157.109326,351.011874 157.109326,349.584888 L157.109326,120.500783 C157.085085,119.29604 156.43843,118.175379 155.371008,117.488257 L155.371008,117.59396 Z M160.81394,118.730263 C160.357987,118.730263 159.959029,119.734439 159.959029,121.18785 L159.959029,351.566813 C159.856915,352.707527 160.156923,353.848151 160.81394,354.81717 C161.298389,355.160703 162.552258,354.81717 162.552258,353.443035 L162.552258,121.663512 C162.505619,120.444285 161.839863,119.317352 160.756946,118.624561 L160.81394,118.730263 Z M166.256872,119.998695 C165.80092,119.866567 165.401961,120.976445 165.401961,122.429857 L165.401961,355.636365 C165.309751,356.784703 165.608792,357.930895 166.256872,358.913148 C166.741321,359.283107 167.995191,359.045276 167.995191,357.591865 L167.995191,122.984796 C167.949376,121.763552 167.31039,120.627041 166.256872,119.892993 L166.256872,119.998695 Z M171.728301,121.478533 C171.243852,121.478533 170.844893,122.429857 170.844893,123.883268 L170.844893,359.838046 C170.758466,361.014494 171.067073,362.186891 171.728301,363.194106 C172.184254,363.564065 173.438123,363.194106 173.438123,361.87283 L173.438123,124.491059 C173.376666,123.272396 172.754003,122.136836 171.728301,121.37283 L171.728301,121.478533 Z M177.171233,123.116924 C176.686784,122.95837 176.316323,124.015397 176.316323,125.468808 L176.316323,364.224707 C176.22166,365.38997 176.520448,366.553665 177.171233,367.554341 C177.655683,367.9243 178.909552,367.765746 178.909552,366.312335 L178.909552,126.182301 C178.849843,124.942403 178.216282,123.786646 177.171233,123.011221 L177.171233,123.116924 Z M182.585668,124.913869 C182.129716,124.781741 181.759255,125.838768 181.759255,127.292179 L181.759255,368.637793 C181.666151,369.811322 181.964621,370.983002 182.614165,371.993853 C183.098615,372.363812 184.29549,372.205258 184.29549,370.751847 L184.29549,128.058524 C184.248829,126.799151 183.627231,125.617498 182.585668,124.808167 L182.585668,124.913869 Z M188.057098,126.842943 C187.572648,126.684389 187.202187,127.741416 187.202187,129.194827 L187.202187,373.235859 C187.103675,374.401403 187.40274,375.566175 188.057098,376.565493 C188.51305,376.935453 189.738422,376.882601 189.738422,375.42919 L189.738422,130.040449 C189.674385,128.775762 189.069274,127.586934 188.057098,126.73724 L188.057098,126.842943 Z M193.50003,128.904145 C193.01558,128.719165 192.645119,129.776192 192.645119,131.229604 L192.645119,377.886777 C192.553468,379.068587 192.851634,380.248293 193.50003,381.269262 C193.955982,381.665647 195.209851,381.533519 195.209851,380.080107 L195.209851,132.128076 C195.130514,130.853769 194.516863,129.658772 193.50003,128.798442 L193.50003,128.904145 Z M198.942962,131.07105 C198.48701,130.859644 198.088051,131.890245 198.088051,133.343657 L198.088051,382.616971 C198.010379,383.797717 198.307599,384.973681 198.942962,385.999456 C199.398914,386.395841 200.652784,386.316564 200.652784,384.863153 L200.652784,134.321407 C200.571832,133.039886 199.95908,131.83717 198.942962,130.965347 L198.942962,131.07105 Z M204.385894,133.317231 C203.929942,133.105826 203.55948,134.136427 203.55948,135.589839 L203.55948,387.426442 C203.480642,388.612437 203.767269,389.794756 204.385894,390.835353 C204.841847,391.258164 206.095716,391.205313 206.095716,389.751901 L206.095716,136.567588 C206.014764,135.286068 205.402012,134.083352 204.385894,133.211529 L204.385894,133.317231 Z M209.828826,135.64269 C209.372874,135.431285 209.002413,136.461886 209.002413,137.915297 L209.002413,392.183062 C208.929646,393.385477 209.215583,394.583236 209.828826,395.644825 C210.313276,396.067635 211.538648,395.961933 211.538648,394.508521 L211.538648,138.919473 C211.447641,137.647966 210.83596,136.456805 209.828826,135.589839 L209.828826,135.64269 Z M215.271759,137.994574 C214.815806,137.783169 214.445345,138.787344 214.445345,140.240756 L214.445345,397.203939 C214.366507,398.389933 214.653134,399.572253 215.271759,400.61285 C215.756208,401.035661 216.98158,400.982809 216.98158,399.529398 L216.98158,141.297783 C216.897733,140.001693 216.286663,138.783388 215.271759,137.888872 L215.271759,137.994574 Z M220.743188,140.452161 C220.258738,140.240756 219.888277,141.271357 219.888277,142.724769 L219.888277,402.224816 C219.801495,403.414661 220.099136,404.601489 220.743188,405.633727 C221.19914,406.056537 222.453009,406.082963 222.453009,404.629551 L222.453009,143.702518 C222.372057,142.420998 221.759306,141.218282 220.743188,140.346459 L220.743188,140.452161 Z M226.18612,142.883323 C225.730167,142.671917 225.331209,143.676093 225.331209,145.129504 L225.331209,407.430672 C225.257844,408.619481 225.554601,409.802785 226.18612,410.839583 C226.642072,411.262394 227.895942,411.288819 227.895942,409.835408 L227.895942,146.160105 C227.819789,144.891374 227.253251,143.690557 226.300108,142.77762 L226.18612,142.883323 Z M231.657549,145.525889 C231.1731,145.314484 230.802638,146.345085 230.802638,147.798497 L230.802638,412.425123 C230.727693,413.619261 231.013918,414.809074 231.629052,415.86046 C232.085005,416.309696 233.338874,416.28327 233.338874,414.829859 L233.338874,148.644118 C233.277345,147.363663 232.673092,146.157525 231.657549,145.288058 L231.657549,145.525889 Z M237.071984,148.036328 C236.616032,147.824922 236.24557,148.829098 236.24557,150.282509 L236.24557,417.578128 C236.167553,418.772494 236.453964,419.963082 237.071984,421.013465 C237.556434,421.462701 238.781806,421.436275 238.781806,419.982864 L238.781806,151.207408 C238.703641,149.909992 238.091644,148.689838 237.071984,147.798497 L237.071984,148.036328 Z M242.543413,150.493915 C242.087461,150.282509 241.688503,151.286685 241.688503,152.740096 L241.688503,422.757559 C241.620722,423.954333 241.916951,425.144686 242.543413,426.192895 C243.027863,426.642132 244.224738,426.58928 244.224738,425.135869 L244.224738,153.664995 C244.148447,152.372617 243.547817,151.15483 242.543413,150.256084 L242.543413,150.493915 Z M247.986346,152.951502 C247.501896,152.740096 247.131435,153.770697 247.131435,155.224109 L247.131435,427.910564 C247.05897,429.107713 247.355495,430.299257 247.986346,431.3459 C248.470795,431.795137 249.696167,431.768711 249.696167,430.315299 L249.696167,156.149007 C249.602917,154.84747 248.99392,153.623886 247.986346,152.713671 L247.986346,152.951502 Z M253.429278,155.356237 C252.973325,155.144832 252.574367,156.175433 252.574367,157.628845 L252.574367,433.089994 C252.506586,434.286768 252.802815,435.477122 253.429278,436.525331 C253.88523,436.974567 255.139099,436.921716 255.139099,435.468304 L255.139099,158.553743 C255.045849,157.252206 254.436852,156.028622 253.429278,155.118406 L253.429278,155.356237 Z M258.900707,157.734547 C258.416258,157.549568 258.017299,158.580169 258.017299,160.03358 L258.017299,438.242999 C257.955315,439.456152 258.250865,440.662048 258.87221,441.731187 C259.328162,442.180424 260.582032,442.180424 260.582032,440.727012 L260.582032,160.879202 C260.51287,159.592853 259.9105,158.381008 258.900707,157.496716 L258.900707,157.734547 Z M264.315142,160.03358 C263.85919,159.848601 263.488728,160.905627 263.488728,162.359039 L263.488728,443.475281 C263.415962,444.677697 263.701899,445.875455 264.315142,446.937044 C264.799592,447.359854 266.024964,447.412706 266.024964,445.959294 L266.024964,163.20466 C265.980691,161.899571 265.362967,160.667999 264.315142,159.795749 L264.315142,160.03358 Z M269.758074,162.306188 C269.302122,162.121208 268.931661,163.151809 268.931661,164.605221 L268.931661,448.945394 C268.858894,450.14781 269.144831,451.345568 269.758074,452.407157 C270.242524,452.829967 271.467896,452.803542 271.467896,451.35013 L271.467896,165.397991 C271.422545,164.100714 270.804327,162.877713 269.758074,162.015505 L269.758074,162.306188 Z M275.229503,164.446667 C274.745054,164.235261 274.374593,165.265862 274.374593,166.719274 L274.374593,453.886994 C274.302127,455.084144 274.598653,456.275688 275.229503,457.322331 C275.713953,457.771567 276.939325,457.745141 276.939325,456.29173 L276.939325,167.512044 C276.861721,166.244899 276.247129,165.057567 275.229503,164.208836 L275.229503,164.446667 Z M280.672436,166.507869 C280.216483,166.322889 279.817525,167.379916 279.817525,168.833327 L279.817525,458.987148 C279.749744,460.183922 280.045973,461.374276 280.672436,462.422484 C281.128388,462.871721 282.382257,462.845295 282.382257,461.391883 L282.382257,169.54682 C282.306514,168.286785 281.690934,167.107059 280.672436,166.270038 L280.672436,166.507869 Z M286.115368,168.436942 C285.659415,168.278388 285.260457,169.335415 285.260457,170.788827 L285.260457,464.060876 C285.193412,465.266011 285.489429,466.464666 286.115368,467.522638 C286.57132,467.945449 287.825189,467.919023 287.825189,466.465612 L287.825189,171.423043 C287.767468,170.179538 287.159192,169.013173 286.143865,168.199111 L286.115368,168.436942 Z M291.586797,170.33959 C291.102348,170.181036 290.731886,171.238063 290.731886,172.691475 L290.731886,469.16103 C290.653869,470.355396 290.94028,471.545984 291.5583,472.596366 C292.042749,473.045603 293.268122,473.019177 293.268122,471.565765 L293.268122,173.246414 C293.225507,172.021805 292.612119,170.874559 291.586797,170.101759 L291.586797,170.33959 Z M297.001232,172.030833 C296.54528,172.030833 296.174818,172.982157 296.174818,174.435569 L296.174818,474.261183 C296.09598,475.447177 296.382607,476.629497 297.001232,477.670094 C297.485682,478.092905 298.711054,478.040054 298.711054,476.586642 L298.711054,174.990508 C298.659168,173.747275 298.037021,172.583811 297.001232,171.793002 L297.001232,172.030833 Z M302.472661,173.669224 C301.988212,173.669224 301.617751,174.646974 301.617751,176.100386 L301.617751,479.123506 C301.545285,480.320655 301.841811,481.512199 302.472661,482.558843 C302.957111,483.008079 304.182483,482.902376 304.182483,481.448965 L304.182483,176.523196 C304.131635,175.309322 303.506017,174.178041 302.472661,173.431393 L302.472661,173.669224 Z M307.915594,175.122636 C307.459641,175.122636 307.060683,176.100386 307.060683,177.553797 L307.060683,484.144383 C306.987318,485.333191 307.284075,486.516496 307.915594,487.553294 C308.371546,487.976104 309.625415,487.870402 309.625415,486.41699 L309.625415,177.870905 C309.542097,176.694626 308.919728,175.607695 307.915594,174.884805 L307.915594,175.122636 Z M313.358526,176.443919 C312.902573,176.311791 312.503615,177.421669 312.503615,178.875081 L312.503615,489.033131 C312.423678,490.225801 312.73141,491.413284 313.387023,492.442042 C313.842975,492.864853 315.068347,492.812001 315.068347,491.35859 L315.068347,179.297891 C315.0175,178.084017 314.391881,176.952736 313.358526,176.206088 L313.358526,176.443919 Z M318.801458,177.606649 C318.345505,177.606649 317.975044,178.584398 317.975044,180.03781 L317.975044,493.816177 C317.888262,495.006021 318.185903,496.19285 318.829955,497.225088 C319.314404,497.647898 320.51128,497.542196 320.51128,496.088784 L320.51128,180.302067 C320.480305,179.126942 319.8447,178.036543 318.801458,177.368818 L318.801458,177.606649 Z M324.24439,178.63725 C323.788438,178.63725 323.417976,179.667851 323.417976,181.121262 L323.417976,498.546371 C323.340304,499.727116 323.637525,500.903081 324.272887,501.928856 C324.757337,502.325241 325.954212,502.193113 325.954212,500.739701 L325.954212,181.332668 C325.942397,180.152888 325.302327,179.054829 324.24439,178.399419 L324.24439,178.63725 Z M329.715819,179.509297 C329.23137,179.509297 328.860908,180.539898 328.860908,181.993309 L328.860908,503.223714 C328.782105,504.396152 329.079589,505.563964 329.715819,506.579774 C330.200269,506.976159 331.425641,506.84403 331.425641,505.390619 L331.425641,182.125438 C331.40563,180.968976 330.764114,179.898182 329.715819,179.271466 L329.715819,179.509297 Z M335.158751,180.196364 C334.702799,180.196364 334.303841,181.279816 334.303841,182.838931 L334.303841,508.138888 C334.211885,509.307415 334.521121,510.47295 335.187248,511.468522 C335.643201,511.864907 336.868573,511.706353 336.868573,510.252941 L336.868573,182.786079 C336.859858,181.633876 336.214338,180.566375 335.158751,179.958533 L335.158751,180.196364 Z M340.601684,180.672026 C340.145731,180.672026 339.746773,181.781904 339.746773,183.314593 L339.746773,512.234866 C339.654817,513.403393 339.964053,514.568929 340.630181,515.5645 C341.086133,515.960885 342.311505,515.723054 342.311505,514.269643 L342.311505,183.156039 C342.301185,182.052656 341.646713,181.041155 340.601684,180.513472 L340.601684,180.672026 Z M346.073113,180.989134 C345.588663,180.989134 345.218202,182.151863 345.218202,183.631701 L345.218202,516.859358 C345.11969,518.024901 345.418755,519.189674 346.073113,520.188992 C346.557562,520.585377 347.754437,520.347546 347.754437,518.894134 L347.754437,183.420295 C347.769785,182.289129 347.082299,181.250597 345.987622,180.751303 L346.073113,180.989134 Z M351.487548,181.147688 C351.031596,181.147688 350.661134,182.283992 350.661134,183.790255 L350.661134,520.902485 C350.552714,522.052002 350.852966,523.202837 351.516045,524.179268 C352.000494,524.549227 353.19737,524.179268 353.19737,522.857984 L353.19737,183.578849 C353.230347,182.457821 352.564973,181.419188 351.487548,180.909857 L351.487548,181.147688 Z M356.958977,181.147688 C356.503025,181.147688 356.104066,182.336843 356.104066,183.790255 L356.104066,525.051315 C356.011856,526.199652 356.310897,527.345844 356.958977,528.328097 C357.443427,528.698057 358.668799,528.328097 358.668799,526.927537 L358.668799,183.420295 C358.731701,182.318674 358.05002,181.296728 356.958977,180.857006 L356.958977,181.147688 Z M362.401909,180.909857 C361.945957,180.909857 361.546999,182.125438 361.546999,183.552424 L361.546999,529.04159 C361.453201,530.201913 361.762805,531.359577 362.430406,532.344799 C362.886359,532.688332 364.111731,532.344799 364.111731,530.944238 L364.111731,183.156039 C364.211996,182.026286 363.52407,180.963081 362.401909,180.513472 L362.401909,180.909857 Z M367.844842,180.487046 C367.388889,180.487046 366.989931,181.755478 366.989931,183.129613 L366.989931,533.031866 C366.883095,534.168203 367.194484,535.304592 367.873339,536.255797 C368.329291,536.599331 369.554663,536.255797 369.554663,534.802386 L369.554663,182.627525 C369.558621,181.573441 368.886661,180.617994 367.844842,180.196364 L367.844842,180.487046 Z M373.287774,179.879256 C372.831821,179.879256 372.46136,181.174114 372.46136,182.521823 L372.46136,536.757885 C372.348384,537.891024 372.649482,539.026485 373.316271,539.981816 C373.80072,540.298924 374.997595,539.981816 374.997595,538.501979 L374.997595,181.966884 C374.997595,180.513472 373.743726,179.535722 373.287774,179.586532 L373.287774,179.879256 Z M378.759203,179.033635 C378.274753,179.033635 377.904292,180.381344 377.904292,181.834755 L377.904292,540.378201 C377.793702,541.499268 378.084117,542.622922 378.730706,543.575707 C379.215155,543.866389 380.440527,543.575707 380.440527,541.990167 L380.440527,181.094837 C380.440527,179.641425 379.243652,178.663675 378.759203,178.742952 L378.759203,179.033635 Z M384.202135,177.976608 C383.717686,177.976608 383.347224,179.350743 383.347224,180.804154 L383.347224,543.813538 C383.234021,544.938359 383.535394,546.065542 384.202135,547.011044 C384.658087,547.301726 385.911957,546.85249 385.911957,545.399078 L385.911957,180.011384 C385.88346,178.557973 384.658087,177.606649 384.202135,177.685926 L384.202135,177.976608 Z M389.645067,176.787453 C389.189115,176.787453 388.790156,178.188013 388.790156,179.641425 L388.790156,547.169598 C388.683266,548.277318 388.98465,549.38591 389.645067,550.314252 C390.10102,550.578509 391.354889,550.129272 391.354889,548.675861 L391.354889,178.716527 C391.354889,177.236689 390.10102,176.364642 389.645067,176.496771 L389.645067,176.787453 Z M395.087999,175.334041 C394.632047,175.334041 394.233089,176.734602 394.233089,178.188013 L394.233089,550.472806 C394.112061,551.57702 394.425832,552.684562 395.116496,553.591035 C395.572449,553.828866 396.797821,553.379629 396.797821,551.926218 L396.797821,177.183838 C396.797821,175.730426 395.543952,174.911231 395.087999,175.043359 L395.087999,175.334041 Z M400.530932,173.669224 C400.074979,173.827778 399.704518,175.149062 399.704518,176.602473 L399.704518,553.696737 C399.704518,555.150149 400.074979,556.550709 400.559429,556.78854 C401.043878,557.026371 402.240753,556.392155 402.240753,554.938744 L402.240753,175.492595 C402.240753,174.039184 400.986884,173.219988 400.530932,173.378542 L400.530932,173.669224 Z M405.973864,171.793002 C405.517911,171.977982 405.14745,173.325691 405.14745,174.779102 L405.14745,556.18075 C405.14745,557.634162 405.517911,559.008296 405.973864,559.246127 C406.429816,559.483958 407.683685,558.876168 407.683685,557.422756 L407.683685,173.537096 C407.683685,172.083684 406.458313,171.343766 405.973864,171.50232 L405.973864,171.793002 Z M411.445293,169.7318 C410.960843,169.943205 410.590382,171.290914 410.590382,172.744326 L410.590382,559.087573 C410.590382,560.540985 410.989341,561.91512 411.445293,562.126525 C411.901245,562.33793 413.155115,561.703714 413.155115,560.250303 L413.155115,171.343766 C413.155115,169.943205 411.901245,169.229712 411.530784,169.441118 L411.445293,169.7318 Z M416.888225,167.432767 C416.213472,168.31532 415.909464,169.395978 416.033314,170.471719 L416.033314,561.571586 C416.033314,563.024998 416.432273,564.372707 416.888225,564.557686 C417.344178,564.742666 418.598047,564.10845 418.598047,562.655038 L418.598047,169.018307 C418.598047,167.564895 417.230189,166.930679 416.888225,167.142085 L416.888225,167.432767 Z M422.331157,164.7902 C421.875205,165.001606 421.476246,166.37574 421.476246,167.829152 L421.476246,563.527085 C421.476246,564.980497 421.875205,566.328206 422.331157,566.48676 C422.78711,566.645314 424.040979,565.931821 424.040979,564.478409 L424.040979,166.481443 C424.040979,165.028031 422.929595,164.393815 422.331157,164.658072 L422.331157,164.7902 Z M427.774089,162.147634 C427.119364,163.067682 426.827433,164.169199 426.947676,165.265862 L426.947676,565.482585 C426.947676,566.935996 427.318137,568.283705 427.774089,568.468685 C428.230042,568.653665 429.483911,567.808043 429.483911,566.354632 L429.483911,163.653897 C429.483911,162.200485 428.230042,161.645546 427.774089,162.015505 L427.774089,162.147634 Z M433.217022,159.24081 C432.608269,160.053472 432.298459,161.026556 432.333614,162.015505 L432.333614,567.305956 C432.333614,568.759367 432.732572,569.948522 433.217022,570.239205 C433.701471,570.529887 434.926843,569.552137 434.926843,568.098726 L434.926843,160.588519 C434.926843,159.135108 433.672974,158.738723 433.217022,159.002979 L433.217022,159.24081 Z M438.659954,156.06973 C437.974259,156.988318 437.661311,158.102317 437.776546,159.214385 L437.776546,568.970773 C437.776546,570.424184 438.175504,571.613339 438.659954,571.85117 C439.144403,572.089001 440.398272,571.084826 440.398272,569.631414 L440.398272,157.470291 C440.398272,156.016879 439.144403,155.567643 438.659954,155.831899 L438.659954,156.06973 Z M444.102886,152.687245 C443.43191,153.631031 443.130163,154.759613 443.247975,155.884751 L443.247975,570.292056 C443.247975,571.745468 443.618437,572.934623 444.102886,573.146028 C444.587335,573.357433 445.841205,572.326832 445.841205,570.873421 L445.841205,154.087805 C445.727217,152.502265 444.587335,152.158732 444.102886,152.449414 L444.102886,152.687245 Z M449.545818,148.802672 C448.894809,149.764265 448.595043,150.894703 448.690907,152.026603 L448.690907,571.375508 C448.690907,572.82892 449.089866,574.018075 449.545818,574.203055 C450.001771,574.388034 451.284137,573.357433 451.284137,571.904022 L451.284137,150.335361 C451.426622,148.802672 450.030268,148.538415 449.545818,148.802672 Z M454.98875,145.023802 C454.337741,145.985394 454.037975,147.115833 454.133839,148.247733 L454.133839,572.247555 C454.133839,573.700967 454.532798,574.890122 454.98875,575.048676 C455.444703,575.20723 456.727069,574.070926 456.727069,572.617515 L456.727069,146.477213 C456.727069,145.023802 455.4732,144.759545 454.98875,145.076653 L454.98875,145.023802 Z M460.431682,141.059952 C459.774666,142.02897 459.474658,143.169595 459.576772,144.310309 L459.576772,572.908197 C459.576772,574.361609 459.97573,575.550764 460.431682,575.550764 C460.887635,575.550764 462.141504,574.440886 462.141504,572.908197 L462.141504,142.460512 C462.141504,141.0071 460.887635,140.874972 460.431682,141.112803 L460.431682,141.059952 Z M465.874615,136.831845 C465.23246,137.835777 464.934327,138.996916 465.019704,140.161479 L465.019704,573.198879 C465.019704,574.652291 465.418662,575.841446 465.874615,575.841446 C466.330567,575.841446 467.584436,574.652291 467.584436,573.198879 L467.584436,138.232405 C467.584436,136.646865 466.330567,136.514737 465.874615,136.884696 L465.874615,136.831845 Z M471.374541,132.445184 C470.745646,133.453252 470.457739,134.613235 470.548127,135.774818 L470.548127,573.357433 C470.548127,574.810845 470.918588,576 471.374541,576 C472.442547,575.494835 473.106281,574.469019 473.084363,573.357433 L473.084363,133.660765 C473.027368,132.207353 471.801996,132.075225 471.374541,132.445184 Z M476.817473,127.820693 C476.193581,128.849828 475.906417,130.025183 475.991059,131.203178 L475.991059,573.066751 C475.991059,574.520163 476.361521,575.709318 476.817473,575.709318 C477.273425,575.709318 478.527295,574.41446 478.527295,573.066751 L478.527295,129.11555 C478.470301,127.477159 477.244928,127.424308 476.760479,127.820693 L476.817473,127.820693 Z M482.288902,122.95837 C481.639357,123.969221 481.340888,125.140901 481.433991,126.31443 L481.433991,572.538238 C481.433991,573.991649 481.804453,575.180804 482.288902,575.180804 C483.341681,574.545594 483.983108,573.465034 483.998724,572.300407 L483.998724,123.988971 C483.94173,122.535559 482.773352,122.561985 482.231908,122.95837 L482.288902,122.95837 Z M487.731834,117.937493 C487.100984,118.984136 486.804458,120.175681 486.876924,121.37283 L486.876924,571.613339 C486.876924,573.066751 487.275882,574.255906 487.760331,574.123778 C488.795674,573.416855 489.417159,572.303304 489.441656,571.111252 L489.441656,118.888817 C489.384662,117.435406 488.130793,117.488257 487.67484,117.937493 L487.731834,117.937493 Z M493.174767,112.65236 C492.553422,113.721499 492.257872,114.927395 492.319856,116.140548 L492.319856,570.662015 C492.319856,572.115427 492.718814,573.304582 493.203264,573.093177 C494.234153,572.359266 494.85211,571.232611 494.884588,570.027799 L494.884588,113.524407 C494.827594,112.070995 493.573725,112.123847 493.117773,112.573083 L493.174767,112.65236 Z M498.646196,107.155821 C498.016037,108.240995 497.720257,109.466115 497.791285,110.696861 L497.791285,568.970773 C497.791285,570.424184 498.161746,571.481211 498.617699,571.322657 C499.652045,570.519423 500.272904,569.348771 500.32752,568.098726 L500.32752,107.975017 C500.270526,106.521605 499.073651,106.521605 498.589202,107.076544 L498.646196,107.155821 Z M504.060631,101.527154 C503.456368,102.629786 503.171584,103.859142 503.234217,105.094619 L503.234217,567.173827 C503.234217,568.627239 503.633176,569.65784 504.089128,569.47286 C505.10556,568.615025 505.710766,567.416497 505.770453,566.143226 L505.770453,102.240647 C505.713459,100.787236 504.488086,100.94579 504.003637,101.447877 L504.060631,101.527154 Z M509.53206,95.6342306 C508.902309,96.7290853 508.606719,97.9625548 508.677149,99.2016956 L508.677149,564.90122 C508.677149,566.354632 509.047611,567.385233 509.53206,567.200253 C510.569434,566.274381 511.190475,565.018732 511.270379,563.685639 L511.270379,96.3477236 C511.270379,94.894312 509.931019,95.052866 509.475066,95.5549536 L509.53206,95.6342306 Z M514.974992,89.5299016 C514.364629,90.6502724 514.070498,91.8958376 514.120081,93.150218 L514.120081,562.364356 C514.120081,563.817768 514.51904,564.795517 514.974992,564.531261 C515.96931,563.569745 516.573538,562.318389 516.684814,560.990221 L516.684814,90.1641176 C516.62782,88.7107059 515.373951,88.8956856 514.917998,89.4506246 L514.974992,89.5299016 Z M520.446422,83.1877416 C519.81395,84.3015439 519.509245,85.5502619 519.563014,86.8080579 L519.563014,559.298979 C519.563014,560.75239 519.961972,561.73014 520.446422,561.439458 C521.421001,560.395489 522.010122,559.089927 522.127746,557.713439 L522.127746,83.7691063 C522.070752,82.3156946 520.84538,82.5799513 520.389427,83.1084646 L520.446422,83.1877416 Z M525.860857,76.7134533 C525.267892,77.8668709 524.98437,79.1361102 525.034443,80.4130466 L525.034443,556.075047 C525.034443,557.528459 525.404904,558.479783 525.860857,558.162675 C526.844382,557.080126 527.441748,555.741423 527.570678,554.330953 L527.570678,77.2155409 C527.513684,75.7621293 526.259815,76.0528116 525.803863,76.6341763 L525.860857,76.7134533 Z M531.218298,69.9484826 C530.625333,71.1019002 530.341811,72.3711395 530.391884,73.6480759 L530.391884,552.111197 C530.391884,553.564609 530.762345,554.463082 531.218298,554.093122 C532.194375,552.955529 532.788891,551.577274 532.928119,550.129272 L532.928119,70.4505703 C532.956616,68.9971586 531.731244,69.3671179 531.218298,69.9484826 Z M536.689727,63.0778092 C536.082414,64.236921 535.788973,65.5158483 535.834816,66.8038282 L535.834816,547.830239 C535.834816,549.283651 536.205277,550.155698 536.689727,549.759313 C537.654399,548.585463 538.246561,547.185207 538.399549,545.716186 L538.399549,63.4477686 C538.428046,61.9943569 537.174176,62.4700189 536.718224,63.0778092 L536.689727,63.0778092 Z M542.132659,55.9428792 C541.533851,57.1046867 541.240857,58.3816668 541.277748,59.6688982 L541.277748,543.073619 C541.277748,544.527031 541.676707,545.372652 542.132659,544.923416 C543.078122,543.670374 543.666316,542.215869 543.842481,540.695309 L543.842481,56.3128386 C543.870978,54.8858526 542.617109,55.3350889 542.161156,55.9428792 L542.132659,55.9428792 Z M547.604088,48.6229696 C546.985483,49.7981576 546.682406,51.0946019 546.72068,52.4018399 L546.72068,537.841337 C546.72068,539.294749 547.119639,540.113945 547.604088,539.638283 C548.536784,538.342215 549.113953,536.854494 549.285413,535.304473 L549.285413,48.9136519 C549.31391,47.4602402 548.088538,48.0151792 547.632585,48.6229696 L547.604088,48.6229696 Z M553.018523,41.1709315 C552.436366,42.3651169 552.15381,43.6661715 552.19211,44.9762276 L552.19211,532.159819 C552.19211,533.613231 552.562571,534.379575 553.018523,533.877487 C553.944441,532.498541 554.52845,530.946073 554.728345,529.332273 L554.728345,41.4087625 C554.756842,39.9553509 553.502973,40.4574385 553.04702,41.1709315 L553.018523,41.1709315 Z M558.461456,33.5339139 C557.886824,34.7582712 557.604893,36.0834913 557.635042,37.4184869 L557.635042,525.976213 C557.635042,527.429625 558.005503,528.169543 558.461456,527.614604 C559.391892,526.160793 559.974966,524.538717 560.171277,522.857984 L560.171277,33.6924679 C560.199774,32.2390562 558.974402,32.8468465 558.489953,33.5339139 L558.461456,33.5339139 Z M563.932885,25.6062139 C563.332972,26.8239094 563.040582,28.152483 563.077974,29.4907869 L563.077974,519.211242 C563.077974,520.664654 563.476932,521.351721 563.932885,520.743931 C564.849305,519.246137 565.430822,517.592443 565.642706,515.881608 L565.642706,25.7647679 C565.671203,24.3113562 564.417334,24.9191465 563.961382,25.6062139 L563.932885,25.6062139 Z M569.375817,17.5199598 C568.789657,18.7417749 568.497908,20.0674361 568.520906,21.4045328 L568.520906,511.944184 C568.520906,513.397596 568.919865,514.058237 569.375817,513.397596 C570.295969,511.776362 570.885293,510.011474 571.114136,508.191739 L571.114136,17.6256625 C571.114136,16.1722508 569.860266,16.8593182 569.404314,17.5199598 L569.375817,17.5199598 Z M574.818749,9.3015775 C574.236697,10.5525094 573.9454,11.9031272 573.963838,13.2654275 L573.963838,504.095761 C573.963838,505.549173 574.362797,506.130537 574.818749,505.417044 C575.708872,503.758398 576.287118,501.971014 576.528571,500.131911 L576.528571,9.32800316 C576.557068,7.8745915 575.303199,8.5880845 574.847246,9.3015775 L574.818749,9.3015775 Z M580.290178,0.818938485 C579.719372,2.06297334 579.437779,3.40461681 579.463765,4.75636282 L579.463765,495.586696 C579.463765,497.040108 579.834226,497.595047 580.290178,496.828703 C581.167363,495.100261 581.744424,493.254111 582,491.35859 L582,0.818938485 C582,-0.634473184 580.746131,0.158296818 580.290178,0.818938485 Z" id="Shape" fill="url(#linearGradient-1)"></path>
                <path d="M7.15843943,229.807815 C7.61427396,229.304872 8.01312918,230.072522 8.01312918,231.52841 L8.01312918,334.181746 C8.06991772,335.37448 7.76382788,336.557943 7.12994977,337.596465 C6.67411524,338.072937 5.44905993,338.205291 5.44905993,336.749403 L5.44905993,234.360774 C5.65350059,232.745204 6.23701694,231.190999 7.15843943,229.807815 L7.15843943,229.807815 Z M0.862224933,237.007843 C0.242429343,238.136432 -0.0520373617,239.394987 0.00753518263,240.660798 L0.00753518263,342.890603 C0.00753518263,344.346491 0.377900741,345.08767 0.862224933,344.531786 C1.7730812,343.155778 2.34694322,341.610418 2.54311478,340.005298 L2.54311478,237.66961 C2.54311478,236.213722 1.31805947,236.451958 0.862224933,237.007843 Z M11.8592331,224.804855 C11.2477386,225.907726 10.9533261,227.138694 11.0045433,228.378398 L11.0045433,331.455265 C11.0045433,332.911153 11.4033985,333.731744 11.8592331,333.308213 C12.8055713,332.093148 13.3947283,330.669894 13.5686126,329.178786 L13.5686126,225.651917 C13.4546539,224.196029 12.201109,224.301912 11.8592331,224.804855 Z M17.3292475,219.113657 C16.6953731,220.18016 16.3990727,221.391491 16.4745577,222.607788 L16.4745577,326.717011 C16.4745577,328.172899 16.8449233,329.046432 17.3007578,328.675843 C18.2721366,327.554195 18.8666419,326.191671 19.0101373,324.75818 L19.0101373,220.093072 C18.8961787,218.637184 17.699613,218.637184 17.2152888,219.113657 L17.3292475,219.113657 Z M22.7422826,213.819519 C22.1336643,214.893988 21.8482394,216.101095 21.9160825,217.31365 L21.9160825,322.693467 C21.9160825,324.149355 22.286448,325.075829 22.7422826,324.73171 C23.733931,323.693511 24.3340728,322.383123 24.4516621,320.999342 L24.4516621,214.825405 C24.3377034,213.369517 23.2550964,213.316575 22.6283239,213.766577 L22.7422826,213.819519 Z M28.212297,208.790087 C27.5809417,209.828652 27.284261,211.013972 27.3576072,212.204806 L27.3576072,319.066982 C27.3576072,320.52287 27.7279728,321.502286 28.212297,321.211108 C29.1887933,320.208246 29.7799225,318.932897 29.8931868,317.584623 L29.8931868,209.822444 C29.7792282,208.366556 28.5826625,208.287144 28.0983383,208.737146 L28.212297,208.790087 Z M33.6538217,203.998893 C33.0099364,205.032889 32.712372,206.221739 32.799132,207.413612 L32.799132,316.128735 C32.799132,317.584623 33.1694975,318.59051 33.6538217,318.352273 C34.6562362,317.415764 35.2629175,316.175651 35.3632012,314.858142 L35.3632012,205.243015 C35.2492426,203.734186 33.9956976,203.548891 33.5398631,203.945951 L33.6538217,203.998893 Z M39.1238361,199.551817 C38.4564079,200.538717 38.1468831,201.698353 38.2406567,202.860653 L38.2406567,313.61402 C38.2406567,315.069908 38.6395119,316.075794 39.0953464,315.864029 C40.1070131,314.998864 40.7195028,313.803786 40.8047259,312.528722 L40.8047259,200.84888 C40.6907673,199.392992 39.465712,199.128286 39.0098775,199.498875 L39.1238361,199.551817 Z M44.5368712,195.395918 C43.9024576,196.384211 43.6137807,197.53108 43.7106711,198.678284 L43.7106711,311.443423 C43.7106711,312.899311 44.0810367,314.090492 44.5368712,313.799315 C45.5680555,313.015375 46.1899755,311.859682 46.2462507,310.622832 L46.2462507,196.798865 C46.0468231,195.316506 44.8787471,194.998858 44.4229126,195.342977 L44.5368712,195.395918 Z M49.9783959,191.531197 C49.3210152,192.455347 48.9921931,193.54781 49.0382372,194.654739 L49.0382372,309.643416 C49.0382372,311.099304 49.4086028,312.290485 49.8644373,312.052249 C50.907947,311.335932 51.5384317,310.213141 51.5738168,309.00812 L51.5738168,193.013556 C51.5738168,191.557668 50.3487615,191.134137 49.8644373,191.478256 L49.9783959,191.531197 Z M55.4484103,187.931184 C54.7753414,188.865745 54.4731736,189.988762 54.5937206,191.107666 L54.5937206,308.478706 C54.5937206,309.934594 54.9640862,311.125775 55.4484103,310.94048 C56.4850383,310.257474 57.1093238,309.156373 57.1293002,307.975763 L57.1293002,189.492954 C57.0153416,188.037066 55.7902862,187.613535 55.3344517,187.878242 L55.4484103,187.931184 Z M60.8899351,184.675289 C60.2094826,185.58686 59.9059928,186.695991 60.0352453,187.79883 L60.0352453,307.525761 C60.0352453,308.981649 60.4056109,310.17283 60.8899351,310.040477 C61.9386343,309.400905 62.5786839,308.320549 62.5993146,307.155172 L62.5993146,186.316472 C62.485356,184.860584 61.231811,184.33117 60.7759765,184.622347 L60.8899351,184.675289 Z M66.3314598,181.65763 C65.6600011,182.563026 65.3570476,183.660815 65.4767701,184.754701 L65.4767701,306.916935 C65.4767701,308.372823 65.8756253,309.564004 66.3314598,309.564004 C67.343847,309.004647 67.9860626,308.010141 68.0408393,306.916935 L68.0408393,183.378225 C67.9268807,181.922337 66.6733357,181.419394 66.2175012,181.604689 L66.3314598,181.65763 Z M71.6875156,178.772325 C71.2316811,179.010561 70.8613155,180.387037 70.8613155,181.842925 L70.8613155,306.466934 C70.8613155,307.922822 71.2316811,309.114003 71.6875156,309.114003 C72.7411824,308.594096 73.3990078,307.575416 73.3968951,306.466934 L73.3968951,180.731156 C73.3684055,179.275268 72.1148605,178.772325 71.6875156,178.772325 Z M77.15753,176.337021 C76.6732058,176.548787 76.3028403,177.898792 76.3028403,179.35468 L76.3028403,306.413992 C76.3028403,307.86988 76.6732058,309.061061 77.1290404,309.061061 C78.2509113,308.610686 78.9386594,307.54567 78.8384199,306.413992 L78.8384199,178.375265 C78.8099302,176.919377 77.6133645,176.125256 77.1290404,176.416433 L77.15753,176.337021 Z M82.5990548,174.166425 C82.1147306,174.35172 81.744365,175.701725 81.744365,177.157613 L81.744365,306.863994 C81.744365,308.319882 82.1147306,309.511063 82.5990548,309.511063 C83.0833789,309.511063 84.2799446,308.425765 84.2799446,306.863994 L84.2799446,176.257609 C84.2514549,174.801721 83.0833789,174.060542 82.5705651,174.245837 L82.5990548,174.166425 Z M88.0405795,172.234064 C87.584745,172.392889 87.1858898,173.742894 87.1858898,175.198782 L87.1858898,307.287525 C87.1858898,308.743413 87.5562553,309.934594 88.0405795,309.934594 C88.5249037,309.934594 89.749959,309.00812 89.749959,307.552232 L89.749959,174.431132 C89.7214693,172.975244 88.496414,172.154652 88.0120898,172.313477 L88.0405795,172.234064 Z M93.4821042,170.592882 C93.0262697,170.592882 92.6274145,172.022299 92.6274145,173.478187 L92.6274145,308.108116 C92.6274145,309.564004 93.0262697,310.755185 93.4821042,310.755185 C93.9379388,310.755185 95.1914838,309.855182 95.1914838,308.399294 L95.1914838,172.84289 C95.1629941,171.387002 93.9094491,170.51347 93.4536146,170.672294 L93.4821042,170.592882 Z M98.923629,169.136994 C98.4677945,169.136994 98.0974289,170.53994 98.0974289,171.995828 L98.0974289,309.140473 C98.0974289,310.596361 98.4677945,311.787542 98.9521187,311.946366 C99.4364428,312.105191 100.633008,311.125775 100.633008,309.669887 L100.633008,171.492885 C100.604519,170.036997 99.3509739,169.110523 98.8951393,169.216406 L98.923629,169.136994 Z M104.365154,168.184049 C103.88083,168.184049 103.510464,169.560525 103.510464,171.016413 L103.510464,310.596361 C103.510464,312.052249 103.88083,313.24343 104.365154,313.428725 C104.849478,313.61402 106.046044,312.661075 106.046044,311.205187 L106.046044,170.434058 C106.046044,168.97817 104.849478,167.945813 104.365154,168.184049 Z M109.806678,167.257575 C109.350844,167.257575 108.951989,168.581109 108.951989,170.036997 L108.951989,311.919896 C108.951989,313.375784 109.350844,314.566965 109.806678,314.75226 C110.262513,314.937554 111.487568,314.037551 111.487568,312.581663 L111.487568,169.481113 C111.573037,168.025225 110.291003,167.045809 109.806678,167.125221 L109.806678,167.257575 Z M115.248203,166.569337 C114.792369,166.569337 114.393513,167.866401 114.393513,169.216406 L114.393513,313.508137 C114.393513,314.964025 114.792369,316.155206 115.248203,316.419913 C115.704038,316.68462 116.957583,315.731675 116.957583,314.275787 L116.957583,168.925228 C116.957583,167.46934 115.732527,166.384042 115.248203,166.436983 L115.248203,166.569337 Z M120.689728,166.039923 C120.233893,166.039923 119.835038,167.284045 119.835038,168.686992 L119.835038,315.387556 C119.835038,316.843444 120.233893,318.034625 120.718218,318.325803 C121.202542,318.61698 122.399107,317.769918 122.399107,316.31403 L122.399107,168.448756 C122.399107,166.992868 121.145563,165.881099 120.689728,165.907107 L120.689728,166.039923 Z M126.159742,165.775216 C125.675418,165.775216 125.305053,166.992868 125.305053,168.422285 L125.305053,317.425799 C125.305053,318.881687 125.675418,320.072868 126.131253,320.390517 C126.587087,320.708165 127.840632,319.861103 127.840632,318.405215 L127.840632,168.184049 C127.840632,166.807573 126.644067,165.53698 126.159742,165.53698 L126.159742,165.775216 Z M131.515798,165.53698 C131.031474,165.53698 130.661108,166.728161 130.661108,168.184049 L130.661108,319.411101 C130.661108,320.866989 131.031474,322.216994 131.487308,322.402289 C131.943143,322.587584 133.196688,321.899346 133.196688,320.443458 L133.196688,168.184049 C133.282157,166.807573 132.085591,165.53698 131.515798,165.53698 Z M136.928833,165.53698 C136.472999,165.53698 136.102633,166.70169 136.102633,168.184049 L136.102633,321.714051 C136.102633,323.169939 136.472999,324.519944 136.928833,324.705239 C137.384668,324.890534 138.638213,324.255237 138.638213,322.799349 L138.638213,168.422285 C138.723682,166.966397 137.498626,165.695804 137.014302,165.695804 L136.928833,165.53698 Z M142.398848,165.801687 C141.914523,165.801687 141.544158,166.939926 141.544158,168.448756 L141.544158,324.017001 C141.544158,325.472889 141.914523,326.849365 142.398848,327.06113 C142.883172,327.272896 144.108227,326.66407 144.108227,325.208182 L144.108227,168.713463 C144.132686,167.592711 143.514262,166.544322 142.484317,165.960511 L142.398848,165.801687 Z M147.811883,166.30463 C147.327559,166.30463 146.957193,167.416399 146.957193,168.951699 L146.957193,326.584658 C146.957193,328.040546 147.327559,329.417022 147.811883,329.628787 C148.296207,329.840553 149.549752,329.33761 149.549752,327.881722 L149.549752,169.057582 C149.503737,167.989648 148.882785,167.014806 147.897352,166.463454 L147.811883,166.30463 Z M153.253407,166.886985 C152.797573,166.886985 152.398718,167.972283 152.398718,169.534054 L152.398718,329.284668 C152.278995,330.378555 152.581949,331.476343 153.253407,332.381739 C153.737732,332.619975 154.991277,332.03762 154.991277,330.581732 L154.991277,169.957585 C154.997854,168.791626 154.378054,167.699446 153.338876,167.045809 L153.253407,166.886985 Z M158.723422,167.681106 C158.239098,167.681106 157.840242,168.766404 157.840242,170.328175 L157.840242,332.064091 C157.840242,333.519979 158.239098,334.922925 158.723422,335.161162 C159.207746,335.399398 160.432801,334.869984 160.432801,333.414096 L160.432801,170.831118 C160.4445,169.648607 159.839377,168.533992 158.808891,167.83993 L158.723422,167.681106 Z M164.164947,168.60758 C163.680622,168.60758 163.281767,169.639937 163.281767,171.095825 L163.281767,334.949396 C163.160771,336.055491 163.474461,337.164921 164.164947,338.072937 C164.620781,338.337644 165.874326,337.808231 165.874326,336.352343 L165.874326,171.704651 C165.867711,170.540796 165.26459,169.449529 164.250416,168.766404 L164.164947,168.60758 Z M169.606471,169.639937 C169.122147,169.639937 168.751782,170.672294 168.751782,172.128182 L168.751782,337.834701 C168.625779,338.945644 168.928691,340.062045 169.606471,340.984713 C170.090796,341.24942 171.344341,340.746477 171.344341,339.290589 L171.344341,172.525242 C171.246193,171.436474 170.643039,170.441264 169.69194,169.798761 L169.606471,169.639937 Z M175.047996,170.804647 C174.563672,170.804647 174.193306,171.810533 174.193306,173.266421 L174.193306,340.931772 C174.067304,342.042714 174.370216,343.159116 175.047996,344.081784 C175.53232,344.346491 176.785865,343.896489 176.785865,342.440601 L176.785865,173.98113 C176.763825,172.792667 176.15441,171.679735 175.133465,170.963471 L175.047996,170.804647 Z M180.489521,172.07524 C180.005197,172.07524 179.634831,173.081127 179.634831,174.537015 L179.634831,344.081784 C179.523358,345.191726 179.825044,346.303609 180.489521,347.231796 C180.973845,347.496503 182.170411,347.046501 182.170411,345.590613 L182.170411,175.331135 C182.155289,174.130884 181.571609,172.997831 180.57499,172.234064 L180.489521,172.07524 Z M185.931046,173.451716 C185.446721,173.451716 185.076356,174.431132 185.076356,175.88702 L185.076356,347.337679 C184.947103,348.440519 185.250593,349.54965 185.931046,350.46122 C186.38688,350.752398 187.640425,350.46122 187.640425,348.872979 L187.640425,176.707611 C187.61828,175.503014 187.023786,174.369215 186.016515,173.61054 L185.931046,173.451716 Z M191.344081,175.066428 C190.888246,175.066428 190.489391,176.019373 190.489391,177.475261 L190.489391,350.83181 C190.382528,351.941418 190.683834,353.051899 191.344081,353.981822 C191.799915,354.273 193.05346,353.822998 193.05346,352.36711 L193.05346,178.21644 C193.000093,176.986322 192.376808,175.837745 191.344081,175.066428 Z M196.785605,176.601728 C196.329771,176.442904 195.959405,177.528202 195.959405,178.98409 L195.959405,354.140646 C195.848768,355.255257 196.139354,356.37247 196.785605,357.317129 C197.24144,357.608307 198.494985,357.317129 198.494985,355.755358 L198.494985,179.75174 C198.506397,178.559089 197.979398,177.416568 197.042012,176.601728 L196.785605,176.601728 Z M202.22713,178.18997 C201.771296,178.18997 201.40093,179.116444 201.40093,180.572332 L201.40093,357.555365 C201.290292,358.669976 201.580879,359.78719 202.22713,360.731848 C202.711454,361.049496 203.93651,360.731848 203.93651,359.196548 L203.93651,181.419394 C203.939935,180.177665 203.356701,178.997092 202.341089,178.18997 L202.22713,178.18997 Z M207.697145,179.831153 C207.21282,179.698799 206.842455,180.784097 206.842455,182.239985 L206.842455,360.996555 C206.729508,362.131625 207.030528,363.26902 207.697145,364.225979 C208.152979,364.543628 209.378034,364.225979 209.378034,362.664209 L209.378034,183.007635 C209.350762,181.79308 208.78354,180.643207 207.811103,179.831153 L207.697145,179.831153 Z M213.138669,181.525277 C212.654345,181.366453 212.28398,182.42528 212.28398,183.881168 L212.28398,364.570098 C212.163433,365.689003 212.4656,366.81202 213.138669,367.746581 C213.594504,368.064229 214.848049,367.746581 214.848049,366.211281 L214.848049,184.701759 C214.845424,183.446095 214.264762,182.25146 213.252628,181.419394 L213.138669,181.525277 Z M218.580194,183.245872 C218.12436,183.245872 217.725504,184.172346 217.725504,185.628234 L217.725504,368.117171 C217.621229,369.243272 217.921813,370.369712 218.580194,371.320124 C219.036029,371.611302 220.289574,371.320124 220.289574,369.837766 L220.289574,186.422354 C220.261945,185.202236 219.682857,184.049272 218.694153,183.245872 L218.580194,183.245872 Z M224.021719,184.966466 C223.565884,184.807642 223.195519,185.892941 223.195519,187.348828 L223.195519,371.743655 C223.084881,372.858266 223.375467,373.975479 224.021719,374.920138 C224.477553,375.211316 225.731098,374.920138 225.731098,373.437779 L225.731098,188.142949 C225.686497,186.926558 225.110405,185.779559 224.135677,184.966466 L224.021719,184.966466 Z M229.491733,186.766473 C229.007409,186.607649 228.637043,187.692947 228.637043,189.148835 L228.637043,375.343669 C228.532718,376.474602 228.82236,377.606747 229.463244,378.573093 C229.947568,378.864271 231.172623,378.573093 231.172623,377.037793 L231.172623,189.916485 C231.18254,188.686711 230.609424,187.515208 229.605692,186.713532 L229.491733,186.766473 Z M234.933258,188.54001 C234.448934,188.381185 234.078568,189.440013 234.078568,190.895901 L234.078568,378.996624 C233.965622,380.131694 234.266641,381.26909 234.933258,382.226048 C235.389093,382.543697 236.614148,382.226048 236.614148,380.717219 L236.614148,191.716492 C236.586875,190.501937 236.019653,189.352064 235.047217,188.54001 L234.933258,188.54001 Z M240.374783,190.287075 C239.918948,190.128251 239.520093,191.187079 239.520093,192.642966 L239.520093,382.596638 C239.430446,383.721628 239.729894,384.843812 240.374783,385.799592 C240.859107,386.11724 242.084162,385.799592 242.084162,384.290762 L242.084162,193.463558 C242.060077,192.242675 241.480353,191.088443 240.488741,190.287075 L240.374783,190.287075 Z M245.816307,192.00767 C245.360473,192.00767 244.961618,192.960615 244.961618,194.416503 L244.961618,386.329005 C244.85481,387.467278 245.166118,388.605603 245.844797,389.55843 C246.300632,389.849607 247.525687,389.55843 247.525687,388.02313 L247.525687,195.237094 C247.489877,194.003565 246.913607,192.837089 245.930266,192.00767 L245.816307,192.00767 Z M251.257832,193.728265 C250.801998,193.569441 250.431632,194.654739 250.431632,196.110627 L250.431632,389.981961 C250.327306,391.112894 250.616949,392.245038 251.257832,393.211385 C251.713667,393.529033 252.967212,393.211385 252.967212,391.702555 L252.967212,196.931218 C252.937068,195.704067 252.359133,194.543809 251.371791,193.728265 L251.257832,193.728265 Z M256.727847,195.422389 C256.243522,195.263565 255.873157,196.348863 255.873157,197.804751 L255.873157,393.687857 C255.825569,394.827428 256.175299,395.950815 256.870295,396.890811 C257.354619,397.23493 258.579674,396.890811 258.579674,395.408452 L258.579674,198.572401 C258.537681,197.339568 257.912135,196.186823 256.870295,195.422389 L256.727847,195.422389 Z M262.169371,197.037101 C261.685047,196.904748 261.314682,197.990046 261.314682,199.445934 L261.314682,397.367283 C261.201735,398.502353 261.502755,399.639749 262.169371,400.596707 C262.625206,400.887885 263.850261,400.596707 263.850261,399.114349 L263.850261,200.187113 C263.832522,198.978125 263.262915,197.833042 262.28333,197.037101 L262.169371,197.037101 Z M267.610896,198.651813 C267.126572,198.51946 266.756206,199.604758 266.756206,201.060646 L266.756206,401.126121 C266.64326,402.261191 266.944279,403.398586 267.610896,404.355545 C268.066731,404.673194 269.320276,404.355545 269.320276,402.846716 L269.320276,201.775355 C269.301962,200.568296 268.719676,199.428285 267.724855,198.651813 L267.610896,198.651813 Z M273.052421,200.160642 C272.596586,200.160642 272.197731,201.087117 272.197731,202.543005 L272.197731,404.752606 C272.090636,405.882577 272.402237,407.012634 273.080911,407.955559 C273.536745,408.273207 274.7618,407.955559 274.7618,406.44673 L274.7618,203.284184 C274.736055,202.078743 274.155152,200.941442 273.16638,200.160642 L273.052421,200.160642 Z M278.493946,201.643001 C278.038111,201.643001 277.667746,202.595946 277.667746,204.051834 L277.667746,408.35262 C277.56342,409.483553 277.853062,410.615697 278.493946,411.582044 C278.94978,411.873221 280.203325,411.582044 280.203325,410.046744 L280.203325,204.713601 C280.187645,203.520946 279.603263,202.396224 278.607904,201.643001 L278.493946,201.643001 Z M283.93547,202.993006 C283.479636,202.993006 283.10927,203.972422 283.10927,205.42831 L283.10927,411.899692 C283.004945,413.030625 283.294587,414.16277 283.93547,415.129116 C284.419795,415.446764 285.64485,415.129116 285.64485,413.620287 L285.64485,206.063606 C285.633141,204.870086 285.047987,203.743878 284.049429,202.993006 L283.93547,202.993006 Z M289.405485,204.343011 C288.94965,204.343011 288.550795,205.322427 288.550795,206.778315 L288.550795,415.579118 C288.452656,416.701233 288.742067,417.823199 289.376995,418.782071 C289.861319,419.09972 291.086375,418.782071 291.086375,417.273242 L291.086375,207.36067 C291.093366,206.183986 290.515059,205.070261 289.519443,204.343011 L289.405485,204.343011 Z M294.84701,205.560663 C294.362685,205.560663 293.99232,206.566549 293.99232,208.022437 L293.99232,419.179132 C293.879146,420.305869 294.180441,421.434972 294.84701,422.382085 C295.302844,422.673263 296.556389,422.382085 296.556389,420.846785 L296.556389,208.578322 C296.552242,207.398019 295.96386,206.285122 294.960968,205.560663 L294.84701,205.560663 Z M300.288534,206.725374 C299.8327,206.725374 299.433845,207.75773 299.433845,209.213618 L299.433845,422.699734 C299.32675,423.829705 299.638351,424.959762 300.317024,425.902687 C300.772858,426.220335 301.997914,425.902687 301.997914,424.340916 L301.997914,209.66362 C301.997954,208.50449 301.405908,207.414132 300.402493,206.725374 L300.288534,206.725374 Z M305.730059,207.75773 C305.274224,207.75773 304.875369,208.790087 304.875369,210.245975 L304.875369,426.193865 C304.785722,427.318854 305.08517,428.441039 305.730059,429.396818 C306.185894,429.687996 307.439439,429.264465 307.439439,427.808577 L307.439439,210.748918 C307.412792,209.61784 306.823599,208.562064 305.844018,207.890084 L305.730059,207.75773 Z M311.171584,208.684205 C310.715749,208.684205 310.345384,209.716562 310.345384,211.172449 L310.345384,429.661525 C310.224837,430.78043 310.527004,431.903447 311.200073,432.838008 C311.684398,433.129185 312.880963,432.838008 312.880963,431.302708 L312.880963,211.595981 C312.885814,210.443095 312.291736,209.358853 311.285542,208.684205 L311.171584,208.684205 Z M316.613108,209.504796 C316.157274,209.504796 315.786908,210.537153 315.786908,211.993041 L315.786908,433.049773 C315.682633,434.175874 315.983217,435.302314 316.641598,436.252727 C317.125922,436.543904 318.322488,436.120373 318.322488,434.664485 L318.322488,212.310689 C318.312707,211.183708 317.705068,210.133792 316.698577,209.504796 L316.613108,209.504796 Z M322.083123,210.219505 C321.598799,210.219505 321.228433,211.304803 321.228433,212.866574 L321.228433,436.517434 C321.11696,437.627376 321.418646,438.739259 322.083123,439.667446 C322.567447,439.958623 323.792502,439.508622 323.792502,438.052734 L323.792502,213.184222 C323.847192,212.006347 323.244067,210.885579 322.197082,210.219505 L322.083123,210.219505 Z M327.524648,210.828331 C327.068813,210.828331 326.669958,211.9401 326.669958,213.4754 L326.669958,439.799799 C326.554752,440.913762 326.86762,442.029659 327.553137,442.949811 C328.008972,443.240989 329.234027,442.790987 329.234027,441.335099 L329.234027,213.687165 C329.260006,212.544155 328.659006,211.467224 327.638606,210.828331 L327.524648,210.828331 Z M332.966172,211.331274 C332.510338,211.331274 332.111483,212.443043 332.111483,213.978343 L332.111483,442.949811 C331.991231,444.064142 332.304546,445.181636 332.994662,446.099823 C333.478986,446.36453 334.675552,445.914529 334.675552,444.458641 L334.675552,214.163637 C334.713535,213.025228 334.108517,211.951134 333.080131,211.331274 L332.966172,211.331274 Z M338.407697,211.675393 C337.951863,211.675393 337.581497,212.813632 337.581497,214.322462 L337.581497,446.126294 C337.455494,447.237237 337.758407,448.353638 338.436187,449.276306 C338.920511,449.541013 340.117077,449.03807 340.117077,447.582182 L340.117077,214.375403 C340.1632,213.270605 339.549653,212.232268 338.521656,211.675393 L338.407697,211.675393 Z M343.877712,211.887158 C343.421877,211.887158 343.023022,213.051868 343.023022,214.534227 L343.023022,449.223365 C342.911548,450.333307 343.213234,451.44519 343.877712,452.373377 C344.362036,452.638084 345.558601,452.135141 345.558601,450.679253 L345.558601,214.560698 C345.612623,213.467993 345.008875,212.437862 343.99167,211.887158 L343.877712,211.887158 Z M349.319236,211.887158 C348.834912,211.887158 348.464547,213.051868 348.464547,214.534227 L348.464547,452.161612 C348.350298,453.263427 348.652493,454.367824 349.319236,455.285153 C349.80356,455.523389 351.028616,455.020446 351.028616,453.564558 L351.028616,214.666581 C351.064102,213.571134 350.451981,212.545366 349.433195,211.993041 L349.319236,211.887158 Z M354.789251,211.887158 C354.304927,211.887158 353.906071,213.078339 353.906071,214.534227 L353.906071,455.099858 C353.785075,456.205953 354.098765,457.315383 354.789251,458.2234 C355.245085,458.461636 356.470141,457.905751 356.470141,456.449863 L356.470141,214.560698 C356.524736,213.488723 355.916469,212.481709 354.903209,211.96657 L354.789251,211.887158 Z M360.202286,211.701863 C359.746451,211.701863 359.347596,212.919515 359.347596,214.348932 L359.347596,457.879281 C359.226599,458.985375 359.54029,460.094805 360.230775,461.002822 C360.7151,461.267529 361.911665,460.685174 361.911665,459.229286 L361.911665,214.375403 C361.960765,213.297637 361.340529,212.289146 360.316244,211.781275 L360.202286,211.701863 Z M365.643811,211.437156 C365.187976,211.437156 364.81761,212.681279 364.81761,214.084225 L364.81761,460.738115 C364.81761,462.194003 365.187976,463.570479 365.6723,463.782244 C366.156624,463.99401 367.35319,463.411655 367.35319,461.955767 L367.35319,214.004813 C367.467149,212.548925 366.242093,211.490098 365.757769,211.516568 L365.643811,211.437156 Z M371.085335,210.987155 C370.629501,210.987155 370.259135,212.257748 370.259135,213.634224 L370.259135,463.332243 C370.259135,464.788131 370.65799,466.164607 371.113825,466.376372 C371.569659,466.588138 372.794715,466.032253 372.794715,464.576365 L372.794715,213.528341 C372.908673,212.072453 371.683618,211.040096 371.199294,211.066567 L371.085335,210.987155 Z M376.55535,210.404799 C376.099515,210.404799 375.70066,211.701863 375.70066,213.051868 L375.70066,465.873429 C375.70066,467.329317 376.071025,468.705793 376.55535,468.917558 C377.039674,469.129324 378.264729,468.467557 378.264729,467.011669 L378.264729,212.919515 C378.378688,211.463627 377.153633,210.537153 376.669308,210.537153 L376.55535,210.404799 Z M382.224792,209.743032 C381.768957,209.743032 381.370102,211.040096 381.370102,212.390101 L381.370102,468.388144 C381.370102,469.844032 381.768957,471.194038 382.224792,471.405803 C382.680626,471.617569 383.934171,470.982272 383.934171,469.526384 L383.934171,212.151865 C383.820213,210.695977 382.566668,209.66362 382.224792,209.743032 Z M387.666316,208.869499 C387.210482,208.869499 386.811627,210.219505 386.811627,211.675393 L386.811627,470.876389 C386.811627,472.332277 387.210482,473.682283 387.666316,473.867577 C388.122151,474.052872 389.375696,473.391105 389.375696,471.935217 L389.375696,211.225391 C389.261737,209.769503 387.922723,208.790087 387.552358,208.869499 L387.666316,208.869499 Z M393.107841,207.837143 C392.652007,207.837143 392.281641,209.187148 392.281641,210.643036 L392.281641,473.126398 C392.281641,474.582286 392.652007,475.932291 393.136331,476.117586 C393.620655,476.302881 394.817221,475.614643 394.817221,474.158755 L394.817221,210.140093 C394.703262,208.684205 393.620655,207.890084 392.993883,207.890084 L393.107841,207.837143 Z M398.549366,206.672432 C398.093531,206.672432 397.723166,208.048908 397.723166,209.504796 L397.723166,475.244053 C397.723166,476.699941 398.122021,477.891122 398.577856,478.20877 C399.03369,478.526419 400.258745,477.573474 400.258745,476.117586 L400.258745,208.948912 C400.144787,207.493024 398.919731,206.540079 398.435407,206.672432 L398.549366,206.672432 Z M404.01938,205.348898 C403.535056,205.348898 403.164691,206.778315 403.164691,208.234203 L403.164691,477.255826 C403.164691,478.711714 403.535056,480.035248 404.01938,480.220543 C404.503705,480.405838 405.72876,479.585246 405.72876,478.129358 L405.72876,207.545965 C405.614801,206.090077 404.361256,205.243015 403.905422,205.243015 L404.01938,205.348898 Z M409.460905,203.866539 C409.005071,204.025363 408.606215,205.322427 408.606215,206.778315 L408.606215,479.108774 C408.606215,480.564662 409.005071,481.755843 409.489395,482.047021 C409.973719,482.338198 411.170285,481.385253 411.170285,479.929365 L411.170285,206.010665 C411.056326,204.554777 409.802781,203.734186 409.346946,203.866539 L409.460905,203.866539 Z M414.90243,202.251827 C414.446595,202.410651 414.04774,203.734186 414.04774,205.190074 L414.04774,480.855839 C414.04774,482.311727 414.446595,483.502909 414.90243,483.767615 C415.358264,484.032322 416.611809,483.105848 416.611809,481.64996 L416.611809,204.369482 C416.412382,202.913594 415.244306,202.093003 414.788471,202.251827 L414.90243,202.251827 Z M420.343955,200.45182 C419.88812,200.610644 419.517754,201.934179 419.517754,203.390067 L419.517754,482.470552 C419.517754,483.92644 419.88812,485.117621 420.343955,485.355857 C420.799789,485.594093 422.053334,484.588207 422.053334,483.132319 L422.053334,202.595946 C421.939375,201.087117 420.68583,200.292996 420.229996,200.45182 L420.343955,200.45182 Z M425.785479,198.54593 C425.329645,198.731225 424.959279,200.05476 424.959279,201.510648 L424.959279,483.847027 C424.959279,485.302915 425.329645,486.494096 425.785479,486.732333 C426.241314,486.970569 427.494859,485.938212 427.494859,484.482324 L427.494859,200.531232 C427.3809,199.075344 426.155845,198.360636 425.671521,198.54593 L425.785479,198.54593 Z M431.227004,196.481217 C430.74268,196.666511 430.372314,197.990046 430.372314,199.445934 L430.372314,485.144091 C430.372314,486.599979 430.74268,487.79116 431.227004,488.002926 C431.711328,488.214691 432.964873,487.182334 432.964873,485.726446 L432.964873,198.387106 C432.850915,196.931218 431.59737,196.295922 431.113045,196.481217 L431.227004,196.481217 Z M436.668529,194.231208 C436.184205,194.442973 435.813839,195.792979 435.813839,197.248867 L435.813839,486.282331 C435.813839,487.738219 436.184205,488.9294 436.668529,489.114695 C437.152853,489.29999 438.406398,488.214691 438.406398,486.758803 L438.406398,196.163568 C438.292439,194.654739 437.038894,194.045913 436.55457,194.231208 L436.668529,194.231208 Z M442.110054,191.822375 C441.654219,192.034141 441.255364,193.410616 441.255364,194.866504 L441.255364,487.261746 C441.255364,488.717634 441.654219,489.908815 442.110054,490.06764 C442.565888,490.226464 443.847923,489.141165 443.847923,487.685278 L443.847923,193.675323 C443.733964,192.219435 442.480419,191.61061 442.053074,191.822375 L442.110054,191.822375 Z M447.551578,189.175306 C446.879797,190.070579 446.576484,191.160276 446.696889,192.245906 L446.696889,487.923514 C446.696889,489.379402 447.095744,490.570583 447.551578,490.570583 C448.007413,490.570583 449.289447,489.617638 449.289447,488.16175 L449.289447,191.107666 C449.175489,189.651779 447.921944,189.042953 447.43762,189.360601 L447.551578,189.175306 Z M453.021593,186.528237 C452.537269,186.740003 452.138413,188.116478 452.138413,189.572366 L452.138413,488.691164 C452.138413,490.147052 452.537269,491.338233 453.021593,491.338233 C453.505917,491.338233 454.730972,490.279405 454.730972,488.691164 L454.730972,188.381185 C454.617014,186.925297 453.448938,186.369413 452.907634,186.713532 L453.021593,186.528237 Z M458.434628,183.695873 C457.76771,184.603185 457.465189,185.699409 457.579938,186.792944 L457.579938,489.114695 C457.579938,490.570583 457.978793,491.761764 458.434628,491.761764 C458.890462,491.761764 460.144007,490.623524 460.144007,489.114695 L460.144007,185.522351 C460.030049,184.066463 458.776504,183.537049 458.320669,183.775285 L458.434628,183.695873 Z M463.876153,180.704685 C463.22797,181.63874 462.936952,182.74829 463.049952,183.854697 L463.049952,489.32646 C463.049952,490.782348 463.420318,491.973529 463.876153,491.973529 C464.331987,491.973529 465.585532,490.782348 465.585532,489.32646 L465.585532,182.266456 C465.471573,180.969392 464.246518,180.51939 463.762194,180.784097 L463.876153,180.704685 Z M469.317677,177.579112 C468.663122,178.50276 468.371266,179.606154 468.491477,180.704685 L468.491477,489.352931 C468.491477,490.808819 468.861843,492 469.317677,492 C470.375935,491.4846 471.03561,490.463057 471.027057,489.352931 L471.027057,179.301739 C470.913098,177.845851 469.688043,177.369378 469.203719,177.660556 L469.317677,177.579112 Z M474.787692,174.298778 C474.114452,175.22334 473.811963,176.338181 473.933002,177.44879 L473.933002,489.220578 C473.933002,490.676465 474.303367,491.867647 474.787692,491.867647 C475.828128,491.334887 476.480753,490.324262 476.497071,489.220578 L476.497071,175.939961 C476.383113,174.484073 475.129568,174.087013 474.673733,174.37819 L474.787692,174.298778 Z M480.115258,170.831118 C479.454962,171.770901 479.153937,172.889673 479.260568,174.007601 L479.260568,488.849988 C479.260568,490.305876 479.659423,491.497057 480.115258,491.497057 C481.170572,490.888179 481.815924,489.818859 481.824637,488.664693 L481.824637,172.44583 C481.938596,170.989942 480.571092,170.645823 480.115258,170.831118 Z M485.556783,167.284045 C484.911894,168.239825 484.612445,169.362009 484.702093,170.486999 L484.702093,488.135279 C484.702093,489.591167 485.100948,490.782348 485.585272,490.782348 C486.63923,490.138106 487.271553,489.042745 487.266162,487.870572 L487.266162,168.819345 C487.266162,167.363458 486.012617,167.045809 485.556783,167.363458 L485.556783,167.284045 Z M490.998307,163.498737 C490.357424,164.465083 490.067782,165.597228 490.172107,166.728161 L490.172107,487.420571 C490.172107,488.876459 490.542473,490.06764 491.026797,489.908815 C492.07436,489.23476 492.701839,488.128025 492.707687,486.944098 L492.707687,165.007566 C492.707687,163.551678 491.482631,163.23403 490.998307,163.578149 L490.998307,163.498737 Z M496.468322,159.607545 C495.811475,160.578215 495.511544,161.720783 495.613632,162.86344 L495.613632,486.388214 C495.613632,487.844102 495.983998,489.035283 496.439832,488.823517 C497.490108,488.112597 498.122461,486.986478 498.149212,485.779388 L498.149212,161.089904 C498.149212,159.634016 496.952646,159.342838 496.468322,159.686957 L496.468322,159.607545 Z M501.881357,155.689883 C501.21845,156.667978 500.918275,157.820774 501.026667,158.972249 L501.026667,485.038209 C501.026667,486.494096 501.425522,487.685278 501.881357,487.473512 C502.923197,486.709078 503.548743,485.556333 503.590736,484.3235 L503.590736,157.013418 C503.619226,155.55753 502.365681,155.319294 501.881357,155.689883 Z M507.322882,151.507514 C506.674969,152.491441 506.376005,153.639586 506.468192,154.78988 L506.468192,483.449967 C506.468192,484.905855 506.867047,486.097036 507.322882,485.832329 C508.352638,485.03593 508.973265,483.87303 509.032261,482.629376 L509.032261,152.831049 C509.060751,151.375161 507.807206,151.136925 507.351371,151.507514 L507.322882,151.507514 Z M512.764406,147.166321 C512.127397,148.17383 511.829713,149.3355 511.909717,150.501628 L511.909717,481.64996 C511.909717,483.105848 512.308572,484.138205 512.764406,483.95291 C513.782641,483.114463 514.398062,481.932727 514.473786,480.670545 L514.473786,148.463385 C514.502275,147.006469 513.27722,146.795731 512.792896,147.166321 L512.764406,147.166321 Z M518.234421,142.692774 C517.580232,143.693795 517.281244,144.860552 517.379731,146.028081 L517.379731,479.558776 C517.379731,481.014664 517.750096,482.047021 518.234421,481.835255 C519.250629,480.942958 519.853428,479.718376 519.915311,478.420536 L519.915311,143.910426 C519.9438,142.454538 518.747235,142.295714 518.26291,142.692774 L518.234421,142.692774 Z M523.647456,138.086874 C523.028323,139.119403 522.741545,140.295482 522.821256,141.475123 L522.821256,477.04406 C522.821256,478.499948 523.191621,479.532305 523.647456,479.320539 C524.667586,478.395495 525.277497,477.148781 525.356835,475.826408 L525.356835,139.278055 C525.385325,137.822167 524.16027,137.689814 523.675945,138.086874 L523.647456,138.086874 Z M529.11747,133.348621 C528.472592,134.372574 528.174749,135.553313 528.26278,136.736869 L528.26278,474.37052 C528.26278,475.826408 528.633146,476.805824 529.11747,476.541117 C530.117537,475.571094 530.722064,474.307301 530.82685,472.967574 L530.82685,134.48686 C530.855339,133.030973 529.601794,132.92509 529.14596,133.348621 L529.11747,133.348621 Z M534.587485,128.478014 C533.956129,129.516578 533.659449,130.701898 533.732795,131.892733 L533.732795,471.326391 C533.732795,472.782279 534.13165,473.735224 534.587485,473.470517 C535.574346,472.471266 536.175671,471.195541 536.296864,469.844032 L536.296864,129.510371 C536.296864,128.054483 535.043319,128.054483 534.587485,128.478014 Z M540.029009,123.422112 C539.397654,124.460676 539.100973,125.645997 539.17432,126.836831 L539.17432,467.964613 C539.17432,469.420501 539.573175,470.373446 540.029009,470.055798 C541.007932,468.98951 541.60536,467.666546 541.738389,466.270489 L541.738389,124.48094 C541.766878,123.025052 540.484844,122.998581 540.029009,123.422112 Z M545.499024,118.127974 C544.859207,119.17311 544.56213,120.369216 544.644334,121.569164 L544.644334,464.258717 C544.644334,465.714605 545.0147,466.641079 545.499024,466.323431 C546.472587,465.225815 547.059395,463.87662 547.179914,462.45871 L547.179914,119.213272 C547.179914,117.889738 545.983348,117.889738 545.499024,118.233857 L545.499024,118.127974 Z M550.912059,112.833836 C550.303441,113.908306 550.018016,115.115413 550.085859,116.327967 L550.085859,460.235172 C550.085859,461.69106 550.456224,462.591063 550.912059,462.220474 C551.888655,461.071227 552.482768,459.682002 552.621438,458.2234 L552.621438,113.892664 C552.621438,112.436776 551.396383,112.5956 550.912059,112.939719 L550.912059,112.833836 Z M556.382073,107.539698 C555.748766,108.615992 555.452679,109.835621 555.527383,111.0603 L555.527383,455.867508 C555.527383,457.323396 555.897749,458.170458 556.382073,457.773398 C557.339195,456.563789 557.929508,455.137743 558.091453,453.64397 L558.091453,108.439702 C558.091453,106.983814 556.837908,107.063226 556.382073,107.539698 L556.382073,107.539698 Z M561.709639,102.007324 C561.092987,103.098935 560.798116,104.32269 560.85495,105.554396 L560.85495,451.049843 C560.85495,452.50573 561.253805,453.352793 561.738129,452.902791 C562.677684,451.657022 563.25653,450.207631 563.419019,448.693951 L563.419019,102.801445 C563.532977,101.345557 562.279433,101.424969 561.709639,102.007324 Z M567.407571,96.183772 C566.786731,97.2644079 566.491443,98.4807467 566.552881,99.7043738 L566.552881,445.888058 C566.552881,447.343946 566.951736,448.164537 567.407571,447.688065 C568.35032,446.382601 568.936992,444.883586 569.116951,443.320401 L569.116951,97.0308341 C568.974502,95.5749461 567.720957,95.7072996 567.407571,96.183772 Z M572.849096,90.3602202 C572.244989,91.4647302 571.960279,92.696181 572.022896,93.9337634 L572.022896,440.329213 C572.022896,441.785101 572.393261,442.552751 572.849096,442.049808 C573.792211,440.695746 574.377894,439.15391 574.558475,437.549791 L574.558475,91.1543409 C574.416027,89.698453 573.105503,89.8572771 572.706647,90.3602202 L572.849096,90.3602202 Z M578.29062,84.3778443 C577.686514,85.4823543 577.401804,86.7138051 577.46442,87.9513874 L577.46442,434.293896 C577.46442,435.749784 577.834786,436.490963 578.29062,435.961549 C579.227014,434.546389 579.811051,432.954621 580,431.302708 L580,85.1190236 C579.857552,83.6631356 578.632496,83.8749012 578.148172,84.3778443 L578.29062,84.3778443 Z" id="Shape" fill="url(#linearGradient-2)"></path>
            </g>
        </g>
    </g>
</svg>