<?xml version="1.0" encoding="utf-8"?>
<!-- Generator: Adobe Illustrator 26.0.2, SVG Export Plug-In . SVG Version: 6.00 Build 0)  -->
<svg version="1.1" id="Ebene_1" xmlns="http://www.w3.org/2000/svg" xmlns:xlink="http://www.w3.org/1999/xlink" x="0px" y="0px"
	 viewBox="0 0 153 60" style="enable-background:new 0 0 153 60;" xml:space="preserve">
<style type="text/css">
	.st0{fill:#FFFFFF;}
</style>
<g>
	<g>
		<path class="st0" d="M6.5,26.7c1.7,0.5,2.9,1.1,3.6,1.8c0.7,0.7,1,1.6,1,2.8c0,2.7-1.7,4-5.2,4c-1.1,0-2.1-0.2-3-0.6
			c-0.3-0.1-0.5-0.3-0.7-0.6C2,34,1.9,33.6,1.9,33.3v-0.9c0-0.2,0.1-0.4,0.3-0.5c0.2-0.1,0.4-0.1,0.6,0c1,0.5,1.9,0.7,2.9,0.7
			c1.1,0,1.7-0.4,1.7-1.1c0-0.3-0.1-0.6-0.3-0.8c-0.2-0.2-0.5-0.3-0.9-0.5c-1.6-0.5-2.8-1.1-3.5-1.9c-0.7-0.8-1.1-1.7-1.1-2.8
			c0-1.2,0.4-2.1,1.3-2.8c0.9-0.7,2.1-1,3.8-1c1.2,0,2.2,0.1,3.1,0.4c0.3,0.1,0.5,0.3,0.7,0.5c0.2,0.3,0.3,0.6,0.3,0.9v0.9
			c0,0.2-0.1,0.4-0.3,0.6C10.2,25,10,25,9.7,24.9c-1.1-0.4-2.1-0.5-3-0.5c-1,0-1.5,0.3-1.5,1C5.2,26.1,5.6,26.5,6.5,26.7z"/>
		<path class="st0" d="M19.3,26c0.3,0,0.5,0.1,0.7,0.3s0.3,0.5,0.3,0.7v0.3c0,0.3-0.1,0.5-0.3,0.7c-0.2,0.2-0.5,0.3-0.7,0.3h-1.6
			c-0.1,0-0.2,0.1-0.2,0.2v2.6c0,0.7,0.1,1.2,0.2,1.4c0.1,0.2,0.4,0.3,0.8,0.3c0.2,0,0.4,0,0.6-0.1c0.3,0,0.5,0,0.7,0.2
			c0.2,0.2,0.3,0.4,0.3,0.6v0.5c0,0.3-0.1,0.6-0.3,0.8c-0.2,0.2-0.4,0.4-0.7,0.4c-0.4,0.1-1,0.1-1.6,0.1c-1.3,0-2.2-0.3-2.8-0.8
			C14.3,34,14,33,14,31.5v-3c0-0.1-0.1-0.2-0.2-0.2h-0.7c-0.3,0-0.5-0.1-0.7-0.3c-0.2-0.2-0.3-0.5-0.3-0.7V27c0-0.3,0.1-0.5,0.3-0.7
			s0.5-0.3,0.7-0.3h0.7c0.1,0,0.2-0.1,0.2-0.2v-2.3c0-0.3,0.1-0.5,0.3-0.7c0.2-0.2,0.5-0.3,0.7-0.3h1.4c0.3,0,0.5,0.1,0.7,0.3
			c0.2,0.2,0.3,0.5,0.3,0.7v2.3c0,0.1,0.1,0.2,0.2,0.2H19.3z"/>
		<path class="st0" d="M26.6,25.4c1.6,0,2.8,0.3,3.5,0.9c0.7,0.6,1.1,1.5,1.1,2.8v5c0,0.3-0.1,0.5-0.3,0.7c-0.2,0.2-0.5,0.3-0.7,0.3
			H29c-0.3,0-0.5-0.1-0.8-0.3c-0.2-0.2-0.3-0.5-0.3-0.7V34c0,0,0,0,0,0c0,0,0,0,0,0c-0.8,0.9-1.8,1.4-2.9,1.4
			c-0.9,0-1.6-0.3-2.1-0.8S22,33.3,22,32.4c0-2.2,1.7-3.3,5-3.3h0.6c0.1,0,0.2-0.1,0.2-0.2v0c0-0.7-0.4-1.1-1.3-1.1
			c-0.7,0-1.7,0.1-2.8,0.3c-0.3,0-0.5,0-0.7-0.2c-0.2-0.2-0.3-0.4-0.3-0.7V27c0-0.3,0.1-0.6,0.3-0.8c0.2-0.2,0.4-0.4,0.7-0.4
			C24.8,25.6,25.8,25.4,26.6,25.4z M27.7,31.3v-0.1c0-0.1-0.1-0.2-0.2-0.2H27c-1.2,0-1.8,0.4-1.8,1.1c0,0.6,0.3,0.8,0.9,0.8
			c0.5,0,0.9-0.1,1.2-0.5C27.6,32.2,27.7,31.8,27.7,31.3z"/>
		<path class="st0" d="M39.9,30.4l3,4c0.1,0.2,0.1,0.4,0,0.6c-0.1,0.2-0.3,0.3-0.5,0.3h-1.9c-0.7,0-1.3-0.3-1.7-0.8l-1.8-2.6
			c0,0,0,0,0,0c0,0,0,0,0,0v2.4c0,0.3-0.1,0.5-0.3,0.7c-0.2,0.2-0.5,0.3-0.7,0.3h-1.4c-0.3,0-0.5-0.1-0.7-0.3
			c-0.2-0.2-0.3-0.5-0.3-0.7V22.5c0-0.3,0.1-0.5,0.3-0.7c0.2-0.2,0.5-0.3,0.7-0.3H36c0.3,0,0.5,0.1,0.7,0.3c0.2,0.2,0.3,0.5,0.3,0.7
			v6.5c0,0,0,0,0,0l0,0l1.8-2.4c0.4-0.6,1-0.8,1.7-0.8h1.9c0.2,0,0.4,0.1,0.5,0.3c0.1,0.2,0.1,0.4-0.1,0.5l-2.9,3.7
			C39.8,30.2,39.8,30.3,39.9,30.4z"/>
		<path class="st0" d="M48.2,25.4c3.1,0,4.7,1.6,4.7,4.9c0,0.3-0.1,0.5-0.3,0.7c-0.2,0.2-0.5,0.3-0.8,0.3H47c-0.1,0-0.2,0.1-0.1,0.2
			c0.1,0.5,0.4,0.9,0.7,1.1c0.4,0.2,1,0.3,1.8,0.3c0.5,0,1.1-0.1,1.8-0.2c0.3-0.1,0.5,0,0.7,0.2c0.2,0.2,0.3,0.4,0.3,0.7v0.3
			c0,0.3-0.1,0.6-0.3,0.8c-0.2,0.3-0.4,0.4-0.7,0.5c-0.7,0.1-1.5,0.2-2.4,0.2c-1.7,0-3.1-0.4-4-1.3c-0.9-0.9-1.4-2.1-1.4-3.7
			c0-1.6,0.4-2.8,1.3-3.7S46.6,25.4,48.2,25.4z M49.5,29.5c0.1,0,0.2-0.1,0.2-0.2c0-0.6-0.1-1-0.4-1.2c-0.2-0.2-0.6-0.4-1-0.4
			c-0.5,0-0.8,0.1-1.1,0.4c-0.2,0.2-0.4,0.7-0.5,1.2c0,0.1,0,0.1,0.1,0.1H49.5z"/>
		<path class="st0" d="M61,25.4c1.1,0,2,0.4,2.7,1.3c0.7,0.9,1,2.1,1,3.7c0,1.6-0.3,2.8-1,3.7c-0.7,0.9-1.6,1.3-2.6,1.3
			c-1.2,0-2.1-0.5-2.9-1.4c0,0,0,0,0,0c0,0,0,0,0,0v0.1c0,0.3-0.1,0.5-0.3,0.7c-0.2,0.2-0.5,0.3-0.8,0.3h-1.2
			c-0.3,0-0.5-0.1-0.7-0.3c-0.2-0.2-0.3-0.5-0.3-0.7V22.5c0-0.3,0.1-0.5,0.3-0.7c0.2-0.2,0.5-0.3,0.7-0.3h1.4c0.3,0,0.5,0.1,0.7,0.3
			c0.2,0.2,0.3,0.5,0.3,0.7v4.1c0,0,0,0,0,0c0,0,0,0,0,0C59.1,25.8,60,25.4,61,25.4z M59.7,32.8c0.5,0,0.9-0.2,1.1-0.6
			c0.3-0.4,0.4-1,0.4-1.8c0-1.6-0.5-2.4-1.6-2.4c-0.4,0-0.8,0.1-1.1,0.4c-0.3,0.3-0.5,0.6-0.5,1v2c0,0.4,0.2,0.7,0.5,1
			C58.9,32.7,59.3,32.8,59.7,32.8z"/>
		<path class="st0" d="M67.3,26.8c0.9-0.9,2.1-1.3,3.7-1.3c1.6,0,2.8,0.4,3.7,1.3c0.9,0.9,1.3,2.1,1.3,3.6c0,1.6-0.4,2.8-1.3,3.6
			c-0.9,0.9-2.1,1.3-3.7,1.3c-1.6,0-2.8-0.4-3.7-1.3C66.4,33.2,66,32,66,30.4C66,28.9,66.4,27.6,67.3,26.8z M69.8,32.4
			c0.2,0.4,0.6,0.6,1.1,0.6c0.5,0,0.9-0.2,1.1-0.6c0.2-0.4,0.3-1.1,0.3-2c0-0.9-0.1-1.6-0.3-2c-0.2-0.4-0.6-0.6-1.1-0.6
			c-0.5,0-0.9,0.2-1.1,0.6c-0.2,0.4-0.3,1.1-0.3,2C69.5,31.4,69.6,32,69.8,32.4z"/>
		<path class="st0" d="M81.7,25.4c1.6,0,2.8,0.3,3.5,0.9c0.7,0.6,1.1,1.5,1.1,2.8v5c0,0.3-0.1,0.5-0.3,0.7c-0.2,0.2-0.5,0.3-0.7,0.3
			h-1.2c-0.3,0-0.5-0.1-0.8-0.3S83,34.4,83,34.1V34c0,0,0,0,0,0s0,0,0,0c-0.8,0.9-1.8,1.4-2.9,1.4c-0.9,0-1.6-0.3-2.1-0.8
			c-0.6-0.5-0.8-1.3-0.8-2.1c0-2.2,1.7-3.3,5-3.3h0.6c0.1,0,0.2-0.1,0.2-0.2v0c0-0.7-0.4-1.1-1.3-1.1c-0.7,0-1.7,0.1-2.8,0.3
			c-0.3,0-0.5,0-0.7-0.2c-0.2-0.2-0.3-0.4-0.3-0.7V27c0-0.3,0.1-0.6,0.3-0.8s0.4-0.4,0.7-0.4C79.9,25.6,80.9,25.4,81.7,25.4z
			 M82.8,31.3v-0.1c0-0.1-0.1-0.2-0.2-0.2h-0.6c-1.2,0-1.8,0.4-1.8,1.1c0,0.6,0.3,0.8,0.9,0.8c0.5,0,0.9-0.1,1.2-0.5
			C82.7,32.2,82.8,31.8,82.8,31.3z"/>
		<path class="st0" d="M95.2,25.7c0.3,0,0.5,0,0.7,0.3c0.2,0.2,0.3,0.5,0.3,0.8v0.5c0,0.3-0.1,0.5-0.3,0.7c-0.2,0.2-0.4,0.3-0.7,0.4
			c-0.9,0.1-1.7,0.5-2.3,1.1c-0.6,0.6-0.8,1.3-0.8,2.1v2.7c0,0.3-0.1,0.5-0.3,0.7c-0.2,0.2-0.5,0.3-0.7,0.3h-1.5
			c-0.3,0-0.5-0.1-0.7-0.3c-0.2-0.2-0.3-0.5-0.3-0.7v-7.5c0-0.3,0.1-0.5,0.3-0.7c0.2-0.2,0.5-0.3,0.7-0.3H91c0.3,0,0.5,0.1,0.7,0.3
			c0.2,0.2,0.3,0.5,0.3,0.7v0.8c0,0,0,0,0,0c0,0,0,0,0,0C92.9,26.4,93.9,25.8,95.2,25.7z"/>
		<path class="st0" d="M106.2,21.4c0.3,0,0.5,0.1,0.7,0.3c0.2,0.2,0.3,0.5,0.3,0.7v11.7c0,0.3-0.1,0.5-0.3,0.7
			c-0.2,0.2-0.5,0.3-0.7,0.3H105c-0.3,0-0.5-0.1-0.8-0.3s-0.3-0.5-0.3-0.7V34c0,0,0,0,0,0c0,0,0,0,0,0c-0.7,0.9-1.7,1.4-2.9,1.4
			c-1.1,0-1.9-0.4-2.6-1.3c-0.7-0.9-1-2.1-1-3.7c0-1.6,0.3-2.8,1-3.7c0.7-0.9,1.6-1.3,2.7-1.3c1,0,1.9,0.4,2.7,1.1c0,0,0,0,0,0
			c0,0,0,0,0,0v-4.1c0-0.3,0.1-0.5,0.3-0.7c0.2-0.2,0.5-0.3,0.7-0.3H106.2z M103.8,31.4v-2c0-0.4-0.2-0.7-0.5-1
			c-0.3-0.3-0.7-0.4-1.1-0.4c-1,0-1.6,0.8-1.6,2.4c0,0.8,0.1,1.4,0.4,1.8c0.3,0.4,0.7,0.6,1.1,0.6c0.4,0,0.8-0.1,1.1-0.4
			C103.7,32.1,103.8,31.8,103.8,31.4z"/>
	</g>
	<path class="st0" d="M132.9,59.6C132.9,59.6,132.9,59.6,132.9,59.6c-0.6-0.4-0.8-0.8-0.9-1.3c-0.1-0.7,0.2-1,0.7-1.1
		c0.2-0.1,0.3-0.1,0.5-0.2c0.3-0.1,0.6,0,0.8,0.2c0.1,0,0.1,0.1,0.1,0.1c0.1,0.1,0.1,0.1,0.2,0c0.2-0.2,0.5-0.4,0.6-0.6
		c0.1-0.1,0.1-0.2,0.1-0.4c0-0.1-0.1-0.2-0.2-0.1c-0.2,0-0.4,0-0.6-0.1c-0.1,0-0.1,0-0.1,0c-0.1,0.1-0.1,0.1-0.2,0
		c-0.2-0.2-0.4-0.3-0.7-0.1c-0.1,0.1-0.2,0.1-0.3,0.1c-0.7,0.3-1.5,0.6-2.3,0.8c-0.5,0.1-0.9,0.3-1.4,0.4c-0.3,0-0.6,0-0.9,0
		c-0.2,0-0.3-0.1-0.3-0.3c0-0.2,0-0.2,0.2-0.3c0.2-0.2,0.5-0.3,0.7-0.4c0.6-0.3,1.2-0.5,1.8-0.7c0.2-0.1,0.3-0.1,0.5-0.3
		c0.3-0.3,0.7-0.7,1-0.9c1.1-0.9,2.3-1.8,3.5-2.7c1.4-1,2.8-2.1,4.2-3.1c0.6-0.5,1.3-0.9,2-1.2c0.8-0.3,1.4-0.8,1.8-1.5
		c0.5-0.7,1-1.4,1.6-2.1c1.1-1.3,2.4-2.3,4-3c0.4-0.2,0.8-0.3,1.2-0.2c0.4,0.1,0.7,0.4,0.8,0.8c0.1,0.3,0,0.6-0.1,0.9
		c-0.2,0.7-0.5,1.4-1,1.9c-0.4,0.4-0.8,0.7-1.3,0.9c-0.6,0.3-1.2,0.6-1.7,1.1c-0.2,0.1-0.2,0.3-0.2,0.5c0,0.2,0,0.2-0.2,0.1
		c0,0,0,0-0.1,0c0,0,0,0,0,0.1c0,0.2-0.1,0.4-0.3,0.5c-0.1,0.1-0.1,0.1,0,0.2c0.1,0.3,0.4,0.4,0.6,0.5c0.2,0,0.4,0.1,0.7,0.1
		c0.3,0,0.4,0,0.4-0.3c0-0.3,0.1-0.5,0.4-0.7c0.3-0.1,0.6-0.3,0.9-0.3c0.3-0.1,0.5,0,0.7,0.1c0.5,0.4,0.7,0.9,0.6,1.5
		c0,0.3-0.2,0.5-0.5,0.7c-0.2,0.1-0.5,0.2-0.7,0.3c-0.2,0.1-0.4,0.1-0.6-0.1c-0.1-0.1-0.2-0.1-0.3-0.2c-0.1-0.1-0.2-0.1-0.3-0.1
		c-0.3,0.1-0.6,0.3-0.9,0.4c-0.3,0.1-0.6,0.2-0.9,0.3c-0.3,0.2-0.7,0.3-1,0.4c-0.3,0.1-0.4,0.2-0.4,0.5c0,0.3-0.2,0.6-0.5,0.7
		c-0.2,0.1-0.4,0.1-0.5,0.2c-0.5,0.2-0.9,0.1-1.2-0.3c-0.3-0.4-0.4-0.8-0.4-1.3c0-0.1,0-0.1,0-0.2c-0.1,0-0.1,0.1-0.2,0.1
		c-0.3,0.2-0.6,0.4-0.9,0.7c-0.8,0.6-1.6,1.2-2.4,1.9c-0.1,0.1-0.3,0.2-0.4,0.4c0,0-0.1,0.1-0.1,0.1c0.1,0.2,0,0.3-0.2,0.2
		c-0.1,0-0.2,0-0.3,0.1c-0.3,0.4-0.7,0.7-1.1,1c0,0,0,0,0,0c-0.1,0.1-0.1,0.2-0.3,0.2c-0.1,0-0.1,0-0.1,0.1c0,0.2-0.1,0.3,0.1,0.4
		c0.1,0.1,0.1,0.1,0,0.2c0,0.1,0,0.2,0.1,0.3c0.2,0.1,0.3,0.2,0.4,0.4c0.1,0.1,0.1,0.1,0.2,0c0.1,0,0.1-0.1,0.1-0.2c0,0,0-0.1,0-0.1
		c0-0.4,0.2-0.6,0.6-0.7c0.2-0.1,0.3-0.1,0.5-0.2c0.4-0.1,0.7-0.1,0.9,0.2c0.4,0.4,0.6,0.8,0.5,1.4c0,0.3-0.2,0.6-0.5,0.7
		c-0.2,0.1-0.4,0.1-0.5,0.2c-0.4,0.2-0.7,0.1-1-0.2c-0.1-0.2-0.3-0.2-0.5-0.1c-1,0.3-1.9,0.7-2.9,1.1c-0.2,0.1-0.3,0.2-0.3,0.4
		c0,0.4-0.2,0.7-0.6,0.8c-0.2,0.1-0.5,0.2-0.7,0.3C133.1,59.7,133,59.7,132.9,59.6z M144.5,49.1c0.1,0.1,0.3,0.2,0.4,0.3
		c0.1,0.1,0.2,0.1,0.3,0c0.1-0.1,0.1-0.2,0-0.3c-0.1,0-0.2-0.1-0.2-0.2c0-0.2-0.2-0.2-0.3-0.3c-0.1,0-0.1,0-0.2,0
		c-0.2,0.1-0.4,0.3-0.6,0.5C144,49.1,144.3,49,144.5,49.1z"/>
	<path class="st0" d="M151.1,14.5c-0.4-0.4-0.6-1-1.1-1.3c-0.3-0.2-0.4-0.6-0.8-0.6c-0.5-0.1-1-0.3-1.5-0.4
		c-0.3-0.1-0.4-0.5-0.7-0.5c-0.7-0.4-1,0.3-1.5,0.6c-0.9,0.2-1.8,0.1-2.6,0.3c-1.2,0.3-2.6,0.7-3.8,0.4c-0.6-0.1-1.2-0.5-1.8-0.6
		c-0.8-0.1-1.5-0.4-2.3-0.6c-0.1,0-0.2-0.2-0.3-0.2c-0.1,0-0.2,0-0.3-0.2c-0.1-0.2-0.4-0.1-0.4-0.3c-0.5-0.6-1-0.1-1.5-0.3
		c-0.1-0.1-0.1-0.2-0.1-0.4c0.2-0.7,0.2-1.6-0.1-2.3c-0.3-0.7-0.5-1.7-1.3-2c-0.8-0.3-1.6-0.5-2.4-0.3c-1.5,0.2-2.3,1.8-2.6,3.1
		c-0.2,0.3-0.7,0-0.9,0c-0.2,0-0.4,0-0.5,0.2c-0.3,0.2-0.7,0.2-1,0.3c-0.1,0-0.1,0-0.2-0.1c-0.3-0.5-1.3-0.3-1.8-0.1
		c-0.4,0.2-0.9,0.7-1.4,0.4c0-0.1-0.1-0.1-0.1-0.1c-0.2,0-0.3-0.2-0.5-0.2c-0.2-0.1-0.5,0-0.7,0c-0.6-0.2-1.2,0-1.8-0.2
		c-1.1-0.2-2.2-0.6-3.3-0.7c-1.5-0.6-2.8-1.7-4.2-2.5c-1.9-1-4.2-1.6-5.7-3.2c-0.2-0.1,0.1-0.3,0.1-0.4c-0.1-0.7-0.8,0.7-1.2-1
		c0-0.2-0.4-0.3-0.5,0c-0.1,0.2,0,0.4-0.3,0.3c-0.4-0.2-0.7-0.7-1.2-1c-0.1,0-0.1,0-0.2,0c-0.4,0.3,0.3,0.6,0.1,0.8
		c-0.3-0.2-0.8-0.6-1.2-0.5c0,0.1,0,0.2,0,0.2c2.5,2.5,0.1,1.4,1,2.3c0.1,0,0.2,0.1,0.2,0.2c0.1,0.3,0.3,0.4,0.5,0.5
		c0.3,0.3,0.7,0.2,1.1,0.3c0.1,0.1,0.3,0.1,0.4,0.1c2,0.4,3.7,3.6,5.7,4.6c0.8,0.6,1.6,1.3,2.6,1.5c1.6,0.8,4.2,1.4,4.6,2.4
		c0.3,0.8,1.5,0.9,2.4,1.3c1,1,2.2,3,1.5,4.2c-0.4,0.6-0.3,0.9-0.7,1.8c-0.2,0.4-0.3,0.8-0.5,1.2c-0.7,1.2-1,3.7-1,4
		c-0.1,0.4-0.4,1.4,0.1,1.6c0.1,0.1,0.3,0,0.4,0.1c0,0.2,0.1,0.3-0.1,0.5c-0.3,0.3-0.3,0.8-0.1,1.2c-0.1,0.5-0.3,1-0.4,1.6
		c-0.1,0.5,0.2,0.9,0,1.4c0.1,1.4-0.3,2.8-0.1,4.1c0.1,0.4-0.4,0.4-0.3,0.8c0,0.2-0.2,0.7,0.3,0.8c0.1,0,0.1,0.6,0.2,0.6
		c0.1,0.3,0,0.7-0.1,1c-0.2,1.5,0.5,1.7,1,3c0.1,0.2,0.4,0.6,0.4,0.9c0.1,1.7-0.2,3.4,0.2,5c0.7,3,3.3,3.2,3.5-0.1
		c0.1-0.9-0.3-1.6-0.4-2.4c-0.1-1.1,0.3-2.2,0-3.2c0-0.1,0-0.3,0.1-0.5c0.1-0.4,0.4-0.7,0.4-1.1c-0.1-0.5-0.1-1,0.2-1.4
		c0.4-0.5,0.4-1,0.5-1.6c0.1-0.4-0.2-1.2,0.4-1.4c0.8-0.4,0.1-0.7,0.2-1.2c0.3-0.9,0.4-2.8,1.5-3c1.3-0.2,2.6-0.5,3.9-0.6
		c0.5-0.1,1,0,1.4-0.3c0.5-0.2,0.7-0.7,1.1-0.9c0.5-0.2,1.7-0.2,1.5-0.6c-0.3-1,1-1.1,1.1-0.8c0.3,2.1-0.3,4.3,0.6,6.2
		c0.8,2,0.8,4.3,1,6.4c0,0.2-0.2,0.3-0.2,0.5c-0.1,0.3-0.2,0.7-0.1,1c0.1,0.6,0.3,1.1,0.5,1.6c0.2,0.6,2.2-0.2,2.7-0.2
		c1.1-0.5,6.2-1,5.4-2.7c-0.2-0.8-1.4-0.6-2.1-0.6c-0.2,0-0.4,0-0.6-0.1c-0.2-0.1-0.4-0.1-0.5-0.2c-0.4-0.3-1-0.1-1.3-0.4
		c-0.2-0.1-0.5-0.2-0.4-0.5c0-0.2,0-0.3-0.1-0.5c-0.2-0.2-0.1-0.5-0.3-0.8c-0.1-0.2,0.1-0.5,0-0.7c0-0.6-0.6-0.3-0.5-0.7
		c0.2-2,0.5-3.9,0.6-5.9c0-1.7-0.1-3.5-0.5-5.2c-0.1-1-0.2-2.1-1.1-2.7c-0.8-0.4-1.6-0.7-2.5-0.7c-0.5,0-1.1-0.3-1.6-0.1
		c-0.5,0.2-1,0.1-1.5,0.3c-0.5,0.2-1,0.3-1.5,0.4c1.6-1.1,1.1-3,2.1-4.5c0.5-1.1,1.8-1.4,2.9-1.3c0.7,0.2,1.1-0.4,1.5-0.8
		c0-0.3,0.2-0.7,0.6-0.8c0.9-0.1,1.8,0,2.7,0.2c0.4,0.1,0.7,0.1,1.1-0.1c0.9-0.4,1.9-0.5,2.7-1.1c0.6-0.3,1.2-0.6,1.7-1
		c0.2-0.1,0.8-0.1,0.9,0.1c0.1,0.3,0.4,0.4,0.6,0.4c0.5,0.1,0.3,0.6,0.6,0.8c0.5,0.2,0.3-0.6,0.3-0.9c0.3,0.2,0.2,0.5,0.4,0.8
		c0.1,0.2,0.6,0.4,0.5,0c0,0,0-0.1,0-0.2c0.2,0.2,0.5,0.1,0.5-0.2c0,0,0,0.1,0.1,0.1c0,0.3,0.5,0.4,0.7,0.2c0.1-0.3-0.2-0.5-0.2-0.8
		c0.4,0.2,1,1.3,1.5,0.7C151.5,14.9,151.1,14.7,151.1,14.5z M138.3,37.7c0.4,0,0.1,0.6,0,0.9C138.2,38.3,138,37.9,138.3,37.7z
		 M129.4,16.2c-0.3,0.3-0.5,0.5-0.8,0.8c-0.2,0.2-0.4,0.4-0.6,0.6c-0.2,0.2-0.4,0.4-0.4,0.6c-0.2,0.5-0.4,0.5-0.5,0.8
		c-0.1,0.1-0.1,0.2,0,0.5c0.1,0.2,0.2,0.5,0.2,0.7c0,0.1,0.1,0.3,0.1,0.4c0.1,0.4,0.3,0.8,0.6,1.1c0.3,0.4,0.6,0.8,0.7,1.3
		c0,0.1,0.1,0.2,0,0.3c-0.1,0.1-0.1,0.1-0.2,0.1c-0.4-0.1-0.7-0.1-1.1-0.2c-0.1,0-0.2-0.1-0.2-0.2c-0.1-0.4-0.4-0.8-0.6-1.2
		c-0.2-0.4-0.5-0.9-0.5-1.4c-0.1-0.4-0.2-0.8-0.4-1.2c0,0,0,0,0-0.1c0,0.2,0.1,0.4,0.1,0.6c0,0.2,0,0.5,0,0.7c0,0.3,0,0.5,0,0.8
		c0,0.1,0,0.2,0,0.2c-0.1,0.3-0.1,0.7-0.2,1c0,0.2-0.1,0.3-0.2,0.4c-0.4-0.1-0.7-0.1-1.1-0.2c-0.2-0.1-0.2-0.2-0.2-0.4
		c0.2-0.7,0.4-1.3,0.5-2c0-0.2,0.1-0.4,0.1-0.6c0-0.2-0.1-0.5,0-0.7c0.1-0.2-0.1-0.4-0.1-0.7c-0.1-0.4-0.2-0.7-0.2-1.1
		c0-0.4,0.1-0.8,0.2-1.1c0.1-0.3,0.2-0.6,0.2-0.9c0-0.1,0.1-0.1,0.2-0.1c0.1,0,0.2,0,0.3,0c0.3,0.1,0.6,0.1,0.9,0.2
		c0.2,0,0.2,0.1,0.2,0.3c-0.1,0.4-0.2,0.8-0.3,1.3c-0.1,0.4-0.1,0.8,0,1.2c0.1-0.2,0.2-0.3,0.3-0.5c0.1-0.1,0.1-0.2,0.2-0.3
		c0.3-0.3,0.6-0.7,0.9-1c0.2-0.2,0.4-0.4,0.6-0.6c0.1-0.1,0.2-0.1,0.4-0.1c0.3,0.1,0.7,0.2,1,0.2c0.1,0,0.1,0,0.1,0
		C129.5,16,129.5,16.1,129.4,16.2z"/>
</g>
</svg>
