<?xml version="1.0" encoding="UTF-8"?>
<svg width="449px" height="337px" viewBox="0 0 449 337" version="1.1" xmlns="http://www.w3.org/2000/svg" xmlns:xlink="http://www.w3.org/1999/xlink">
    <title>bte_Shape</title>
    <defs>
        <linearGradient x1="0.00129916942%" y1="50.004133%" x2="99.9754399%" y2="50.004133%" id="linearGradient-1">
            <stop stop-color="#FF3596" stop-opacity="0" offset="12%"></stop>
            <stop stop-color="#FF3596" stop-opacity="0.9" offset="31%"></stop>
            <stop stop-color="#95CE63" offset="66%"></stop>
            <stop stop-color="#76FA55" stop-opacity="0" offset="100%"></stop>
        </linearGradient>
    </defs>
    <g id="Design" stroke="none" stroke-width="1" fill="none" fill-rule="evenodd" opacity="0.211982364">
        <g id="Desktop-HD-Copy-5" transform="translate(-147.000000, -1287.000000)" fill="url(#linearGradient-1)" fill-rule="nonzero">
            <g id="Group-4-Copy" transform="translate(436.000000, 1491.000000) scale(-1, -1) translate(-436.000000, -1491.000000) translate(145.000000, 1203.000000)">
                <path d="M7.15843943,229.807815 C7.61427396,229.304872 8.01312918,230.072522 8.01312918,231.52841 L8.01312918,334.181746 C8.06991772,335.37448 7.76382788,336.557943 7.12994977,337.596465 C6.67411524,338.072937 5.44905993,338.205291 5.44905993,336.749403 L5.44905993,234.360774 C5.65350059,232.745204 6.23701694,231.190999 7.15843943,229.807815 L7.15843943,229.807815 Z M0.862224933,237.007843 C0.242429343,238.136432 -0.0520373617,239.394987 0.00753518263,240.660798 L0.00753518263,342.890603 C0.00753518263,344.346491 0.377900741,345.08767 0.862224933,344.531786 C1.7730812,343.155778 2.34694322,341.610418 2.54311478,340.005298 L2.54311478,237.66961 C2.54311478,236.213722 1.31805947,236.451958 0.862224933,237.007843 Z M11.8592331,224.804855 C11.2477386,225.907726 10.9533261,227.138694 11.0045433,228.378398 L11.0045433,331.455265 C11.0045433,332.911153 11.4033985,333.731744 11.8592331,333.308213 C12.8055713,332.093148 13.3947283,330.669894 13.5686126,329.178786 L13.5686126,225.651917 C13.4546539,224.196029 12.201109,224.301912 11.8592331,224.804855 Z M17.3292475,219.113657 C16.6953731,220.18016 16.3990727,221.391491 16.4745577,222.607788 L16.4745577,326.717011 C16.4745577,328.172899 16.8449233,329.046432 17.3007578,328.675843 C18.2721366,327.554195 18.8666419,326.191671 19.0101373,324.75818 L19.0101373,220.093072 C18.8961787,218.637184 17.699613,218.637184 17.2152888,219.113657 L17.3292475,219.113657 Z M22.7422826,213.819519 C22.1336643,214.893988 21.8482394,216.101095 21.9160825,217.31365 L21.9160825,322.693467 C21.9160825,324.149355 22.286448,325.075829 22.7422826,324.73171 C23.733931,323.693511 24.3340728,322.383123 24.4516621,320.999342 L24.4516621,214.825405 C24.3377034,213.369517 23.2550964,213.316575 22.6283239,213.766577 L22.7422826,213.819519 Z M28.212297,208.790087 C27.5809417,209.828652 27.284261,211.013972 27.3576072,212.204806 L27.3576072,319.066982 C27.3576072,320.52287 27.7279728,321.502286 28.212297,321.211108 C29.1887933,320.208246 29.7799225,318.932897 29.8931868,317.584623 L29.8931868,209.822444 C29.7792282,208.366556 28.5826625,208.287144 28.0983383,208.737146 L28.212297,208.790087 Z M33.6538217,203.998893 C33.0099364,205.032889 32.712372,206.221739 32.799132,207.413612 L32.799132,316.128735 C32.799132,317.584623 33.1694975,318.59051 33.6538217,318.352273 C34.6562362,317.415764 35.2629175,316.175651 35.3632012,314.858142 L35.3632012,205.243015 C35.2492426,203.734186 33.9956976,203.548891 33.5398631,203.945951 L33.6538217,203.998893 Z M39.1238361,199.551817 C38.4564079,200.538717 38.1468831,201.698353 38.2406567,202.860653 L38.2406567,313.61402 C38.2406567,315.069908 38.6395119,316.075794 39.0953464,315.864029 C40.1070131,314.998864 40.7195028,313.803786 40.8047259,312.528722 L40.8047259,200.84888 C40.6907673,199.392992 39.465712,199.128286 39.0098775,199.498875 L39.1238361,199.551817 Z M44.5368712,195.395918 C43.9024576,196.384211 43.6137807,197.53108 43.7106711,198.678284 L43.7106711,311.443423 C43.7106711,312.899311 44.0810367,314.090492 44.5368712,313.799315 C45.5680555,313.015375 46.1899755,311.859682 46.2462507,310.622832 L46.2462507,196.798865 C46.0468231,195.316506 44.8787471,194.998858 44.4229126,195.342977 L44.5368712,195.395918 Z M49.9783959,191.531197 C49.3210152,192.455347 48.9921931,193.54781 49.0382372,194.654739 L49.0382372,309.643416 C49.0382372,311.099304 49.4086028,312.290485 49.8644373,312.052249 C50.907947,311.335932 51.5384317,310.213141 51.5738168,309.00812 L51.5738168,193.013556 C51.5738168,191.557668 50.3487615,191.134137 49.8644373,191.478256 L49.9783959,191.531197 Z M55.4484103,187.931184 C54.7753414,188.865745 54.4731736,189.988762 54.5937206,191.107666 L54.5937206,308.478706 C54.5937206,309.934594 54.9640862,311.125775 55.4484103,310.94048 C56.4850383,310.257474 57.1093238,309.156373 57.1293002,307.975763 L57.1293002,189.492954 C57.0153416,188.037066 55.7902862,187.613535 55.3344517,187.878242 L55.4484103,187.931184 Z M60.8899351,184.675289 C60.2094826,185.58686 59.9059928,186.695991 60.0352453,187.79883 L60.0352453,307.525761 C60.0352453,308.981649 60.4056109,310.17283 60.8899351,310.040477 C61.9386343,309.400905 62.5786839,308.320549 62.5993146,307.155172 L62.5993146,186.316472 C62.485356,184.860584 61.231811,184.33117 60.7759765,184.622347 L60.8899351,184.675289 Z M66.3314598,181.65763 C65.6600011,182.563026 65.3570476,183.660815 65.4767701,184.754701 L65.4767701,306.916935 C65.4767701,308.372823 65.8756253,309.564004 66.3314598,309.564004 C67.343847,309.004647 67.9860626,308.010141 68.0408393,306.916935 L68.0408393,183.378225 C67.9268807,181.922337 66.6733357,181.419394 66.2175012,181.604689 L66.3314598,181.65763 Z M71.6875156,178.772325 C71.2316811,179.010561 70.8613155,180.387037 70.8613155,181.842925 L70.8613155,306.466934 C70.8613155,307.922822 71.2316811,309.114003 71.6875156,309.114003 C72.7411824,308.594096 73.3990078,307.575416 73.3968951,306.466934 L73.3968951,180.731156 C73.3684055,179.275268 72.1148605,178.772325 71.6875156,178.772325 Z M77.15753,176.337021 C76.6732058,176.548787 76.3028403,177.898792 76.3028403,179.35468 L76.3028403,306.413992 C76.3028403,307.86988 76.6732058,309.061061 77.1290404,309.061061 C78.2509113,308.610686 78.9386594,307.54567 78.8384199,306.413992 L78.8384199,178.375265 C78.8099302,176.919377 77.6133645,176.125256 77.1290404,176.416433 L77.15753,176.337021 Z M82.5990548,174.166425 C82.1147306,174.35172 81.744365,175.701725 81.744365,177.157613 L81.744365,306.863994 C81.744365,308.319882 82.1147306,309.511063 82.5990548,309.511063 C83.0833789,309.511063 84.2799446,308.425765 84.2799446,306.863994 L84.2799446,176.257609 C84.2514549,174.801721 83.0833789,174.060542 82.5705651,174.245837 L82.5990548,174.166425 Z M88.0405795,172.234064 C87.584745,172.392889 87.1858898,173.742894 87.1858898,175.198782 L87.1858898,307.287525 C87.1858898,308.743413 87.5562553,309.934594 88.0405795,309.934594 C88.5249037,309.934594 89.749959,309.00812 89.749959,307.552232 L89.749959,174.431132 C89.7214693,172.975244 88.496414,172.154652 88.0120898,172.313477 L88.0405795,172.234064 Z M93.4821042,170.592882 C93.0262697,170.592882 92.6274145,172.022299 92.6274145,173.478187 L92.6274145,308.108116 C92.6274145,309.564004 93.0262697,310.755185 93.4821042,310.755185 C93.9379388,310.755185 95.1914838,309.855182 95.1914838,308.399294 L95.1914838,172.84289 C95.1629941,171.387002 93.9094491,170.51347 93.4536146,170.672294 L93.4821042,170.592882 Z M98.923629,169.136994 C98.4677945,169.136994 98.0974289,170.53994 98.0974289,171.995828 L98.0974289,309.140473 C98.0974289,310.596361 98.4677945,311.787542 98.9521187,311.946366 C99.4364428,312.105191 100.633008,311.125775 100.633008,309.669887 L100.633008,171.492885 C100.604519,170.036997 99.3509739,169.110523 98.8951393,169.216406 L98.923629,169.136994 Z M104.365154,168.184049 C103.88083,168.184049 103.510464,169.560525 103.510464,171.016413 L103.510464,310.596361 C103.510464,312.052249 103.88083,313.24343 104.365154,313.428725 C104.849478,313.61402 106.046044,312.661075 106.046044,311.205187 L106.046044,170.434058 C106.046044,168.97817 104.849478,167.945813 104.365154,168.184049 Z M109.806678,167.257575 C109.350844,167.257575 108.951989,168.581109 108.951989,170.036997 L108.951989,311.919896 C108.951989,313.375784 109.350844,314.566965 109.806678,314.75226 C110.262513,314.937554 111.487568,314.037551 111.487568,312.581663 L111.487568,169.481113 C111.573037,168.025225 110.291003,167.045809 109.806678,167.125221 L109.806678,167.257575 Z M115.248203,166.569337 C114.792369,166.569337 114.393513,167.866401 114.393513,169.216406 L114.393513,313.508137 C114.393513,314.964025 114.792369,316.155206 115.248203,316.419913 C115.704038,316.68462 116.957583,315.731675 116.957583,314.275787 L116.957583,168.925228 C116.957583,167.46934 115.732527,166.384042 115.248203,166.436983 L115.248203,166.569337 Z M120.689728,166.039923 C120.233893,166.039923 119.835038,167.284045 119.835038,168.686992 L119.835038,315.387556 C119.835038,316.843444 120.233893,318.034625 120.718218,318.325803 C121.202542,318.61698 122.399107,317.769918 122.399107,316.31403 L122.399107,168.448756 C122.399107,166.992868 121.145563,165.881099 120.689728,165.907107 L120.689728,166.039923 Z M126.159742,165.775216 C125.675418,165.775216 125.305053,166.992868 125.305053,168.422285 L125.305053,317.425799 C125.305053,318.881687 125.675418,320.072868 126.131253,320.390517 C126.587087,320.708165 127.840632,319.861103 127.840632,318.405215 L127.840632,168.184049 C127.840632,166.807573 126.644067,165.53698 126.159742,165.53698 L126.159742,165.775216 Z M131.515798,165.53698 C131.031474,165.53698 130.661108,166.728161 130.661108,168.184049 L130.661108,319.411101 C130.661108,320.866989 131.031474,322.216994 131.487308,322.402289 C131.943143,322.587584 133.196688,321.899346 133.196688,320.443458 L133.196688,168.184049 C133.282157,166.807573 132.085591,165.53698 131.515798,165.53698 Z M136.928833,165.53698 C136.472999,165.53698 136.102633,166.70169 136.102633,168.184049 L136.102633,321.714051 C136.102633,323.169939 136.472999,324.519944 136.928833,324.705239 C137.384668,324.890534 138.638213,324.255237 138.638213,322.799349 L138.638213,168.422285 C138.723682,166.966397 137.498626,165.695804 137.014302,165.695804 L136.928833,165.53698 Z M142.398848,165.801687 C141.914523,165.801687 141.544158,166.939926 141.544158,168.448756 L141.544158,324.017001 C141.544158,325.472889 141.914523,326.849365 142.398848,327.06113 C142.883172,327.272896 144.108227,326.66407 144.108227,325.208182 L144.108227,168.713463 C144.132686,167.592711 143.514262,166.544322 142.484317,165.960511 L142.398848,165.801687 Z M147.811883,166.30463 C147.327559,166.30463 146.957193,167.416399 146.957193,168.951699 L146.957193,326.584658 C146.957193,328.040546 147.327559,329.417022 147.811883,329.628787 C148.296207,329.840553 149.549752,329.33761 149.549752,327.881722 L149.549752,169.057582 C149.503737,167.989648 148.882785,167.014806 147.897352,166.463454 L147.811883,166.30463 Z M153.253407,166.886985 C152.797573,166.886985 152.398718,167.972283 152.398718,169.534054 L152.398718,329.284668 C152.278995,330.378555 152.581949,331.476343 153.253407,332.381739 C153.737732,332.619975 154.991277,332.03762 154.991277,330.581732 L154.991277,169.957585 C154.997854,168.791626 154.378054,167.699446 153.338876,167.045809 L153.253407,166.886985 Z M158.723422,167.681106 C158.239098,167.681106 157.840242,168.766404 157.840242,170.328175 L157.840242,332.064091 C157.840242,333.519979 158.239098,334.922925 158.723422,335.161162 C159.207746,335.399398 160.432801,334.869984 160.432801,333.414096 L160.432801,170.831118 C160.4445,169.648607 159.839377,168.533992 158.808891,167.83993 L158.723422,167.681106 Z M164.164947,168.60758 C163.680622,168.60758 163.281767,169.639937 163.281767,171.095825 L163.281767,334.949396 C163.160771,336.055491 163.474461,337.164921 164.164947,338.072937 C164.620781,338.337644 165.874326,337.808231 165.874326,336.352343 L165.874326,171.704651 C165.867711,170.540796 165.26459,169.449529 164.250416,168.766404 L164.164947,168.60758 Z M169.606471,169.639937 C169.122147,169.639937 168.751782,170.672294 168.751782,172.128182 L168.751782,337.834701 C168.625779,338.945644 168.928691,340.062045 169.606471,340.984713 C170.090796,341.24942 171.344341,340.746477 171.344341,339.290589 L171.344341,172.525242 C171.246193,171.436474 170.643039,170.441264 169.69194,169.798761 L169.606471,169.639937 Z M175.047996,170.804647 C174.563672,170.804647 174.193306,171.810533 174.193306,173.266421 L174.193306,340.931772 C174.067304,342.042714 174.370216,343.159116 175.047996,344.081784 C175.53232,344.346491 176.785865,343.896489 176.785865,342.440601 L176.785865,173.98113 C176.763825,172.792667 176.15441,171.679735 175.133465,170.963471 L175.047996,170.804647 Z M180.489521,172.07524 C180.005197,172.07524 179.634831,173.081127 179.634831,174.537015 L179.634831,344.081784 C179.523358,345.191726 179.825044,346.303609 180.489521,347.231796 C180.973845,347.496503 182.170411,347.046501 182.170411,345.590613 L182.170411,175.331135 C182.155289,174.130884 181.571609,172.997831 180.57499,172.234064 L180.489521,172.07524 Z M185.931046,173.451716 C185.446721,173.451716 185.076356,174.431132 185.076356,175.88702 L185.076356,347.337679 C184.947103,348.440519 185.250593,349.54965 185.931046,350.46122 C186.38688,350.752398 187.640425,350.46122 187.640425,348.872979 L187.640425,176.707611 C187.61828,175.503014 187.023786,174.369215 186.016515,173.61054 L185.931046,173.451716 Z M191.344081,175.066428 C190.888246,175.066428 190.489391,176.019373 190.489391,177.475261 L190.489391,350.83181 C190.382528,351.941418 190.683834,353.051899 191.344081,353.981822 C191.799915,354.273 193.05346,353.822998 193.05346,352.36711 L193.05346,178.21644 C193.000093,176.986322 192.376808,175.837745 191.344081,175.066428 Z M196.785605,176.601728 C196.329771,176.442904 195.959405,177.528202 195.959405,178.98409 L195.959405,354.140646 C195.848768,355.255257 196.139354,356.37247 196.785605,357.317129 C197.24144,357.608307 198.494985,357.317129 198.494985,355.755358 L198.494985,179.75174 C198.506397,178.559089 197.979398,177.416568 197.042012,176.601728 L196.785605,176.601728 Z M202.22713,178.18997 C201.771296,178.18997 201.40093,179.116444 201.40093,180.572332 L201.40093,357.555365 C201.290292,358.669976 201.580879,359.78719 202.22713,360.731848 C202.711454,361.049496 203.93651,360.731848 203.93651,359.196548 L203.93651,181.419394 C203.939935,180.177665 203.356701,178.997092 202.341089,178.18997 L202.22713,178.18997 Z M207.697145,179.831153 C207.21282,179.698799 206.842455,180.784097 206.842455,182.239985 L206.842455,360.996555 C206.729508,362.131625 207.030528,363.26902 207.697145,364.225979 C208.152979,364.543628 209.378034,364.225979 209.378034,362.664209 L209.378034,183.007635 C209.350762,181.79308 208.78354,180.643207 207.811103,179.831153 L207.697145,179.831153 Z M213.138669,181.525277 C212.654345,181.366453 212.28398,182.42528 212.28398,183.881168 L212.28398,364.570098 C212.163433,365.689003 212.4656,366.81202 213.138669,367.746581 C213.594504,368.064229 214.848049,367.746581 214.848049,366.211281 L214.848049,184.701759 C214.845424,183.446095 214.264762,182.25146 213.252628,181.419394 L213.138669,181.525277 Z M218.580194,183.245872 C218.12436,183.245872 217.725504,184.172346 217.725504,185.628234 L217.725504,368.117171 C217.621229,369.243272 217.921813,370.369712 218.580194,371.320124 C219.036029,371.611302 220.289574,371.320124 220.289574,369.837766 L220.289574,186.422354 C220.261945,185.202236 219.682857,184.049272 218.694153,183.245872 L218.580194,183.245872 Z M224.021719,184.966466 C223.565884,184.807642 223.195519,185.892941 223.195519,187.348828 L223.195519,371.743655 C223.084881,372.858266 223.375467,373.975479 224.021719,374.920138 C224.477553,375.211316 225.731098,374.920138 225.731098,373.437779 L225.731098,188.142949 C225.686497,186.926558 225.110405,185.779559 224.135677,184.966466 L224.021719,184.966466 Z M229.491733,186.766473 C229.007409,186.607649 228.637043,187.692947 228.637043,189.148835 L228.637043,375.343669 C228.532718,376.474602 228.82236,377.606747 229.463244,378.573093 C229.947568,378.864271 231.172623,378.573093 231.172623,377.037793 L231.172623,189.916485 C231.18254,188.686711 230.609424,187.515208 229.605692,186.713532 L229.491733,186.766473 Z M234.933258,188.54001 C234.448934,188.381185 234.078568,189.440013 234.078568,190.895901 L234.078568,378.996624 C233.965622,380.131694 234.266641,381.26909 234.933258,382.226048 C235.389093,382.543697 236.614148,382.226048 236.614148,380.717219 L236.614148,191.716492 C236.586875,190.501937 236.019653,189.352064 235.047217,188.54001 L234.933258,188.54001 Z M240.374783,190.287075 C239.918948,190.128251 239.520093,191.187079 239.520093,192.642966 L239.520093,382.596638 C239.430446,383.721628 239.729894,384.843812 240.374783,385.799592 C240.859107,386.11724 242.084162,385.799592 242.084162,384.290762 L242.084162,193.463558 C242.060077,192.242675 241.480353,191.088443 240.488741,190.287075 L240.374783,190.287075 Z M245.816307,192.00767 C245.360473,192.00767 244.961618,192.960615 244.961618,194.416503 L244.961618,386.329005 C244.85481,387.467278 245.166118,388.605603 245.844797,389.55843 C246.300632,389.849607 247.525687,389.55843 247.525687,388.02313 L247.525687,195.237094 C247.489877,194.003565 246.913607,192.837089 245.930266,192.00767 L245.816307,192.00767 Z M251.257832,193.728265 C250.801998,193.569441 250.431632,194.654739 250.431632,196.110627 L250.431632,389.981961 C250.327306,391.112894 250.616949,392.245038 251.257832,393.211385 C251.713667,393.529033 252.967212,393.211385 252.967212,391.702555 L252.967212,196.931218 C252.937068,195.704067 252.359133,194.543809 251.371791,193.728265 L251.257832,193.728265 Z M256.727847,195.422389 C256.243522,195.263565 255.873157,196.348863 255.873157,197.804751 L255.873157,393.687857 C255.825569,394.827428 256.175299,395.950815 256.870295,396.890811 C257.354619,397.23493 258.579674,396.890811 258.579674,395.408452 L258.579674,198.572401 C258.537681,197.339568 257.912135,196.186823 256.870295,195.422389 L256.727847,195.422389 Z M262.169371,197.037101 C261.685047,196.904748 261.314682,197.990046 261.314682,199.445934 L261.314682,397.367283 C261.201735,398.502353 261.502755,399.639749 262.169371,400.596707 C262.625206,400.887885 263.850261,400.596707 263.850261,399.114349 L263.850261,200.187113 C263.832522,198.978125 263.262915,197.833042 262.28333,197.037101 L262.169371,197.037101 Z M267.610896,198.651813 C267.126572,198.51946 266.756206,199.604758 266.756206,201.060646 L266.756206,401.126121 C266.64326,402.261191 266.944279,403.398586 267.610896,404.355545 C268.066731,404.673194 269.320276,404.355545 269.320276,402.846716 L269.320276,201.775355 C269.301962,200.568296 268.719676,199.428285 267.724855,198.651813 L267.610896,198.651813 Z M273.052421,200.160642 C272.596586,200.160642 272.197731,201.087117 272.197731,202.543005 L272.197731,404.752606 C272.090636,405.882577 272.402237,407.012634 273.080911,407.955559 C273.536745,408.273207 274.7618,407.955559 274.7618,406.44673 L274.7618,203.284184 C274.736055,202.078743 274.155152,200.941442 273.16638,200.160642 L273.052421,200.160642 Z M278.493946,201.643001 C278.038111,201.643001 277.667746,202.595946 277.667746,204.051834 L277.667746,408.35262 C277.56342,409.483553 277.853062,410.615697 278.493946,411.582044 C278.94978,411.873221 280.203325,411.582044 280.203325,410.046744 L280.203325,204.713601 C280.187645,203.520946 279.603263,202.396224 278.607904,201.643001 L278.493946,201.643001 Z M283.93547,202.993006 C283.479636,202.993006 283.10927,203.972422 283.10927,205.42831 L283.10927,411.899692 C283.004945,413.030625 283.294587,414.16277 283.93547,415.129116 C284.419795,415.446764 285.64485,415.129116 285.64485,413.620287 L285.64485,206.063606 C285.633141,204.870086 285.047987,203.743878 284.049429,202.993006 L283.93547,202.993006 Z M289.405485,204.343011 C288.94965,204.343011 288.550795,205.322427 288.550795,206.778315 L288.550795,415.579118 C288.452656,416.701233 288.742067,417.823199 289.376995,418.782071 C289.861319,419.09972 291.086375,418.782071 291.086375,417.273242 L291.086375,207.36067 C291.093366,206.183986 290.515059,205.070261 289.519443,204.343011 L289.405485,204.343011 Z M294.84701,205.560663 C294.362685,205.560663 293.99232,206.566549 293.99232,208.022437 L293.99232,419.179132 C293.879146,420.305869 294.180441,421.434972 294.84701,422.382085 C295.302844,422.673263 296.556389,422.382085 296.556389,420.846785 L296.556389,208.578322 C296.552242,207.398019 295.96386,206.285122 294.960968,205.560663 L294.84701,205.560663 Z M300.288534,206.725374 C299.8327,206.725374 299.433845,207.75773 299.433845,209.213618 L299.433845,422.699734 C299.32675,423.829705 299.638351,424.959762 300.317024,425.902687 C300.772858,426.220335 301.997914,425.902687 301.997914,424.340916 L301.997914,209.66362 C301.997954,208.50449 301.405908,207.414132 300.402493,206.725374 L300.288534,206.725374 Z M305.730059,207.75773 C305.274224,207.75773 304.875369,208.790087 304.875369,210.245975 L304.875369,426.193865 C304.785722,427.318854 305.08517,428.441039 305.730059,429.396818 C306.185894,429.687996 307.439439,429.264465 307.439439,427.808577 L307.439439,210.748918 C307.412792,209.61784 306.823599,208.562064 305.844018,207.890084 L305.730059,207.75773 Z M311.171584,208.684205 C310.715749,208.684205 310.345384,209.716562 310.345384,211.172449 L310.345384,429.661525 C310.224837,430.78043 310.527004,431.903447 311.200073,432.838008 C311.684398,433.129185 312.880963,432.838008 312.880963,431.302708 L312.880963,211.595981 C312.885814,210.443095 312.291736,209.358853 311.285542,208.684205 L311.171584,208.684205 Z M316.613108,209.504796 C316.157274,209.504796 315.786908,210.537153 315.786908,211.993041 L315.786908,433.049773 C315.682633,434.175874 315.983217,435.302314 316.641598,436.252727 C317.125922,436.543904 318.322488,436.120373 318.322488,434.664485 L318.322488,212.310689 C318.312707,211.183708 317.705068,210.133792 316.698577,209.504796 L316.613108,209.504796 Z M322.083123,210.219505 C321.598799,210.219505 321.228433,211.304803 321.228433,212.866574 L321.228433,436.517434 C321.11696,437.627376 321.418646,438.739259 322.083123,439.667446 C322.567447,439.958623 323.792502,439.508622 323.792502,438.052734 L323.792502,213.184222 C323.847192,212.006347 323.244067,210.885579 322.197082,210.219505 L322.083123,210.219505 Z M327.524648,210.828331 C327.068813,210.828331 326.669958,211.9401 326.669958,213.4754 L326.669958,439.799799 C326.554752,440.913762 326.86762,442.029659 327.553137,442.949811 C328.008972,443.240989 329.234027,442.790987 329.234027,441.335099 L329.234027,213.687165 C329.260006,212.544155 328.659006,211.467224 327.638606,210.828331 L327.524648,210.828331 Z M332.966172,211.331274 C332.510338,211.331274 332.111483,212.443043 332.111483,213.978343 L332.111483,442.949811 C331.991231,444.064142 332.304546,445.181636 332.994662,446.099823 C333.478986,446.36453 334.675552,445.914529 334.675552,444.458641 L334.675552,214.163637 C334.713535,213.025228 334.108517,211.951134 333.080131,211.331274 L332.966172,211.331274 Z M338.407697,211.675393 C337.951863,211.675393 337.581497,212.813632 337.581497,214.322462 L337.581497,446.126294 C337.455494,447.237237 337.758407,448.353638 338.436187,449.276306 C338.920511,449.541013 340.117077,449.03807 340.117077,447.582182 L340.117077,214.375403 C340.1632,213.270605 339.549653,212.232268 338.521656,211.675393 L338.407697,211.675393 Z M343.877712,211.887158 C343.421877,211.887158 343.023022,213.051868 343.023022,214.534227 L343.023022,449.223365 C342.911548,450.333307 343.213234,451.44519 343.877712,452.373377 C344.362036,452.638084 345.558601,452.135141 345.558601,450.679253 L345.558601,214.560698 C345.612623,213.467993 345.008875,212.437862 343.99167,211.887158 L343.877712,211.887158 Z M349.319236,211.887158 C348.834912,211.887158 348.464547,213.051868 348.464547,214.534227 L348.464547,452.161612 C348.350298,453.263427 348.652493,454.367824 349.319236,455.285153 C349.80356,455.523389 351.028616,455.020446 351.028616,453.564558 L351.028616,214.666581 C351.064102,213.571134 350.451981,212.545366 349.433195,211.993041 L349.319236,211.887158 Z M354.789251,211.887158 C354.304927,211.887158 353.906071,213.078339 353.906071,214.534227 L353.906071,455.099858 C353.785075,456.205953 354.098765,457.315383 354.789251,458.2234 C355.245085,458.461636 356.470141,457.905751 356.470141,456.449863 L356.470141,214.560698 C356.524736,213.488723 355.916469,212.481709 354.903209,211.96657 L354.789251,211.887158 Z M360.202286,211.701863 C359.746451,211.701863 359.347596,212.919515 359.347596,214.348932 L359.347596,457.879281 C359.226599,458.985375 359.54029,460.094805 360.230775,461.002822 C360.7151,461.267529 361.911665,460.685174 361.911665,459.229286 L361.911665,214.375403 C361.960765,213.297637 361.340529,212.289146 360.316244,211.781275 L360.202286,211.701863 Z M365.643811,211.437156 C365.187976,211.437156 364.81761,212.681279 364.81761,214.084225 L364.81761,460.738115 C364.81761,462.194003 365.187976,463.570479 365.6723,463.782244 C366.156624,463.99401 367.35319,463.411655 367.35319,461.955767 L367.35319,214.004813 C367.467149,212.548925 366.242093,211.490098 365.757769,211.516568 L365.643811,211.437156 Z M371.085335,210.987155 C370.629501,210.987155 370.259135,212.257748 370.259135,213.634224 L370.259135,463.332243 C370.259135,464.788131 370.65799,466.164607 371.113825,466.376372 C371.569659,466.588138 372.794715,466.032253 372.794715,464.576365 L372.794715,213.528341 C372.908673,212.072453 371.683618,211.040096 371.199294,211.066567 L371.085335,210.987155 Z M376.55535,210.404799 C376.099515,210.404799 375.70066,211.701863 375.70066,213.051868 L375.70066,465.873429 C375.70066,467.329317 376.071025,468.705793 376.55535,468.917558 C377.039674,469.129324 378.264729,468.467557 378.264729,467.011669 L378.264729,212.919515 C378.378688,211.463627 377.153633,210.537153 376.669308,210.537153 L376.55535,210.404799 Z M382.224792,209.743032 C381.768957,209.743032 381.370102,211.040096 381.370102,212.390101 L381.370102,468.388144 C381.370102,469.844032 381.768957,471.194038 382.224792,471.405803 C382.680626,471.617569 383.934171,470.982272 383.934171,469.526384 L383.934171,212.151865 C383.820213,210.695977 382.566668,209.66362 382.224792,209.743032 Z M387.666316,208.869499 C387.210482,208.869499 386.811627,210.219505 386.811627,211.675393 L386.811627,470.876389 C386.811627,472.332277 387.210482,473.682283 387.666316,473.867577 C388.122151,474.052872 389.375696,473.391105 389.375696,471.935217 L389.375696,211.225391 C389.261737,209.769503 387.922723,208.790087 387.552358,208.869499 L387.666316,208.869499 Z M393.107841,207.837143 C392.652007,207.837143 392.281641,209.187148 392.281641,210.643036 L392.281641,473.126398 C392.281641,474.582286 392.652007,475.932291 393.136331,476.117586 C393.620655,476.302881 394.817221,475.614643 394.817221,474.158755 L394.817221,210.140093 C394.703262,208.684205 393.620655,207.890084 392.993883,207.890084 L393.107841,207.837143 Z M398.549366,206.672432 C398.093531,206.672432 397.723166,208.048908 397.723166,209.504796 L397.723166,475.244053 C397.723166,476.699941 398.122021,477.891122 398.577856,478.20877 C399.03369,478.526419 400.258745,477.573474 400.258745,476.117586 L400.258745,208.948912 C400.144787,207.493024 398.919731,206.540079 398.435407,206.672432 L398.549366,206.672432 Z M404.01938,205.348898 C403.535056,205.348898 403.164691,206.778315 403.164691,208.234203 L403.164691,477.255826 C403.164691,478.711714 403.535056,480.035248 404.01938,480.220543 C404.503705,480.405838 405.72876,479.585246 405.72876,478.129358 L405.72876,207.545965 C405.614801,206.090077 404.361256,205.243015 403.905422,205.243015 L404.01938,205.348898 Z M409.460905,203.866539 C409.005071,204.025363 408.606215,205.322427 408.606215,206.778315 L408.606215,479.108774 C408.606215,480.564662 409.005071,481.755843 409.489395,482.047021 C409.973719,482.338198 411.170285,481.385253 411.170285,479.929365 L411.170285,206.010665 C411.056326,204.554777 409.802781,203.734186 409.346946,203.866539 L409.460905,203.866539 Z M414.90243,202.251827 C414.446595,202.410651 414.04774,203.734186 414.04774,205.190074 L414.04774,480.855839 C414.04774,482.311727 414.446595,483.502909 414.90243,483.767615 C415.358264,484.032322 416.611809,483.105848 416.611809,481.64996 L416.611809,204.369482 C416.412382,202.913594 415.244306,202.093003 414.788471,202.251827 L414.90243,202.251827 Z M420.343955,200.45182 C419.88812,200.610644 419.517754,201.934179 419.517754,203.390067 L419.517754,482.470552 C419.517754,483.92644 419.88812,485.117621 420.343955,485.355857 C420.799789,485.594093 422.053334,484.588207 422.053334,483.132319 L422.053334,202.595946 C421.939375,201.087117 420.68583,200.292996 420.229996,200.45182 L420.343955,200.45182 Z M425.785479,198.54593 C425.329645,198.731225 424.959279,200.05476 424.959279,201.510648 L424.959279,483.847027 C424.959279,485.302915 425.329645,486.494096 425.785479,486.732333 C426.241314,486.970569 427.494859,485.938212 427.494859,484.482324 L427.494859,200.531232 C427.3809,199.075344 426.155845,198.360636 425.671521,198.54593 L425.785479,198.54593 Z M431.227004,196.481217 C430.74268,196.666511 430.372314,197.990046 430.372314,199.445934 L430.372314,485.144091 C430.372314,486.599979 430.74268,487.79116 431.227004,488.002926 C431.711328,488.214691 432.964873,487.182334 432.964873,485.726446 L432.964873,198.387106 C432.850915,196.931218 431.59737,196.295922 431.113045,196.481217 L431.227004,196.481217 Z M436.668529,194.231208 C436.184205,194.442973 435.813839,195.792979 435.813839,197.248867 L435.813839,486.282331 C435.813839,487.738219 436.184205,488.9294 436.668529,489.114695 C437.152853,489.29999 438.406398,488.214691 438.406398,486.758803 L438.406398,196.163568 C438.292439,194.654739 437.038894,194.045913 436.55457,194.231208 L436.668529,194.231208 Z M442.110054,191.822375 C441.654219,192.034141 441.255364,193.410616 441.255364,194.866504 L441.255364,487.261746 C441.255364,488.717634 441.654219,489.908815 442.110054,490.06764 C442.565888,490.226464 443.847923,489.141165 443.847923,487.685278 L443.847923,193.675323 C443.733964,192.219435 442.480419,191.61061 442.053074,191.822375 L442.110054,191.822375 Z M447.551578,189.175306 C446.879797,190.070579 446.576484,191.160276 446.696889,192.245906 L446.696889,487.923514 C446.696889,489.379402 447.095744,490.570583 447.551578,490.570583 C448.007413,490.570583 449.289447,489.617638 449.289447,488.16175 L449.289447,191.107666 C449.175489,189.651779 447.921944,189.042953 447.43762,189.360601 L447.551578,189.175306 Z M453.021593,186.528237 C452.537269,186.740003 452.138413,188.116478 452.138413,189.572366 L452.138413,488.691164 C452.138413,490.147052 452.537269,491.338233 453.021593,491.338233 C453.505917,491.338233 454.730972,490.279405 454.730972,488.691164 L454.730972,188.381185 C454.617014,186.925297 453.448938,186.369413 452.907634,186.713532 L453.021593,186.528237 Z M458.434628,183.695873 C457.76771,184.603185 457.465189,185.699409 457.579938,186.792944 L457.579938,489.114695 C457.579938,490.570583 457.978793,491.761764 458.434628,491.761764 C458.890462,491.761764 460.144007,490.623524 460.144007,489.114695 L460.144007,185.522351 C460.030049,184.066463 458.776504,183.537049 458.320669,183.775285 L458.434628,183.695873 Z M463.876153,180.704685 C463.22797,181.63874 462.936952,182.74829 463.049952,183.854697 L463.049952,489.32646 C463.049952,490.782348 463.420318,491.973529 463.876153,491.973529 C464.331987,491.973529 465.585532,490.782348 465.585532,489.32646 L465.585532,182.266456 C465.471573,180.969392 464.246518,180.51939 463.762194,180.784097 L463.876153,180.704685 Z M469.317677,177.579112 C468.663122,178.50276 468.371266,179.606154 468.491477,180.704685 L468.491477,489.352931 C468.491477,490.808819 468.861843,492 469.317677,492 C470.375935,491.4846 471.03561,490.463057 471.027057,489.352931 L471.027057,179.301739 C470.913098,177.845851 469.688043,177.369378 469.203719,177.660556 L469.317677,177.579112 Z M474.787692,174.298778 C474.114452,175.22334 473.811963,176.338181 473.933002,177.44879 L473.933002,489.220578 C473.933002,490.676465 474.303367,491.867647 474.787692,491.867647 C475.828128,491.334887 476.480753,490.324262 476.497071,489.220578 L476.497071,175.939961 C476.383113,174.484073 475.129568,174.087013 474.673733,174.37819 L474.787692,174.298778 Z M480.115258,170.831118 C479.454962,171.770901 479.153937,172.889673 479.260568,174.007601 L479.260568,488.849988 C479.260568,490.305876 479.659423,491.497057 480.115258,491.497057 C481.170572,490.888179 481.815924,489.818859 481.824637,488.664693 L481.824637,172.44583 C481.938596,170.989942 480.571092,170.645823 480.115258,170.831118 Z M485.556783,167.284045 C484.911894,168.239825 484.612445,169.362009 484.702093,170.486999 L484.702093,488.135279 C484.702093,489.591167 485.100948,490.782348 485.585272,490.782348 C486.63923,490.138106 487.271553,489.042745 487.266162,487.870572 L487.266162,168.819345 C487.266162,167.363458 486.012617,167.045809 485.556783,167.363458 L485.556783,167.284045 Z M490.998307,163.498737 C490.357424,164.465083 490.067782,165.597228 490.172107,166.728161 L490.172107,487.420571 C490.172107,488.876459 490.542473,490.06764 491.026797,489.908815 C492.07436,489.23476 492.701839,488.128025 492.707687,486.944098 L492.707687,165.007566 C492.707687,163.551678 491.482631,163.23403 490.998307,163.578149 L490.998307,163.498737 Z M496.468322,159.607545 C495.811475,160.578215 495.511544,161.720783 495.613632,162.86344 L495.613632,486.388214 C495.613632,487.844102 495.983998,489.035283 496.439832,488.823517 C497.490108,488.112597 498.122461,486.986478 498.149212,485.779388 L498.149212,161.089904 C498.149212,159.634016 496.952646,159.342838 496.468322,159.686957 L496.468322,159.607545 Z M501.881357,155.689883 C501.21845,156.667978 500.918275,157.820774 501.026667,158.972249 L501.026667,485.038209 C501.026667,486.494096 501.425522,487.685278 501.881357,487.473512 C502.923197,486.709078 503.548743,485.556333 503.590736,484.3235 L503.590736,157.013418 C503.619226,155.55753 502.365681,155.319294 501.881357,155.689883 Z M507.322882,151.507514 C506.674969,152.491441 506.376005,153.639586 506.468192,154.78988 L506.468192,483.449967 C506.468192,484.905855 506.867047,486.097036 507.322882,485.832329 C508.352638,485.03593 508.973265,483.87303 509.032261,482.629376 L509.032261,152.831049 C509.060751,151.375161 507.807206,151.136925 507.351371,151.507514 L507.322882,151.507514 Z M512.764406,147.166321 C512.127397,148.17383 511.829713,149.3355 511.909717,150.501628 L511.909717,481.64996 C511.909717,483.105848 512.308572,484.138205 512.764406,483.95291 C513.782641,483.114463 514.398062,481.932727 514.473786,480.670545 L514.473786,148.463385 C514.502275,147.006469 513.27722,146.795731 512.792896,147.166321 L512.764406,147.166321 Z M518.234421,142.692774 C517.580232,143.693795 517.281244,144.860552 517.379731,146.028081 L517.379731,479.558776 C517.379731,481.014664 517.750096,482.047021 518.234421,481.835255 C519.250629,480.942958 519.853428,479.718376 519.915311,478.420536 L519.915311,143.910426 C519.9438,142.454538 518.747235,142.295714 518.26291,142.692774 L518.234421,142.692774 Z M523.647456,138.086874 C523.028323,139.119403 522.741545,140.295482 522.821256,141.475123 L522.821256,477.04406 C522.821256,478.499948 523.191621,479.532305 523.647456,479.320539 C524.667586,478.395495 525.277497,477.148781 525.356835,475.826408 L525.356835,139.278055 C525.385325,137.822167 524.16027,137.689814 523.675945,138.086874 L523.647456,138.086874 Z M529.11747,133.348621 C528.472592,134.372574 528.174749,135.553313 528.26278,136.736869 L528.26278,474.37052 C528.26278,475.826408 528.633146,476.805824 529.11747,476.541117 C530.117537,475.571094 530.722064,474.307301 530.82685,472.967574 L530.82685,134.48686 C530.855339,133.030973 529.601794,132.92509 529.14596,133.348621 L529.11747,133.348621 Z M534.587485,128.478014 C533.956129,129.516578 533.659449,130.701898 533.732795,131.892733 L533.732795,471.326391 C533.732795,472.782279 534.13165,473.735224 534.587485,473.470517 C535.574346,472.471266 536.175671,471.195541 536.296864,469.844032 L536.296864,129.510371 C536.296864,128.054483 535.043319,128.054483 534.587485,128.478014 Z M540.029009,123.422112 C539.397654,124.460676 539.100973,125.645997 539.17432,126.836831 L539.17432,467.964613 C539.17432,469.420501 539.573175,470.373446 540.029009,470.055798 C541.007932,468.98951 541.60536,467.666546 541.738389,466.270489 L541.738389,124.48094 C541.766878,123.025052 540.484844,122.998581 540.029009,123.422112 Z M545.499024,118.127974 C544.859207,119.17311 544.56213,120.369216 544.644334,121.569164 L544.644334,464.258717 C544.644334,465.714605 545.0147,466.641079 545.499024,466.323431 C546.472587,465.225815 547.059395,463.87662 547.179914,462.45871 L547.179914,119.213272 C547.179914,117.889738 545.983348,117.889738 545.499024,118.233857 L545.499024,118.127974 Z M550.912059,112.833836 C550.303441,113.908306 550.018016,115.115413 550.085859,116.327967 L550.085859,460.235172 C550.085859,461.69106 550.456224,462.591063 550.912059,462.220474 C551.888655,461.071227 552.482768,459.682002 552.621438,458.2234 L552.621438,113.892664 C552.621438,112.436776 551.396383,112.5956 550.912059,112.939719 L550.912059,112.833836 Z M556.382073,107.539698 C555.748766,108.615992 555.452679,109.835621 555.527383,111.0603 L555.527383,455.867508 C555.527383,457.323396 555.897749,458.170458 556.382073,457.773398 C557.339195,456.563789 557.929508,455.137743 558.091453,453.64397 L558.091453,108.439702 C558.091453,106.983814 556.837908,107.063226 556.382073,107.539698 L556.382073,107.539698 Z M561.709639,102.007324 C561.092987,103.098935 560.798116,104.32269 560.85495,105.554396 L560.85495,451.049843 C560.85495,452.50573 561.253805,453.352793 561.738129,452.902791 C562.677684,451.657022 563.25653,450.207631 563.419019,448.693951 L563.419019,102.801445 C563.532977,101.345557 562.279433,101.424969 561.709639,102.007324 Z M567.407571,96.183772 C566.786731,97.2644079 566.491443,98.4807467 566.552881,99.7043738 L566.552881,445.888058 C566.552881,447.343946 566.951736,448.164537 567.407571,447.688065 C568.35032,446.382601 568.936992,444.883586 569.116951,443.320401 L569.116951,97.0308341 C568.974502,95.5749461 567.720957,95.7072996 567.407571,96.183772 Z M572.849096,90.3602202 C572.244989,91.4647302 571.960279,92.696181 572.022896,93.9337634 L572.022896,440.329213 C572.022896,441.785101 572.393261,442.552751 572.849096,442.049808 C573.792211,440.695746 574.377894,439.15391 574.558475,437.549791 L574.558475,91.1543409 C574.416027,89.698453 573.105503,89.8572771 572.706647,90.3602202 L572.849096,90.3602202 Z M578.29062,84.3778443 C577.686514,85.4823543 577.401804,86.7138051 577.46442,87.9513874 L577.46442,434.293896 C577.46442,435.749784 577.834786,436.490963 578.29062,435.961549 C579.227014,434.546389 579.811051,432.954621 580,431.302708 L580,85.1190236 C579.857552,83.6631356 578.632496,83.8749012 578.148172,84.3778443 L578.29062,84.3778443 Z" id="Shape"></path>
            </g>
        </g>
    </g>
</svg>