<?xml version="1.0" encoding="UTF-8"?>
<svg width="420px" height="377px" viewBox="0 0 420 377" version="1.1" xmlns="http://www.w3.org/2000/svg" xmlns:xlink="http://www.w3.org/1999/xlink">
    <title>bte_BG Header right</title>
    <defs>
        <rect id="path-1" x="0" y="0" width="420" height="377"></rect>
        <linearGradient x1="13.0000012%" y1="49.9976838%" x2="92.0000001%" y2="49.9976838%" id="linearGradient-3">
            <stop stop-color="#FF3596" stop-opacity="0" offset="0%"></stop>
            <stop stop-color="#FF3596" stop-opacity="0.2" offset="37%"></stop>
            <stop stop-color="#76FA55" stop-opacity="0.4" offset="65%"></stop>
            <stop stop-color="#76FA55" stop-opacity="0" offset="100%"></stop>
        </linearGradient>
        <linearGradient x1="0.00129916942%" y1="50.004133%" x2="99.9754399%" y2="50.004133%" id="linearGradient-4">
            <stop stop-color="#FF3596" stop-opacity="0" offset="12%"></stop>
            <stop stop-color="#FF3596" stop-opacity="0.9" offset="31%"></stop>
            <stop stop-color="#95CE63" offset="66%"></stop>
            <stop stop-color="#76FA55" stop-opacity="0" offset="100%"></stop>
        </linearGradient>
    </defs>
    <g id="Design" stroke="none" stroke-width="1" fill="none" fill-rule="evenodd">
        <g id="Desktop-HD-Copy-5" transform="translate(-1020.000000, -80.000000)">
            <g id="BG-Header-right" transform="translate(1020.000000, 80.000000)">
                <mask id="mask-2" fill="white">
                    <use xlink:href="#path-1"></use>
                </mask>
                <g id="Mask"></g>
                <g opacity="0.0766107468" mask="url(#mask-2)" fill-rule="nonzero" id="Shape">
                    <g transform="translate(416.000000, -34.750000) scale(-1, -1) translate(-416.000000, 34.750000) translate(0.250000, -446.750000)">
                        <path d="M11.7358486,294.75262 C12.3883322,293.731928 12.9184752,294.75262 12.9184752,296.642789 L12.9184752,506.943016 C12.9785752,508.833716 12.5595563,510.711136 11.6950684,512.424506 C11.0018045,513.369591 9.28903489,514.314676 9.28903489,512.23549 L9.28903489,302.388903 C9.6401641,299.734915 10.4671529,297.153958 11.7358486,294.75262 Z M2.68263789,309.269119 C1.8990796,311.071297 1.49754812,312.996577 1.50001126,314.939627 L1.50001126,524.256966 C1.50001126,526.336152 2.03015423,527.130023 2.68263789,525.995921 C3.95868008,523.623959 4.78628858,521.066641 5.12945159,518.435245 L5.12945159,309.042299 C5.12945159,306.963113 3.37590177,308.135018 2.68263789,309.269119 Z M18.3014654,284.696919 C17.4483444,286.467223 17.030461,288.391206 17.0780585,290.329624 L17.0780585,501.461525 C17.0780585,503.540711 17.6082015,504.523599 18.3014654,503.616318 C19.603429,501.551414 20.4360932,499.261498 20.7482791,496.887316 L20.7482791,284.696919 C20.7074988,282.69334 18.953949,283.600621 18.3014654,284.696919 Z M26.1312692,273.355904 C25.2538938,275.002084 24.7936119,276.812253 24.7855217,278.648378 L24.7855217,491.821662 C24.7855217,493.900848 25.3564449,494.997146 26.0089285,494.278882 C27.3356378,492.34841 28.1722668,490.163924 28.4557422,487.89011 L28.4557422,273.544921 C28.5373027,271.465735 26.7837529,272.221803 26.1312692,273.355904 Z M33.8795126,262.58194 C33.0464254,264.290288 32.6420779,266.151519 32.696886,268.025627 L32.696886,483.807345 C32.696886,485.886531 33.227029,487.058436 33.8795126,486.377975 C35.2324289,484.599481 36.0744928,482.530903 36.3263263,480.367237 L36.3263263,262.92217 C36.3263263,260.842984 34.5319963,261.447838 33.8795126,262.392923 L33.8795126,262.58194 Z M41.7093165,252.375026 C40.8290186,254.029611 40.4084889,255.861822 40.4859096,257.705303 L40.4859096,476.738112 C40.4859096,478.817298 41.0160526,480.027006 41.6685362,479.459955 C43.0574606,477.799493 43.90631,475.806049 44.1153499,473.713841 L44.1153499,252.828666 C44.1153499,250.673873 42.4025804,251.316531 41.7093165,252.186009 L41.7093165,252.375026 Z M49.4983401,242.735163 C48.6164433,244.375726 48.1956373,246.196138 48.2749332,248.027637 L48.2749332,470.57616 C48.2749332,472.655346 48.8050762,473.978465 49.4983401,473.487021 C50.8741363,471.909745 51.7117799,469.988242 51.9043736,467.967727 L51.9043736,243.453427 C51.9043736,241.374241 50.1508238,241.714471 49.4983401,242.546146 L49.4983401,242.735163 Z M57.4097044,233.54894 C56.5345106,235.137571 56.1132986,236.907678 56.1862976,238.690201 L56.1862976,465.283686 C56.1862976,467.362872 56.7164405,468.723794 57.4097044,468.307957 C58.8145229,466.876215 59.6740496,465.056893 59.8565181,463.128893 L59.8565181,234.720845 C59.7341774,232.641659 57.9806276,232.792873 57.4097044,233.54894 Z M65.198728,225.156589 C64.3181176,226.729838 63.8963782,228.489129 63.9753212,230.260046 L63.9753212,460.86069 C63.9753212,462.939876 64.5462444,464.376405 65.198728,464.073978 C66.6315437,462.781383 67.5022842,461.045948 67.6455417,459.197341 L67.6455417,226.517511 C67.5232011,224.438325 65.5657501,224.438325 65.0763873,225.156589 L65.198728,225.156589 Z M72.9877517,217.369092 C72.1101789,218.887754 71.700994,220.601214 71.805125,222.321335 L71.805125,457.496189 C71.805125,459.575375 72.335268,461.049707 72.9877517,460.785084 C74.4555745,459.659448 75.3438397,458.012599 75.4345654,456.248677 L75.4345654,218.919031 C75.3122247,216.839845 73.7217958,216.650828 72.865411,217.369092 L72.9877517,217.369092 Z M80.7767753,210.110842 C79.8905461,211.58542 79.4800501,213.265005 79.5941487,214.949675 L79.5941487,454.812149 C79.5941487,456.891335 80.1242916,458.592487 80.7767753,458.214453 C82.2690437,457.156739 83.1678192,455.532063 83.223589,453.791457 L83.223589,211.849798 C83.1012483,209.732808 81.3476985,209.543791 80.6544346,210.110842 L80.7767753,210.110842 Z M88.5657989,203.533053 C87.6658293,204.975149 87.2538238,206.63457 87.3831723,208.29628 L87.3831723,452.997586 C87.3831723,455.076772 87.9133153,456.777925 88.5657989,456.551104 C90.0663905,455.567742 90.9744002,453.982488 91.0126126,452.279322 L91.0126126,205.309812 C90.8902719,203.306233 89.1367221,202.966002 88.4434582,203.533053 L88.5657989,203.533053 Z M96.3956028,197.446708 C95.4467142,198.843547 95.0170429,200.489881 95.1721959,202.134328 L95.1721959,451.636664 C95.1721959,453.715851 95.7023389,455.417003 96.3956028,455.417003 C97.9061838,454.547451 98.8299448,453.020331 98.8424165,451.372041 L98.8424165,199.450288 C98.7200758,197.371102 96.9257457,196.917461 96.2732621,197.446708 L96.3956028,197.446708 Z M104.184626,191.927414 C103.25301,193.303026 102.824035,194.920181 102.96122,196.539427 L102.96122,451.03181 C102.96122,453.110996 103.532143,454.812149 104.184626,454.812149 C105.680099,454.057269 106.616671,452.61026 106.63144,451.03181 L106.63144,193.968797 C106.345978,192.040824 104.714769,191.473774 104.062286,191.927414 L104.184626,191.927414 Z M112.01443,186.975171 C111.033719,188.317936 110.586836,189.934891 110.750243,191.54938 L110.750243,451.258631 C110.750243,453.337817 111.321166,455.038969 111.97365,455.038969 C113.530918,454.345361 114.493096,452.858792 114.420464,451.258631 L114.420464,189.356784 C114.502024,187.277598 112.585353,186.40812 111.89209,186.975171 L112.01443,186.975171 Z M119.640333,182.627782 C118.755307,183.947709 118.381366,185.507606 118.580047,187.050778 L118.580047,451.674468 C118.580047,453.753654 119.11019,455.454806 119.762674,455.454806 C120.415157,455.454806 122.209487,453.980474 122.209487,451.901288 L122.209487,185.085002 C122.087147,183.005816 120.333597,182.211944 119.640333,182.627782 Z M127.470137,178.847443 C126.509008,180.140459 126.075359,181.708236 126.24673,183.270439 L126.24673,452.959783 C126.24673,455.038969 126.776873,456.740121 127.429357,456.740121 C128.08184,456.740121 129.87617,455.568216 129.87617,453.48903 L129.87617,181.304663 C129.87617,179.338887 128.163401,178.355999 127.470137,178.847443 Z M135.25916,175.520745 C134.565897,175.785369 134.035754,177.751145 134.035754,179.830331 L134.035754,454.623132 C134.035754,456.702318 134.565897,458.40347 135.25916,458.668094 C135.952424,458.932718 137.705974,457.533992 137.705974,455.454806 L137.705974,178.204786 C137.705974,176.1256 135.911644,175.067105 135.25916,175.369532 L135.25916,175.520745 Z M143.048184,172.458671 C142.3957,172.685492 141.824777,174.575661 141.824777,176.654847 L141.824777,456.399891 C141.824777,458.479077 142.3957,460.180229 143.088964,460.482656 C143.782228,460.785084 145.494998,459.537572 145.494998,457.458386 L145.494998,175.520745 C145.494998,173.441559 143.700668,172.231851 143.048184,172.458671 Z M150.877988,170.114862 C150.184724,170.303878 149.613801,172.194048 149.613801,174.273234 L149.613801,459.046128 C149.613801,461.125314 150.184724,462.826466 150.877988,463.2045 C151.571252,463.582534 153.284021,462.372826 153.284021,460.29364 L153.284021,173.328149 C153.284021,171.286766 151.571252,169.925845 150.877988,170.114862 Z M158.667012,168.224692 C157.973748,168.224692 157.443605,170.190468 157.443605,172.269654 L157.443605,461.956988 C157.443605,464.036175 157.973748,465.737327 158.667012,466.153164 C159.360275,466.569001 161.073045,465.397096 161.073045,463.31791 L161.073045,171.286766 C161.073045,169.358794 159.360275,168.111282 158.667012,168.224692 Z M166.456035,166.825967 C165.803552,166.825967 165.232628,168.75394 165.232628,170.833126 L165.232628,465.208079 C165.232628,467.287266 165.803552,469.215238 166.456035,469.479862 C167.108519,469.744486 168.862069,468.837204 168.862069,466.758018 L168.862069,170.303878 C168.862069,168.224692 167.149299,166.712557 166.456035,166.825967 L166.456035,166.825967 Z M174.245059,165.802624 C173.551795,165.802624 173.021652,167.582035 173.021652,169.585614 L173.021652,468.761598 C173.021652,470.840784 173.592575,472.80656 174.245059,473.108987 C174.897542,473.411414 176.691872,472.730953 176.691872,470.651767 L176.691872,169.358794 C176.691872,167.279608 174.897542,165.729669 174.245059,165.802624 L174.245059,165.802624 Z M182.074863,165.200422 C181.381599,165.200422 180.810676,166.977181 180.810676,168.98076 L180.810676,472.80656 C180.639304,474.368763 181.072953,475.93654 182.034082,477.229556 C182.686566,477.569786 184.480896,476.889325 184.480896,474.810139 L184.480896,168.942957 C184.523929,167.369862 183.587884,165.913864 182.074863,165.200422 L182.074863,165.200422 Z M189.863886,165.200422 C189.170622,165.200422 188.599699,166.901574 188.599699,168.98076 L188.599699,477.305162 C188.436164,478.878689 188.868726,480.455904 189.823106,481.765962 C190.47559,482.143996 192.26992,481.463535 192.26992,479.384349 L192.26992,168.942957 C192.26992,166.86377 190.55715,165.049208 189.863886,165.049208 L189.863886,165.200422 Z M197.61213,165.465045 C196.959646,165.465045 196.429503,167.128394 196.429503,169.245384 L196.429503,481.917175 C196.271136,483.508976 196.687082,485.104493 197.61213,486.453581 C198.305394,486.831615 200.058943,486.188958 200.058943,484.109772 L200.058943,169.245384 C200.086205,167.617259 199.146241,166.10692 197.61213,165.313832 L197.61213,165.465045 Z M205.401153,166.032096 C204.74867,166.032096 204.218527,167.657642 204.218527,169.812434 L204.218527,486.869419 C204.060159,488.46122 204.476106,490.056737 205.401153,491.405825 C206.094417,491.859465 207.847967,491.405825 207.847967,489.251032 L207.847967,169.888041 C207.853136,168.24545 206.923026,166.722206 205.401153,165.880882 L205.401153,166.032096 Z M213.190177,167.052787 C212.496913,167.052787 211.96677,168.564923 211.96677,170.644109 L211.96677,491.972876 C211.805098,493.593894 212.235979,495.218234 213.190177,496.584888 C213.883441,497.038529 215.677771,496.584888 215.677771,494.581309 L215.677771,170.908733 C215.674427,169.258436 214.727722,167.733429 213.190177,166.901574 L213.190177,167.052787 Z M220.979201,168.224692 C220.285937,168.224692 219.755794,169.736828 219.755794,172.005031 L219.755794,497.49217 C219.609665,499.124024 220.038987,500.755751 220.979201,502.141986 C221.672464,502.63343 223.466794,502.141986 223.466794,500.100603 L223.466794,172.383065 C223.432105,170.659613 222.506719,169.056445 220.979201,168.073479 L220.979201,168.224692 Z M228.768224,169.850238 C228.115741,169.850238 227.544817,171.286766 227.544817,173.365953 L227.544817,502.935857 C227.398689,504.567712 227.82801,506.199439 228.768224,507.585673 C229.461488,508.077117 231.255818,507.585673 231.255818,505.619897 L231.255818,174.046413 C231.189075,172.302242 230.236356,170.690101 228.686664,169.699024 L228.768224,169.850238 Z M236.557248,171.6648 C235.904764,171.475783 235.333841,173.063525 235.333841,175.142712 L235.333841,508.757578 C235.201885,510.400339 235.629823,512.04003 236.557248,513.445198 C237.250512,513.974445 239.044842,513.634215 239.044842,511.555029 L239.044842,175.936583 C238.97928,174.189526 238.064869,172.563683 236.557248,171.513587 L236.557248,171.6648 Z M244.387052,173.78179 C243.693788,173.78179 243.122865,175.142712 243.122865,177.221898 L243.122865,514.768316 C242.999184,516.451291 243.440811,518.12847 244.387052,519.569346 C245.039535,520.098593 246.833865,519.569346 246.833865,517.679177 L246.833865,178.091376 C246.745919,176.348011 245.854867,174.72353 244.387052,173.630576 L244.387052,173.78179 Z M252.176075,176.1256 C251.482811,175.898779 250.952668,177.410915 250.952668,179.490101 L250.952668,521.043678 C250.817203,522.710651 251.244779,524.375382 252.176075,525.806905 C252.869339,526.336152 254.663669,526.109332 254.663669,524.030145 L254.663669,180.510792 C254.578224,178.737049 253.671576,177.083675 252.176075,175.974386 L252.176075,176.1256 Z M259.924319,178.69623 C259.271835,178.507213 258.741692,180.019348 258.741692,182.098534 L258.741692,527.356843 C258.608457,529.035641 259.035578,530.711794 259.965099,532.157873 C260.658363,532.68712 262.371132,532.4603 262.371132,530.381114 L262.371132,183.194832 C262.304359,181.39323 261.41483,179.70281 259.924319,178.545016 L259.924319,178.69623 Z M267.754123,181.455877 C267.060859,181.229056 266.530716,182.741192 266.530716,184.820378 L266.530716,533.934632 C266.389742,535.602007 266.817714,537.268278 267.754123,538.697859 C268.406606,539.227106 270.160156,539.151499 270.160156,537.072313 L270.160156,186.030086 C270.068516,184.220882 269.202582,182.520197 267.754123,181.304663 L267.754123,181.455877 Z M275.543146,184.404541 C274.849882,184.139917 274.319739,185.652052 274.319739,187.731239 L274.319739,540.588028 C274.188583,542.278672 274.61527,543.966308 275.543146,545.426861 C276.19563,545.993912 277.98996,545.804895 277.98996,543.725709 L277.98996,189.016554 C277.876425,187.193587 276.99827,185.484077 275.543146,184.253327 L275.543146,184.404541 Z M283.33217,187.504418 C282.679686,187.201991 282.108763,188.676323 282.108763,190.755509 L282.108763,547.354834 C281.997611,549.043956 282.422944,550.726238 283.33217,552.193667 C283.984653,552.760718 285.778983,552.647307 285.778983,550.568121 L285.778983,192.154235 C285.663138,190.320949 284.78627,188.600396 283.33217,187.353205 L283.33217,187.504418 Z M291.121193,190.717706 C290.46871,190.415279 289.938567,191.889611 289.938567,193.968797 L289.938567,554.23505 C289.825747,555.93168 290.23592,557.623054 291.121193,559.111686 C291.773677,559.71654 293.568007,559.640933 293.568007,557.561747 L293.568007,195.367522 C293.452162,193.534236 292.575294,191.813684 291.121193,190.566492 L291.121193,190.717706 Z M298.910217,194.044404 C298.257733,193.741977 297.72759,195.216309 297.72759,197.295495 L297.72759,561.039659 C297.623459,562.75978 298.032644,564.47324 298.910217,565.991902 C299.603481,566.596756 301.357031,566.445543 301.357031,564.366357 L301.357031,198.732023 C301.226796,196.913062 300.35146,195.20904 298.910217,193.968797 L298.910217,194.044404 Z M306.699241,197.408905 C306.046757,197.106478 305.516614,198.543007 305.516614,200.622193 L305.516614,568.222302 C305.403794,569.918932 305.813967,571.610306 306.699241,573.098938 C307.392505,573.703792 309.146054,573.628186 309.146054,571.549 L309.146054,202.134328 C309.026067,200.2802 308.151604,198.537347 306.699241,197.257691 L306.699241,197.408905 Z M314.529045,200.92462 C313.835781,200.622193 313.305638,202.096525 313.305638,204.175711 L313.305638,575.404945 C313.181449,577.107084 313.607384,578.804908 314.529045,580.281581 C315.181528,580.886435 316.975858,580.924239 316.975858,578.845053 L316.975858,205.574436 C316.860013,203.74115 315.983145,202.020598 314.529045,200.773406 L314.529045,200.92462 Z M322.318068,204.402531 C321.665584,204.100104 321.094661,205.536633 321.094661,207.615819 L321.094661,582.852211 C320.989673,584.552869 321.414343,586.245651 322.318068,587.728848 C322.970552,588.333702 324.764882,588.371506 324.764882,586.292319 L324.764882,209.090151 C324.655905,207.27516 323.84517,205.557324 322.481189,204.251318 L322.318068,204.402531 Z M330.147872,208.18287 C329.454608,207.880442 328.924465,209.354774 328.924465,211.433961 L328.924465,589.997051 C328.817216,591.705331 329.226813,593.407425 330.107092,594.911491 C330.759575,595.554149 332.553905,595.516345 332.553905,593.437159 L332.553905,212.643669 C332.465855,210.811906 331.601149,209.08646 330.147872,207.842639 L330.147872,208.18287 Z M337.896115,211.774191 C337.243632,211.471764 336.713489,212.908293 336.713489,214.987479 L336.713489,597.368711 C336.601843,599.077318 337.011707,600.780521 337.896115,602.283151 C338.589379,602.925809 340.342929,602.888005 340.342929,600.808819 L340.342929,216.310597 C340.231073,214.454572 339.355283,212.709074 337.896115,211.433961 L337.896115,211.774191 Z M345.725919,215.289906 C345.073436,214.987479 344.502512,216.424007 344.502512,218.503193 L344.502512,604.778174 C344.405516,606.490226 344.82943,608.193093 345.725919,609.692614 C346.419183,610.335272 348.131953,610.259665 348.131953,608.180479 L348.131953,219.826312 C348.022778,217.977494 347.163255,216.235382 345.725919,214.949675 L345.725919,215.289906 Z M353.514943,218.805621 C352.821679,218.503193 352.291536,219.977525 352.291536,222.056712 L352.291536,612.149834 C352.187836,613.862423 352.612174,615.566993 353.514943,617.064274 C354.208207,617.706932 355.961757,617.669128 355.961757,615.589942 L355.961757,223.37983 C355.828312,221.517909 354.956816,219.767504 353.514943,218.46539 L353.514943,218.805621 Z M361.303966,222.245728 C360.651483,221.943301 360.08056,223.417633 360.08056,225.49682 L360.08056,619.559298 C359.983563,621.271349 360.407477,622.974216 361.303966,624.473738 C361.95645,625.116395 363.75078,625.040788 363.75078,622.961602 L363.75078,226.819938 C363.617336,224.958017 362.74584,223.207611 361.303966,221.905498 L361.303966,222.245728 Z M369.13377,225.648033 C368.440506,225.383409 367.869583,226.857741 367.869583,228.936927 L367.869583,626.930958 C367.780882,628.66644 368.203824,630.391541 369.09299,631.921004 C369.745474,632.563662 371.539804,632.563662 371.539804,630.484476 L371.539804,230.146636 C371.440831,228.306443 370.578819,226.57283 369.13377,225.307803 L369.13377,225.648033 Z M376.882014,228.936927 C376.22953,228.672304 375.699387,230.184439 375.699387,232.263625 L375.699387,634.416028 C375.595256,636.136149 376.004441,637.849609 376.882014,639.368271 C377.575278,639.973125 379.328827,640.048732 379.328827,637.969546 L379.328827,233.473334 C379.265472,231.60633 378.381487,229.844498 376.882014,228.596697 L376.882014,228.936927 Z M384.671037,232.188019 C384.018554,231.923395 383.488411,233.397727 383.488411,235.476913 L383.488411,642.241328 C383.38428,643.96145 383.793465,645.67491 384.671037,647.193572 C385.364301,647.798426 387.117851,647.760622 387.117851,645.681436 L387.117851,236.611015 C387.052952,234.755188 386.168261,233.005617 384.671037,231.772181 L384.671037,232.188019 Z M392.500841,235.250093 C391.807577,234.947666 391.277434,236.421998 391.277434,238.501184 L391.277434,649.310561 C391.173734,651.02315 391.598072,652.72772 392.500841,654.225001 C393.194105,654.867659 394.947655,654.829855 394.947655,652.750669 L394.947655,239.635285 C394.836601,237.822564 393.957098,236.12402 392.500841,234.909862 L392.500841,235.250093 Z M400.289865,238.198757 C399.637381,237.934133 399.066458,239.446268 399.066458,241.525454 L399.066458,656.606614 C398.969461,658.318666 399.393375,660.021533 400.289865,661.521054 C400.942348,662.163712 402.736679,662.125908 402.736679,660.046722 L402.736679,242.546146 C402.628287,240.743595 401.747371,239.055932 400.289865,237.858526 L400.289865,238.198757 Z M408.078888,240.958404 C407.426405,240.731583 406.855482,242.243719 406.855482,244.322905 L406.855482,663.864864 C406.759538,665.588878 407.183149,667.303619 408.078888,668.817107 C408.731372,669.421962 410.525702,669.384158 410.525702,667.304972 L410.525702,245.230186 C410.4431,243.451284 409.572637,241.782734 408.119669,240.618173 L408.078888,240.958404 Z M415.908692,243.680247 C415.215428,243.453427 414.685285,244.965562 414.685285,247.044749 L414.685285,671.160917 C414.57364,672.869524 414.983504,674.572727 415.867912,676.075357 C416.561176,676.718015 418.314726,676.680211 418.314726,674.601025 L418.314726,247.83862 C418.253742,246.086749 417.375963,244.445549 415.908692,243.340017 L415.908692,243.680247 Z M423.656936,246.099664 C423.004452,246.099664 422.474309,247.460586 422.474309,249.539772 L422.474309,678.45697 C422.361489,680.153601 422.771662,681.844975 423.656936,683.333607 C424.3502,683.938461 426.103749,683.862854 426.103749,681.783668 L426.103749,250.333643 C426.029498,248.55513 425.139186,246.89073 423.656936,245.759434 L423.656936,246.099664 Z M431.48674,248.443474 C430.793476,248.443474 430.263333,249.842199 430.263333,251.921385 L430.263333,685.412793 C430.159632,687.125382 430.58397,688.829952 431.48674,690.327233 C432.180003,690.969891 433.933553,690.818677 433.933553,688.739491 L433.933553,252.526239 C433.860788,250.789725 432.965507,249.171364 431.48674,248.103243 L431.48674,248.443474 Z M439.275763,250.52266 C438.62328,250.52266 438.052356,251.921385 438.052356,254.000571 L438.052356,692.595436 C437.947368,694.296093 438.372038,695.988876 439.275763,697.472073 C439.928247,698.076927 441.722577,697.925713 441.722577,695.846527 L441.722577,254.454212 C441.603346,252.771478 440.712714,251.216563 439.275763,250.182429 L439.275763,250.52266 Z M447.064787,252.412829 C446.412303,252.223812 445.84138,253.811554 445.84138,255.890741 L445.84138,699.589062 C445.726987,701.295243 446.167362,702.994003 447.105567,704.465699 C447.758051,705.070553 449.511601,704.994946 449.511601,702.91576 L449.511601,256.495595 C449.438836,254.75908 448.543554,253.140719 447.064787,252.072599 L447.064787,252.412829 Z M454.85381,254.076178 C454.201327,254.076178 453.671184,255.474903 453.671184,257.554089 L453.671184,706.431475 C453.546995,708.133614 453.97293,709.831438 454.894591,711.308111 C455.587855,711.912966 457.300624,711.761752 457.300624,709.682566 L457.300624,257.932123 C457.256299,256.251041 456.346727,254.691166 454.85381,253.735948 L454.85381,254.076178 Z M462.642834,255.55051 C461.99035,255.55051 461.460207,257.024842 461.460207,259.104028 L461.460207,713.198281 C461.349055,714.887403 461.774389,716.569685 462.683614,718.037114 C463.376878,718.604165 465.089648,718.415148 465.089648,716.335961 L465.089648,259.406455 C465.072741,257.718715 464.156778,256.147881 462.642834,255.21028 L462.642834,255.55051 Z M470.472638,256.798022 C469.779374,256.798022 469.249231,258.272354 469.249231,260.35154 L469.249231,719.88948 C469.13646,721.566717 469.562171,723.237337 470.472638,724.690509 C471.165902,725.25756 472.919452,725.068543 472.919452,722.989357 L472.919452,260.540557 C472.890815,258.886175 471.972784,257.354344 470.472638,256.457791 L470.472638,256.798022 Z M478.261662,257.78091 C477.609178,257.78091 477.038255,259.330848 477.038255,261.561248 L477.038255,726.920909 C476.906663,728.592552 477.34919,730.259915 478.302442,731.684136 C478.954925,732.251186 480.708475,732.024366 480.708475,729.94518 L480.708475,261.485641 C480.696004,259.837351 479.772243,258.310231 478.261662,257.440679 L478.261662,257.78091 Z M486.050685,258.461371 C485.398202,258.461371 484.827278,260.049113 484.827278,262.241709 L484.827278,732.780434 C484.695686,734.452077 485.138214,736.11944 486.091465,737.54366 C486.743949,738.110711 488.497499,737.77048 488.497499,735.691294 L488.497499,262.014889 C488.48273,260.436439 487.546158,258.98943 486.050685,258.23455 L486.050685,258.461371 Z M493.880489,258.915011 C493.187225,258.915011 492.657082,260.57836 492.657082,262.69535 L492.657082,739.396026 C492.516108,741.063401 492.94408,742.729672 493.880489,744.159252 C494.573753,744.726303 496.286523,744.386073 496.286523,742.306886 L496.286523,262.392923 C496.308486,260.774726 495.324669,259.289048 493.758148,258.574781 L493.880489,258.915011 Z M501.628732,259.141832 C500.976249,259.141832 500.446106,260.767377 500.446106,262.92217 L500.446106,745.179944 C500.290953,746.824391 500.720624,748.470725 501.669513,749.867563 C502.362777,750.396811 504.075546,749.867563 504.075546,747.977394 L504.075546,262.619743 C504.122738,261.01605 503.170565,259.530227 501.628732,258.801601 L501.628732,259.141832 Z M509.458536,259.141832 C508.806053,259.141832 508.235129,260.842984 508.235129,262.92217 L508.235129,751.115075 C508.103173,752.757835 508.531111,754.397527 509.458536,755.802695 C510.1518,756.331942 511.90535,755.802695 511.90535,753.799115 L511.90535,262.392923 C511.995366,260.816993 511.019857,259.355042 509.458536,258.725994 L509.458536,259.141832 Z M517.24756,258.801601 C516.595076,258.801601 516.024153,260.540557 516.024153,262.58194 L516.024153,756.823386 C515.889925,758.483293 516.33298,760.139395 517.28834,761.548809 C517.940824,762.040253 519.694374,761.548809 519.694374,759.54523 L519.694374,262.014889 C519.837857,260.398715 518.853411,258.877741 517.24756,258.23455 L517.24756,258.801601 Z M525.036584,258.196747 C524.3841,258.196747 523.813177,260.011309 523.813177,261.977085 L523.813177,762.531697 C523.660291,764.15729 524.105899,765.782957 525.077364,767.14371 C525.729847,767.635154 527.483397,767.14371 527.483397,765.064524 L527.483397,261.258821 C527.489062,259.750895 526.527463,258.384075 525.036584,257.78091 L525.036584,258.196747 Z M532.825607,257.327269 C532.173124,257.327269 531.642981,259.179635 531.642981,261.107608 L531.642981,767.861974 C531.481308,769.482993 531.912189,771.107333 532.866387,772.473987 C533.559651,772.927628 535.272421,772.473987 535.272421,770.356998 L535.272421,260.313736 C535.272421,258.23455 533.478091,256.835825 532.825607,256.90851 L532.825607,257.327269 Z M540.655411,256.117561 C539.962147,256.117561 539.432004,258.045533 539.432004,260.12472 L539.432004,773.041038 C539.273746,774.644786 539.68934,776.252236 540.614631,777.615247 C541.307895,778.031085 543.061444,777.615247 543.061444,775.347044 L543.061444,259.066225 C543.061444,256.987039 541.348675,255.588313 540.655411,255.701724 L540.655411,256.117561 Z M548.444435,254.605425 C547.751171,254.605425 547.221028,256.571201 547.221028,258.650388 L547.221028,777.955478 C547.05903,779.564596 547.490305,781.177094 548.444435,782.529687 C549.096918,782.945525 550.891248,782.302867 550.891248,780.223681 L550.891248,257.516286 C550.850468,255.4371 549.096918,254.076178 548.444435,254.189588 L548.444435,254.605425 Z M556.233458,252.904273 C555.580975,252.904273 555.010051,254.907853 555.010051,256.987039 L555.010051,782.756508 C554.857088,784.341163 555.288378,785.927066 556.233458,787.25511 C556.885942,787.633144 558.680272,786.990487 558.680272,784.911301 L558.680272,255.66392 C558.680272,253.546931 556.885942,252.299419 556.233458,252.488436 L556.233458,252.904273 Z M564.022482,250.825087 C563.369998,250.825087 562.799075,252.828666 562.799075,254.907853 L562.799075,787.481931 C562.62588,789.06157 563.074898,790.645971 564.063262,791.94273 C564.715746,792.282961 566.469296,791.640303 566.469296,789.561117 L566.469296,253.471324 C566.469296,251.392138 564.674966,250.220233 564.022482,250.40925 L564.022482,250.825087 Z M571.811506,248.443474 C571.159022,248.670294 570.628879,250.560463 570.628879,252.639649 L570.628879,792.093944 C570.628879,794.17313 571.159022,796.176709 571.852286,796.51694 C572.54555,796.85717 574.258319,795.949889 574.258319,793.870703 L574.258319,251.051907 C574.258319,248.972721 572.463989,247.800816 571.811506,248.027637 L571.811506,248.443474 Z M579.600529,245.759434 C578.948045,246.024057 578.417903,247.95203 578.417903,250.031216 L578.417903,795.647462 C578.417903,797.726648 578.948045,799.692424 579.600529,800.032654 C580.253013,800.372885 582.047343,799.503407 582.047343,797.424221 L582.047343,248.254457 C582.047343,246.175271 580.293793,245.116776 579.600529,245.343596 L579.600529,245.759434 Z M587.430333,242.81077 C586.737069,243.113197 586.206926,245.041169 586.206926,247.120355 L586.206926,799.805834 C586.206926,801.88502 586.777849,803.850796 587.430333,804.153223 C588.082817,804.45565 589.877147,803.548369 589.877147,801.469183 L589.877147,245.116776 C589.877147,243.113197 588.082817,242.092505 587.552674,242.394932 L587.430333,242.81077 Z M595.219357,239.521875 C594.253762,240.784416 593.818716,242.330357 593.99595,243.869264 L593.99595,803.359352 C593.99595,805.438538 594.566873,807.366511 595.219357,807.631135 C595.87184,807.895758 597.66617,806.988477 597.66617,804.909291 L597.66617,241.790078 C597.66617,239.710892 595.708719,238.803611 595.219357,239.106038 L595.219357,239.521875 Z M603.00838,235.741537 C602.355897,236.043964 601.784973,238.00974 601.784973,240.088926 L601.784973,806.156803 C601.784973,808.235989 602.355897,810.163961 603.00838,810.390782 C603.660864,810.617602 605.455194,809.596911 605.455194,807.517724 L605.455194,238.160953 C605.455194,236.081767 603.864765,235.174486 603.00838,235.55252 L603.00838,235.741537 Z M610.797404,231.961198 C609.86047,233.277379 609.442706,234.85316 609.614777,236.421998 L609.614777,808.954253 C609.614777,811.033439 610.14492,812.961412 610.797404,813.226035 C611.449888,813.490659 613.244218,812.280951 613.244218,810.201765 L613.244218,234.115991 C613.244218,232.036805 611.449888,231.242934 610.797404,231.772181 L610.797404,231.961198 Z M618.586427,227.802826 C617.715282,228.965384 617.271932,230.357434 617.32224,231.772181 L617.32224,811.562687 C617.32224,813.641873 617.893164,815.343025 618.586427,815.758862 C619.279691,816.174699 621.033241,814.775974 621.033241,812.696788 L621.033241,229.730799 C621.033241,227.651612 619.238911,227.084562 618.586427,227.462596 L618.586427,227.802826 Z M626.375451,223.26642 C625.394199,224.580511 624.946358,226.174148 625.111264,227.765023 L625.111264,813.9443 C625.111264,816.023486 625.682187,817.724638 626.375451,818.064869 C627.068715,818.405099 628.863045,816.968571 628.863045,814.889384 L628.863045,225.269999 C628.863045,223.190813 627.068715,222.548156 626.375451,222.926189 L626.375451,223.26642 Z M634.164475,218.427587 C633.204284,219.777724 632.772474,221.392224 632.941068,223.001796 L632.941068,815.834469 C632.941068,817.913655 633.471211,819.614807 634.164475,819.917234 C634.857739,820.219662 636.652069,818.74533 636.652069,816.666143 L636.652069,220.431166 C636.488948,218.162963 634.857739,217.671519 634.164475,218.087356 L634.164475,218.427587 Z M641.953498,212.870489 C641.021882,214.246101 640.592907,215.863256 640.730092,217.482502 L640.730092,817.384408 C640.730092,819.463594 641.301015,821.164746 641.953498,821.42937 C642.605982,821.693994 644.441092,820.219662 644.441092,818.140475 L644.441092,215.063085 C644.644993,212.870489 642.646762,212.492455 641.953498,212.870489 Z M649.742522,207.464605 C648.810905,208.840217 648.38193,210.457372 648.519115,212.076618 L648.519115,818.631919 C648.519115,820.711106 649.090038,822.412258 649.742522,822.639078 C650.395006,822.865898 652.230116,821.240353 652.230116,819.161167 L652.230116,209.543791 C652.230116,207.464605 650.435786,207.086571 649.742522,207.540212 L649.742522,207.464605 Z M657.531546,201.794098 C656.591332,203.180332 656.16201,204.812059 656.308139,206.443914 L656.308139,819.577004 C656.308139,821.65619 656.879062,823.357342 657.531546,823.357342 C658.184029,823.357342 659.978359,821.7696 659.978359,819.577004 L659.978359,203.797677 C659.978359,201.718491 658.184029,201.529474 657.531546,201.869704 L657.531546,201.794098 Z M665.320569,195.745556 C664.401623,197.181736 663.974986,198.842811 664.097162,200.508782 L664.097162,819.992841 C664.097162,822.072027 664.668086,823.77318 665.320569,823.77318 C665.973053,823.77318 667.767383,822.072027 667.767383,819.992841 L667.767383,197.749135 C667.767383,195.480932 665.973053,195.291915 665.320569,195.821163 L665.320569,195.745556 Z M673.191153,189.470194 C672.291184,190.91229 671.879178,192.571711 672.008527,194.233421 L672.008527,820.219662 C672.008527,822.298848 672.53867,824 673.191153,824 C674.719506,823.277334 675.669333,821.809846 675.637967,820.219662 L675.637967,191.20915 C675.556407,189.129964 673.802857,188.940947 673.191153,189.470194 Z M680.980177,182.854602 C680.087366,184.326838 679.676424,186.008248 679.79755,187.693435 L679.79755,819.803824 C679.79755,821.88301 680.327693,823.584163 680.980177,823.584163 C681.632661,823.584163 683.426991,821.731797 683.426991,819.803824 L683.426991,184.706968 C683.34543,182.363158 681.59188,182.287551 680.898616,182.854602 L680.980177,182.854602 Z M688.809981,175.898779 C687.88046,177.344858 687.453339,179.021011 687.586574,180.699809 L687.586574,819.047757 C687.586574,821.126943 688.116717,822.828095 688.809981,822.828095 C690.316543,821.919391 691.234447,820.37359 691.256795,818.707526 L691.256795,177.373111 C691.175234,175.293925 689.503245,175.331729 688.72842,175.898779 L688.809981,175.898779 Z M696.599004,168.716136 C695.696235,170.213417 695.271897,171.917987 695.375598,173.630576 L695.375598,817.724638 C695.375598,819.803824 695.946521,821.504977 696.639785,821.31596 C698.121395,820.304668 699.010762,818.711671 699.045818,817.006374 L699.045818,170.077058 C698.964258,167.997872 697.169928,168.073479 696.517444,168.716136 L696.599004,168.716136 Z M704.388028,161.155459 C703.498862,162.684923 703.07592,164.410023 703.164621,166.145506 L703.164621,816.363716 C703.164621,818.442903 703.735544,820.144055 704.428808,819.841628 C705.904047,818.791728 706.788365,817.179986 706.834842,815.456435 L706.834842,162.402971 C706.753281,160.323785 704.958951,160.399392 704.306468,161.042049 L704.388028,161.155459 Z M712.217832,153.292355 C711.316053,154.844757 710.892781,156.597359 710.994425,158.358009 L710.994425,813.9443 C710.994425,816.023486 711.524568,817.535621 712.177052,817.308801 C713.657236,816.15973 714.545707,814.485047 714.623865,812.696788 L714.623865,154.46426 C714.542305,152.385074 712.829535,152.385074 712.136271,153.178945 L712.217832,153.292355 Z M719.966075,145.240235 C719.101355,146.81761 718.693819,148.576273 718.783449,150.343692 L718.783449,811.37367 C718.783449,813.452856 719.354372,814.927188 720.006856,814.662564 C721.461405,813.435384 722.327475,811.720822 722.412889,809.899338 L722.412889,146.260926 C722.331329,144.18174 720.577779,144.40856 719.884515,145.126824 L719.966075,145.240235 Z M727.795879,136.81008 C726.894683,138.37633 726.471684,140.140877 726.572472,141.913537 L726.572472,808.122579 C726.572472,810.201765 727.102615,811.676097 727.795879,811.411473 C729.280397,810.086962 730.169128,808.290686 730.283473,806.383623 L730.283473,137.830771 C730.283473,135.751585 728.366802,135.978405 727.714319,136.69667 L727.795879,136.81008 Z M735.584903,128.077498 C734.711452,129.680251 734.290541,131.462101 734.361496,133.256562 L734.361496,804.493454 C734.361496,806.57264 734.932419,807.971365 735.584903,807.593331 C737.007806,806.21783 737.872477,804.427696 738.031716,802.527678 L738.031716,128.984779 C737.950156,126.905593 736.155826,127.170217 735.503342,127.964088 L735.584903,128.077498 Z M743.414707,119.004686 C742.509618,120.598042 742.073575,122.384402 742.15052,124.18375 L742.15052,800.108261 C742.15052,802.187447 742.721443,803.586172 743.414707,803.170335 C744.809364,801.67688 745.652416,799.809201 745.82074,797.840058 L745.82074,119.83636 C745.73918,117.757174 743.98563,118.135208 743.333146,118.891276 L743.414707,119.004686 Z M751.16295,109.742857 C750.314397,111.392885 749.908667,113.208602 749.980323,115.035331 L749.980323,795.496248 C749.980323,797.575434 750.510466,798.936356 751.16295,798.482716 C752.570408,796.93407 753.425261,795.018981 753.609764,793.001225 L753.609764,110.461121 C753.528203,108.381935 751.733873,108.797772 751.08139,109.629447 L751.16295,109.742857 Z M758.829633,100.06519 C757.98108,101.715218 757.57535,103.530936 757.647006,105.357664 L757.647006,789.825741 C757.647006,791.904927 758.177149,793.190242 758.829633,792.660994 C760.226434,791.033604 761.077206,789.061933 761.276447,786.990487 L761.276447,100.783455 C761.317227,98.7042685 759.563677,99.2335159 758.829633,100.06519 Z M766.659437,90.2363104 C765.790351,91.8944843 765.370426,93.7240608 765.43603,95.5665876 L765.43603,783.701592 C765.43603,785.780778 765.966173,787.02829 766.659437,786.461239 C768.039916,784.781981 768.887321,782.778838 769.106251,780.677322 L769.106251,90.7655578 C769.147031,88.6863717 767.352701,89.3668326 766.700217,90.2363104 L766.659437,90.2363104 Z M774.44846,80.0293967 C773.591546,81.6914268 773.17226,83.5182178 773.225054,85.3596739 L773.225054,776.896983 C773.225054,778.976169 773.795977,780.185878 774.44846,779.54322 C775.801451,777.750674 776.643176,775.669923 776.895274,773.494679 L776.895274,80.5586441 C776.936054,78.5172613 775.141724,79.1599188 774.489241,80.0293967 L774.44846,80.0293967 Z M782.278264,69.5578592 C781.393019,71.2390311 780.959305,73.0936667 781.014077,74.9637432 L781.014077,769.411913 C781.014077,771.491099 781.585,772.663004 782.278264,771.982543 C783.612984,770.128446 784.438933,768.000179 784.684298,765.782788 L784.684298,69.9736965 C784.725078,67.8945103 782.971528,68.6883814 782.319045,69.5578592 L782.278264,69.5578592 Z M790.026508,58.8973048 C789.19342,60.6056533 788.789073,62.4668843 788.843881,64.3409922 L788.843881,761.284185 C788.843881,763.363372 789.374024,764.45967 790.026508,763.741405 C791.351528,761.768747 792.187264,759.547855 792.473321,757.239223 L792.473321,59.2375353 C792.514102,57.1583492 790.719772,57.8766135 790.067288,58.8973048 L790.026508,58.8973048 Z M797.815531,47.9721268 C796.993213,49.723638 796.589761,51.619439 796.632905,53.5292243 L796.632905,752.438193 C796.632905,754.51738 797.163048,755.575874 797.815531,754.782003 C799.147018,752.702246 799.981416,750.381775 800.262345,747.977394 L800.262345,48.1989471 C800.303125,46.119761 798.549575,46.9892388 797.856312,47.9721268 L797.815531,47.9721268 Z M805.645335,36.6311115 C804.78684,38.3730926 804.368419,40.2736909 804.421928,42.188209 L804.421928,742.760527 C804.421928,744.839713 804.992852,745.822601 805.645335,744.953123 C806.956765,742.810446 807.788935,740.444745 808.092149,737.997301 L808.092149,36.8579318 C808.132929,34.7787457 806.338599,35.6482235 805.686115,36.6311115 L805.645335,36.6311115 Z M813.434359,25.0632759 C812.595544,26.8111503 812.178041,28.7075822 812.210952,30.6203734 L812.210952,732.364596 C812.210952,734.443783 812.781875,735.388867 813.434359,734.443783 C814.751128,732.124518 815.594471,729.599747 815.921953,726.996516 L815.921953,25.2144894 C815.921953,23.1353033 814.127623,24.1181913 813.475139,25.0632759 L813.434359,25.0632759 Z M821.223382,13.3064234 C820.390446,15.0959509 819.97359,17.0280847 819.999976,18.976931 L819.999976,721.136991 C819.999976,723.216177 820.570899,724.047852 821.223382,723.02716 C822.497179,720.654374 823.324669,718.097422 823.670196,715.466484 L823.670196,13.3442267 C823.710976,11.2650406 821.916646,12.285732 821.264163,13.3064234 L821.223382,13.3064234 Z M829.053186,1.171537 C828.236343,2.95119797 827.833374,4.87049349 827.87056,6.80424126 L827.87056,708.964302 C827.87056,711.043488 828.400703,711.837359 829.053186,710.741061 C830.308468,708.268428 831.134261,705.627409 831.5,702.91576 L831.5,1.171537 C831.5,-0.907649138 829.70567,0.226452392 829.053186,1.171537 Z" fill="url(#linearGradient-3)"></path>
                        <path d="M10.2439737,328.847932 C10.8962886,328.129266 11.4670642,329.226178 11.4670642,331.306527 L11.4670642,477.990093 C11.5483305,479.694416 11.1103054,481.385493 10.203204,482.869459 C9.55088905,483.5503 7.79779266,483.739423 7.79779266,481.659073 L7.79779266,335.353753 C8.09035429,333.045231 8.9253863,330.824394 10.2439737,328.847932 L10.2439737,328.847932 Z M1.23387361,339.136207 C0.34692475,340.748872 -0.0744672589,342.547248 0.0107831062,344.355993 L0.0107831062,490.434367 C0.0107831062,492.514716 0.540788992,493.573803 1.23387361,492.779488 C2.53734034,490.813281 3.35855668,488.605083 3.63928494,486.311492 L3.63928494,340.08182 C3.63928494,338.001471 1.88618855,338.341892 1.23387361,339.136207 Z M16.9709714,321.699094 C16.0959017,323.275011 15.6745874,325.033967 15.7478809,326.805407 L15.7478809,474.094165 C15.7478809,476.174515 16.3186565,477.347076 16.9709714,476.741883 C18.3252141,475.00565 19.1683181,472.971932 19.4171525,470.841255 L19.4171525,322.909479 C19.2540737,320.82913 17.4602076,320.980428 16.9709714,321.699094 Z M24.7987507,313.566818 C23.8916546,315.090768 23.4676385,316.821665 23.5756602,318.559657 L23.5756602,467.323573 C23.5756602,469.403922 24.1056661,470.652132 24.757981,470.122589 C26.1480576,468.519843 26.9988151,466.572903 27.204162,464.524557 L27.204162,314.966326 C27.0410833,312.885976 25.3287566,312.885976 24.6356719,313.566818 L24.7987507,313.566818 Z M32.5449905,306.00191 C31.6740369,307.537243 31.265584,309.262104 31.3626697,310.994749 L31.3626697,461.574243 C31.3626697,463.654592 31.8926756,464.978451 32.5449905,464.486732 C33.9640737,463.003227 34.8228972,461.130786 34.9911716,459.153472 L34.9911716,307.439243 C34.8280928,305.358893 33.2788449,305.283244 32.3819118,305.926261 L32.5449905,306.00191 Z M40.3727698,298.815247 C39.4692786,300.299274 39.0447183,301.993004 39.1496793,303.694613 L39.1496793,456.392281 C39.1496793,458.47263 39.6796852,459.872138 40.3727698,459.456068 C41.7701697,458.023057 42.616096,456.200684 42.7781811,454.274106 L42.7781811,300.290404 C42.6151024,298.210055 40.9027757,298.096581 40.209691,298.739598 L40.3727698,298.815247 Z M48.1597793,291.969006 C47.2383572,293.446505 46.8125324,295.14528 46.9366888,296.848371 L46.9366888,452.193757 C46.9366888,454.274106 47.4666947,455.711439 48.1597793,455.371018 C49.5942691,454.03282 50.4624509,452.260796 50.6059603,450.378179 L50.6059603,293.746759 C50.4428816,291.59076 48.6490155,291.325989 47.9967006,291.893357 L48.1597793,291.969006 Z M55.9875586,285.614483 C55.0324457,287.024686 54.5895051,288.681715 54.7236984,290.34255 L54.7236984,448.600426 C54.7236984,450.680775 55.2944739,452.118108 55.9467889,451.815511 C57.3945188,450.579259 58.2710126,448.871587 58.3929699,447.049619 L58.3929699,287.467885 C58.2298912,285.387536 56.4767948,285.00929 55.8244798,285.538834 L55.9875586,285.614483 Z M63.7337984,279.67603 C62.8259307,281.088224 62.4128241,282.727009 62.5514776,284.366273 L62.5514776,445.498813 C62.5514776,447.579163 63.0814835,449.281267 63.7337984,448.865197 C65.2094588,447.745009 66.0994477,446.093614 66.1799794,444.326252 L66.1799794,281.680731 C65.8945917,279.562557 64.2230346,279.108662 63.5707197,279.600381 L63.7337984,279.67603 Z M71.520808,274.153647 C70.5800734,275.474184 70.1095177,277.035229 70.1754084,278.616943 L70.1754084,442.926745 C70.1754084,445.007094 70.7054143,446.709199 71.3577292,446.368778 C72.8510276,445.345217 73.7532729,443.740836 73.8039103,442.018956 L73.8039103,276.271822 C73.8039103,274.191472 72.0508139,273.586279 71.3577292,274.077998 L71.520808,274.153647 Z M79.3485872,269.00951 C78.3854024,270.344925 77.9529898,271.949627 78.1254967,273.548455 L78.1254967,441.262465 C78.1254967,443.342814 78.6555026,445.044919 79.3485872,444.780147 C80.8320376,443.804185 81.7254117,442.230798 81.7539985,440.543798 L81.7539985,271.241158 C81.5909198,269.160808 79.8378234,268.555615 79.1855085,268.933861 L79.3485872,269.00951 Z M87.1355968,264.357092 C86.1618458,265.659655 85.7275414,267.244516 85.9125063,268.820387 L85.9125063,439.900781 C85.9125063,441.981131 86.4425121,443.683235 87.1355968,443.494113 C88.6363215,442.580214 89.5522546,441.03647 89.5817778,439.371238 L89.5817778,266.702213 C89.418699,264.621863 87.624833,263.865373 86.972518,264.281442 L87.1355968,264.357092 Z M94.9226063,260.045094 C93.9617258,261.338834 93.5281888,262.907487 93.6995158,264.470565 L93.6995158,439.030817 C93.6995158,441.111167 94.2702914,442.813271 94.9226063,442.813271 C96.3713672,442.013994 97.2903999,440.592922 97.3687873,439.030817 L97.3687873,262.503689 C97.2057086,260.423339 95.4118425,259.704673 94.7595276,259.969445 L94.9226063,260.045094 Z M102.587307,255.922219 C101.934992,256.26264 101.404986,258.229516 101.404986,260.309866 L101.404986,438.3878 C101.404986,440.468149 101.934992,442.170254 102.587307,442.170254 C104.09514,441.427347 105.036511,439.971735 105.033488,438.3878 L105.033488,258.721235 C104.992718,256.640885 103.198852,255.922219 102.587307,255.922219 Z M110.415086,252.442361 C109.722001,252.744958 109.191996,254.674009 109.191996,256.754359 L109.191996,438.312151 C109.191996,440.3925 109.722001,442.094605 110.374316,442.094605 C111.979752,441.451054 112.963944,439.929229 112.820497,438.312151 L112.820497,255.354851 C112.779728,253.274501 111.067401,252.139765 110.374316,252.555835 L110.415086,252.442361 Z M118.202096,249.340749 C117.509011,249.605521 116.979005,251.534573 116.979005,253.614922 L116.979005,438.955168 C116.979005,441.035518 117.509011,442.737622 118.202096,442.737622 C118.89518,442.737622 120.607507,441.186816 120.607507,438.955168 L120.607507,252.328888 C120.566737,250.248538 118.89518,249.189451 118.161326,249.454223 L118.202096,249.340749 Z M125.989105,246.579558 C125.33679,246.806505 124.766015,248.735557 124.766015,250.815906 L124.766015,439.56036 C124.766015,441.64071 125.296021,443.342814 125.989105,443.342814 C126.68219,443.342814 128.435286,442.018956 128.435286,439.938606 L128.435286,249.718995 C128.394516,247.638645 126.64142,246.466084 125.948335,246.693031 L125.989105,246.579558 Z M133.776115,244.234436 C133.1238,244.234436 132.553024,246.276961 132.553024,248.357311 L132.553024,440.732921 C132.553024,442.813271 133.1238,444.515375 133.776115,444.515375 C134.42843,444.515375 136.222296,443.229341 136.222296,441.148991 L136.222296,247.449522 C136.181526,245.369173 134.38766,244.120963 133.735345,244.34791 L133.776115,244.234436 Z M141.563124,242.154087 C140.910809,242.154087 140.380803,244.158787 140.380803,246.239137 L140.380803,442.208078 C140.380803,444.288428 140.910809,445.990532 141.603894,446.217479 C142.296979,446.444427 144.009305,445.044919 144.009305,442.964569 L144.009305,245.520471 C143.968536,243.440121 142.17467,242.116262 141.522355,242.26756 L141.563124,242.154087 Z M149.350134,240.792403 C148.657049,240.792403 148.127043,242.759279 148.127043,244.839629 L148.127043,444.288428 C148.127043,446.368778 148.657049,448.070882 149.350134,448.335654 C150.043218,448.600426 151.755545,447.238742 151.755545,445.158392 L151.755545,244.007489 C151.755545,241.927139 150.043218,240.451982 149.350134,240.792403 Z M157.137143,239.468544 C156.484828,239.468544 155.914053,241.359771 155.914053,243.440121 L155.914053,446.179655 C155.914053,448.260005 156.484828,449.962109 157.137143,450.226881 C157.789458,450.491652 159.542555,449.205618 159.542555,447.125268 L159.542555,242.645806 C159.664864,240.565456 157.830228,239.165948 157.137143,239.279422 L157.137143,239.468544 Z M164.924153,238.485106 C164.271838,238.485106 163.701062,240.338509 163.701062,242.26756 L163.701062,448.449127 C163.701062,450.529477 164.271838,452.231581 164.924153,452.609827 C165.576468,452.988072 167.370334,451.626389 167.370334,449.546039 L167.370334,241.85149 C167.370334,239.771141 165.617238,238.220334 164.924153,238.295984 L164.924153,238.485106 Z M172.711162,237.728615 C172.058848,237.728615 171.488072,239.506369 171.488072,241.511069 L171.488072,451.13467 C171.488072,453.215019 172.058848,454.917124 172.751932,455.333194 C173.445017,455.749264 175.157343,454.538878 175.157343,452.458529 L175.157343,241.170649 C175.157343,239.090299 173.363477,237.501668 172.711162,237.538831 L172.711162,237.728615 Z M180.538942,237.35037 C179.845857,237.35037 179.315851,239.090299 179.315851,241.132824 L179.315851,454.047159 C179.315851,456.127509 179.845857,457.829613 180.498172,458.283508 C181.150487,458.737402 182.944353,457.527017 182.944353,455.446667 L182.944353,240.792403 C182.944353,238.825527 181.232026,237.009949 180.538942,237.009949 L180.538942,237.35037 Z M188.203642,237.009949 C187.510558,237.009949 186.980552,238.712054 186.980552,240.792403 L186.980552,456.884 C186.980552,458.964349 187.510558,460.893401 188.162873,461.158173 C188.815187,461.422945 190.609054,460.439506 190.609054,458.359157 L190.609054,240.792403 C190.731363,238.825527 189.019036,237.009949 188.203642,237.009949 Z M195.949882,237.009949 C195.297567,237.009949 194.767561,238.674229 194.767561,240.792403 L194.767561,460.174735 C194.767561,462.255084 195.297567,464.184136 195.949882,464.448908 C196.602197,464.71368 198.396063,463.805891 198.396063,461.725541 L198.396063,241.132824 C198.518372,239.052474 196.765276,237.236896 196.072191,237.236896 L195.949882,237.009949 Z M203.777661,237.388195 C203.084577,237.388195 202.554571,239.01465 202.554571,241.170649 L202.554571,463.46547 C202.554571,465.545819 203.084577,467.512695 203.777661,467.815292 C204.470746,468.117888 206.223842,467.247924 206.223842,465.167574 L206.223842,241.548894 C206.258843,239.947427 205.373858,238.449362 203.89997,237.615142 L203.777661,237.388195 Z M211.523901,238.106861 C210.830817,238.106861 210.300811,239.695492 210.300811,241.889315 L210.300811,467.13445 C210.300811,469.2148 210.830817,471.181676 211.523901,471.484272 C212.216986,471.786868 214.010852,471.068202 214.010852,468.987853 L214.010852,242.040613 C213.945003,240.514619 213.056399,239.121647 211.64621,238.333808 L211.523901,238.106861 Z M219.310911,238.939001 C218.658596,238.939001 218.08782,240.489807 218.08782,242.721455 L218.08782,470.992553 C217.916493,472.555631 218.35003,474.124285 219.310911,475.418024 C220.003995,475.758445 221.797861,474.926305 221.797861,472.845956 L221.797861,243.326647 C221.807274,241.660583 220.920319,240.099944 219.43322,239.165948 L219.310911,238.939001 Z M227.13869,240.073737 C226.445605,240.073737 225.87483,241.624543 225.87483,243.856191 L225.87483,474.96413 C225.87483,477.04448 226.445605,479.04918 227.13869,479.389601 C227.831775,479.730022 229.584871,478.973531 229.584871,476.893181 L229.584871,244.574857 C229.601612,242.885142 228.73566,241.292444 227.260999,240.300684 L227.13869,240.073737 Z M234.925699,241.397596 C234.232615,241.397596 233.661839,242.872753 233.661839,244.953103 L233.661839,479.087005 C233.488689,480.667528 233.937591,482.252816 234.925699,483.5503 C235.578014,483.928546 237.371881,483.172055 237.371881,481.091705 L237.371881,245.823067 C237.362414,244.16001 236.499327,242.600676 235.048009,241.624543 L234.925699,241.397596 Z M242.712709,242.872753 C242.019624,242.872753 241.489619,244.34791 241.489619,246.42826 L241.489619,483.20988 C241.309304,484.797329 241.742782,486.392579 242.712709,487.711 C243.405794,488.089245 245.19966,487.370579 245.19966,485.290229 L245.19966,246.995628 C245.059207,245.439864 244.196073,244.017786 242.835018,243.0997 L242.712709,242.872753 Z M250.499719,244.537033 C249.806634,244.537033 249.276628,245.974365 249.276628,248.054715 L249.276628,487.635351 C249.096314,489.2228 249.529792,490.818051 250.499719,492.136471 C251.192803,492.514716 252.986669,491.871699 252.986669,489.791349 L252.986669,249.075977 C252.95513,247.377756 252.083035,245.787465 250.622028,244.76398 L250.499719,244.537033 Z M258.286728,246.352611 C257.593644,246.352611 257.063638,247.789943 257.063638,249.870293 L257.063638,492.136471 C256.904115,493.722491 257.335839,495.311285 258.286728,496.637591 C258.979813,497.015837 260.692139,496.372819 260.692139,494.29247 L260.692139,251.005029 C260.670499,249.289964 259.835234,247.67092 258.409037,246.579558 L258.286728,246.352611 Z M266.073738,248.319487 C265.380653,248.319487 264.850647,249.718995 264.850647,251.799344 L264.850647,496.788889 C264.665682,498.364761 265.099987,499.949622 266.073738,501.252185 C266.726053,501.668255 268.519919,501.252185 268.519919,498.982713 L268.519919,252.971905 C268.488228,251.250631 267.637487,249.63052 266.196047,248.546434 L266.073738,248.319487 Z M273.819978,250.626784 C273.167663,250.626784 272.596887,251.988467 272.596887,254.068817 L272.596887,501.781729 C272.443963,503.367271 272.875142,504.954061 273.819978,506.282849 C274.472292,506.698919 276.266159,506.055902 276.266159,503.975552 L276.266159,255.127904 C276.189788,253.370162 275.297846,251.728935 273.819978,250.626784 Z M281.606987,252.820607 C280.954672,252.59366 280.424666,254.144466 280.424666,256.224815 L280.424666,506.509796 C280.26634,508.102488 280.682179,509.698898 281.606987,511.048741 C282.259302,511.464811 284.053168,511.048741 284.053168,508.817093 L284.053168,257.321727 C284.069499,255.617522 283.315346,253.984949 281.973914,252.820607 L281.606987,252.820607 Z M289.393997,255.090079 C288.741682,255.090079 288.211676,256.413938 288.211676,258.494288 L288.211676,511.389162 C288.05335,512.981853 288.469188,514.578263 289.393997,515.928107 C290.087081,516.382001 291.840178,515.928107 291.840178,513.734283 L291.840178,259.704673 C291.845079,257.93034 291.010451,256.243394 289.557075,255.090079 L289.393997,255.090079 Z M297.221776,257.435201 C296.528691,257.246078 295.998685,258.796884 295.998685,260.877234 L295.998685,516.306352 C295.837055,517.928278 296.267824,519.553527 297.221776,520.920946 C297.874091,521.37484 299.627187,520.920946 299.627187,518.689298 L299.627187,261.974146 C299.588159,260.238641 298.776445,258.595564 297.384855,257.435201 L297.221776,257.435201 Z M305.008785,259.855971 C304.315701,259.629024 303.785695,261.142006 303.785695,263.222355 L303.785695,521.412665 C303.613188,523.011492 304.045601,524.616195 305.008785,525.95161 C305.6611,526.405504 307.454966,525.95161 307.454966,523.757786 L307.454966,264.394916 C307.45121,262.60067 306.620263,260.893631 305.171864,259.704673 L305.008785,259.855971 Z M312.795795,262.314566 C312.14348,262.314566 311.572704,263.638425 311.572704,265.718775 L311.572704,526.481153 C311.423483,528.090263 311.853629,529.699857 312.795795,531.057923 C313.44811,531.473992 315.241976,531.057923 315.241976,528.939748 L315.241976,266.853511 C315.202438,265.110057 314.373744,263.462563 312.958874,262.314566 L312.795795,262.314566 Z M320.582805,264.773162 C319.93049,264.546214 319.400484,266.09702 319.400484,268.17737 L319.400484,531.663115 C319.242157,533.255807 319.657996,534.852217 320.582805,536.20206 C321.235119,536.61813 323.028986,536.20206 323.028986,534.083886 L323.028986,269.312106 C322.965159,267.573978 322.140752,265.935008 320.745883,264.773162 L320.582805,264.773162 Z M328.410584,267.34523 C327.717499,267.118283 327.187493,268.669089 327.187493,270.749439 L327.187493,536.807253 C327.0382,538.423267 327.452688,540.041013 328.369814,541.421846 C329.062899,541.837916 330.815995,541.421846 330.815995,539.228023 L330.815995,271.84635 C330.830187,270.089099 330.010038,268.415114 328.573663,267.269581 L328.410584,267.34523 Z M336.197593,269.879474 C335.504509,269.652527 334.974503,271.165509 334.974503,273.245858 L334.974503,542.027039 C334.812872,543.648965 335.243642,545.274214 336.197593,546.641633 C336.849908,547.095527 338.603005,546.641633 338.603005,544.485634 L338.603005,274.418419 C338.563976,272.682915 337.752262,271.039837 336.360672,269.879474 L336.197593,269.879474 Z M343.984603,272.375894 C343.332288,272.148947 342.761512,273.661928 342.761512,275.742278 L342.761512,547.171177 C342.633224,548.778698 343.061745,550.382212 343.984603,551.747946 C344.677687,552.20184 346.430784,551.747946 346.430784,549.591947 L346.430784,276.914839 C346.396317,275.170293 345.566711,273.520986 344.147682,272.375894 L343.984603,272.375894 Z M351.771612,274.834489 C351.119297,274.834489 350.548522,276.196173 350.548522,278.276522 L350.548522,552.504437 C350.395676,554.13094 350.841168,555.757516 351.812382,557.119031 C352.464697,557.5351 354.217793,557.119031 354.217793,554.925207 L354.217793,279.449083 C354.166547,277.686467 353.341885,276.019664 351.934691,274.834489 L351.771612,274.834489 Z M359.558622,277.293084 C358.906307,277.066137 358.376301,278.616943 358.376301,280.697293 L358.376301,557.724223 C358.227008,559.340238 358.641496,560.957983 359.558622,562.338817 C360.210937,562.792712 362.004803,562.338817 362.004803,560.182818 L362.004803,281.869854 C361.961667,280.11635 361.134622,278.458433 359.721701,277.293084 L359.558622,277.293084 Z M367.386401,279.713855 C366.693317,279.486908 366.163311,281.037714 366.163311,283.118063 L366.163311,563.019659 C366.09521,564.648017 366.595687,566.253247 367.59025,567.596428 C368.283334,568.088147 370.036431,567.596428 370.036431,565.478254 L370.036431,284.214975 C369.976337,282.453353 369.081159,280.806171 367.59025,279.713855 L367.386401,279.713855 Z M375.173411,282.021152 C374.480326,281.832029 373.95032,283.382835 373.95032,285.463185 L373.95032,568.27727 C373.78869,569.899196 374.219459,571.524445 375.173411,572.891864 C375.825726,573.307934 377.578822,572.891864 377.578822,570.773689 L377.578822,286.522272 C377.553436,284.794723 376.73831,283.158489 375.336489,282.021152 L375.173411,282.021152 Z M382.96042,284.328449 C382.267336,284.139326 381.73733,285.690132 381.73733,287.770482 L381.73733,573.648354 C381.575699,575.27028 382.006469,576.895529 382.96042,578.262948 C383.612735,578.716843 385.406601,578.262948 385.406601,576.10695 L385.406601,288.791744 C385.380395,287.066953 384.547122,285.437967 383.123499,284.328449 L382.96042,284.328449 Z M390.74743,286.484447 C390.095115,286.484447 389.524339,287.808306 389.524339,289.888656 L389.524339,578.830316 C389.371083,580.444957 389.816995,582.05972 390.7882,583.407086 C391.440514,583.86098 393.193611,583.407086 393.193611,581.251087 L393.193611,290.947743 C393.156768,289.225263 392.325476,287.600149 390.910509,286.484447 L390.74743,286.484447 Z M398.534439,288.602622 C397.882124,288.602622 397.352119,289.964305 397.352119,292.044655 L397.352119,583.974454 C397.202825,585.590469 397.617313,587.208214 398.534439,588.589048 C399.186754,589.005118 400.98062,588.589048 400.98062,586.395224 L400.98062,292.990268 C400.958182,291.286058 400.121911,289.678918 398.697518,288.602622 L398.534439,288.602622 Z M406.321449,290.531673 C405.669134,290.531673 405.139128,291.931181 405.139128,294.011531 L405.139128,589.042942 C404.989835,590.658957 405.404323,592.276703 406.321449,593.657536 C407.014534,594.111431 408.76763,593.657536 408.76763,591.501537 L408.76763,294.91932 C408.750875,293.213873 407.913498,291.60461 406.484528,290.531673 L406.321449,290.531673 Z M414.149228,292.460725 C413.496913,292.460725 412.926138,293.860233 412.926138,295.940582 L412.926138,594.300553 C412.785697,595.903967 413.199854,597.50717 414.108459,598.877323 C414.801543,599.331217 416.55464,598.877323 416.55464,596.721324 L416.55464,296.772722 C416.564644,295.091334 415.737067,293.499907 414.312307,292.460725 L414.149228,292.460725 Z M421.936238,294.200654 C421.243153,294.200654 420.713147,295.637986 420.713147,297.718336 L420.713147,599.444691 C420.551192,601.05471 420.982355,602.66811 421.936238,604.02146 C422.588553,604.43753 424.382419,604.02146 424.382419,601.827637 L424.382419,298.512651 C424.376485,296.826091 423.534489,295.235849 422.099316,294.200654 L421.936238,294.200654 Z M429.723247,295.864933 C429.070932,295.864933 428.500157,297.34009 428.500157,299.42044 L428.500157,604.475354 C428.346901,606.089995 428.792812,607.704758 429.764017,609.052124 C430.416332,609.506018 432.169428,609.052124 432.169428,606.820476 L432.169428,300.063457 C432.169487,298.407151 431.322247,296.849115 429.886326,295.864933 L429.723247,295.864933 Z M437.510257,297.34009 C436.857942,297.34009 436.287166,298.815247 436.287166,300.895597 L436.287166,609.468194 C436.158878,611.075716 436.587399,612.679229 437.510257,614.044963 C438.162572,614.461033 439.956438,613.85584 439.956438,611.775491 L439.956438,301.614263 C439.918306,299.998041 439.07515,298.48942 437.673336,297.529213 L437.510257,297.34009 Z M445.297266,298.663949 C444.644951,298.663949 444.114946,300.139106 444.114946,302.219456 L444.114946,614.423208 C443.942439,616.022036 444.374851,617.626739 445.338036,618.962153 C446.031121,619.378223 447.743447,618.962153 447.743447,616.76833 L447.743447,302.824649 C447.75039,301.177265 446.900243,299.627968 445.460345,298.663949 L445.297266,298.663949 Z M453.084276,299.83651 C452.431961,299.83651 451.901955,301.311667 451.901955,303.392017 L451.901955,619.26475 C451.752734,620.873859 452.18288,622.483454 453.125046,623.841519 C453.81813,624.257589 455.530457,623.652396 455.530457,621.572047 L455.530457,303.845911 C455.51646,302.235544 454.646908,300.735296 453.206585,299.83651 L453.084276,299.83651 Z M460.912055,300.857773 C460.218971,300.857773 459.688965,302.408579 459.688965,304.640227 L459.688965,624.219764 C459.529442,625.805784 459.961166,627.394578 460.912055,628.720885 C461.60514,629.136955 463.358236,628.493937 463.358236,626.413588 L463.358236,305.094121 C463.436499,303.41103 462.573406,301.80954 461.075134,300.857773 L460.912055,300.857773 Z M468.699065,301.727737 C468.04675,301.727737 467.475974,303.316368 467.475974,305.510191 L467.475974,628.910007 C467.311111,630.501772 467.758836,632.096301 468.739834,633.411128 C469.392149,633.827197 471.145246,633.18418 471.145246,631.103831 L471.145246,305.812787 C471.182422,304.179516 470.322371,302.640665 468.862143,301.727737 L468.699065,301.727737 Z M476.486074,302.446403 C475.833759,302.446403 475.262984,304.035034 475.262984,306.228857 L475.262984,633.411128 C475.090899,635.003419 475.539265,636.60023 476.526844,637.912248 C477.219929,638.290493 478.932255,637.647476 478.932255,635.567126 L478.932255,306.493629 C478.986611,304.866931 478.120809,303.332135 476.649153,302.446403 L476.486074,302.446403 Z M484.273084,302.938122 C483.620769,302.938122 483.090763,304.564577 483.090763,306.720576 L483.090763,637.950072 C482.910449,639.537522 483.343927,641.132772 484.313854,642.451193 C485.006938,642.829438 486.719265,642.110772 486.719265,640.030422 L486.719265,306.796225 C486.785269,305.217556 485.907262,303.733854 484.436163,302.938122 L484.273084,302.938122 Z M492.100863,303.240719 C491.448548,303.240719 490.877773,304.904998 490.877773,307.023173 L490.877773,642.375543 C490.71825,643.961564 491.149973,645.550357 492.100863,646.876664 C492.793948,647.254909 494.506274,646.536243 494.506274,644.455893 L494.506274,307.060997 C494.583581,305.499608 493.719596,304.027631 492.263942,303.240719 L492.100863,303.240719 Z M499.887873,303.240719 C499.194788,303.240719 498.664782,304.904998 498.664782,307.023173 L498.664782,646.574067 C498.501289,648.148475 498.93374,649.726572 499.887873,651.037363 C500.580957,651.377784 502.334054,650.659118 502.334054,648.578768 L502.334054,307.212295 C502.384836,305.646987 501.508869,304.181246 500.050951,303.392017 L499.887873,303.240719 Z M507.715652,303.240719 C507.022567,303.240719 506.451792,304.942823 506.451792,307.023173 L506.451792,650.772591 C506.278641,652.353114 506.727543,653.938402 507.715652,655.235887 C508.367967,655.576308 510.121063,654.781993 510.121063,652.701643 L510.121063,307.060997 C510.199191,305.52923 509.32874,304.090285 507.878731,303.354192 L507.715652,303.240719 Z M515.461892,302.975947 C514.809577,302.975947 514.238801,304.715876 514.238801,306.758401 L514.238801,654.744168 C514.065651,656.324691 514.514553,657.909979 515.502661,659.207464 C516.195746,659.585709 517.908073,658.753569 517.908073,656.67322 L517.908073,306.796225 C517.978335,305.256183 517.090758,303.815127 515.62497,303.08942 L515.461892,302.975947 Z M523.248901,302.597701 C522.596586,302.597701 522.06658,304.375455 522.06658,306.380155 L522.06658,658.829218 C522.06658,660.909568 522.596586,662.876444 523.289671,663.17904 C523.982756,663.481637 525.695082,662.649497 525.695082,660.569147 L525.695082,306.266682 C525.858161,304.186332 524.105065,302.673351 523.41198,302.711175 L523.248901,302.597701 Z M531.035911,301.954684 C530.383596,301.954684 529.85359,303.770262 529.85359,305.737138 L529.85359,662.536023 C529.85359,664.616373 530.424366,666.583249 531.076681,666.885845 C531.728995,667.188442 533.482092,666.394126 533.482092,664.313777 L533.482092,305.58584 C533.645171,303.50549 531.892074,302.030333 531.19899,302.068158 L531.035911,301.954684 Z M538.86369,301.122544 C538.211375,301.122544 537.6406,302.975947 537.6406,304.904998 L537.6406,666.167179 C537.6406,668.247529 538.170605,670.214405 538.86369,670.517001 C539.556775,670.819598 541.309871,669.873984 541.309871,667.793634 L541.309871,304.715876 C541.47295,302.635526 539.719853,301.311667 539.026769,301.311667 L538.86369,301.122544 Z M546.976857,300.176931 C546.324542,300.176931 545.753767,302.030333 545.753767,303.959385 L545.753767,669.76051 C545.753767,671.84086 546.324542,673.769912 546.976857,674.072508 C547.629172,674.375104 549.423038,673.467315 549.423038,671.386966 L549.423038,303.618964 C549.259959,301.538614 547.466093,300.063457 546.976857,300.176931 Z M554.763867,298.928721 C554.111552,298.928721 553.540776,300.857773 553.540776,302.938122 L553.540776,673.316017 C553.540776,675.396367 554.111552,677.325418 554.763867,677.59019 C555.416182,677.854962 557.210048,676.909348 557.210048,674.828999 L557.210048,302.295105 C557.046969,300.214755 555.130794,298.815247 554.600788,298.928721 L554.763867,298.928721 Z M562.550876,297.453564 C561.898561,297.453564 561.368555,299.382616 561.368555,301.462965 L561.368555,676.531103 C561.368555,678.611453 561.898561,680.540504 562.591646,680.805276 C563.28473,681.070048 564.997057,680.08661 564.997057,678.00626 L564.997057,300.744299 C564.833978,298.663949 563.28473,297.529213 562.387797,297.529213 L562.550876,297.453564 Z M570.337886,295.789284 C569.685571,295.789284 569.155565,297.75616 569.155565,299.83651 L569.155565,679.557066 C569.155565,681.637416 569.72634,683.33952 570.378655,683.793415 C571.03097,684.247309 572.784067,682.885626 572.784067,680.805276 L572.784067,299.042195 C572.620988,296.961845 570.867892,295.600162 570.174807,295.789284 L570.337886,295.789284 Z M578.165665,293.898057 C577.47258,293.898057 576.942574,295.940582 576.942574,298.020932 L576.942574,682.431731 C576.942574,684.512081 577.47258,686.403308 578.165665,686.66808 C578.85875,686.932852 580.611846,685.760291 580.611846,683.679941 L580.611846,297.037494 C580.448767,294.957144 578.654901,293.746759 578.002586,293.746759 L578.165665,293.898057 Z M585.952675,291.779883 C585.30036,292.00683 584.729584,293.860233 584.729584,295.940582 L584.729584,685.079449 C584.729584,687.159799 585.30036,688.861903 585.993444,689.277973 C586.686529,689.694043 588.398856,688.332359 588.398856,686.25201 L588.398856,294.843671 C588.235777,292.763321 586.441911,291.59076 585.789596,291.779883 L585.952675,291.779883 Z M593.739684,289.472586 C593.087369,289.699533 592.516594,291.59076 592.516594,293.67111 L592.516594,687.575869 C592.516594,689.656218 593.087369,691.358323 593.739684,691.736568 C594.391999,692.114813 596.185865,690.790955 596.185865,688.710605 L596.185865,292.498549 C595.900477,290.4182 594.22892,289.245639 593.576605,289.472586 L593.739684,289.472586 Z M601.526694,286.900517 C600.874379,287.127465 600.344373,289.018692 600.344373,291.099041 L600.344373,689.883166 C600.344373,691.963515 600.874379,693.66562 601.526694,694.00604 C602.179009,694.346461 603.972875,692.909129 603.972875,690.828779 L603.972875,289.964305 C603.809796,287.808306 602.01593,286.67357 601.363615,286.900517 L601.526694,286.900517 Z M609.313703,284.17715 C608.661388,284.441922 608.131382,286.333149 608.131382,288.413499 L608.131382,691.850042 C608.131382,693.930391 608.661388,695.632496 609.313703,695.972917 C609.966018,696.313337 611.759884,694.83818 611.759884,692.757831 L611.759884,287.013991 C611.596805,284.933641 609.843709,283.912379 609.150624,284.17715 L609.313703,284.17715 Z M617.100713,281.226836 C616.407628,281.491608 615.877622,283.382835 615.877622,285.463185 L615.877622,693.703444 C615.877622,695.783794 616.407628,697.485898 617.100713,697.788494 C617.793797,698.091091 619.587663,696.615934 619.587663,694.535584 L619.587663,283.950203 C619.424585,281.869854 617.630719,280.962065 616.937634,281.226836 L617.100713,281.226836 Z M624.887722,278.01175 C624.194638,278.314347 623.664632,280.243398 623.664632,282.323748 L623.664632,695.329899 C623.664632,697.410249 624.194638,699.112353 624.887722,699.377125 C625.580807,699.641897 627.374673,698.091091 627.374673,696.010741 L627.374673,280.772942 C627.211594,278.616943 625.417728,277.746979 624.724644,278.01175 L624.887722,278.01175 Z M632.674732,274.569717 C632.022417,274.872314 631.451641,276.83919 631.451641,278.919539 L631.451641,696.729407 C631.451641,698.809757 632.022417,700.511861 632.674732,700.738809 C633.327047,700.965756 635.161683,699.41495 635.161683,697.3346 L635.161683,277.217435 C634.998604,275.137085 633.204738,274.267121 632.593192,274.569717 L632.674732,274.569717 Z M640.461741,270.787263 C639.500399,272.066539 639.066348,273.62363 639.238651,275.17491 L639.238651,697.675021 C639.238651,699.755371 639.809426,701.457475 640.461741,701.457475 C641.114056,701.457475 642.948692,700.095791 642.948692,698.015442 L642.948692,273.548455 C642.785613,271.468105 640.991747,270.598141 640.298663,271.052035 L640.461741,270.787263 Z M648.289521,267.004809 C647.596436,267.307406 647.02566,269.274282 647.02566,271.354631 L647.02566,698.771933 C647.02566,700.852282 647.596436,702.554387 648.289521,702.554387 C648.982605,702.554387 650.735702,701.041405 650.735702,698.771933 L650.735702,269.652527 C650.572623,267.572177 648.901066,266.777862 648.126442,267.269581 L648.289521,267.004809 Z M656.03576,262.957584 C655.081379,264.25406 654.648459,265.820479 654.81267,267.383055 L654.81267,699.377125 C654.81267,701.457475 655.383446,703.159579 656.03576,703.159579 C656.688075,703.159579 658.481941,701.533124 658.481941,699.377125 L658.481941,265.567477 C658.318863,263.487127 656.524997,262.730636 655.872682,263.071057 L656.03576,262.957584 Z M663.82277,258.683411 C662.895199,260.018101 662.478742,261.603562 662.640449,263.184531 L662.640449,699.679721 C662.640449,701.760071 663.170455,703.462175 663.82277,703.462175 C664.475085,703.462175 666.268951,701.760071 666.268951,699.679721 L666.268951,260.915058 C666.105872,259.061656 664.352776,258.418639 663.659691,258.796884 L663.82277,258.683411 Z M671.60978,254.217211 C670.673088,255.537032 670.255432,257.113695 670.427459,258.683411 L670.427459,699.717546 C670.427459,701.797896 670.957465,703.5 671.60978,703.5 C673.124183,702.763533 674.0682,701.303829 674.055961,699.717546 L674.055961,256.67871 C673.892882,254.59836 672.139785,253.917519 671.446701,254.333588 L671.60978,254.217211 Z M679.437559,249.529872 C678.474129,250.850998 678.041257,252.444018 678.214468,254.030992 L678.214468,699.528423 C678.214468,701.608773 678.744474,703.310877 679.437559,703.310877 C680.926459,702.549606 681.860387,701.105502 681.88374,699.528423 L681.88374,251.874993 C681.720661,249.794644 679.926795,249.227276 679.27448,249.643346 L679.437559,249.529872 Z M687.06149,244.574857 C686.116584,245.917734 685.685806,247.516371 685.838399,249.113802 L685.838399,698.99888 C685.838399,701.079229 686.409175,702.781334 687.06149,702.781334 C688.57168,701.911296 689.495202,700.383321 689.507671,698.734108 L689.507671,246.882154 C689.670749,244.801804 687.713805,244.310085 687.06149,244.574857 Z M694.848499,239.506369 C693.925641,240.872102 693.49712,242.475616 693.625409,244.083138 L693.625409,697.977617 C693.625409,700.057967 694.196184,701.760071 694.889269,701.760071 C696.397519,700.839499 697.302394,699.274314 697.29468,697.599372 L697.29468,241.700192 C697.29468,239.619842 695.500814,239.165948 694.848499,239.619842 L694.848499,239.506369 Z M702.635509,234.09746 C701.718382,235.478293 701.303894,237.096039 701.453188,238.712054 L701.453188,696.956355 C701.453188,699.036704 701.983194,700.738809 702.676278,700.511861 C704.175377,699.548689 705.073322,697.967252 705.08169,696.275513 L705.08169,236.253458 C705.08169,234.173109 703.328593,233.719214 702.635509,234.210933 L702.635509,234.09746 Z M710.463288,228.537252 C709.523317,229.924263 709.094107,231.556903 709.240197,233.189671 L709.240197,695.481198 C709.240197,697.561547 709.770203,699.263652 710.422518,698.961055 C711.925499,697.945206 712.830418,696.33607 712.868699,694.611233 L712.868699,230.655427 C712.868699,228.575077 711.156373,228.159007 710.463288,228.650726 L710.463288,228.537252 Z M718.209528,222.93922 C717.260885,224.336841 716.831324,225.984096 716.986437,227.629463 L716.986437,693.552146 C716.986437,695.632496 717.557213,697.3346 718.209528,697.032004 C719.700437,695.939687 720.595615,694.292505 720.655709,692.530883 L720.655709,224.830447 C720.696479,222.750098 718.902612,222.409677 718.209528,222.93922 Z M725.996537,216.962943 C725.069352,218.368897 724.641525,220.009506 724.773447,221.653186 L724.773447,691.282674 C724.773447,693.363023 725.344222,695.065128 725.996537,694.686882 C727.470155,693.548891 728.358293,691.887198 728.442718,690.110113 L728.442718,218.85417 C728.483488,216.77382 726.689622,216.433399 726.037307,216.962943 L725.996537,216.962943 Z M733.783547,210.759719 C732.871964,212.19937 732.445968,213.859305 732.560456,215.525611 L732.560456,688.710605 C732.560456,690.790955 733.131232,692.266112 733.783547,692.00134 C735.240676,690.803264 736.121364,689.114656 736.229728,687.311097 L736.229728,212.613121 C736.270498,210.531303 734.517401,210.230175 733.824317,210.759719 L733.783547,210.759719 Z M741.611326,204.367371 C740.675159,205.797751 740.247298,207.464955 740.388236,209.133263 L740.388236,685.722466 C740.388236,687.802816 740.918242,689.277973 741.611326,688.975377 C743.065556,687.700355 743.928181,685.950522 744.016737,684.096011 L744.016737,206.1073 C744.057507,204.02695 742.34518,203.800003 741.652096,204.367371 L741.611326,204.367371 Z M749.357566,197.785901 C748.471566,199.261304 748.061176,200.941829 748.175245,202.627442 L748.175245,682.129135 C748.175245,684.209485 748.705251,685.684642 749.357566,685.382045 C750.817407,684.060229 751.690211,682.278772 751.803747,680.389206 L751.803747,199.488006 C751.844517,197.407656 750.09142,197.218533 749.398336,197.785901 L749.357566,197.785901 Z M757.185345,191.015309 C756.262502,192.478458 755.836279,194.165641 755.962255,195.85685 L755.962255,678.308856 C755.962255,680.389206 756.492261,681.788714 757.185345,681.410469 C758.616476,680.024382 759.481574,678.218521 759.631526,676.304156 L759.631526,192.641764 C759.672296,190.561414 757.87843,190.410116 757.226115,191.015309 L757.185345,191.015309 Z M765.013124,184.055593 C764.109633,185.53962 763.685073,187.23335 763.790034,188.934959 L763.790034,673.959034 C763.790034,676.039384 764.36081,677.401067 765.013124,677.022822 C766.425357,675.594971 767.285874,673.77206 767.459305,671.84086 L767.459305,185.53075 C767.459305,183.450401 765.665439,183.450401 765.013124,184.055593 Z M772.800134,176.831106 C771.896643,178.315133 771.472083,180.008863 771.577044,181.710472 L771.577044,669.155318 C771.577044,671.235667 772.147819,672.597351 772.800134,672.143456 C774.201007,670.619815 775.055947,668.729402 775.246315,666.734547 L775.246315,178.344088 C775.287085,176.263738 773.452449,176.225914 772.800134,176.831106 Z M780.627913,169.266198 C779.712314,170.759615 779.287186,172.468757 779.404823,174.183388 L779.404823,663.859882 C779.404823,665.940232 779.934829,667.264091 780.627913,666.810196 C782.021116,665.24179 782.860859,663.313895 783.033325,661.287813 L783.033325,170.817004 C783.033325,168.925777 781.320998,168.925777 780.627913,169.417496 L780.627913,169.266198 Z M788.374153,161.70129 C787.503199,163.236623 787.094747,164.961485 787.191832,166.69413 L787.191832,658.110552 C787.191832,660.190902 787.721838,661.476936 788.374153,660.947393 C789.771696,659.305209 790.621891,657.320116 790.820334,655.235887 L790.820334,163.214272 C790.820334,161.133922 789.067238,161.360869 788.374153,161.852588 L788.374153,161.70129 Z M796.201932,154.136382 C795.295648,155.674322 794.871937,157.417076 794.978842,159.167046 L794.978842,651.869503 C794.978842,653.949853 795.508848,655.160238 796.201932,654.59287 C797.571607,652.864434 798.416365,650.826725 798.648113,648.692242 L798.648113,155.422417 C798.648113,153.342067 796.854247,153.455541 796.201932,154.136382 L796.201932,154.136382 Z M803.825863,146.231053 C802.943413,147.79088 802.521441,149.53953 802.602773,151.299542 L802.602773,644.985437 C802.602773,647.065786 803.173548,648.276172 803.866633,647.633155 C805.211169,645.853049 806.039516,643.781982 806.272044,641.619053 L806.272044,147.36579 C806.435123,145.28544 804.641257,145.398914 803.825863,146.231053 Z M811.9798,137.909655 C811.091356,139.453799 810.668789,141.191851 810.756709,142.940318 L810.756709,637.609651 C810.756709,639.690001 811.327485,640.862562 811.9798,640.18172 C813.328907,638.316315 814.168454,636.17434 814.425981,633.940671 L814.425981,139.12004 C814.222132,137.03969 812.428266,137.228813 811.9798,137.909655 Z M819.766809,129.588256 C818.902312,131.166514 818.494882,132.926161 818.584489,134.694569 L818.584489,629.666498 C818.584489,631.746848 819.114495,632.843759 819.766809,632.125093 C821.11644,630.190245 821.954573,627.987082 822.21299,625.694921 L822.21299,130.722992 C822.009142,128.642642 820.133737,128.86959 819.562961,129.588256 L819.766809,129.588256 Z M827.553819,121.03991 C826.689322,122.618168 826.281892,124.377815 826.371498,126.146223 L826.371498,621.042503 C826.371498,623.122853 826.901504,624.18194 827.553819,623.425449 C828.89383,621.403296 829.729607,619.128784 830,616.76833 L830,122.098997 C829.796152,120.018647 828.043055,120.321244 827.349971,121.03991 L827.553819,121.03991 Z" fill="url(#linearGradient-4)"></path>
                    </g>
                </g>
            </g>
        </g>
    </g>
</svg>