<?xml version="1.0" encoding="UTF-8"?>
<svg width="101px" height="134px" viewBox="0 0 101 134" version="1.1" xmlns="http://www.w3.org/2000/svg" xmlns:xlink="http://www.w3.org/1999/xlink">
    <title>bte_Group 43</title>
    <defs>
        <polygon id="path-1" points="0 0 4.95446462 0 4.95446462 7.08356978 0 7.08356978"></polygon>
        <polygon id="path-3" points="0 0 7.21865305 0 7.21865305 9.71453294 0 9.71453294"></polygon>
        <polygon id="path-5" points="0 134 101 134 101 0 0 0"></polygon>
    </defs>
    <g id="Design" stroke="none" stroke-width="1" fill="none" fill-rule="evenodd">
        <g id="Desktop-HD-Copy-5" transform="translate(-670.000000, -610.000000)">
            <g id="Group-6" transform="translate(600.000000, 557.000000)">
                <g id="Group-43" transform="translate(70.000000, 53.000000)">
                    <polygon id="Fill-1" fill="#FFFFFF" points="0 125 0 134 0.454417952 134 0.454417952 131.926568 1.92075736 130.622957 5.39621318 134 6 134 2.23632539 130.33609 5.457223 127.478313 4.8513324 127.478313 0.454417952 131.380069 0.454417952 125"></polygon>
                    <path d="M7,125.573734 L7.634,125.573734 L7.634,125 L7,125 L7,125.573734 Z M7.1,134 L7.532,134 L7.532,127.478313 L7.1,127.478313 L7.1,134 Z" id="Fill-2" fill="#FFFFFF"></path>
                    <g id="Group-42">
                        <path d="M10.3455259,124.369635 L10.7582387,124.369635 L10.7582387,131.717456 C10.7582387,132.921228 10.9359345,133.543337 12.1989122,133.543337 L12.1989122,133.959361 C10.7716137,133.959361 10.3455259,133.267914 10.3455259,131.82724 L10.3455259,124.369635 Z" id="Fill-3" fill="#FFFFFF"></path>
                        <path d="M13.2582085,126.99925 L14.1371339,126.99925 L14.1371339,125.475756 L14.5479361,125.475756 L14.5479361,126.99925 L16.3592868,126.99925 L16.3592868,127.413347 L14.5479361,127.413347 L14.5479361,131.646771 C14.5479361,132.906398 14.698882,133.501542 15.9905202,133.501542 L16.3592868,133.501542 L16.3592868,133.917566 L15.9752346,133.917566 C14.5479361,133.917566 14.1371339,133.224193 14.1371339,131.787372 L14.1371339,127.413347 L13.2582085,127.413347 L13.2582085,126.99925 Z" id="Fill-5" fill="#FFFFFF"></path>
                        <g id="Group-9" transform="translate(17.596470, 126.916430)">
                            <mask id="mask-2" fill="white">
                                <use xlink:href="#path-1"></use>
                            </mask>
                            <g id="Clip-8"></g>
                            <path d="M4.40609156,1.38289279 C3.93796822,0.664481911 3.43163072,0.414097423 2.38838441,0.414097423 C1.3451381,0.414097423 0.47958759,0.801230362 0.47958759,1.77002573 C0.47958759,2.9063861 1.50945895,3.08358127 2.52595535,3.26462852 C3.89784336,3.51501301 4.95446462,3.92911043 4.95446462,5.27155649 C4.95446462,6.22494358 4.37743095,7.08395498 2.5125804,7.08395498 C1.18081725,7.08395498 0.49487325,6.65637532 0,5.93411237 L0.357302308,5.68565392 C0.810139992,6.35206186 1.37188801,6.66985756 2.52595535,6.66985756 C3.73352251,6.66985756 4.5436625,6.30776307 4.5436625,5.27155649 C4.5436625,4.24690613 3.61123723,3.90214595 2.22406356,3.63827922 C1.02987136,3.41678525 0.0687854711,3.07009903 0.0687854711,1.77002573 C0.0687854711,0.677964153 0.905675369,0 2.38838441,0 C3.44500568,0 4.24177072,0.290831213 4.75001892,1.14791658 L4.40609156,1.38289279 Z" id="Fill-7" fill="#FFFFFF" mask="url(#mask-2)"></path>
                        </g>
                        <g id="Group-12" transform="translate(27.362478, 124.285467)">
                            <mask id="mask-4" fill="white">
                                <use xlink:href="#path-3"></use>
                            </mask>
                            <g id="Clip-11"></g>
                            <path d="M2.3597238,4.01385595 C3.32080969,3.3358918 4.2131101,2.68681816 4.2131101,1.69105831 C4.2131101,0.968795366 3.80230798,0.417949492 2.8412221,0.417949492 C1.98904654,0.417949492 1.37188801,0.968795366 1.37188801,1.93951677 C1.37188801,2.90831213 1.96229663,3.58627629 2.3597238,4.01385595 M5.29839198,8.05467638 L2.27756337,4.55507165 C1.31647749,5.26000029 0.410802119,5.99189341 0.410802119,7.15521826 C0.410802119,8.45529156 1.40054862,9.30082072 2.85459705,9.30082072 C3.92459327,9.30082072 4.73473326,8.80197778 5.29839198,8.05467638 M2.01579644,4.2507582 C1.3451381,3.48804852 0.961085887,2.79660213 0.961085887,1.93951677 C0.961085887,0.722262947 1.75594022,0 2.8412221,0 C4.10419977,0 4.62582293,0.789674155 4.62582293,1.69105831 C4.62582293,2.86401334 3.63798714,3.59975853 2.62149073,4.3181694 L5.52958759,7.67909965 C5.94230042,6.96068877 6.16203178,6.07471289 6.16203178,5.1771808 L6.57474461,5.1771808 C6.57474461,6.15945841 6.31297768,7.18218274 5.80472947,8.00074742 L7.21865305,9.63209866 L6.65690503,9.63209866 L5.5582482,8.35898984 C4.94108967,9.17562848 4.0354143,9.71491814 2.85459705,9.71491814 C0.932425274,9.71491814 0,8.41484484 0,7.15521826 C0,5.79928995 0.987835793,4.98265132 2.01579644,4.2507582" id="Fill-10" fill="#FFFFFF" mask="url(#mask-4)"></path>
                        </g>
                        <path d="M44.7176258,132.907168 C44.2514132,133.585132 43.4680231,133.99923 42.4247768,133.99923 C40.626801,133.99923 39.5969296,132.989987 39.5969296,131.01195 L39.5969296,129.877516 C39.5969296,127.911034 40.6554616,126.915275 42.4247768,126.915275 C43.3992376,126.915275 44.1826277,127.261961 44.6889652,127.955333 L44.3469485,128.188383 C43.8941109,127.579757 43.1661313,127.331298 42.4247768,127.331298 C40.9019429,127.331298 40.0096425,128.174901 40.0096425,129.877516 L40.0096425,131.01195 C40.0096425,132.547 40.7223364,133.585132 42.4247768,133.585132 C43.1795062,133.585132 43.8941109,133.334748 44.3736984,132.672192 L44.7176258,132.907168 Z" id="Fill-13" fill="#FFFFFF"></path>
                        <path d="M46.4376447,129.890035 L46.4376447,133.917373 L46.0249319,133.917373 L46.0249319,126.999057 L46.4376447,126.999057 L46.4376447,128.162382 C46.7395365,127.38619 47.4121056,126.916238 48.3177809,126.916238 C49.1699565,126.916238 49.7450795,127.289888 50.224667,127.885033 L49.8960253,128.1489 C49.4718483,127.621166 48.99035,127.330335 48.291031,127.330335 C46.9993927,127.330335 46.4376447,128.408914 46.4376447,129.890035" id="Fill-15" fill="#FFFFFF"></path>
                        <path d="M51.2167064,130.153709 L55.5540125,130.153709 L55.5540125,129.87636 C55.5540125,128.162189 54.7706224,127.330142 53.3853594,127.330142 C52.0115607,127.330142 51.2167064,128.175672 51.2167064,129.87636 L51.2167064,130.153709 Z M51.2167064,130.567806 L51.2167064,131.01272 C51.2167064,132.545844 51.9294003,133.585903 53.6318407,133.585903 C54.4152308,133.585903 55.1011748,133.335518 55.5807624,132.672962 L55.9246897,132.907938 C55.4565664,133.585903 54.675087,134 53.6318407,134 C51.8338649,134 50.8039936,132.921421 50.8039936,131.01272 L50.8039936,129.87636 C50.8039936,127.911805 51.7650795,126.916045 53.3853594,126.916045 C55.0037287,126.916045 55.9648146,127.911805 55.9648146,129.87636 L55.9648146,130.567806 L51.2167064,130.567806 Z" id="Fill-17" fill="#FFFFFF"></path>
                        <path d="M62.2970904,131.025817 L62.2970904,129.779673 C62.2703405,128.325517 61.7888422,127.329757 60.0195271,127.329757 C58.536818,127.329757 57.8222134,128.175286 57.8222134,129.875975 L57.8222134,131.012335 C57.8222134,132.739988 58.536818,133.585517 60.0195271,133.585517 C61.8442527,133.585517 62.2970904,132.547385 62.2970904,131.025817 L62.2970904,131.025817 Z M62.2970904,124.369442 L62.7098033,124.369442 L62.7098033,133.916795 L62.2970904,133.916795 L62.2970904,132.880589 C61.9130382,133.668337 61.1716837,133.999615 60.0195271,133.999615 C58.3170866,133.999615 57.4114113,133.003855 57.4114113,131.012335 L57.4114113,129.875975 C57.4114113,127.91142 58.3170866,126.91566 60.0195271,126.91566 C61.1716837,126.91566 61.9130382,127.246938 62.2970904,128.036612 L62.2970904,124.369442 Z" id="Fill-19" fill="#FFFFFF"></path>
                        <path d="M64.8387136,130.153709 L69.1760197,130.153709 L69.1760197,129.87636 C69.1760197,128.162189 68.3945403,127.330142 67.0073666,127.330142 C65.6354786,127.330142 64.8387136,128.175672 64.8387136,129.87636 L64.8387136,130.153709 Z M64.8387136,130.567806 L64.8387136,131.01272 C64.8387136,132.545844 65.5533182,133.585903 67.2557586,133.585903 C68.037238,133.585903 68.723182,133.335518 69.2046803,132.672962 L69.5466969,132.907938 C69.0804843,133.585903 68.2970942,134 67.2557586,134 C65.4558721,134 64.4279115,132.921421 64.4279115,131.01272 L64.4279115,129.87636 C64.4279115,127.911805 65.3889974,126.916045 67.0073666,126.916045 C68.6276466,126.916045 69.5887325,127.911805 69.5887325,129.87636 L69.5887325,130.567806 L64.8387136,130.567806 Z" id="Fill-21" fill="#FFFFFF"></path>
                        <path d="M71.3769637,126.99925 L71.7896765,126.99925 L71.7896765,128.162575 C72.171818,127.3729 72.9552081,126.91643 73.9984544,126.91643 C75.5766988,126.91643 76.5377847,128.035456 76.5377847,130.01542 L76.5377847,133.917566 L76.1250719,133.917566 L76.1250719,130.01542 C76.1250719,128.272359 75.3168426,127.330528 73.9984544,127.330528 C72.4335849,127.330528 71.8164264,128.312805 71.7896765,129.890228 L71.7896765,133.917566 L71.3769637,133.917566 L71.3769637,126.99925 Z" id="Fill-23" fill="#FFFFFF"></path>
                        <path d="M77.9966099,126.99925 L78.8755354,126.99925 L78.8755354,125.475756 L79.2863375,125.475756 L79.2863375,126.99925 L81.0976882,126.99925 L81.0976882,127.413347 L79.2863375,127.413347 L79.2863375,131.646771 C79.2863375,132.906398 79.4372834,133.501542 80.7289217,133.501542 L81.0976882,133.501542 L81.0976882,133.917566 L80.713636,133.917566 C79.2863375,133.917566 78.8755354,133.224193 78.8755354,131.787372 L78.8755354,127.413347 L77.9966099,127.413347 L77.9966099,126.99925 Z" id="Fill-25" fill="#FFFFFF"></path>
                        <mask id="mask-6" fill="white">
                            <use xlink:href="#path-5"></use>
                        </mask>
                        <g id="Clip-28"></g>
                        <path d="M82.9609345,133.917181 L83.4063375,133.917181 L83.4063375,126.998865 L82.9609345,126.998865 L82.9609345,133.917181 Z M82.857832,124.978454 L83.50944,124.978454 L83.50944,124.369827 L82.857832,124.369827 L82.857832,124.978454 Z" id="Fill-27" fill="#FFFFFF" mask="url(#mask-6)"></path>
                        <path d="M89.7633201,130.471505 L87.3883106,130.471505 C86.111958,130.471505 85.7011559,131.205324 85.7011559,131.966108 C85.7011559,133.140989 86.4960102,133.585903 87.608042,133.585903 C88.8156092,133.585903 89.7633201,132.990758 89.7633201,131.4403 L89.7633201,130.471505 Z M87.3883106,130.057407 L89.7633201,130.057407 L89.7633201,129.115576 C89.7633201,127.730758 89.2818218,127.330142 87.8411483,127.330142 C87.0176334,127.330142 86.3870999,127.359033 85.8922266,128.202636 L85.5635849,127.96766 C86.0297976,127.151021 86.7157416,126.916045 87.8411483,126.916045 C89.4461426,126.916045 90.1741222,127.39948 90.1741222,129.115576 L90.1741222,133.917181 L89.7633201,133.917181 L89.7633201,132.894456 C89.3792679,133.722651 88.4716818,134 87.608042,134 C86.1539936,134 85.2884431,133.295071 85.2884431,131.966108 C85.2884431,130.818191 86.0699224,130.057407 87.3883106,130.057407 L87.3883106,130.057407 Z" id="Fill-29" fill="#FFFFFF" mask="url(#mask-6)"></path>
                        <path d="M92.2376863,124.369635 L92.6503992,124.369635 L92.6503992,131.717456 C92.6503992,132.921228 92.828095,133.543337 94.0910726,133.543337 L94.0910726,133.959361 C92.6637741,133.959361 92.2376863,133.267914 92.2376863,131.82724 L92.2376863,124.369635 Z" id="Fill-30" fill="#FFFFFF" mask="url(#mask-6)"></path>
                        <path d="M99.7471491,128.299323 C99.2790257,127.580912 98.7726882,127.330528 97.7294419,127.330528 C96.6861956,127.330528 95.8225558,127.717661 95.8225558,128.686456 C95.8225558,129.822816 96.8505165,130.000011 97.8670129,130.181059 C99.2389009,130.431443 100.295522,130.845541 100.295522,132.187987 C100.295522,133.141374 99.7184885,134.000385 97.8536379,134.000385 C96.5218748,134.000385 95.8359308,133.572806 95.3410575,132.850543 L95.6983598,132.602084 C96.1511975,133.268492 96.7129455,133.586288 97.8670129,133.586288 C99.07458,133.586288 99.88472,133.224193 99.88472,132.187987 C99.88472,131.163336 98.9522947,130.818576 97.5651211,130.554709 C96.3709289,130.333215 95.409843,129.986529 95.409843,128.686456 C95.409843,127.594394 96.2467329,126.91643 97.7294419,126.91643 C98.7860632,126.91643 99.5828282,127.207261 100.091076,128.064347 L99.7471491,128.299323 Z" id="Fill-31" fill="#FFFFFF" mask="url(#mask-6)"></path>
                        <path d="M10.9089936,95.5103187 C10.024336,94.0330502 8.61041241,92.962175 6.00802876,92.962175 C3.25469921,92.962175 1.41086644,94.0580886 1.41086644,96.5291909 C1.41086644,99.5087663 3.86039349,100.069242 6.36150965,100.731798 C9.5714983,101.571549 11.8433295,102.438265 11.8433295,105.799195 C11.8433295,107.991022 10.226871,110.078844 6.23540295,110.078844 C3.5317518,110.078844 1.53506243,109.110048 0.272084752,107.201348 L0.879689747,106.76799 C1.89045403,108.143179 3.3043776,109.314208 6.23540295,109.314208 C9.5963375,109.314208 11.0866894,107.709821 11.0866894,105.799195 C11.0866894,103.200975 9.51990919,102.259144 6.23540295,101.496434 C3.0005751,100.731798 0.650404843,99.7630029 0.650404843,96.5291909 C0.650404843,94.13513 2.21909572,92.1994653 6.03286795,92.1994653 C8.68684071,92.1994653 10.3529777,93.1412962 11.5414378,95.0769609 L10.9089936,95.5103187 Z" id="Fill-32" fill="#FFFFFF" mask="url(#mask-6)"></path>
                        <path d="M20.6964018,101.954252 C24.4604956,101.954252 26.2813999,100.324827 26.2813999,97.5474854 C26.2813999,94.7451051 24.4604956,93.1156799 20.6964018,93.1156799 L16.4011313,93.1156799 L16.4011313,101.954252 L20.6964018,101.954252 Z M16.4011313,102.718888 L16.4011313,109.926109 L15.6425804,109.926109 L15.6425804,92.3510442 L20.6964018,92.3510442 C24.712709,92.3510442 27.0380401,94.288635 27.0380401,97.5474854 C27.0380401,100.781297 24.7394589,102.718888 20.6964018,102.718888 L16.4011313,102.718888 Z" id="Fill-33" fill="#FFFFFF" mask="url(#mask-6)"></path>
                        <path d="M30.1289917,102.310376 C30.1289917,107.454814 32.4027336,109.313438 35.4331158,109.313438 C38.4673193,109.313438 40.7410613,107.454814 40.7410613,102.310376 L40.7410613,99.9663921 C40.7410613,94.8219539 38.4673193,92.9633306 35.4331158,92.9633306 C32.4027336,92.9633306 30.1289917,94.8219539 30.1289917,99.9663921 L30.1289917,102.310376 Z M35.4331158,110.078073 C31.8218785,110.078073 29.3704408,107.736015 29.3704408,102.310376 L29.3704408,99.9663921 C29.3704408,94.5677174 31.8218785,92.1986949 35.4331158,92.1986949 C39.0481744,92.1986949 41.4977015,94.5677174 41.4977015,99.9663921 L41.4977015,102.310376 C41.4977015,107.736015 39.0481744,110.078073 35.4331158,110.078073 L35.4331158,110.078073 Z" id="Fill-34" fill="#FFFFFF" mask="url(#mask-6)"></path>
                        <path d="M50.7283295,101.64782 C53.913479,101.64782 56.0611143,100.476791 56.0611143,97.395136 C56.0611143,94.3365932 53.913479,93.1154873 50.7283295,93.1154873 L46.1808456,93.1154873 L46.1808456,101.64782 L50.7283295,101.64782 Z M56.4145952,109.925917 L52.2951097,102.310376 C51.8155221,102.387418 51.2862561,102.412456 50.7283295,102.412456 L46.1808456,102.412456 L46.1808456,109.925917 L45.4242054,109.925917 L45.4242054,92.3508516 L50.7283295,92.3508516 C54.5956016,92.3508516 56.8177544,94.1093211 56.8177544,97.395136 C56.8177544,99.9163152 55.4783485,101.547666 53.0784998,102.158219 L57.2744135,109.925917 L56.4145952,109.925917 Z" id="Fill-35" fill="#FFFFFF" mask="url(#mask-6)"></path>
                        <path d="M65.9981309,101.64782 C69.1832804,101.64782 71.3309156,100.476791 71.3309156,97.395136 C71.3309156,94.3365932 69.1832804,93.1154873 65.9981309,93.1154873 L61.450647,93.1154873 L61.450647,101.64782 L65.9981309,101.64782 Z M71.6843965,109.925917 L67.5649111,102.310376 C67.0853235,102.387418 66.5560575,102.412456 65.9981309,102.412456 L61.450647,102.412456 L61.450647,109.925917 L60.6940068,109.925917 L60.6940068,92.3508516 L65.9981309,92.3508516 C69.865403,92.3508516 72.0875558,94.1093211 72.0875558,97.395136 C72.0875558,99.9163152 70.7481498,101.547666 68.3483012,102.158219 L72.5442149,109.925917 L71.6843965,109.925917 Z" id="Fill-36" fill="#FFFFFF" mask="url(#mask-6)"></path>
                        <path d="M76.5182955,104.627973 L83.7942698,104.627973 L80.1562826,93.7516565 L76.5182955,104.627973 Z M73.940751,109.926494 L79.8028017,92.3514294 L80.5097635,92.3514294 L86.3718142,109.926494 L85.5635849,109.926494 L84.0483939,105.392609 L76.2660821,105.392609 L74.750891,109.926494 L73.940751,109.926494 Z" id="Fill-37" fill="#FFFFFF" mask="url(#mask-6)"></path>
                        <polygon id="Fill-38" fill="#FFFFFF" mask="url(#mask-6)" points="100.478568 92.3512368 100.478568 109.926302 99.7696954 109.926302 89.9161767 93.980662 89.9161767 109.926302 89.1595365 109.926302 89.1595365 92.3512368 89.8664983 92.3512368 99.720017 108.423995 99.720017 92.3512368"></polygon>
                        <polygon id="Fill-39" fill="#FFFFFF" mask="url(#mask-6)" points="0 118.701508 101 118.701508 101 118.27778 0 118.27778"></polygon>
                        <path d="M50.5003821,26.0049329 C52.239126,26.0049329 53.6473174,27.401308 53.7008173,29.1424432 C65.1192054,28.6667127 75.9051495,25.6890633 85.5255619,20.7160421 C78.658479,8.35860463 65.5510253,-0.000385206905 50.5003821,-0.000385206905 C35.4497389,-0.000385206905 22.3422853,8.35860463 15.4752024,20.7160421 C25.0956148,25.6890633 35.8815588,28.6667127 47.299947,29.1424432 C47.3534468,27.401308 48.7616383,26.0049329 50.5003821,26.0049329" id="Fill-40" fill="#FFFFFF" mask="url(#mask-6)"></path>
                        <path d="M86.9882085,23.6235839 C80.621731,26.9074727 73.7603802,29.3439064 66.54937,30.8173228 L66.54937,51.4258922 C66.54937,53.2132523 65.112518,54.6616302 63.3393814,54.6616302 C61.5681555,54.6616302 60.1293927,53.2132523 60.1293927,51.4258922 L60.1293927,31.834269 C58.0123288,32.0904316 55.8761578,32.2926653 53.7094154,32.3793368 L53.7094154,54.6616302 C53.7094154,56.4470642 52.2725634,57.8973682 50.4994268,57.8973682 C48.7282009,57.8973682 47.2894381,56.4470642 47.2894381,54.6616302 L47.2894381,32.3793368 C45.1246065,32.2926653 42.9884355,32.0904316 40.8694608,31.834269 L40.8694608,51.4258922 C40.8694608,53.2132523 39.4326088,54.6616302 37.6594722,54.6616302 C35.8882463,54.6616302 34.4494835,53.2132523 34.4494835,51.4258922 L34.4494835,30.8173228 C27.240384,29.3439064 20.3790333,26.9074727 14.0125558,23.6235839 C11.6834033,28.7468357 10.3745687,34.4421198 10.3745687,40.4455694 C10.3745687,62.7837178 28.3390409,80.8922944 50.4994268,80.8922944 C72.6598127,80.8922944 90.6242849,62.7837178 90.6242849,40.4455694 C90.6242849,34.4421198 89.317361,28.7468357 86.9882085,23.6235839" id="Fill-41" fill="#FFFFFF" mask="url(#mask-6)"></path>
                    </g>
                </g>
            </g>
        </g>
    </g>
</svg>