<?xml version="1.0" encoding="UTF-8"?>
<svg width="97px" height="42px" viewBox="0 0 97 42" version="1.1" xmlns="http://www.w3.org/2000/svg" xmlns:xlink="http://www.w3.org/1999/xlink">
    <title>sporran_Group 7 Copy</title>
    <g id="Design-5-Services-+" stroke="none" stroke-width="1" fill="none" fill-rule="evenodd">
        <g id="b.t.e-Home-v4" transform="translate(-673.000000, -1168.000000)" fill="#FFFFFF">
            <g id="Group-7-Copy" transform="translate(673.000000, 1168.000000)">
                <path d="M29.7372263,41.7101011 C26.3716095,41.7104545 23.1603431,40.2994949 20.8868613,37.8212121 C16.3813175,42.7024747 8.76681752,43.0121717 3.87893796,38.5130808 C1.41039416,36.2409091 0.00424817518,33.0424747 0,29.689899 L0,20.8515152 C0,19.0940909 1.42632482,17.669697 3.18613139,17.669697 C4.94593796,17.669697 6.37226277,19.0940909 6.37226277,20.8515152 L6.37226277,29.5060606 C6.37226277,32.6065657 8.80788321,35.2262626 11.8063869,35.3429293 L12.0364964,35.3429293 C15.1277518,35.3432828 17.6486898,32.8685354 17.7007299,29.7818182 L17.7007299,29.689899 L17.7007299,20.8515152 C17.7007299,19.0940909 19.1270547,17.669697 20.8868613,17.669697 C22.6466679,17.669697 24.0729927,19.0940909 24.0729927,20.8515152 L24.0729927,29.689899 L24.0729927,29.7959596 C24.1328212,32.8770202 26.651281,35.3436364 29.7372263,35.3429293 L29.9673358,35.3429293 C32.9658394,35.2262626 35.4014599,32.6065657 35.4014599,29.5060606 L35.4014599,20.8515152 C35.4014599,19.0940909 36.8277847,17.669697 38.5875912,17.669697 C40.3473978,17.669697 41.7737226,19.0940909 41.7737226,20.8515152 L41.7737226,29.689899 C41.7737226,36.3285859 36.3849124,41.7101011 29.7372263,41.7101011" id="Fill-1"></path>
                <path d="M48.5,41.710101 C46.7401934,41.710101 45.3138686,40.2857071 45.3138686,38.5282828 C45.3138686,36.7708586 46.7401934,35.3464646 48.5,35.3464646 L57.1698175,35.3464646 C60.2709854,35.3464646 62.8942336,32.9106061 63.0145985,29.919697 C63.1399197,26.7983333 60.7078394,24.1662626 57.5818905,24.0411111 C57.5309124,24.0389899 57.4795803,24.0375758 57.4282482,24.0368687 L57.350365,24.0368687 L48.5,24.0368687 C46.7401934,24.0368687 45.3138686,22.6124747 45.3138686,20.8550505 C45.3138686,19.0976263 46.7401934,17.6732323 48.5,17.6732323 L57.4565693,17.6732323 C60.5842883,17.6173737 63.074427,15.0397475 63.0184927,11.9162626 C63.0177847,11.8731313 63.0163686,11.83 63.0145985,11.7868687 C62.8942336,8.7959596 60.2709854,6.36363636 57.1698175,6.36363636 L48.5,6.36363636 C46.7401934,6.36363636 45.3138686,4.93924242 45.3138686,3.18181818 C45.3138686,1.42439394 46.7401934,0 48.5,0 L57.350365,0 C63.9980511,0.00848484848 69.380135,5.39707071 69.3716487,12.035404 C69.3670365,15.3879798 67.9612445,18.5864141 65.4927007,20.8585859 C70.3805803,25.3580303 70.6906971,32.9622222 66.1855073,37.8434848 C63.9102555,40.3086869 60.7074854,41.7129293 57.350365,41.7171717 L48.5,41.710101 Z" id="Fill-3"></path>
                <path d="M93.8138686,42 C92.054062,42 90.6277372,40.5756061 90.6277372,38.8181818 L90.6277372,29.979798 C90.6277372,26.8556061 88.0919307,24.3232323 84.9635036,24.3232323 L84.754635,24.3232323 C81.7455109,24.4328283 79.2992701,27.0525253 79.2992701,30.1636364 L79.2992701,38.8181818 C79.2992701,40.5756061 77.8729453,42 76.1131387,42 C74.3533321,42 72.9270073,40.5756061 72.9270073,38.8181818 L72.9270073,29.979798 C72.9270073,23.3411111 78.3158175,17.959596 84.9635036,17.959596 C91.6111898,17.959596 97,23.3411111 97,29.979798 L97,38.8181818 C97,40.5756061 95.5736752,42 93.8138686,42" id="Fill-5"></path>
            </g>
        </g>
    </g>
</svg>