<?xml version="1.0" encoding="UTF-8"?>
<svg width="153px" height="61px" viewBox="0 0 153 61" version="1.1" xmlns="http://www.w3.org/2000/svg" xmlns:xlink="http://www.w3.org/1999/xlink">
    <title>bte_Group 30</title>
    <defs>
        <polygon id="path-1" points="0 0 51.4286171 0 51.4286171 50.1727237 0 50.1727237"></polygon>
        <polygon id="path-3" points="0 0 9.38553669 0 9.38553669 25.9240642 0 25.9240642"></polygon>
    </defs>
    <g id="Design" stroke="none" stroke-width="1" fill="none" fill-rule="evenodd">
        <g id="Desktop-HD-Copy-5" transform="translate(-1074.000000, -649.000000)">
            <g id="Group-7" transform="translate(1030.000000, 557.000000)">
                <g id="Group-30" transform="translate(44.000000, 92.000000)">
                    <text id="Stakeboard" font-family="RoundedMplus1c-Black, Rounded Mplus 1c" font-size="18" font-weight="800" letter-spacing="-0.54" fill="#FFFFFF">
                        <tspan x="2.27373675e-13" y="30.1845231">S</tspan>
                        <tspan x="10.008" y="30.1845231" letter-spacing="-0.18">t</tspan>
                        <tspan x="19.566" y="30.1845231">a</tspan>
                        <tspan x="30.294" y="30.1845231" letter-spacing="-0.72">k</tspan>
                        <tspan x="39.888" y="30.1845231">e</tspan>
                        <tspan x="50.346" y="30.1845231" letter-spacing="0.18">b</tspan>
                        <tspan x="62.244" y="30.1845231">oa</tspan>
                        <tspan x="83.7" y="30.1845231" letter-spacing="-0.36">r</tspan>
                        <tspan x="92.448" y="30.1845231">d</tspan>
                    </text>
                    <g id="Group-29" transform="translate(101.232083, 0.000000)">
                        <path d="M19.1530171,13.7636 L20.5450171,13.3296 C20.6970171,13.2826 20.8540171,13.3626 20.8870171,13.5026 L21.4520171,15.9336 C22.7240171,14.6516 22.5980171,13.8226 23.0430171,12.8386 C23.0780171,12.7616 23.1550171,12.7016 23.2430171,12.6816 L24.9520171,12.4626 L23.8900171,14.8736 C24.7230171,15.6346 24.2850171,15.6816 23.4810171,16.1466 L24.8720171,17.2056 C25.5030171,17.8756 26.6140171,18.0696 26.4890171,18.1696 L24.7610171,18.8736 C24.6500171,18.9626 24.4870171,18.9586 24.3890171,18.8656 L22.3950171,17.0626 L21.8020171,17.8046 L22.3930171,19.2316 C22.4240171,19.3646 22.4190171,19.6306 22.2730171,19.6646 L21.0360171,20.2436 C20.8770171,20.2806 20.7250171,20.1826 20.7110171,20.0346 L20.1840171,17.2546 C20.9870171,16.6776 19.8300171,16.2146 19.7690171,16.0616 L18.9760171,14.0926 C18.9230171,13.9606 19.0040171,13.8106 19.1530171,13.7636" id="Fill-19" fill="#000000"></path>
                        <g id="Group-23">
                            <mask id="mask-2" fill="white">
                                <use xlink:href="#path-1"></use>
                            </mask>
                            <g id="Clip-22"></g>
                            <path d="M51.4288171,26.505 C51.3528171,26.771 51.2968171,27.045 51.1968171,27.302 C50.8978171,28.067 50.6908171,28.106 49.9758171,27.974 C49.4898171,27.884 48.9968171,27.808 48.5298171,27.658 C47.9348171,27.468 47.3648171,27.202 46.7788171,26.986 C46.6768171,26.948 46.5098171,26.944 46.4328171,27.003 C46.0168171,27.326 45.8568171,27.341 45.4848171,26.958 C45.1018171,26.564 44.6708171,26.206 44.1298171,26.168 C43.4038171,26.116 42.7878171,25.866 42.2098171,25.458 C42.1328171,25.405 42.0228171,25.367 41.9308171,25.372 C41.0948171,25.414 40.3118171,25.168 39.5228171,24.948 C39.3328171,24.895 39.1288171,24.89 38.9408171,24.832 C38.6648171,24.747 38.3178171,24.709 38.1428171,24.519 C37.6688171,24.007 37.0728171,23.832 36.4348171,23.692 C35.7248171,23.535 35.0248171,23.327 34.3128171,23.186 C33.8508171,23.095 33.3998171,23.202 32.9858171,23.447 C31.5088171,24.321 29.8938171,24.884 28.3118171,25.519 C27.2288171,25.953 26.2368171,26.531 25.3948171,27.338 C23.6588171,29.004 21.9468171,30.695 20.2088171,32.36 C19.5138171,33.026 18.7718171,33.642 18.0618171,34.293 C17.7228171,34.605 17.7638171,34.664 18.1318171,34.928 C18.4668171,35.168 18.7888171,35.354 19.2078171,35.446 C19.4798171,35.506 19.6958171,35.832 19.9288171,36.047 C20.4068171,36.487 20.9928171,36.709 21.6018171,36.879 C21.9958171,36.99 22.3078171,37.166 22.3968171,37.609 C22.4408171,37.833 22.5608171,37.853 22.7498171,37.722 C22.9218171,37.602 23.1158171,37.513 23.3078171,37.425 C23.5898171,37.297 23.8128171,37.344 24.0888171,37.543 C24.8588171,38.096 25.5448171,38.781 26.5448171,38.984 C27.2908171,39.135 27.7838171,39.696 28.2388171,40.295 C28.7388171,40.955 28.6428171,41.559 28.3278171,42.268 C27.7708171,43.522 27.4558171,44.855 27.1488171,46.195 C26.8648171,47.434 26.3808171,48.627 25.5378171,49.621 C25.2028171,50.016 24.4938171,50.346 23.9668171,50.072 C23.7788171,49.975 23.5738171,49.728 23.5508171,49.528 C23.4758171,48.882 23.5198171,48.222 23.4478171,47.575 C23.3258171,46.467 23.1708171,45.362 22.9908171,44.261 C22.8978171,43.699 22.5178171,43.314 22.0088171,43.071 C21.8068171,42.973 21.6838171,42.852 21.7108171,42.611 C21.7368171,42.376 21.6438171,42.228 21.3908171,42.19 C21.2588171,42.17 21.1358171,42.095 21.0038171,42.074 C20.7428171,42.034 20.5898171,41.919 20.6388171,41.675 C20.0688171,41.542 19.5098171,41.441 18.9718171,41.273 C18.6868171,41.184 18.4248171,40.995 18.1768171,40.817 C17.7158171,40.487 17.2588171,40.186 16.7108171,39.984 C15.5688171,39.562 14.4598171,39.048 13.3438171,38.558 C13.1898171,38.491 13.0728171,38.342 12.9348171,38.237 C12.6308171,38.003 12.3338171,37.757 12.0148171,37.546 C11.5498171,37.239 11.3888171,36.765 11.2838171,36.268 C11.1968171,35.856 11.0818171,35.426 11.1188171,35.017 C11.1668171,34.485 11.3048171,33.947 11.4898171,33.442 C11.8538171,32.447 12.2008171,31.432 12.6998171,30.503 C13.1528171,29.66 13.8028171,28.923 14.3588171,28.134 C14.7798171,27.535 15.4968171,27.147 15.5998171,26.313 C15.6418171,25.98 15.8208171,25.665 15.9308171,25.339 C16.0458171,24.998 15.8368171,24.448 15.5438171,24.214 C15.3918171,24.093 15.2408171,23.939 15.1578171,23.766 C14.9458171,23.321 14.7938171,22.847 14.5748171,22.406 C14.4288171,22.112 14.2668171,21.772 14.0128171,21.598 C13.3438171,21.143 13.1068171,20.457 12.9338171,19.753 C12.7868171,19.155 12.7478171,18.527 12.6968171,17.909 C12.6268171,17.074 12.6178171,16.233 12.5238171,15.402 C12.4938171,15.131 12.3268171,14.835 12.1348171,14.633 C11.7678171,14.245 11.3218171,13.932 10.9378171,13.557 C10.4208171,13.051 9.93581709,12.507 9.74081709,11.786 C9.69581709,11.622 9.71981709,11.386 9.81181709,11.25 C9.96581709,11.022 9.94681709,10.852 9.74681709,10.714 C9.12781709,10.284 8.49381709,9.874 7.86981709,9.449 C7.52281709,9.212 7.16381709,8.985 6.84981709,8.709 C6.31281709,8.236 5.80081709,7.733 5.28981709,7.23 C5.01381709,6.958 4.76781709,6.655 4.50181709,6.372 C4.03281709,5.873 3.45481709,5.636 2.76781709,5.651 C2.27381709,5.661 1.76881709,5.718 1.28881709,5.637 C0.694817093,5.538 0.348817093,5.028 0.0678170928,4.555 C-0.163182907,4.164 0.224817093,3.848 0.794817093,3.961 C0.767817093,3.682 0.719817093,3.412 0.724817093,3.144 C0.726817093,3.038 0.821817093,2.882 0.915817093,2.84 C1.14281709,2.737 1.18381709,2.582 1.17581709,2.36 C1.17281709,2.247 1.24281709,2.034 1.27981709,2.034 C1.78381709,2.03 2.14081709,1.491 2.66881709,1.644 C2.96881709,1.731 3.07881709,1.605 3.05881709,1.349 C3.01281709,0.782 3.47981709,0.505 3.73781709,0.114 C3.79381709,0.03 4.00781709,0.051 4.27381709,0 C4.17281709,0.424 4.12981709,0.78 3.99881709,1.1 C3.88581709,1.373 3.91581709,1.575 4.03081709,1.837 C4.18181709,2.182 4.25681709,2.562 4.34981709,2.931 C4.45681709,3.354 4.62681709,3.692 5.06181709,3.9 C6.00881709,4.352 6.97581709,4.785 7.85281709,5.352 C9.52481709,6.432 11.1368171,7.606 12.7848171,8.724 C12.9578171,8.842 13.2088171,8.844 13.4228171,8.905 C13.9798171,9.066 14.5278171,9.27 15.0938171,9.382 C16.3038171,9.623 16.9958171,9.27 17.3448171,8.263 C17.7938171,6.968 18.6818171,6.39 19.9318171,6.19 C20.4788171,6.102 21.0238171,5.902 21.5858171,6.109 C21.6888171,6.147 21.8008171,6.183 21.8838171,6.251 C22.4828171,6.738 23.0998171,7.206 23.6588171,7.736 C23.9508171,8.014 24.1898171,8.381 24.3528171,8.751 C24.5698171,9.244 24.8828171,9.508 25.4208171,9.524 C25.8578171,9.536 26.2968171,9.552 26.7308171,9.606 C26.8998171,9.628 27.0968171,9.719 27.2098171,9.843 C27.4108171,10.066 27.6338171,10.08 27.8908171,10.033 C28.8268171,9.863 29.7698171,9.724 30.6958171,9.511 C31.4758171,9.331 32.2398171,9.078 33.0018171,8.831 C33.7998171,8.572 34.5868171,8.283 35.3778171,8.005 C35.5048171,7.96 35.6368171,7.915 35.7508171,7.846 C35.9978171,7.697 36.1628171,7.505 36.0388171,7.184 C35.7798171,6.514 35.8838171,5.867 36.2018171,5.248 C36.3358171,4.987 36.3518171,4.742 36.2548171,4.469 C36.1778171,4.252 36.0578171,3.966 36.3518171,3.853 C36.6648171,3.731 36.8688171,3.931 36.9498171,4.246 C36.9608171,4.286 36.9858171,4.323 37.0808171,4.362 C37.1378171,4.068 37.2328171,3.776 37.2458171,3.481 C37.2778171,2.754 37.7888171,2.407 38.3098171,2.061 C38.3608171,2.028 38.4838171,2.019 38.5098171,2.05 C38.5528171,2.103 38.5668171,2.203 38.5518171,2.274 C38.5278171,2.393 38.4658171,2.504 38.4268171,2.621 C38.2688171,3.104 38.1128171,3.589 37.9548171,4.073 C37.9968171,4.091 38.0388171,4.11 38.0798171,4.128 C38.3348171,3.726 38.5688171,3.308 38.8518171,2.926 C39.1768171,2.487 39.6078171,2.172 40.1668171,2.099 C40.2728171,2.086 40.3928171,2.193 40.5068171,2.244 C40.4508171,2.36 40.4198171,2.552 40.3348171,2.58 C40.0188171,2.685 39.9578171,2.89 39.9698171,3.185 C39.9738171,3.292 39.8918171,3.429 39.8078171,3.507 C38.9738171,4.287 38.7298171,5.301 38.6088171,6.381 C38.5468171,6.932 38.4438171,7.484 38.2938171,8.017 C38.1628171,8.48 37.7598171,8.733 37.3758171,9.005 C36.5158171,9.614 35.6538171,10.229 34.8568171,10.915 C34.1898171,11.489 33.5218171,12.032 32.6498171,12.232 C31.4868171,12.5 30.3168171,12.738 29.1598171,12.986 C29.0968171,14.31 28.2228171,14.897 27.1998171,15.264 C26.4418171,15.536 25.6208171,15.635 24.8278171,15.814 C24.6988171,15.843 24.5728171,15.888 24.4468171,15.925 C24.6778171,16.934 25.6298171,17.739 26.6138171,17.702 C27.7248171,17.66 28.8318171,17.506 29.9418171,17.501 C30.6928171,17.497 31.4448171,17.667 32.1968171,17.76 C32.2588171,17.768 32.3218171,17.789 32.3818171,17.784 C33.5338171,17.674 34.6378171,17.933 35.7278171,18.245 C37.0198171,18.615 38.3138171,18.984 39.5858171,19.416 C40.9258171,19.872 42.2398171,20.405 43.5668171,20.9 C43.8548171,21.008 44.1718171,21.06 44.4318171,21.213 C44.6488171,21.341 44.8868171,21.55 44.9608171,21.774 C45.0488171,22.038 45.1928171,22.082 45.3858171,22.043 C46.0978171,21.9 46.8058171,21.737 47.5128171,21.57 C47.5688171,21.556 47.6248171,21.461 47.6468171,21.393 C47.7288171,21.134 47.8078171,20.874 47.8678171,20.61 C48.0498171,19.798 48.6878171,19.476 49.4298171,19.458 C50.0748171,19.441 50.6088171,19.895 50.7388171,20.607 C50.8518171,21.228 50.9018171,21.861 50.9728171,22.489 C51.1078171,23.688 51.2368171,24.887 51.3718171,26.085 C51.3738171,26.101 51.4088171,26.112 51.4288171,26.126 L51.4288171,26.505 Z" id="Fill-21" fill="#FFFFFF" mask="url(#mask-2)"></path>
                        </g>
                        <g id="Group-26" transform="translate(30.110000, 34.780736)">
                            <mask id="mask-4" fill="white">
                                <use xlink:href="#path-3"></use>
                            </mask>
                            <g id="Clip-25"></g>
                            <path d="M4.33731729,25.8768642 C4.05631729,25.9928642 3.89531729,25.8868642 3.82031729,25.6508642 C3.50531729,24.6508642 3.19931729,23.6488642 2.90831729,22.7078642 C2.57231729,22.7418642 2.16231729,22.8768642 1.79731729,22.7998642 C1.16031729,22.6668642 0.92531729,21.7788642 1.30631729,21.2448642 C1.38731729,21.1318642 1.41031729,20.9328642 1.37831729,20.7918642 C1.27231729,20.3118642 1.12531729,19.8408642 1.00331729,19.3638642 C0.94131729,19.1238642 0.87031729,18.9328642 0.60831729,18.8048642 C-0.06968271,18.4758642 -0.20168271,17.6368642 0.31731729,17.1658642 C0.60331729,16.9068642 1.20631729,16.8968642 1.57531729,17.1448642 C1.87631729,17.3468642 2.00031729,17.8408642 1.84431729,18.2228642 C1.76731729,18.4098642 1.65631729,18.6028642 1.95431729,18.7018642 C2.27431729,18.8098642 2.59931729,18.6858642 2.66231729,18.4268642 C2.93231729,17.3118642 3.21731729,16.1998642 3.46131729,15.0798642 C3.77131729,13.6548642 4.04631729,12.2228642 4.33931729,10.7948642 C4.42631729,10.3718642 4.53531729,9.9518642 4.60431729,9.5258642 C4.62231729,9.4138642 4.56031729,9.2238642 4.47331729,9.1708642 C3.98231729,8.8718642 3.79131729,8.0198642 4.13331729,7.5048642 C4.19231729,7.4168642 4.20431729,7.2598642 4.17131729,7.1568642 C4.08431729,6.8868642 3.94131729,6.6358642 3.85631729,6.3668642 C3.71231729,5.9078642 3.56931729,5.5008642 3.04031729,5.2958642 C2.68131729,5.1558642 2.49231729,4.5498642 2.61031729,4.2188642 C2.75931729,3.8038642 3.02731729,3.4888642 3.49531729,3.4078642 C3.96431729,3.3258642 4.51631729,3.7468642 4.56031729,4.2328642 C4.58031729,4.4458642 4.58231729,4.6648642 4.55831729,4.8768642 C4.51331729,5.2848642 4.74031729,5.5748642 5.15431729,5.5998642 C5.21631729,5.6038642 5.27931729,5.6008642 5.36631729,5.6008642 C5.45331729,4.9698642 5.55231729,4.3478642 5.62431729,3.7228642 C5.77731729,2.4118642 6.31431729,1.2948642 7.29731729,0.410864198 C7.65231729,0.0908641975 8.10831729,-0.0291358025 8.57431729,0.00586419753 C8.73731729,0.0178641975 8.94731729,0.170864198 9.03031729,0.318864198 C9.38131729,0.942864198 9.42731729,1.6148642 9.35831729,2.3278642 C9.19531729,4.0108642 8.44631729,5.5288642 8.07031729,7.1498642 C7.78531729,8.3768642 7.49231729,9.6008642 7.22131729,10.8298642 C6.95331729,12.0488642 6.71031729,13.2728642 6.45131729,14.4938642 C6.15431729,15.8948642 5.86731729,17.2988642 5.54631729,18.6948642 C5.24631729,20.0048642 4.89431729,21.3038642 4.59331729,22.6138642 C4.46931729,23.1548642 4.38931729,23.7108642 4.34631729,24.2638642 C4.30531729,24.8028642 4.33731729,25.3468642 4.33731729,25.8768642" id="Fill-24" fill="#FFFFFF" mask="url(#mask-4)"></path>
                        </g>
                        <path d="M17.3867171,15.0727 L18.5837171,14.6997 C18.7137171,14.6597 18.8497171,14.7277 18.8777171,14.8487 L19.3637171,16.9387 C20.4567171,15.8357 20.3487171,15.1237 20.7307171,14.2777 C20.7607171,14.2107 20.8277171,14.1597 20.9027171,14.1427 L22.3717171,13.9547 L21.4587171,16.0267 C22.1747171,16.6817 21.7987171,16.7217 21.1077171,17.1217 L22.3027171,18.0317 C22.8467171,18.6077 23.8017171,18.7747 23.6937171,18.8607 L22.2077171,19.4657 C22.1127171,19.5417 21.9727171,19.5387 21.8887171,19.4587 L20.1737171,17.9087 L19.6647171,18.5467 L20.1727171,19.7737 C20.1987171,19.8877 20.1947171,20.1167 20.0687171,20.1457 L19.0057171,20.6437 C18.8687171,20.6747 18.7377171,20.5907 18.7257171,20.4637 L18.2737171,18.0737 C18.9637171,17.5777 17.9687171,17.1797 17.9167171,17.0487 L17.2347171,15.3557 C17.1887171,15.2427 17.2587171,15.1127 17.3867171,15.0727" id="Fill-27" fill="#000000"></path>
                    </g>
                </g>
            </g>
        </g>
    </g>
</svg>