<?xml version="1.0" encoding="UTF-8"?>
<svg width="150px" height="118px" viewBox="0 0 150 118" version="1.1" xmlns="http://www.w3.org/2000/svg" xmlns:xlink="http://www.w3.org/1999/xlink">
    <title>bte_Element 21 Copy</title>
    <g id="Design" stroke="none" stroke-width="1" fill="none" fill-rule="evenodd">
        <g id="Desktop-HD-Copy-5" transform="translate(-1043.000000, -1420.000000)" fill="#FFFFFF" fill-rule="nonzero">
            <g id="Element-21-Copy" transform="translate(1043.000000, 1420.000000)">
                <path d="M63.3641281,99.2854545 C62.6021006,99.2822287 61.8738896,98.9713083 61.3456512,98.4236364 L61.3456512,99.1 L60,99.1 L60,88.6272727 L61.3456512,88 L61.3456512,91.9218182 C61.8450591,91.3593604 62.5671564,91.0442181 63.3203671,91.06 C64.2398358,91.0305794 65.1194811,91.4347912 65.6944022,92.1509091 C66.3340995,93.0224983 66.64937,94.0890503 66.5860329,95.1672727 C66.6564167,96.250706 66.3555238,97.3258345 65.7326931,98.2163636 C65.1599754,98.9298148 64.2796503,99.3271641 63.3641281,99.2854545 L63.3641281,99.2854545 Z M63.1781438,98.0418182 C63.7845673,98.0722235 64.3622777,97.782119 64.6988391,97.2781818 C65.3844008,95.9443042 65.3844008,94.3629685 64.6988391,93.0290909 C64.3542339,92.53677 63.7794419,92.2563778 63.1781438,92.2872727 C62.7889569,92.2855371 62.4080778,92.3994754 62.0841184,92.6145455 C61.7898526,92.7943997 61.5424296,93.0411179 61.3620616,93.3345455 L61.3620616,96.9563636 C61.5499003,97.2801098 61.8196188,97.54906 62.1442898,97.7363636 C62.4550966,97.9297264 62.8119489,98.037042 63.1781438,98.0472727 L63.1781438,98.0418182 Z M74.2387407,98.1890909 C73.5765164,98.8866349 72.6556683,99.2817957 71.6923965,99.2817957 C70.7291248,99.2817957 69.8082766,98.8866349 69.1460524,98.1890909 C68.4775719,97.3319482 68.1433089,96.2622528 68.2051905,95.1781818 C68.1447583,94.0892551 68.4786572,93.0149174 69.1460524,92.1509091 C69.8082766,91.4533651 70.7291248,91.0582043 71.6923965,91.0582043 C72.6556683,91.0582043 73.5765164,91.4533651 74.2387407,92.1509091 C75.4863855,93.9713895 75.4863855,96.3686105 74.2387407,98.1890909 L74.2387407,98.1890909 Z M70.1252051,97.2781818 C70.5002992,97.7602108 71.077798,98.0422605 71.6896615,98.0422605 C72.3015249,98.0422605 72.8790237,97.7602108 73.2541178,97.2781818 C74.0048307,95.9704569 74.0048307,94.3640885 73.2541178,93.0563636 C72.8983059,92.5507189 72.308561,92.2607988 71.6896615,92.2872727 C71.0726432,92.2636122 70.4849424,92.5504785 70.1252051,93.0509091 C69.7212499,93.6862376 69.5297342,94.4329307 69.5781924,95.1836364 C69.5330032,95.922011 69.7245809,96.6555738 70.1252051,97.2781818 L70.1252051,97.2781818 Z M78.8774084,99.2854545 C77.783383,99.2854545 77.2363703,98.6636364 77.2363703,97.4090909 L77.2363703,88.6436364 L78.5765514,88 L78.5765514,91.2454545 L80.5184465,91.2454545 L80.5184465,92.4127273 L78.5765514,92.4127273 L78.5765514,96.9563636 C78.5593256,97.2340092 78.61793,97.5111159 78.7461253,97.7581818 C78.8966157,97.9615625 79.1455877,98.0679608 79.3970704,98.0363636 C79.818874,98.0120287 80.2249644,97.8682205 80.5676776,97.6218182 L80.4145141,98.9254545 C79.9472055,99.1689262 79.4264918,99.2926418 78.8992889,99.2854545 L78.8774084,99.2854545 Z M82.5970948,99.1 L82.5970948,88.6272727 L83.9372759,88 L83.9372759,99.1 L82.5970948,99.1 Z M91.0757916,99.1 L91.0757916,98.38 C90.4788557,98.9640501 89.6748007,99.2894607 88.8385097,99.2854545 C88.1100789,99.3207674 87.3957054,99.0768159 86.8419133,98.6036364 C86.3212014,98.0869229 86.0499527,97.370957 86.0979761,96.64 C86.0492738,95.8956866 86.3652838,95.1739832 86.9458457,94.7036364 C87.5474188,94.2501638 88.2872495,94.0170972 89.0409044,94.0436364 C89.7521456,94.0312514 90.4540708,94.2062328 91.0757916,94.5509091 L91.0757916,94.0054545 C91.1290912,93.5064127 90.9703865,93.0079171 90.6381815,92.6309091 C90.2769008,92.3468782 89.8226353,92.2069042 89.3636419,92.2381818 C88.5336385,92.2502574 87.7290126,92.5253434 87.0661885,93.0236364 L86.6832796,91.9 C87.5294612,91.3472356 88.5216987,91.0585783 89.5332158,91.0709091 C91.4039993,91.0709091 92.339391,92.0145455 92.339391,93.9018182 L92.339391,99.1109091 L91.0757916,99.1 Z M89.0409044,98.1018182 C89.8419507,98.0879206 90.5921891,97.7078368 91.0757916,97.0709091 L91.0757916,95.7181818 C90.5242201,95.3643691 89.8827279,95.1751191 89.2268887,95.1727273 C88.7522465,95.153497 88.2835129,95.2832239 87.8867076,95.5436364 C87.5240986,95.78555 87.3162133,96.2001363 87.3396949,96.6345455 C87.315282,97.0450334 87.4757229,97.4449932 87.7773051,97.7254545 C88.1399091,98.0137908 88.6014121,98.1489099 89.0627849,98.1018182 L89.0409044,98.1018182 Z M98.0283231,99.2854545 C97.2662956,99.2822287 96.5380846,98.9713083 96.0098462,98.4236364 L96.0098462,99.1 L94.6696651,99.1 L94.6696651,88.6272727 L96.0098462,88 L96.0098462,91.9218182 C96.509254,91.3593604 97.2313514,91.0442181 97.9845621,91.06 C98.9042068,91.0297119 99.7842231,91.4340942 100.358597,92.1509091 C101.000237,93.0217782 101.31746,94.0883941 101.255698,95.1672727 C101.327141,96.2516209 101.02406,97.3276688 100.396888,98.2163636 C99.830474,98.9255993 98.9586736,99.3227698 98.0502036,99.2854545 L98.0283231,99.2854545 Z M97.8478089,98.0418182 C98.4527954,98.0724797 99.0289979,97.7820878 99.3630341,97.2781818 C100.055894,95.9460698 100.055894,94.3612029 99.3630341,93.0290909 C99.0208909,92.5368287 98.4476407,92.256179 97.8478089,92.2872727 C97.4585259,92.2848716 97.0774558,92.398867 96.7537835,92.6145455 C96.4575241,92.7937199 96.2081736,93.0404906 96.0262566,93.3345455 L96.0262566,96.9563636 C96.2172129,97.2795619 96.4885106,97.5482081 96.8139549,97.7363636 C97.1307699,97.9342349 97.4959003,98.0417642 97.8696894,98.0472727 L97.8478089,98.0418182 Z M105.66462,99.2854545 C105.097311,99.2910683 104.536149,99.1679643 104.023582,98.9254545 C103.54242,98.7053738 103.119187,98.3767151 102.787334,97.9654545 L103.739136,97.1472727 C104.217414,97.7224966 104.921039,98.0643631 105.670091,98.0854545 C106.040461,98.1031096 106.408304,98.0161374 106.731295,97.8345455 C106.991543,97.6771188 107.144719,97.3904708 107.130614,97.0872727 C107.126421,96.8342772 107.02223,96.5931626 106.840698,96.4163636 C106.667016,96.2357764 106.463478,96.0863247 106.238984,95.9745455 C106.031119,95.8763636 105.730262,95.7509091 105.330943,95.5981818 C104.667035,95.3781684 104.04952,95.037931 103.50939,94.5945455 C103.096976,94.224501 102.870548,93.691015 102.891266,93.1381818 C102.871718,92.5397105 103.152809,91.9709459 103.640673,91.6218182 C104.197127,91.2348194 104.866676,91.0429683 105.544278,91.0763636 C106.565161,91.0376775 107.545892,91.4752291 108.197289,92.26 L107.272838,93.0290909 C106.82495,92.5422233 106.190391,92.2684941 105.527867,92.2763636 C105.195059,92.2593434 104.864441,92.3389204 104.576065,92.5054545 C104.347532,92.6408055 104.211215,92.8896601 104.220507,93.1545455 C104.218934,93.3024669 104.258712,93.4479015 104.33538,93.5745455 C104.438565,93.7299947 104.582293,93.854456 104.751109,93.9345455 C104.948034,94.0490909 105.112138,94.1309091 105.22701,94.1909091 C105.341883,94.2509091 105.566158,94.3381818 105.883426,94.4581818 C106.57331,94.6810408 107.217901,95.0245818 107.78703,95.4727273 C108.23557,95.8800244 108.476611,96.4668883 108.443445,97.0709091 C108.469592,97.7055224 108.188837,98.3141209 107.688567,98.7072727 C107.103172,99.1143725 106.399472,99.3175957 105.686501,99.2854545 L105.66462,99.2854545 Z M61.6465082,114.994545 C60.5524828,114.994545 60.0054701,114.369091 60.0054701,113.118182 L60.0054701,104.352727 L61.3511214,103.709091 L61.3511214,106.981818 L63.2930165,106.981818 L63.2930165,108.149091 L61.3511214,108.149091 L61.3511214,112.698182 C61.3338956,112.975827 61.3925,113.252934 61.5206953,113.5 C61.6694277,113.70248 61.9163607,113.808901 62.1661703,113.778182 C62.5876136,113.75208 62.993226,113.608441 63.3367775,113.363636 L63.1836139,114.667273 C62.7128553,114.897927 62.1926697,115.010282 61.6683887,114.994545 L61.6465082,114.994545 Z M65.2841427,114.809091 L65.2841427,106.954545 L66.629794,106.954545 L66.629794,107.985455 C66.9236634,107.22149 67.6754108,106.731278 68.4951073,106.769091 C68.9364952,106.751331 69.3695325,106.892684 69.7149456,107.167273 L69.5125509,108.427273 C69.1805882,108.202015 68.7872071,108.083956 68.3857047,108.089091 C67.9179776,108.08848 67.4722142,108.286915 67.1603963,108.634545 C66.7554565,109.124398 66.5590877,109.752946 66.6133836,110.385455 L66.6133836,114.814545 L65.2841427,114.809091 Z M75.9125995,114.809091 L75.9125995,114.056364 C75.4426863,114.674957 74.6991065,115.025318 73.9214733,114.994545 C73.1163403,115.054421 72.3269073,114.749963 71.7717134,114.165455 C71.2903422,113.62 71.0551267,112.72 71.0551267,111.487273 L71.0551267,106.954545 L72.3953078,106.954545 L72.3953078,111.683636 C72.3489332,112.241634 72.5105904,112.797083 72.8493284,113.243636 C73.1694746,113.584292 73.6233884,113.767733 74.0910472,113.745455 C75.3054154,113.745455 75.9125995,113.069091 75.9125995,111.716364 L75.9125995,106.949091 L77.2527806,106.949091 L77.2527806,114.803636 L75.9125995,114.809091 Z M82.1430742,114.994545 C81.5756849,115.000927 81.0143518,114.877786 80.5020361,114.634545 C80.019312,114.414497 79.5942895,114.085903 79.2603173,113.674545 L80.2175895,112.856364 C80.693717,113.431324 81.395602,113.773313 82.1430742,113.794545 C82.5244129,113.818207 82.9044466,113.731048 83.2370996,113.543636 C83.4973476,113.38621 83.6505234,113.099562 83.6364189,112.796364 C83.6322257,112.543368 83.528034,112.302254 83.3465022,112.125455 C83.171939,111.944409 82.9686428,111.793293 82.7447882,111.678182 C82.5369234,111.585455 82.2360664,111.46 81.831277,111.307273 C81.1695487,111.086082 80.5540361,110.745926 80.0151948,110.303636 C79.5999924,109.933268 79.3731536,109.396811 79.3970704,108.841818 C79.3764081,108.244614 79.6579471,107.676992 80.1464778,107.330909 C80.7029314,106.94391 81.3724805,106.752059 82.0500821,106.785455 C83.070965,106.746768 84.0516966,107.18432 84.7030937,107.969091 L83.7786422,108.738182 C83.3299352,108.252463 82.6959164,107.978967 82.0336717,107.985455 C81.6991442,107.968621 81.3668265,108.04815 81.0763994,108.214545 C80.8504776,108.34977 80.7147279,108.595506 80.7208412,108.858182 C80.7193964,109.007806 80.7591281,109.15496 80.8357139,109.283636 C80.9446747,109.433926 81.086941,109.557121 81.2514435,109.643636 C81.4538382,109.758182 81.6124719,109.84 81.7328147,109.9 C81.8531575,109.96 82.0664924,110.047273 82.3892299,110.167273 C83.0791148,110.390132 83.723705,110.733673 84.2928341,111.181818 C84.7420324,111.588656 84.9832068,112.175846 84.9492494,112.78 C84.9781372,113.41515 84.6968336,114.024938 84.1943718,114.416364 C83.6025631,114.831614 82.8874381,115.035353 82.1649547,114.994545 L82.1430742,114.994545 Z M88.5759436,114.994575 C87.4819182,114.994575 86.9349055,114.369091 86.9349055,113.118182 L86.9349055,104.352727 L88.2750866,103.709091 L88.2750866,106.981818 L90.2169817,106.981818 L90.2169817,108.149091 L88.2750866,108.149091 L88.2750866,112.698182 C88.2578608,112.975827 88.3164653,113.252934 88.4446605,113.5 C88.5951509,113.703381 88.8441229,113.809779 89.0956057,113.778182 C89.5234053,113.740317 89.9314476,113.58135 90.271683,113.32 L90.1185194,114.623636 C89.6496716,114.869429 89.1275154,114.996787 88.5978241,114.994575 L88.5759436,114.994575 Z M95.1018051,114.994545 C94.1172112,115.033582 93.1713479,114.609459 92.5472558,113.849091 C91.8895163,113.000781 91.5542603,111.947636 91.6009238,110.876364 C91.5356735,109.787552 91.8766436,108.713155 92.5581961,107.86 C93.1971951,107.131788 94.132181,106.730789 95.1018051,106.769091 C95.9788619,106.741889 96.8268158,107.084461 97.4375494,107.712727 C98.1010586,108.486462 98.4313345,109.490151 98.3565307,110.505455 C98.3560409,110.802482 98.3396071,111.09927 98.3072996,111.394545 L93.0067465,111.394545 C93.0215611,112.031588 93.2596099,112.643348 93.6795721,113.123636 C94.0538044,113.550825 94.5987377,113.790552 95.1674467,113.778182 C95.8055874,113.785665 96.4187532,113.531236 96.863186,113.074545 L97.678235,113.98 C97.0043915,114.656392 96.0793683,115.023767 95.1236857,114.994545 L95.1018051,114.994545 Z M93.0067465,110.26 L97.0491704,110.26 C97.0967275,109.619427 96.8882911,108.986095 96.4693369,108.498182 C96.1222476,108.145649 95.646461,107.94879 95.1510363,107.952727 C94.5931469,107.932885 94.0514678,108.141842 93.6522215,108.530909 C93.2255984,109.005187 92.9949683,109.622996 93.0067465,110.26 Z M103.203063,114.994545 C102.280457,115.031895 101.395741,114.626287 100.823558,113.903636 C100.196203,113.0288 99.8874095,111.966497 99.9483377,110.892727 C99.8848009,109.815316 100.197985,108.749281 100.834498,107.876364 C101.363869,107.244823 102.125331,106.851621 102.948064,106.784964 C103.770798,106.718308 104.585929,106.983776 105.2106,107.521818 L105.2106,104.352727 L106.556251,103.725455 L106.556251,114.825455 L105.2106,114.825455 L105.2106,114.192727 C104.681198,114.741888 103.938578,115.034507 103.175713,114.994545 L103.203063,114.994545 Z M103.383577,113.750909 C104.138931,113.766575 104.838107,113.354603 105.188719,112.687273 L105.188719,109 C104.81919,108.358575 104.12504,107.972636 103.383577,107.996364 C102.776825,107.967236 102.197158,108.249045 101.846472,108.743636 C101.444597,109.379859 101.253256,110.12587 101.299459,110.876364 C101.264605,111.601683 101.455681,112.319989 101.846472,112.932727 C102.170854,113.450754 102.743852,113.761278 103.356227,113.750909 L103.383577,113.750909 Z M115.55461,115.18 C114.570016,115.219036 113.624153,114.794913 113.000061,114.034545 C112.34151,113.184561 112.006235,112.129421 112.053729,111.056364 C111.98828,109.969199 112.329347,108.89644 113.011001,108.045455 C113.64856,107.315272 114.584542,106.913846 115.55461,106.954545 C116.432742,106.92739 117.281357,107.27221 117.890354,107.903636 C118.554392,108.677075 118.884741,109.680986 118.809336,110.696364 C118.808701,110.993387 118.792267,111.290167 118.760105,111.585455 L113.426731,111.585455 C113.441545,112.222497 113.679594,112.834257 114.099556,113.314545 C114.473789,113.741734 115.018722,113.981461 115.587431,113.969091 C116.226768,113.977105 116.840801,113.720341 117.28317,113.26 L118.098219,114.170909 C117.41951,114.84954 116.487765,115.215246 115.527259,115.18 L115.55461,115.18 Z M113.41032,110.44 L117.452744,110.44 C117.502479,109.800821 117.293685,109.168369 116.872911,108.683636 C116.525463,108.331633 116.049912,108.134871 115.55461,108.138182 C114.998597,108.119844 114.459183,108.32869 114.061265,108.716364 C113.624951,109.184854 113.38262,109.800648 113.382969,110.44 L113.41032,110.44 Z M125.668875,114.994545 L125.668875,110.243636 C125.71789,109.685378 125.555962,109.129 125.214854,108.683636 C124.896457,108.340448 124.441307,108.156507 123.973136,108.181818 C122.766061,108.181818 122.1607,108.858182 122.157053,110.210909 L122.157053,114.994545 L120.811402,114.994545 L120.811402,107.134545 L122.157053,107.134545 L122.157053,107.936364 C122.624965,107.286131 123.390075,106.91492 124.191941,106.949091 C124.983794,106.895976 125.756845,107.205119 126.292469,107.789091 C126.773841,108.334545 127.009056,109.24 127.009056,110.472727 L127.009056,114.994545 L125.668875,114.994545 Z M130.881906,115.18 C129.787881,115.18 129.231751,114.554545 129.213517,113.303636 L129.213517,104.538182 L130.553698,103.889091 L130.553698,107.134545 L132.501064,107.134545 L132.501064,108.301818 L130.553698,108.301818 L130.553698,112.856364 C130.537877,113.134533 130.598394,113.411741 130.728742,113.658182 C130.879484,113.857682 131.125624,113.961682 131.374217,113.930909 C131.796389,113.908399 132.20298,113.764414 132.544825,113.516364 L132.391661,114.825455 C131.916519,115.068403 131.388425,115.190212 130.854555,115.18 L130.881906,115.18 Z M135.80502,105.465455 C135.64491,105.622784 135.428061,105.709277 135.203306,105.705455 C134.978661,105.711557 134.761964,105.62235 134.607063,105.46 C134.453277,105.30482 134.368516,105.094504 134.371847,104.876364 C134.36837,104.648042 134.457069,104.427907 134.618003,104.265455 C134.768149,104.102212 134.981201,104.010881 135.203306,104.014545 C135.430416,104.009677 135.648995,104.100822 135.80502,104.265455 C135.965954,104.427907 136.054653,104.648042 136.051176,104.876364 C136.048085,105.103737 135.946324,105.318616 135.7722,105.465455 L135.80502,105.465455 Z M134.541421,114.994545 L134.541421,107.134545 L135.881602,107.134545 L135.881602,114.994545 L134.541421,114.994545 Z M139.973257,115.18 C138.879232,115.18 138.332219,114.554545 138.332219,113.303636 L138.332219,104.538182 L139.6724,103.889091 L139.6724,107.134545 L141.614295,107.134545 L141.614295,108.301818 L139.6724,108.301818 L139.6724,112.856364 C139.655174,113.134009 139.713779,113.411116 139.841974,113.658182 C139.993428,113.856769 140.239018,113.960536 140.487449,113.930909 C140.911141,113.9076 141.319267,113.763743 141.663526,113.516364 L141.510363,114.825455 C141.025321,115.073511 140.48533,115.19546 139.940436,115.18 L139.973257,115.18 Z M144.557224,117.978182 L145.755181,114.792727 L142.845074,107.156364 L144.185255,107.156364 L146.14356,112.507273 C146.238509,112.753804 146.32067,113.005046 146.389716,113.26 C146.458763,113.005046 146.540923,112.753804 146.635872,112.507273 L148.626998,107.156364 L150,107.156364 L145.913815,118 L144.557224,117.978182 Z" id="Shape"></path>
                <path d="M43.180912,31.207124 C38.8156585,25.8489886 33.0848923,23.1699208 25.9886134,23.1699208 C20.6069943,23.1699208 16.3130327,25.0332234 13.1067284,28.7598285 L13.1067284,0.914313984 L0,6.83819261 L0,81.6531662 L3.97589042,81.6531662 L13.1067284,77.273219 C16.166793,81.087423 20.3894629,82.99635 25.7747379,83 C33.2439279,83 39.1063098,80.3902814 43.3618835,75.1708443 C47.6174573,69.9514072 49.7415881,62.5693712 49.734295,53.0247361 C49.734295,43.8523967 47.5498214,36.5798593 43.180912,31.207124 Z M33.4523194,65.8141821 C31.3245325,68.9239446 28.2443599,70.4770009 24.2118017,70.4733573 C19.2104057,70.4733573 15.5141986,68.6483729 13.1231804,64.9984169 L13.1231804,41.1550792 C15.5690385,37.4430739 19.2652456,35.5870712 24.1953497,35.5870712 C28.1547882,35.5870712 31.2148528,37.098153 33.3810276,40.0819921 C35.5472023,43.0658311 36.6275477,47.3855541 36.6275477,53.0521108 C36.6275477,58.4759455 35.5691383,62.7299692 33.4523194,65.8141821 Z M138.997129,48.9842348 C138.997129,40.2024406 136.662779,33.528496 131.994078,28.9624011 C127.325377,24.3963061 121.333208,22.1296834 114.017569,22.162181 C105.948797,22.162181 99.5252202,24.8270009 94.7468397,30.1559367 C89.9684592,35.4848725 87.579269,42.7701847 87.579269,52.0118734 C87.579269,61.3302111 89.9556633,68.6538478 94.7084518,73.9827836 C99.4612403,79.3117194 105.903097,81.9780123 114.034021,81.9816623 C122.614633,81.9816623 129.409292,78.9923483 134.418,73.0137203 L123.066147,67.6099604 C120.456268,69.5334533 117.276787,70.5298575 114.034021,70.4405013 C110.581516,70.4956077 107.251032,69.1664021 104.78802,66.7503958 C102.21603,64.3085752 100.812129,61.0509894 100.587286,57.021438 L138.563894,57.021438 C138.877953,54.3541739 139.022654,51.6697434 138.997129,48.9842348 L138.997129,48.9842348 Z M100.685997,46.1865435 C100.982133,41.9525945 102.343989,38.8081574 104.771568,36.7532322 C107.200974,34.7056069 110.255554,33.6598945 114.017569,33.6598945 C117.057576,33.602774 119.996853,34.7482035 122.194194,36.8463061 C124.43166,38.9705805 125.703945,42.1022427 126.00008,46.1865435 L100.685997,46.1865435 Z M84.1682292,35.0067282 L84.1682292,23.5969657 L70.951821,23.5969657 L70.951821,0 L57.8450926,6.26332454 L57.8450926,67.4347625 C57.8450926,77.2020449 62.2871219,82.085686 71.1711805,82.085686 C73.6437621,82.1130098 76.1096718,81.8241393 78.5087548,81.2261214 L78.5087548,70.0791557 C77.6057789,70.2569648 76.6871099,70.3431772 75.7667614,70.3364776 C72.5531452,70.3364776 70.9481651,68.5114996 70.951821,64.8615435 L70.951821,37.7058707 L65.3197666,35.0395778 L70.951821,35.0395778 L84.1682292,35.0067282 Z" id="Shape"></path>
            </g>
        </g>
    </g>
</svg>