<?xml version="1.0" encoding="UTF-8"?><svg id="a" xmlns="http://www.w3.org/2000/svg" viewBox="0 0 340 90"><defs><style>.b{fill:#f96943;}.c{fill:#fff;}.d{fill:#ccc;}</style></defs><g><path class="c" d="M195.59,6.5V75.89c0,.41-.16,.79-.43,1.05h0c-.12,.13-.26,.23-.42,.3-.19,.09-.39,.14-.61,.14h-9.38c-.81,0-1.47-.67-1.47-1.49V6.5c0-.82,.66-1.49,1.47-1.49h9.38c.81,0,1.47,.67,1.47,1.49Z"/><path class="c" d="M237.28,67h-18s-.06,0-.09,0c-.64-.07-1.16-.55-1.28-1.18V6.47c-.01-.81-.67-1.47-1.48-1.47h-9.38c-.81,0-1.47,.66-1.47,1.47V75.93c0,.81,.66,1.47,1.47,1.47l30.23,.02c.81,0,1.47-.66,1.47-1.47v-7.48c0-.81-.66-1.47-1.47-1.47Z"/><path class="c" d="M175.81,75.23l-19-34.6c-.24-.44-.24-.97,0-1.4L174.44,7.15c.38-.71,.11-1.59-.6-1.98-.21-.11-.45-.17-.69-.17h-10.64c-.53,0-1.02,.29-1.28,.75l-14.42,26.25V6.47c0-.81-.66-1.47-1.47-1.47h-9.38c-.81,0-1.47,.66-1.47,1.47V75.93c0,.81,.66,1.47,1.47,1.47h9.38c.81,0,1.47-.66,1.47-1.47v-16.01l-4.36-19.98,20.16,36.71c.26,.46,.75,.75,1.28,.75h10.64c.81,0,1.46-.65,1.46-1.45,0-.25-.06-.49-.18-.71Z"/><path class="c" d="M272.73,6.47v7.5c0,.81-.66,1.47-1.47,1.47h-18.17l5.77,4.06c.19,.14,.31,.36,.31,.6v55.84c0,.81-.66,1.47-1.47,1.47h-9.22c-.81,0-1.47-.66-1.47-1.47V16.9c0-.76-.58-1.38-1.31-1.45-.03,0-.06,0-.09,0h-10.69c-.81,0-1.47-.66-1.47-1.47V6.47c0-.81,.66-1.47,1.47-1.47h36.32c.81,0,1.47,.66,1.47,1.47Z"/><path class="b" d="M310.38,13.2l-11.64-8.15h-9.11c-.99,0-1.8,.67-1.8,1.49V15.87l9.37,6.56,13.18-9.23Z"/><path class="b" d="M312.2,70.47l10.07,7.05h8.86c.27,0,.52-.05,.75-.14,.19-.07,.37-.17,.51-.29h0c.33-.27,.53-.65,.53-1.06v-9.51l-7.54-5.28-13.19,9.23Z"/><path class="c" d="M332.94,6.23V15.87l-40.77,28.55c-2.65,2.1-4.36,5.33-4.36,8.96V29l34.24-23.97h9.18c.85,.02,1.55,.53,1.71,1.2Z"/><path class="b" d="M324,41.2l4.3-3.01,.02-.02c2.81-2.09,4.62-5.42,4.62-9.18l-7.56-5.29-13.19,9.23,11.8,8.26h0Z"/><path class="b" d="M310.38,50.73l-11.8-8.26-6.41,4.49c-2.06,1.63-3.55,3.95-4.11,6.61l9.14,6.4,13.19-9.23Z"/><path class="c" d="M328.32,38.17l-.02,.02-40.48,28.34v18.47l45.13-31.6V29c0,3.76-1.82,7.09-4.62,9.18Z"/></g><g><path class="d" d="M6.92,59.86H15.17c2,0,3.46,.45,4.39,1.36,.92,.91,1.39,2.04,1.39,3.39,0,1.8-.66,3.01-1.98,3.62,.85,.32,1.49,.84,1.91,1.58,.42,.73,.64,1.5,.64,2.3,0,1.45-.49,2.69-1.47,3.71-.98,1.02-2.5,1.54-4.55,1.54H6.92v-17.5Zm7.88,6.83c1.52,0,2.28-.55,2.28-1.65s-.62-1.62-1.88-1.62h-4.48v3.28h4.08Zm.88,7.1c.7,0,1.21-.17,1.53-.52,.32-.35,.47-.76,.47-1.23,0-1.28-.89-1.92-2.67-1.92h-4.28v3.67h4.95Z"/><path class="d" d="M32.1,77.66c-.93,0-1.81-.12-2.64-.36-.82-.24-1.6-.62-2.31-1.15-.72-.52-1.29-1.26-1.71-2.21s-.64-2.06-.64-3.33v-10.75h3.8v10.75c0,1.25,.28,2.12,.84,2.62,.56,.5,1.45,.75,2.66,.75s2.06-.25,2.64-.76c.58-.51,.86-1.38,.86-2.61v-10.75h3.8v10.75c0,1.25-.21,2.35-.62,3.29-.42,.94-.98,1.68-1.69,2.21-.71,.53-1.48,.92-2.31,1.17-.83,.25-1.72,.38-2.67,.38Z"/><path class="d" d="M43.65,77.36v-17.5h3.8v17.5h-3.8Z"/><path class="d" d="M51.8,77.36v-17.5h3.8v13.83h8.4v3.67h-12.2Z"/><path class="d" d="M72.25,63.51v13.85h-3.8v-13.85h-5.03v-3.65h13.85v3.65h-5.02Z"/><path class="d" d="M94.05,77.66c-1.1,0-2.1-.17-2.99-.52-.89-.35-1.63-.82-2.21-1.41-.58-.59-1.07-1.28-1.46-2.06-.39-.78-.67-1.6-.85-2.44-.17-.84-.26-1.71-.26-2.61s.09-1.77,.26-2.61,.46-1.65,.85-2.44,.88-1.47,1.46-2.06c.58-.59,1.32-1.06,2.21-1.41,.89-.35,1.89-.52,2.99-.52,1.35,0,2.54,.26,3.57,.79,1.03,.53,1.84,1.23,2.43,2.12,.58,.89,1.02,1.85,1.31,2.89,.29,1.03,.44,2.12,.44,3.25s-.15,2.22-.44,3.25c-.29,1.03-.73,2-1.31,2.89-.58,.89-1.39,1.6-2.43,2.12-1.03,.52-2.22,.79-3.57,.79Zm0-3.67c.87,0,1.6-.3,2.2-.89,.6-.59,1.02-1.27,1.25-2.05s.35-1.59,.35-2.44c0-.9-.11-1.74-.33-2.51-.22-.77-.62-1.45-1.22-2.02-.6-.58-1.35-.86-2.25-.86s-1.65,.3-2.26,.89c-.61,.59-1.02,1.28-1.24,2.05-.22,.78-.33,1.6-.33,2.46,0,.65,.07,1.28,.2,1.88,.13,.6,.34,1.17,.62,1.71,.28,.54,.68,.97,1.2,1.3s1.12,.49,1.8,.49Z"/><path class="d" d="M119.75,77.36h-3.32l-6.6-9.28c-.17-.22-.42-.66-.75-1.32,.05,.28,.08,.72,.08,1.32v9.28h-3.75v-17.5h3.47l6.43,9.17c.32,.45,.56,.88,.72,1.3-.05-.35-.08-.79-.08-1.32v-9.15h3.8v17.5Z"/></g></svg>