<?xml version="1.0" encoding="UTF-8"?>
<svg width="135px" height="42px" viewBox="0 0 135 42" version="1.1" xmlns="http://www.w3.org/2000/svg" xmlns:xlink="http://www.w3.org/1999/xlink">
    <title>sporran_Group 17</title>
    <g id="Design-4-Services" stroke="none" stroke-width="1" fill="none" fill-rule="evenodd">
        <g id="b.t.e-Home-v4" transform="translate(-223.000000, -1077.000000)" fill="#FFFFFF">
            <g id="Group-14" transform="translate(170.000000, 978.000000)">
                <g id="Group-17" transform="translate(53.000000, 99.000000)">
                    <path d="M59.679106,32.8109569 C58.4911051,32.8109569 57.3630898,32.5540224 56.2939954,32.0423037 C55.3619098,31.5958039 54.5813857,31.0202995 53.9531331,30.3168653 C53.8005067,30.1455757 53.8267726,29.8768158 54.0003407,29.727027 L55.4013087,28.5183243 C55.5663582,28.3757024 55.8094955,28.3911113 55.9649614,28.5444836 C57.1224371,29.6879672 58.381782,30.2598882 59.744061,30.2598882 C60.6722422,30.2598882 61.4172718,30.0796399 61.9791497,29.7198601 C62.5403178,29.3604385 62.8214343,28.8318775 62.8214343,28.1341769 C62.8214343,27.6106327 62.6159211,27.1365402 62.2059596,26.711183 C61.7952882,26.286184 61.3743234,25.9704808 60.9427103,25.7626398 C60.5103873,25.5562322 59.8736159,25.2885474 59.0313314,24.9617354 C57.3467623,24.3296122 56.0721548,23.6208029 55.2089285,22.8360241 C54.3446374,22.0508869 53.9130243,21.0156239 53.9130243,19.72916 C53.9130243,18.3771187 54.4362132,17.3035126 55.4840109,16.5072668 C56.5314536,15.7120959 57.8649821,15.3136146 59.4849511,15.3136146 C61.641952,15.3136146 63.403899,16.0453581 64.7707923,17.5084868 C64.9315824,17.6804932 64.9070912,17.957495 64.727134,18.1090756 L63.3989298,19.2267582 C63.236365,19.3636466 63.0021013,19.348596 62.8466354,19.2038241 C61.8861541,18.311183 60.7552993,17.8646832 59.4522962,17.8646832 C58.6100117,17.8646832 57.9405854,18.0284476 57.4440173,18.3552596 C56.9467393,18.6820716 56.6989877,19.1400384 56.6989877,19.72916 C56.6989877,20.055972 56.7799152,20.355908 56.9417701,20.6282514 C57.10398,20.900953 57.3953898,21.1571708 57.8163546,21.3969046 C58.2376743,21.6369967 58.5720325,21.8168867 58.8204941,21.936216 C59.0686006,22.0566205 59.5278995,22.2472608 60.1973258,22.5084954 C61.9468497,23.1416936 63.2800232,23.8612534 64.198266,24.6671746 C65.1157988,25.4741709 65.5747427,26.6083375 65.5747427,28.0685995 C65.5747427,29.5514372 65.0455197,30.7128382 63.9877836,31.5517273 C62.9293375,32.3913331 61.49323,32.8109569 59.679106,32.8109569" id="Fill-1"></path>
                    <path d="M67.5636771,31.7370283 L67.5636771,16.3876149 C67.5636771,16.0113511 67.8657353,15.7060398 68.2384276,15.7060398 L69.7071901,15.7060398 C70.0798823,15.7060398 70.3819406,16.0113511 70.3819406,16.3876149 L70.3819406,31.7370283 C70.3819406,32.1132921 70.0798823,32.418245 69.7071901,32.418245 L68.2384276,32.418245 C67.8657353,32.418245 67.5636771,32.1132921 67.5636771,31.7370283 M70.2200856,12.1580513 C69.8743692,12.495972 69.4530495,12.6643949 68.9564814,12.6643949 C68.4595584,12.6643949 68.0439177,12.4902385 67.7095595,12.1415673 C67.2342882,11.6470492 67.0972794,11.0210179 67.2946288,10.2627567 C67.312731,10.1935958 67.3425464,10.1233599 67.3798156,10.062441 C67.9115233,9.19201741 68.6512287,8.89172305 69.5960923,9.16406638 C69.6667264,9.18449213 69.7387802,9.2181767 69.7998307,9.2590282 C70.424534,9.67721855 70.7383054,10.2240553 70.7383054,10.8984634 C70.7383054,11.4001485 70.5650922,11.8197722 70.2200856,12.1580513" id="Fill-3"></path>
                    <path d="M80.2830253,30.1618446 C80.9741032,30.1618446 81.659857,29.9493452 82.3399316,29.5239879 C82.9869964,29.119773 83.5119601,28.581895 83.9148227,27.9114287 C83.9552864,27.8440596 83.9758732,27.7652233 83.9758732,27.6863871 L83.9758732,20.2797236 C83.9758732,20.1976622 83.9542216,20.1159592 83.9102084,20.0467983 C83.5261579,19.4411928 82.9972898,18.9430912 82.3239591,18.5514185 C81.6112295,18.1375283 80.9311549,17.9300456 80.2830253,17.9300456 C78.8142628,17.9300456 77.6965409,18.4589651 76.9302147,19.5160872 C76.1635334,20.5742844 75.7801928,22.0836398 75.7801928,24.0459451 C75.7801928,25.9430314 76.1958334,27.4366196 77.0274696,28.5263513 C77.8583959,29.617158 78.9438177,30.1618446 80.2830253,30.1618446 M78.8547265,38.9714347 L77.986886,37.5527409 C77.825386,37.2886396 77.9971794,36.9435519 78.3034969,36.9181093 C80.3383967,36.7493281 81.7702449,36.3447549 82.5993964,35.7054648 C83.5169293,34.9966554 83.9758732,34.0316283 83.9758732,32.8111002 L83.9758732,31.8675739 C83.9758732,31.5045689 83.5527787,31.3193038 83.2851502,31.562621 C82.3693921,32.3950599 81.1742922,32.8111002 79.6998506,32.8111002 C77.7561717,32.8111002 76.1415268,32.0478222 74.8569808,30.5216245 C73.5717249,28.9957852 72.9296294,26.8371059 72.9296294,24.0459451 C72.9296294,21.3429376 73.5610766,19.2114927 74.8246808,17.6523271 C76.0879301,16.0935199 77.7451684,15.3137579 79.7971055,15.3137579 C81.1842307,15.3137579 82.3555492,15.6928885 83.3110612,16.4522247 C83.5811743,16.6665159 83.9758732,16.4708588 83.9758732,16.1239794 L83.9758732,16.1239794 C83.9758732,15.8932042 84.1611545,15.7061473 84.3897391,15.7061473 L86.3806257,15.7061473 C86.6092103,15.7061473 86.7944916,15.8932042 86.7944916,16.1239794 L86.7944916,31.7317606 C86.7944916,34.2824709 86.1190312,36.1247302 84.7698852,37.2588968 C83.4658172,38.3536453 81.6232976,38.9907854 79.2419715,39.1710337 C79.0872155,39.1828591 78.9360089,39.1047396 78.8547265,38.9714347" id="Fill-5"></path>
                    <path d="M100.054669,32.4183883 C99.8260848,32.4183883 99.6408035,32.2313314 99.6408035,32.0005563 L99.6408035,22.312659 C99.6408035,20.8083205 99.3220629,19.7017465 98.6852916,18.9932955 C98.0478103,18.2848445 97.1789049,17.9300815 96.0775105,17.9300815 C93.5290053,17.9300815 92.2547527,19.369201 92.2547527,22.24744 L92.2547527,32.0005563 C92.2547527,32.2313314 92.0694714,32.4183883 91.8408868,32.4183883 L89.8503552,32.4183883 C89.6217706,32.4183883 89.4364893,32.2313314 89.4364893,32.0005563 L89.4364893,16.1240152 C89.4364893,15.89324 89.6217706,15.7061832 89.8503552,15.7061832 L91.8408868,15.7061832 C92.0694714,15.7061832 92.2547527,15.89324 92.2547527,16.1240152 L92.2547527,16.3178806 C92.2547527,16.682319 92.6817516,16.8679425 92.9472504,16.6214001 C93.8853701,15.7499015 95.0797601,15.3137938 96.5307753,15.3137938 C98.4744542,15.3137938 99.9485409,15.9079323 100.95268,17.0958509 C101.95682,18.2848445 102.459067,20.1869477 102.459067,22.8032354 L102.459067,32.0005563 C102.459067,32.2313314 102.273786,32.4183883 102.045201,32.4183883 L100.054669,32.4183883 Z" id="Fill-7"></path>
                    <path d="M8.74655506,27.7044119 C10.6036274,27.7044119 11.9967866,27.034304 12.9253227,25.6930131 C13.8535039,24.3520805 14.3184819,22.7882565 14.3184819,21.0001075 C14.3184819,19.2126752 13.8698314,17.6431176 12.9739502,16.2903596 C12.077714,14.9386767 10.7874889,14.2628352 9.10291986,14.2628352 L6.048618,14.2628352 C5.42746423,14.2628352 4.92379725,14.7713289 4.92379725,15.3984352 L4.92379725,26.5688119 C4.92379725,27.1959183 5.42746423,27.7044119 6.048618,27.7044119 L8.74655506,27.7044119 Z M0,10.6886873 C0,10.061581 0.503666976,9.55308733 1.12482075,9.55308733 L8.35789027,9.55308733 C10.2579109,9.55308733 11.94248,9.87524082 13.4112424,10.5181144 C14.87965,11.1617047 16.0403202,12.0339201 16.893608,13.1347605 C17.7465409,14.2356009 18.3840221,15.4514705 18.8049869,16.780936 C19.2263066,18.1114765 19.436789,19.5176281 19.436789,21.0001075 C19.436789,22.0909142 19.3178824,23.1537699 19.0804242,24.1890329 C18.8426111,25.2246542 18.442943,26.2495252 17.8817749,27.2629291 C17.319897,28.2770496 16.6181707,29.159657 15.7762411,29.9121846 C14.9339566,30.6643539 13.8648622,31.2749763 12.5689579,31.7436935 C11.2734086,32.2127691 9.8262978,32.4467693 8.22833534,32.4467693 L1.12482075,32.4467693 C0.503666976,32.4467693 0,31.9382757 0,31.3111693 L0,10.6886873 Z" id="Fill-9"></path>
                    <path d="M22.4977284,31.311241 L22.4977284,10.688759 C22.4977284,10.0616527 23.0013953,9.55315899 23.6225491,9.55315899 L26.2970598,9.55315899 C26.9182136,9.55315899 27.4218805,10.0616527 27.4218805,10.688759 L27.4218805,31.311241 C27.4218805,31.9383473 26.9182136,32.446841 26.2970598,32.446841 L23.6225491,32.446841 C23.0013953,32.446841 22.4977284,31.9383473 22.4977284,31.311241" id="Fill-11"></path>
                    <path d="M39.5842845,27.7044119 C41.4413568,27.7044119 42.834516,27.034304 43.7630521,25.6930131 C44.6912333,24.3520805 45.1562113,22.7882565 45.1562113,21.0001075 C45.1562113,19.2126752 44.7075608,17.6431176 43.8116796,16.2903596 C42.9154434,14.9386767 41.6252183,14.2628352 39.9406492,14.2628352 L36.8863474,14.2628352 C36.2651936,14.2628352 35.7615266,14.7713289 35.7615266,15.3984352 L35.7615266,26.5688119 C35.7615266,27.1959183 36.2651936,27.7044119 36.8863474,27.7044119 L39.5842845,27.7044119 Z M30.8377294,10.6886873 C30.8377294,10.061581 31.3413964,9.55308733 31.9625501,9.55308733 L39.1956197,9.55308733 C41.0956403,9.55308733 42.7802094,9.87524082 44.2489718,10.5181144 C45.7173794,11.1617047 46.8780496,12.0339201 47.7313374,13.1347605 C48.5842703,14.2356009 49.2217515,15.4514705 49.6427163,16.780936 C50.064036,18.1114765 50.2745184,19.5176281 50.2745184,21.0001075 C50.2745184,22.0909142 50.1556118,23.1537699 49.9181536,24.1890329 C49.6803405,25.2246542 49.2806724,26.2495252 48.7195043,27.2629291 C48.1576263,28.2770496 47.4559001,29.159657 46.6139705,29.9121846 C45.771686,30.6643539 44.7025916,31.2749763 43.4066873,31.7436935 C42.111138,32.2127691 40.6640272,32.4467693 39.0660647,32.4467693 L31.9625501,32.4467693 C31.3413964,32.4467693 30.8377294,31.9382757 30.8377294,31.3111693 L30.8377294,10.6886873 Z" id="Fill-13"></path>
                    <path d="M118.145791,14.6517128 C117.524637,14.6517128 117.02097,14.1432191 117.02097,13.5161128 L117.02097,10.7923211 C117.02097,8.91781067 117.685072,7.51130071 119.013277,6.5738663 C120.341481,5.63643189 121.890816,5.16735634 123.661991,5.16735634 C125.432102,5.16735634 126.987116,5.61994795 128.326679,6.52441449 C129.665531,7.42959771 130.334958,8.73218719 130.334958,10.4328996 L130.334958,13.5161128 C130.334958,14.1432191 129.831646,14.6517128 129.210137,14.6517128 L126.12389,14.6517128 L126.12389,10.688759 C126.12389,10.0616527 125.620223,9.55315899 124.999069,9.55315899 L122.324559,9.55315899 C121.703405,9.55315899 121.199738,10.0616527 121.199738,10.688759 L121.199738,14.6517128 L118.145791,14.6517128 Z M129.210137,27.3482872 C129.831646,27.3482872 130.334958,27.8567809 130.334958,28.4838872 L130.334958,31.5674587 C130.334958,33.2678128 129.665531,34.5704023 128.326679,35.4755855 C126.987116,36.380052 125.432102,36.8326437 123.661991,36.8326437 C121.890816,36.8326437 120.341481,36.3635681 119.013277,35.426492 C117.685072,34.4886993 117.02097,33.0825477 117.02097,31.2076789 L117.02097,28.4838872 C117.02097,27.8567809 117.524637,27.3482872 118.145791,27.3482872 L121.199738,27.3482872 L121.199738,31.311241 C121.199738,31.9383473 121.703405,32.446841 122.324559,32.446841 L124.999069,32.446841 C125.620223,32.446841 126.12389,31.9383473 126.12389,31.311241 L126.12389,27.3482872 L129.210137,27.3482872 Z M133.875179,19.6230536 C134.496333,19.6230536 135,19.11456 135,18.4874536 L135,11.1850689 C135,9.26684015 134.680904,7.56612772 134.044488,6.08293162 C133.406652,4.6004522 132.543071,3.42865919 131.452325,2.56719423 C130.361933,1.70644597 129.157605,1.06285568 127.840759,0.637856747 C126.523203,0.212499467 125.130044,0 123.661991,0 C122.581539,0 121.528772,0.120046073 120.503336,0.359779873 C119.47719,0.599872019 118.462402,1.00301182 117.458262,1.56991596 C116.453768,2.13717845 115.579538,2.84527111 114.834154,3.69562732 C114.089124,4.54598353 113.484653,5.62532315 113.02003,6.93328783 C112.555762,8.24161085 112.323628,9.70223113 112.323628,11.3158654 L112.323628,18.4874536 C112.323628,19.11456 112.827295,19.6230536 113.448449,19.6230536 L121.199738,19.6230536 L121.199738,22.3773047 L113.448449,22.3773047 C112.827295,22.3773047 112.323628,22.88544 112.323628,23.5129047 L112.323628,30.6841346 C112.323628,32.2974105 112.555762,33.7583891 113.02003,35.0667122 C113.484653,36.3750352 114.089124,37.4540165 114.834154,38.3043727 C115.579538,39.1547289 116.453768,39.8628216 117.458262,40.4304424 C118.462402,40.9969882 119.47719,41.400128 120.503336,41.6402201 C121.528772,41.8799539 122.581539,42 123.661991,42 C125.130044,42 126.523203,41.7875005 127.840759,41.3625016 C129.157605,40.9371443 130.361933,40.2939124 131.452325,39.4328058 C132.543071,38.5713408 133.406652,37.3995478 134.044488,35.9170684 C134.680904,34.4342306 135,32.7331598 135,30.8149311 L135,23.5129047 C135,22.88544 134.496333,22.3773047 133.875179,22.3773047 L126.12389,22.3773047 L126.12389,19.6230536 L133.875179,19.6230536 Z" id="Fill-15"></path>
                </g>
            </g>
        </g>
    </g>
</svg>